<svg xmlns="http://www.w3.org/2000/svg" width="551.209" height="497.641" viewBox="0 0 551.209 497.641">
  <g id="Eating_together-amico" data-name="Eating together-amico" transform="translate(-13.67 -42.723)">
    <g id="freepik--Floor--inject-53" transform="translate(13.67 222.122)">
      <ellipse id="freepik--floor--inject-53-2" data-name="freepik--floor--inject-53" cx="275.605" cy="159.121" rx="275.605" ry="159.121" fill="#f5f5f5"/>
    </g>
    <g id="freepik--Shadow--inject-53" transform="translate(86.731 298.418)">
      <g id="freepik--shadow--inject-53-2" data-name="freepik--shadow--inject-53">
        <path id="Tracé_4596" data-name="Tracé 4596" d="M440.656,301.509l-59.482-34.389a7.736,7.736,0,0,0-6.384-.291L308.248,297.56c-1.806.827-1.864,2.33-.151,3.308l74.161,42.812a6.023,6.023,0,0,0,6.023-.315l52.574-37.977a2.144,2.144,0,0,0-.2-3.879Z" transform="translate(-38.37 -261.543)" fill="#e0e0e0"/>
        <path id="Tracé_4597" data-name="Tracé 4597" d="M77.707,301.509l59.482-34.389a7.736,7.736,0,0,1,6.384-.291l66.542,30.731c1.806.827,1.864,2.33.151,3.308L136.118,343.68a6.046,6.046,0,0,1-6.034-.315L77.509,305.388a2.155,2.155,0,0,1,.2-3.879Z" transform="translate(-76.386 -261.543)" fill="#e0e0e0"/>
        <path id="Tracé_4598" data-name="Tracé 4598" d="M81.526,377.761,269.84,486.2a6.536,6.536,0,0,0,5.953,0l192.823-111.4c1.654-.944,1.654-2.481,0-3.495L280.325,262.92a6.64,6.64,0,0,0-5.965,0L81.526,374.325C79.871,375.268,79.871,376.818,81.526,377.761Z" transform="translate(-75.743 -262.213)" fill="#e0e0e0"/>
      </g>
    </g>
    <g id="freepik--character-2--inject-53" transform="translate(298.309 42.723)">
      <path id="Tracé_4599" data-name="Tracé 4599" d="M369.361,107.63c-3.716.268-13.211-.8-18.872,6.209-6,7.409-26.689,37.278-26.689,37.278l-20.666-30.662-22.9-12.15c.874,10.741,28.192,56.908,32.327,62.535s8.83,10.485,17.8,3.052,29.6-35.846,29.6-35.846S373.077,107.362,369.361,107.63Z" transform="translate(-254.339 -32.017)" fill="#ffa8a7"/>
      <path id="Tracé_4600" data-name="Tracé 4600" d="M364.632,107.185s-11.3-1.468-17.684,2.726S322.88,140.7,322.88,140.7s1.526,12.943,16.705,16.705l21.528-28.367Z" transform="translate(-247.304 -32.131)" fill="#455a64"/>
      <path id="Tracé_4601" data-name="Tracé 4601" d="M288.517,112.529c7.328-4.229,19.222-4.229,26.561,0,3.658,2.12,5.487,4.881,5.487,7.654v3.495c0,2.784-1.817,5.557-5.487,7.677-7.339,4.24-19.233,4.24-26.561,0-3.67-2.109-5.487-4.881-5.487-7.642v-3.576C283,117.422,284.847,114.649,288.517,112.529Z" transform="translate(-253.877 -31.731)" fill="#ffbda7"/>
      <path id="Tracé_4602" data-name="Tracé 4602" d="M315.08,127.872c-7.339,4.229-19.233,4.229-26.561,0s-7.339-11.1,0-15.342,19.222-4.229,26.561,0S322.419,123.632,315.08,127.872Z" transform="translate(-253.879 -31.732)" fill="#f0997a"/>
      <path id="Tracé_4603" data-name="Tracé 4603" d="M288.517,108.7c7.328-4.229,19.222-4.229,26.561,0,3.658,2.12,5.487,4.881,5.487,7.654v3.553c0,2.784-1.817,5.557-5.487,7.677-7.339,4.24-19.233,4.24-26.561,0-3.67-2.109-5.487-4.881-5.487-7.642v-3.576C283,113.592,284.847,110.819,288.517,108.7Z" transform="translate(-253.877 -32.363)" fill="#b16668"/>
      <path id="Tracé_4604" data-name="Tracé 4604" d="M315.08,124.042c-7.339,4.24-19.233,4.24-26.561,0s-7.339-11.1,0-15.342,19.222-4.229,26.561,0S322.419,119.8,315.08,124.042Z" transform="translate(-253.879 -32.364)" fill="#9a4a4d"/>
      <path id="Tracé_4605" data-name="Tracé 4605" d="M288.119,111.41H314.75c2.959,4.334,2.959,11.23,2.959,12.581s-.151,2.213-2.33,1.724a58.9,58.9,0,0,0-27.819,0c-2.213.489-2.33-.373-2.33-1.724S285.148,115.744,288.119,111.41Z" transform="translate(-253.514 -31.393)" fill="#f0f0f0"/>
      <path id="Tracé_4606" data-name="Tracé 4606" d="M317.8,121.415a4.357,4.357,0,0,1-2.609,2c-1.06.268-2.178.175-3.262.338-2.225.338-3.728,1.852-5.732,2.656a5.953,5.953,0,0,1-2.668.419,9.32,9.32,0,0,1-2.936-.769c-1.5-.594-2.959-1.351-4.508-1.817a8.248,8.248,0,0,0-3.763-.326,5.056,5.056,0,0,1-3.1-.315c-1.852-.874-2.481-3.274-4.159-4.438-1.328-.932-3.273-1.1-4.054-2.5a2.947,2.947,0,0,1,.524-3.227,6.594,6.594,0,0,1,2.924-1.782,26.654,26.654,0,0,1,6.326-1.293c4.835-.489,9.681-.781,14.539-.909s9.436-.28,14.084,1.165a8.667,8.667,0,0,1,2.959,1.456,3.553,3.553,0,0,1,1.34,2.912,3.786,3.786,0,0,1-1.875,2.423c-.559.384-1.165.641-1.759,1.06a11.406,11.406,0,0,0-2.272,2.947Z" transform="translate(-254.255 -31.729)" fill="#ff6d00"/>
      <path id="Tracé_4607" data-name="Tracé 4607" d="M282.546,111.65a.28.28,0,0,1,0-.151c1.712-6.559,9.727-11.5,19.338-11.5s17.649,4.939,19.362,11.5a.279.279,0,0,1,0,.151,6.663,6.663,0,0,1,.3,2.225c-.082,2.854-2,5.685-5.767,7.84-7.7,4.438-20.165,4.438-27.866,0-3.751-2.155-5.685-4.986-5.767-7.84a6.664,6.664,0,0,1,.4-2.225Z" transform="translate(-254.022 -33.275)" fill="#ffbda7"/>
      <path id="Tracé_4608" data-name="Tracé 4608" d="M286.591,104.7l11.778-2.05s7.828,2.714,7.91,2.854,4.205,2.691,4.205,2.691c.711.606-.268,2.167-1.689,2.33a18.64,18.64,0,0,1-2.516,0s-2.481,2.528-8.061,2.994-9.459-1.934-11.58-2.633c-1.759-.582-2.854-1-3.868-.7A13.14,13.14,0,0,1,286.591,104.7Z" transform="translate(-253.92 -32.838)" fill="#f0997a"/>
      <path id="Tracé_4609" data-name="Tracé 4609" d="M286.513,117.5c4.9,3.739,17.474,4.974,25.338,1s8.155-10.683,5.708-13.8a12.675,12.675,0,0,1,3.728,5.965.279.279,0,0,1,0,.151,6.663,6.663,0,0,1,.3,2.225c-.082,2.854-2,5.685-5.767,7.84-7.7,4.438-20.165,4.438-27.866,0-3.751-2.155-5.685-4.986-5.767-7.84a6.662,6.662,0,0,1,.3-2.225S282.237,114.241,286.513,117.5Z" transform="translate(-254.016 -32.5)" fill="#f0997a"/>
      <path id="Tracé_4610" data-name="Tracé 4610" d="M282.619,113.214c-2.33.7-2.551-4.4-2.446-5a6.85,6.85,0,0,1,1.654-3.495c2.644-3.006,5.347-3.239,8.527-5.347a10.136,10.136,0,0,1,3.495-1.794,9.11,9.11,0,0,1,3.774.862c4.66,2.213,12.814,8.807,12.349,8.423a10.481,10.481,0,0,1,1.165,1.083c.466.629-.186,1.4-.641,1.7a5.1,5.1,0,0,1-4.124.606,16.484,16.484,0,0,1-6.908,2.516,16.974,16.974,0,0,1-8.667-.676C285.287,109.824,283.528,108.927,282.619,113.214Z" transform="translate(-254.352 -33.674)" fill="#ffa8a7"/>
      <g id="freepik--Boy--inject-53" transform="translate(0 78.05)">
        <path id="Tracé_4611" data-name="Tracé 4611" d="M408,223.378v86.265a2.423,2.423,0,0,0,1.1,1.9l2.947,1.689a2.4,2.4,0,0,0,2.178,0l2.947-1.689a2.423,2.423,0,0,0,1.1-1.9V223.378a1.258,1.258,0,0,0-1.27-1.258H409.27a1.258,1.258,0,0,0-1.27,1.258Z" transform="translate(-233.263 -91.181)" fill="#ff6d00"/>
        <path id="Tracé_4612" data-name="Tracé 4612" d="M408,223.378v86.265a2.423,2.423,0,0,0,1.1,1.9l2.947,1.689a2.4,2.4,0,0,0,2.178,0l2.947-1.689a2.423,2.423,0,0,0,1.1-1.9V223.378a1.258,1.258,0,0,0-1.27-1.258H409.27a1.258,1.258,0,0,0-1.27,1.258Z" transform="translate(-233.263 -91.181)" opacity="0.6"/>
        <path id="Tracé_4613" data-name="Tracé 4613" d="M416.248,222.12h-2.6a1.258,1.258,0,0,0-1.27,1.258V312.6c0,.7.489.979,1.083.629l2.947-1.689a2.423,2.423,0,0,0,1.1-1.9V223.378A1.258,1.258,0,0,0,416.248,222.12Z" transform="translate(-232.541 -91.181)" fill="#ff6d00"/>
        <path id="Tracé_4614" data-name="Tracé 4614" d="M416.248,222.12h-2.6a1.258,1.258,0,0,0-1.27,1.258V312.6c0,.7.489.979,1.083.629l2.947-1.689a2.423,2.423,0,0,0,1.1-1.9V223.378A1.258,1.258,0,0,0,416.248,222.12Z" transform="translate(-232.541 -91.181)" opacity="0.4"/>
        <path id="Tracé_4615" data-name="Tracé 4615" d="M365.49,247.82v86.265a2.33,2.33,0,0,0,1.1,1.887l2.936,1.7a2.423,2.423,0,0,0,2.19,0l2.936-1.7a2.33,2.33,0,0,0,1.1-1.887V247.82a1.258,1.258,0,0,0-1.258-1.27h-7.735a1.27,1.27,0,0,0-1.258,1.27Z" transform="translate(-240.275 -87.151)" fill="#ff6d00"/>
        <path id="Tracé_4616" data-name="Tracé 4616" d="M365.49,247.82v86.265a2.33,2.33,0,0,0,1.1,1.887l2.936,1.7a2.423,2.423,0,0,0,2.19,0l2.936-1.7a2.33,2.33,0,0,0,1.1-1.887V247.82a1.258,1.258,0,0,0-1.258-1.27h-7.735a1.27,1.27,0,0,0-1.258,1.27Z" transform="translate(-240.275 -87.151)" opacity="0.6"/>
        <path id="Tracé_4617" data-name="Tracé 4617" d="M373.754,246.55H371.18a1.27,1.27,0,0,0-1.27,1.27v89.224c0,.7.489.979,1.1.629l2.936-1.7a2.33,2.33,0,0,0,1.1-1.887V247.82a1.258,1.258,0,0,0-1.281-1.27Z" transform="translate(-239.546 -87.151)" fill="#ff6d00"/>
        <path id="Tracé_4618" data-name="Tracé 4618" d="M373.754,246.55H371.18a1.27,1.27,0,0,0-1.27,1.27v89.224c0,.7.489.979,1.1.629l2.936-1.7a2.33,2.33,0,0,0,1.1-1.887V247.82a1.258,1.258,0,0,0-1.281-1.27Z" transform="translate(-239.546 -87.151)" opacity="0.4"/>
        <path id="Tracé_4619" data-name="Tracé 4619" d="M369.728,207.063a4.66,4.66,0,0,1-4.019,5.161h-.571a4.66,4.66,0,0,1-4.59-4.054c-2.668-21.3,1.165-68.93,10.24-95.771.932-2.761,3.6-3.367,6.116-1.911h0c1.922,1.165,3.32,2.8,2.586,4.893C370.765,140.626,367.165,186.548,369.728,207.063Z" transform="translate(-241.228 -109.721)" fill="#455a64"/>
        <path id="Tracé_4620" data-name="Tracé 4620" d="M423.238,209.9a2.819,2.819,0,0,0,.92-.151,2.936,2.936,0,0,0,1.876-3.716c-6.827-20.748-40.366-39.2-62.022-39.2a2.947,2.947,0,1,0,0,5.825c19.595,0,50.477,17.055,56.43,35.158a2.959,2.959,0,0,0,2.8,2.085Z" transform="translate(-241.08 -100.306)" fill="#ff6d00"/>
        <path id="Tracé_4621" data-name="Tracé 4621" d="M425.972,186.492a2.878,2.878,0,0,0,.92-.151,2.947,2.947,0,0,0,1.876-3.716c-7.095-21.552-41.647-38.991-63.21-36.778a2.947,2.947,0,0,0,.606,5.825c19.105-1.945,50.792,13.875,57.013,32.758a2.924,2.924,0,0,0,2.8,2.062Z" transform="translate(-240.645 -103.794)" fill="#ff6d00"/>
        <path id="Tracé_4622" data-name="Tracé 4622" d="M431.976,168.606a3.005,3.005,0,0,0,1.165-.245,2.947,2.947,0,0,0,1.514-3.879c-10.147-23.113-46.249-42.09-65.773-39.375a2.947,2.947,0,0,0,.815,5.825c17.253-2.4,50.489,15.261,59.564,35.9a2.959,2.959,0,0,0,2.714,1.771Z" transform="translate(-240.103 -107.226)" fill="#ff6d00"/>
        <g id="Groupe_1324" data-name="Groupe 1324" transform="translate(119.532 66.494)" opacity="0.6">
          <path id="Tracé_4623" data-name="Tracé 4623" d="M423.238,209.9a2.819,2.819,0,0,0,.92-.151,2.936,2.936,0,0,0,1.876-3.716c-6.827-20.748-40.366-39.2-62.022-39.2a2.947,2.947,0,1,0,0,5.825c19.595,0,50.477,17.055,56.43,35.158a2.959,2.959,0,0,0,2.8,2.085Z" transform="translate(-360.612 -166.8)"/>
        </g>
        <g id="Groupe_1325" data-name="Groupe 1325" transform="translate(122.602 41.863)" opacity="0.6">
          <path id="Tracé_4624" data-name="Tracé 4624" d="M425.972,186.492a2.878,2.878,0,0,0,.92-.151,2.947,2.947,0,0,0,1.876-3.716c-7.095-21.552-41.647-38.991-63.21-36.778a2.947,2.947,0,0,0,.606,5.825c19.105-1.945,50.792,13.875,57.013,32.758a2.924,2.924,0,0,0,2.8,2.062Z" transform="translate(-363.247 -145.657)"/>
        </g>
        <g id="Groupe_1326" data-name="Groupe 1326" transform="translate(126.434 17.621)" opacity="0.6">
          <path id="Tracé_4625" data-name="Tracé 4625" d="M431.976,168.606a3.005,3.005,0,0,0,1.165-.245,2.947,2.947,0,0,0,1.514-3.879c-10.147-23.113-46.249-42.09-65.773-39.375a2.947,2.947,0,0,0,.815,5.825c17.253-2.4,50.489,15.261,59.564,35.9a2.959,2.959,0,0,0,2.714,1.771Z" transform="translate(-366.537 -124.847)"/>
        </g>
        <path id="Tracé_4626" data-name="Tracé 4626" d="M432.485,141.267a4.66,4.66,0,0,1,1.9,5.825c-10.636,24.848-16.239,55.219-16.239,88.467v4.52l-.349.361a1.876,1.876,0,0,1-1.4.571,5.546,5.546,0,0,1-1.934-.466,6.518,6.518,0,0,0-.944-.3,4.66,4.66,0,0,1-4.66-4.66c0-34.483,5.825-66.1,17.008-92.124a4.66,4.66,0,0,1,6.57-2.2Z" transform="translate(-233.121 -104.619)" fill="#ff6d00"/>
        <path id="Tracé_4627" data-name="Tracé 4627" d="M432.485,141.267a4.66,4.66,0,0,1,1.9,5.825c-10.636,24.848-16.239,55.219-16.239,88.467v4.52l-.349.361a1.876,1.876,0,0,1-1.4.571,5.546,5.546,0,0,1-1.934-.466,6.518,6.518,0,0,0-.944-.3,4.66,4.66,0,0,1-4.66-4.66c0-34.483,5.825-66.1,17.008-92.124a4.66,4.66,0,0,1,6.57-2.2Z" transform="translate(-233.121 -104.619)" opacity="0.4"/>
        <path id="Tracé_4628" data-name="Tracé 4628" d="M435.172,230.371v1.165a7.4,7.4,0,0,1-2.738,5.347l-49.173,35.543a5.615,5.615,0,0,1-5.638.291L308.262,232.7a6.454,6.454,0,0,1-2.912-5.056V226.48a5.755,5.755,0,0,1,3.052-4.788l62.243-28.739a7.281,7.281,0,0,1,5.976.268l55.627,32.153a6.431,6.431,0,0,1,2.924,5Z" transform="translate(-250.196 -96.077)" fill="#ff6d00"/>
        <path id="Tracé_4629" data-name="Tracé 4629" d="M435.172,230.371v1.165a7.4,7.4,0,0,1-2.738,5.347l-49.173,35.543a5.615,5.615,0,0,1-5.638.291L308.262,232.7a6.454,6.454,0,0,1-2.912-5.056V226.48a5.755,5.755,0,0,1,3.052-4.788l62.243-28.739a7.281,7.281,0,0,1,5.976.268l55.627,32.153a6.431,6.431,0,0,1,2.924,5Z" transform="translate(-250.196 -96.077)" opacity="0.4"/>
        <path id="Tracé_4630" data-name="Tracé 4630" d="M432,225.364l-55.626-32.153a7.281,7.281,0,0,0-5.976-.268l-62.208,28.739c-1.677.781-1.747,2.167-.14,3.1l69.361,40.039a5.638,5.638,0,0,0,5.638-.28l49.173-35.519a2.015,2.015,0,0,0-.221-3.658Z" transform="translate(-249.943 -96.079)" fill="#ff6d00"/>
        <rect id="Rectangle_23" data-name="Rectangle 23" width="13.642" height="23.73" transform="translate(92.736 230.531)" fill="#ffa8a7"/>
        <path id="Tracé_4631" data-name="Tracé 4631" d="M305.234,317.043l-14.224.757.338-2.866.117-2.132,1.316-20.853,15.506.536-2.2,20.818-.151,1.6Z" transform="translate(-252.561 -79.662)" fill="#ffa8a7"/>
        <path id="Tracé_4632" data-name="Tracé 4632" d="M341.448,325.132v-1.165c-1.759,0-8,13.211-13.979,18.639-4.753,4.345-13.106,10.275-12.908,14.387.256,5.3,7.828,7.654,14.352,6.128,5.1-1.165,12.383-4.287,15.878-8.061s4.66-8.725,6.454-11.2,6.034-5.231,6.99-8.085c.536-1.573-.1-5.009-.874-7.91-.687-2.668-1.445-5.592-2.33-5.347v1.643c-1.083,1.165-4.112,2.423-7.526,2.551C345.292,326.809,341.424,326.821,341.448,325.132Z" transform="translate(-248.677 -74.622)" fill="#263238"/>
        <path id="Tracé_4633" data-name="Tracé 4633" d="M296.92,309.85c-.722,0-1.4.909-3.134,2.481-2.109,1.887-6.57,3.67-9.8,4.928-5.405,2.109-19.257,4.345-24,5.976-2.959,1.025-2.644,5.5,1.165,8.353,2.831,2.12,12.232,4.788,20.969,3.658,4.741-.606,12.092-3.18,15.6-3.413,3.833-.245,10.857-.338,13.851-2.027s2.26-5.941,1.782-9.576c-.513-3.984-.466-10.019-1.771-9.879l-.151,1.608c-1.9,2.33-11.1,2.213-14.585,0Z" transform="translate(-258.005 -76.71)" fill="#263238"/>
        <path id="Tracé_4634" data-name="Tracé 4634" d="M414.728,200.422c3.04,21.423-1.06,25.536-21.424,46.062-10.939,11.032-34.681,29.951-34.681,29.951s3.926,8.551,4.077,23.893c.128,13.513-3.18,39.375-3.18,39.375s-8.248,4.6-14.562.582c0,0-14.667-71.062-13.479-76,.827-3.495,26.794-37.011,26.794-37.011l7.293-4.66-47.134,29.042s1.433,13,.466,21.307c-2,17.241-6.64,28.332-11.4,50.093,0,0-11.253,1.829-16.251-2.062,0,0-.3-74.487-.3-81.057,0-10,43.395-39.83,51.607-46.773,4.66-3.961,9.914-8.155,9.914-8.155Z" transform="translate(-252.572 -97.302)" fill="#455a64"/>
        <path id="Tracé_4635" data-name="Tracé 4635" d="M394.954,195.67c-.3,12.721-3.495,24.371-14.608,35.985C363.524,249.3,336.4,262.9,337.616,270.67s7.642,28.285,9.075,49.406c.408,5.883.582,12.745.629,19.571a20.785,20.785,0,0,0,4.508-1.7s3.308-25.862,3.18-39.375c-.151-15.342-4.077-23.893-4.077-23.893s23.742-18.919,34.681-29.951c20.363-20.526,24.464-24.639,21.423-46.062Z" transform="translate(-244.88 -95.544)" fill="#37474f"/>
        <path id="Tracé_4636" data-name="Tracé 4636" d="M361.681,219.88a44.269,44.269,0,0,1-15.144-18.08s.664,9.471,4.194,14.993c2.644,4.136-36.23,32.129-36.23,32.129Z" transform="translate(-248.686 -94.533)" fill="#263238"/>
      </g>
      <g id="freepik--Character--inject-53" transform="translate(95.625)">
        <path id="Tracé_4637" data-name="Tracé 4637" d="M386.526,107.5c.641.163,15.564,2.761,15.564,2.761,6.337,1.445,3.087,2.085,6.7,3.308l-1.165,45.165-.268,58.387c-9.821,10.694-59.238,5.825-65.3-16.9V131.882c0-10.927,6.069-24.045,22.821-25.012Z" transform="translate(-339.765 -32.142)" fill="#ff6d00"/>
        <path id="Tracé_4638" data-name="Tracé 4638" d="M407.356,215.35l.268-58.387.885-34.424-13.222-4.928c-3.332,10.671,1,32.223,3.308,42.032s.582,32.619-4.52,38.676-34.7,21.458-52.015.128C348.118,221.174,397.535,226.044,407.356,215.35Z" transform="translate(-339.765 -30.37)" opacity="0.1"/>
        <path id="Tracé_4639" data-name="Tracé 4639" d="M367.257,204.071c11.65-3.693,42.579-22.553,42.579-22.553L395.53,137.1s-2.12-19.711,2.877-27.318c10.729.827,14.4,6.372,16.17,14.317s18.3,59.413,17.043,64.585c-1.165,4.893-42.043,25.769-57.887,28.3C373.734,216.979,358.112,206.972,367.257,204.071Z" transform="translate(-336.082 -31.662)" fill="#ffa8a7"/>
        <path id="Tracé_4640" data-name="Tracé 4640" d="M390.779,109.212s-4.462,6.128-2.551,17.4a170.437,170.437,0,0,0,5.638,22.7c2.516,8.248,7.374,23.054,7.374,23.054s13.583,2.644,23.229-10.927c0,0-5.825-21.563-10.566-34.017C408.148,112.276,402.463,108.967,390.779,109.212Z" transform="translate(-332.228 -31.757)" fill="#455a64"/>
        <path id="Tracé_4641" data-name="Tracé 4641" d="M375.041,175.72H346.5l2.167,33.632h0c.14,1.165,1.281,2.435,3.495,3.367a25.28,25.28,0,0,0,17.125,0c2.26-.932,3.495-2.144,3.576-3.367h0Z" transform="translate(-339.033 -20.785)" fill="#fafafa"/>
        <path id="Tracé_4642" data-name="Tracé 4642" d="M346.47,175.755l.443,6.827a12.81,12.81,0,0,0,2.33,1.281c6.174,2.551,16.309,2.551,22.74,0,.28-.117.513-.233.757-.349a14.136,14.136,0,0,0,1.794-1l.431-6.792Z" transform="translate(-339.038 -20.785)" fill="#e0e0e0"/>
        <path id="Tracé_4643" data-name="Tracé 4643" d="M375.6,177.7v-4.73h-3.052c-.408-.21-.862-.419-1.351-.617-5.825-2.33-15.226-2.33-20.9,0-.478.2-.9.408-1.293.617H346v4.73h0c0,1.538,1.421,3.075,4.264,4.252,5.673,2.33,15.028,2.33,20.9,0C374.134,180.78,375.6,179.219,375.6,177.7Z" transform="translate(-339.115 -21.628)" fill="#37474f"/>
        <path id="Tracé_4644" data-name="Tracé 4644" d="M371.192,169.247c-5.825-2.33-15.226-2.33-20.9,0s-5.685,6.163,0,8.5,15.028,2.33,20.9,0S377.064,171.577,371.192,169.247Z" transform="translate(-339.11 -22.141)" fill="#455a64"/>
        <path id="Tracé_4645" data-name="Tracé 4645" d="M371.3,171.947h0l-1.165-3.157H350.459l-1.165,3.157h0c-.443,1.223.582,2.516,3.1,3.495a26.2,26.2,0,0,0,15.715,0C370.694,174.463,371.754,173.17,371.3,171.947Z" transform="translate(-338.588 -21.928)" fill="#37474f"/>
        <path id="Tracé_4646" data-name="Tracé 4646" d="M367.063,167.052a23.3,23.3,0,0,0-13.979,0c-3.8,1.433-3.8,3.739,0,5.172a23.45,23.45,0,0,0,13.979,0C370.989,170.791,370.989,168.485,367.063,167.052Z" transform="translate(-338.417 -22.392)" fill="#455a64"/>
        <path id="Tracé_4647" data-name="Tracé 4647" d="M368.415,169.445a1.371,1.371,0,0,1-.431.489,6.316,6.316,0,0,1-1.619.815,20.212,20.212,0,0,1-6.57.99,19.315,19.315,0,0,1-6.466-.979,5.673,5.673,0,0,1-1.561-.827c-.314-.256-.408-.443-.408-.489s.338-.7,1.969-1.316a19.315,19.315,0,0,1,6.465-.979,19.9,19.9,0,0,1,6.57.99C368.042,168.723,368.415,169.306,368.415,169.445Z" transform="translate(-338.231 -22.199)" fill="#37474f"/>
        <path id="Tracé_4648" data-name="Tracé 4648" d="M367.966,169.8a6.314,6.314,0,0,1-1.619.815,20.211,20.211,0,0,1-6.57.99,19.316,19.316,0,0,1-6.466-.979,5.673,5.673,0,0,1-1.561-.827,5.721,5.721,0,0,1,1.561-.815,19.291,19.291,0,0,1,6.465-.99,20.211,20.211,0,0,1,6.57.99,6.315,6.315,0,0,1,1.619.815Z" transform="translate(-338.167 -22.06)" fill="#263238"/>
        <path id="Tracé_4649" data-name="Tracé 4649" d="M362.38,169.669a2.027,2.027,0,0,1,1.549-.3c.291.163.058.559-.513.9a1.957,1.957,0,0,1-1.549.291C361.577,170.391,361.81,170,362.38,169.669Z" transform="translate(-336.518 -21.84)"/>
        <path id="Tracé_4650" data-name="Tracé 4650" d="M383.137,185.745c-2.551,1.293-9.2-1.165-9.2-1.165l-.338,5.137s-1.165,2.33-8.609,3.856-10.636-.827-14.131.2-1.293,9.11,1.34,12.337,17.591,7.922,33.7-4.031Z" transform="translate(-338.612 -19.323)" fill="#ffa8a7"/>
        <ellipse id="Ellipse_120" data-name="Ellipse 120" cx="18.697" cy="20.165" rx="18.697" ry="20.165" transform="translate(0 6.544)" fill="#263238"/>
        <path id="Tracé_4651" data-name="Tracé 4651" d="M391.4,79.15c1.841-10.31,2.213-14.97-.3-17.474a7.479,7.479,0,0,0-6.186-2.178l-1.678,18.639h0l-2.528,13.3-.256,11.65a5.662,5.662,0,0,0,5-3.495c1.445-2.866,4.392-14.236,5.51-18.639h.128c.117-.594.221-1.165.315-1.736Z" transform="translate(-333.433 -39.964)" fill="#263238"/>
        <path id="Tracé_4652" data-name="Tracé 4652" d="M387.179,83.165c1.165.722,2.947-1.619,4.45-3.192s6.407-3.716,8.854,1.433-2.155,12.2-6.011,13.409c-6.664,2.1-7.654-2.178-7.654-2.178l-.513,24s-4.357,10.659-16.158,12.267-9.32-8.155-5.487-12.9v-7.3s-6.023.909-8.958.454c-4.893-.757-7.98-4.66-9.459-9.914-2.388-8.5-3.495-16.006-2.062-31.768,1.654-18.406,24.336-18.861,35.857-11.65S387.179,83.165,387.179,83.165Z" transform="translate(-339.521 -41.277)" fill="#ffa8a7"/>
        <path id="Tracé_4653" data-name="Tracé 4653" d="M387.712,86.662c.606,0,2.936-3.856,4.45-5.242,2.109-1.911-.606-19.222-.606-19.222s2.12-6.57-2.027-10.916c-4.473-4.66-12.558-3.7-18.383-3.739a62.651,62.651,0,0,1-12.453-.932,44.058,44.058,0,0,1-7.782-2.551c-2.109-.885-4.485-1.876-6.594-.99a6.1,6.1,0,0,0-2.9,3.11c-2.726,5.732-.175,12.64,4.823,16.146a21.2,21.2,0,0,0,10.834,3.495c8.155.513,19.641-.8,22.658-1.165,2.26-.315,2.738,1.876,3.961,7.863C384.742,77.715,385.627,86.615,387.712,86.662Z" transform="translate(-340.054 -42.723)" fill="#263238"/>
        <path id="Tracé_4654" data-name="Tracé 4654" d="M384.336,61.489l7.363-3.961a4.054,4.054,0,0,0-5.568-1.841,4.392,4.392,0,0,0-1.794,5.8Z" transform="translate(-332.868 -40.663)" fill="#263238"/>
        <path id="Tracé_4655" data-name="Tracé 4655" d="M361.66,101.953s9.145-2.33,12.954-4.334a12.581,12.581,0,0,0,5.277-5.219,17.091,17.091,0,0,1-2.994,6.151c-2.8,3.576-15.238,6.3-15.238,6.3Z" transform="translate(-336.532 -34.529)" fill="#f28f8f"/>
        <path id="Tracé_4656" data-name="Tracé 4656" d="M361.39,77.12a2.19,2.19,0,1,0,2.19-2.33,2.225,2.225,0,0,0-2.19,2.33Z" transform="translate(-336.577 -37.433)" fill="#263238"/>
        <path id="Tracé_4657" data-name="Tracé 4657" d="M363.17,69.3l5.2,1.281a2.808,2.808,0,0,0-2.015-3.32,2.621,2.621,0,0,0-3.18,2.039Z" transform="translate(-336.283 -38.687)" fill="#263238"/>
        <path id="Tracé_4658" data-name="Tracé 4658" d="M360.708,89.22l-5,1.876a2.621,2.621,0,0,0,3.39,1.654,2.8,2.8,0,0,0,1.608-3.53Z" transform="translate(-337.513 -35.053)" fill="#f28f8f"/>
        <path id="Tracé_4659" data-name="Tracé 4659" d="M345.538,70.128l5.068-1.876a2.6,2.6,0,0,0-3.343-1.631,2.842,2.842,0,0,0-1.724,3.507Z" transform="translate(-339.212 -38.806)" fill="#263238"/>
        <path id="Tracé_4660" data-name="Tracé 4660" d="M347,76.21a2.19,2.19,0,1,0,2.19-2.33A2.225,2.225,0,0,0,347,76.21Z" transform="translate(-338.951 -37.583)" fill="#263238"/>
        <path id="Tracé_4661" data-name="Tracé 4661" d="M357.214,75.39,356.5,88.554l-6.873-2.342Z" transform="translate(-338.516 -37.334)" fill="#f28f8f"/>
      </g>
    </g>
    <g id="freepik--character-1--inject-53" transform="translate(77.242 48.368)">
      <path id="Tracé_4662" data-name="Tracé 4662" d="M137.362,111.61c3.716.268,10.368,0,13.886,5.324,5.231,7.968,23.637,37.733,23.637,37.733l20.666-30.662,22.891-12.15c-.9,10.694-28.192,56.908-32.351,62.535s-8.83,10.485-17.812,3.052-29.6-35.846-29.6-35.846S133.669,111.342,137.362,111.61Z" transform="translate(-57.062 -37.005)" fill="#ffa8a7"/>
      <path id="Tracé_4663" data-name="Tracé 4663" d="M203.808,116.109c-7.339-4.229-19.233-4.229-26.573,0-3.658,2.12-5.475,4.881-5.475,7.654v3.495c0,2.784,1.806,5.557,5.475,7.677,7.339,4.24,19.233,4.24,26.573,0,3.658-2.109,5.487-4.881,5.487-7.642v-3.576C209.318,121,207.477,118.229,203.808,116.109Z" transform="translate(-51.164 -36.786)" fill="#ffbda7"/>
      <ellipse id="Ellipse_121" data-name="Ellipse 121" cx="18.791" cy="10.846" rx="18.791" ry="10.846" transform="translate(120.572 76.154)" fill="#f0997a"/>
      <path id="Tracé_4664" data-name="Tracé 4664" d="M203.808,112.279c-7.339-4.229-19.233-4.229-26.573,0-3.658,2.12-5.475,4.881-5.475,7.654v3.495c0,2.784,1.806,5.568,5.475,7.689,7.339,4.229,19.233,4.229,26.573,0,3.658-2.12,5.487-4.893,5.487-7.654v-3.576C209.318,117.137,207.477,114.4,203.808,112.279Z" transform="translate(-51.164 -37.418)" fill="#b16668"/>
      <path id="Tracé_4665" data-name="Tracé 4665" d="M177.239,127.622c7.339,4.24,19.233,4.24,26.573,0s7.339-11.1,0-15.342-19.233-4.229-26.573,0S169.911,123.382,177.239,127.622Z" transform="translate(-51.168 -37.418)" fill="#9a4a4d"/>
      <path id="Tracé_4666" data-name="Tracé 4666" d="M203.491,115H176.861c-2.971,4.334-2.971,11.23-2.971,12.581s.163,2.213,2.33,1.736a69.643,69.643,0,0,1,13.91-1.678,69.76,69.76,0,0,1,13.91,1.678c2.2.478,2.33-.384,2.33-1.736S206.45,119.322,203.491,115Z" transform="translate(-50.813 -36.446)" fill="#f0f0f0"/>
      <path id="Tracé_4667" data-name="Tracé 4667" d="M175.3,125.008a4.334,4.334,0,0,0,2.609,1.98c1.06.268,2.178.175,3.25.338,2.237.338,3.739,1.852,5.732,2.656a6.186,6.186,0,0,0,2.668.431,9.6,9.6,0,0,0,2.947-.781c1.5-.594,2.947-1.351,4.5-1.817a8.248,8.248,0,0,1,3.763-.326,5.021,5.021,0,0,0,3.11-.315c1.852-.874,2.481-3.274,4.159-4.438,1.316-.932,3.274-1.1,4.054-2.5a2.971,2.971,0,0,0-.524-3.227,6.733,6.733,0,0,0-2.936-1.782,26.527,26.527,0,0,0-6.326-1.281c-4.823-.5-9.681-.792-14.527-.92s-9.448-.28-14.084,1.165a8.388,8.388,0,0,0-2.959,1.468,3.5,3.5,0,0,0-1.34,2.9,3.763,3.763,0,0,0,1.864,2.423c.571.384,1.165.641,1.771,1.06a11.789,11.789,0,0,1,2.272,2.971Z" transform="translate(-51.556 -36.785)" fill="#ff6d00"/>
      <path id="Tracé_4668" data-name="Tracé 4668" d="M210.035,115.18a.408.408,0,0,0,0-.151c-1.712-6.559-9.727-11.5-19.35-11.5s-17.637,4.939-19.362,11.5a.408.408,0,0,0,0,.151,6.71,6.71,0,0,0-.3,2.225c.082,2.854,2,5.685,5.767,7.84,7.689,4.438,20.165,4.438,27.866,0,3.74-2.155,5.673-4.986,5.755-7.84a6.15,6.15,0,0,0-.373-2.225Z" transform="translate(-51.287 -38.338)" fill="#ffbda7"/>
      <path id="Tracé_4669" data-name="Tracé 4669" d="M204.418,108.29l-11.778-2.05s-7.84,2.714-7.922,2.854-4.205,2.691-4.205,2.691c-.711.617.28,2.167,1.689,2.33a16.542,16.542,0,0,0,2.516,0s2.493,2.528,8.061,2.994,9.459-1.934,11.591-2.633c1.759-.582,2.842-1,3.856-.7a13.012,13.012,0,0,0-3.809-5.487Z" transform="translate(-49.759 -37.891)" fill="#f0997a"/>
      <path id="Tracé_4670" data-name="Tracé 4670" d="M206.079,121.083c-4.916,3.739-17.474,4.974-25.338,1.014s-8.213-10.694-5.708-13.816a12.7,12.7,0,0,0-3.74,5.965.408.408,0,0,0,0,.151,6.71,6.71,0,0,0-.3,2.225c.082,2.854,2,5.685,5.767,7.84,7.689,4.438,20.165,4.438,27.866,0,3.74-2.155,5.673-4.986,5.755-7.84a6.15,6.15,0,0,0-.3-2.225S210.354,117.821,206.079,121.083Z" transform="translate(-51.292 -37.554)" fill="#f0997a"/>
      <path id="Tracé_4671" data-name="Tracé 4671" d="M208.812,116.794c2.33.7,2.54-4.4,2.446-5a6.827,6.827,0,0,0-1.666-3.495c-2.633-3.006-5.335-3.239-8.527-5.347a10.135,10.135,0,0,0-3.553-1.794,9.1,9.1,0,0,0-3.763.862c-4.66,2.213-12.814,8.807-12.36,8.423a13.628,13.628,0,0,0-1.165,1.083c-.478.629.175,1.4.629,1.7a5.138,5.138,0,0,0,4.136.606,16.31,16.31,0,0,0,6.9,2.516,17.02,17.02,0,0,0,8.679-.676C206.132,113.4,207.95,112.507,208.812,116.794Z" transform="translate(-49.796 -38.729)" fill="#ffa8a7"/>
      <path id="Tracé_4672" data-name="Tracé 4672" d="M92.8,225.007v86.206a2.423,2.423,0,0,1-1.1,1.9l-2.947,1.782a2.4,2.4,0,0,1-2.19,0l-2.947-1.689a2.446,2.446,0,0,1-1.083-1.9V225.1a1.258,1.258,0,0,1,1.258-1.27h7.724a1.258,1.258,0,0,1,1.281,1.177Z" transform="translate(-65.882 -18.494)" fill="#ff6d00"/>
      <path id="Tracé_4673" data-name="Tracé 4673" d="M92.8,225.007v86.206a2.423,2.423,0,0,1-1.1,1.9l-2.947,1.782a2.4,2.4,0,0,1-2.19,0l-2.947-1.689a2.446,2.446,0,0,1-1.083-1.9V225.1a1.258,1.258,0,0,1,1.258-1.27h7.724a1.258,1.258,0,0,1,1.281,1.177Z" transform="translate(-65.882 -18.494)" opacity="0.6"/>
      <path id="Tracé_4674" data-name="Tracé 4674" d="M83.8,223.75h2.6a1.27,1.27,0,0,1,1.328,1.27v89.224c0,.7-.489.979-1.1.629l-2.947-1.689a2.446,2.446,0,0,1-1.083-1.9V225.078a1.258,1.258,0,0,1,1.2-1.328Z" transform="translate(-65.872 -18.507)" fill="#ff6d00"/>
      <path id="Tracé_4675" data-name="Tracé 4675" d="M83.8,223.75h2.6a1.27,1.27,0,0,1,1.328,1.27v89.224c0,.7-.489.979-1.1.629l-2.947-1.689a2.446,2.446,0,0,1-1.083-1.9V225.078a1.258,1.258,0,0,1,1.2-1.328Z" transform="translate(-65.872 -18.507)" opacity="0.4"/>
      <path id="Tracé_4676" data-name="Tracé 4676" d="M135.288,249.443V335.65a2.4,2.4,0,0,1-1.1,1.887l-2.936,1.7a2.423,2.423,0,0,1-2.19,0l-2.912-1.584a2.4,2.4,0,0,1-1.1-1.887V249.56a1.258,1.258,0,0,1,1.258-1.27h7.735A1.258,1.258,0,0,1,135.288,249.443Z" transform="translate(-58.868 -14.459)" fill="#ff6d00"/>
      <path id="Tracé_4677" data-name="Tracé 4677" d="M135.288,249.443V335.65a2.4,2.4,0,0,1-1.1,1.887l-2.936,1.7a2.423,2.423,0,0,1-2.19,0l-2.912-1.584a2.4,2.4,0,0,1-1.1-1.887V249.56a1.258,1.258,0,0,1,1.258-1.27h7.735A1.258,1.258,0,0,1,135.288,249.443Z" transform="translate(-58.868 -14.459)" opacity="0.6"/>
      <path id="Tracé_4678" data-name="Tracé 4678" d="M126.3,248.19h2.609a1.258,1.258,0,0,1,1.258,1.27v89.224c0,.7-.489.979-1.1.629l-2.912-1.643a2.4,2.4,0,0,1-1.1-1.887V249.576a1.258,1.258,0,0,1,1.235-1.386Z" transform="translate(-58.869 -14.476)" fill="#ff6d00"/>
      <path id="Tracé_4679" data-name="Tracé 4679" d="M126.3,248.19h2.609a1.258,1.258,0,0,1,1.258,1.27v89.224c0,.7-.489.979-1.1.629l-2.912-1.643a2.4,2.4,0,0,1-1.1-1.887V249.576a1.258,1.258,0,0,1,1.235-1.386Z" transform="translate(-58.869 -14.476)" opacity="0.4"/>
      <path id="Tracé_4680" data-name="Tracé 4680" d="M132.41,208.7a4.66,4.66,0,0,0,4.019,5.161H137a4.66,4.66,0,0,0,4.6-4.054c2.656-21.3-1.165-68.93-10.252-95.782-.932-2.749-3.6-3.355-6.116-1.9h0c-1.922,1.165-3.308,2.8-2.586,4.893C131.408,142.266,135,188.188,132.41,208.7Z" transform="translate(-59.298 -37.046)" fill="#455a64"/>
      <path id="Tracé_4681" data-name="Tracé 4681" d="M85.417,211.539a2.82,2.82,0,0,1-.92-.151,2.947,2.947,0,0,1-1.876-3.716c6.827-20.748,40.366-39.2,62.022-39.2a2.947,2.947,0,1,1,0,5.883c-19.583,0-50.466,17.055-56.43,35.158a2.959,2.959,0,0,1-2.8,2.027Z" transform="translate(-65.892 -27.627)" fill="#ff6d00"/>
      <path id="Tracé_4682" data-name="Tracé 4682" d="M82.67,188.137a2.773,2.773,0,0,1-.92-.151,2.947,2.947,0,0,1-1.887-3.751c7.095-21.552,41.647-38.991,63.21-36.778a2.947,2.947,0,1,1-.606,5.825c-19.105-1.945-50.792,13.875-57,32.758A2.936,2.936,0,0,1,82.67,188.137Z" transform="translate(-66.349 -31.123)" fill="#ff6d00"/>
      <path id="Tracé_4683" data-name="Tracé 4683" d="M77.034,170.246A3.005,3.005,0,0,1,75.87,170a2.947,2.947,0,0,1-1.514-3.879c10.147-23.113,46.249-42.09,65.773-39.375a2.941,2.941,0,0,1-.815,5.825c-17.253-2.388-50.489,15.261-59.564,35.915A2.936,2.936,0,0,1,77.034,170.246Z" transform="translate(-67.272 -34.551)" fill="#ff6d00"/>
      <g id="Groupe_1327" data-name="Groupe 1327" transform="translate(16.581 140.838)" opacity="0.6">
        <path id="Tracé_4684" data-name="Tracé 4684" d="M85.417,211.539a2.82,2.82,0,0,1-.92-.151,2.947,2.947,0,0,1-1.876-3.716c6.827-20.748,40.366-39.2,62.022-39.2a2.947,2.947,0,1,1,0,5.883c-19.583,0-50.466,17.055-56.43,35.158a2.959,2.959,0,0,1-2.8,2.027Z" transform="translate(-82.474 -168.465)"/>
      </g>
      <g id="Groupe_1328" data-name="Groupe 1328" transform="translate(13.357 116.144)" opacity="0.6">
        <path id="Tracé_4685" data-name="Tracé 4685" d="M82.67,188.137a2.773,2.773,0,0,1-.92-.151,2.947,2.947,0,0,1-1.887-3.751c7.095-21.552,41.647-38.991,63.21-36.778a2.947,2.947,0,1,1-.606,5.825c-19.105-1.945-50.792,13.875-57,32.758A2.936,2.936,0,0,1,82.67,188.137Z" transform="translate(-79.706 -147.267)"/>
      </g>
      <g id="Groupe_1329" data-name="Groupe 1329" transform="translate(6.835 91.937)" opacity="0.6">
        <path id="Tracé_4686" data-name="Tracé 4686" d="M77.034,170.246A3.005,3.005,0,0,1,75.87,170a2.947,2.947,0,0,1-1.514-3.879c10.147-23.113,46.249-42.09,65.773-39.375a2.941,2.941,0,0,1-.815,5.825c-17.253-2.388-50.489,15.261-59.564,35.915A2.936,2.936,0,0,1,77.034,170.246Z" transform="translate(-74.107 -126.487)"/>
      </g>
      <path id="Tracé_4687" data-name="Tracé 4687" d="M70.512,142.915a4.66,4.66,0,0,0-1.9,5.825c10.636,24.848,16.239,55.219,16.239,88.467v4.45l.361.373a1.829,1.829,0,0,0,1.386.571,5.545,5.545,0,0,0,1.934-.466,6.522,6.522,0,0,1,.944-.3,4.66,4.66,0,0,0,4.66-4.66c0-34.483-5.825-66.1-17.02-92.124a4.66,4.66,0,0,0-6.559-2.2Z" transform="translate(-68.24 -31.951)" fill="#ff6d00"/>
      <path id="Tracé_4688" data-name="Tracé 4688" d="M70.512,142.915a4.66,4.66,0,0,0-1.9,5.825c10.636,24.848,16.239,55.219,16.239,88.467v4.45l.361.373a1.829,1.829,0,0,0,1.386.571,5.545,5.545,0,0,0,1.934-.466,6.522,6.522,0,0,1,.944-.3,4.66,4.66,0,0,0,4.66-4.66c0-34.483-5.825-66.1-17.02-92.124a4.66,4.66,0,0,0-6.559-2.2Z" transform="translate(-68.24 -31.951)" opacity="0.4"/>
      <path id="Tracé_4689" data-name="Tracé 4689" d="M82.55,232.043v1.165a7.339,7.339,0,0,0,2.726,5.335L134.449,274.1a5.638,5.638,0,0,0,5.638.291l69.361-40.051a6.419,6.419,0,0,0,2.912-5.044v-1.165a5.732,5.732,0,0,0-3.052-4.776l-62.243-28.739a7.258,7.258,0,0,0-5.965.268L85.462,227.034a6.454,6.454,0,0,0-2.912,5.009Z" transform="translate(-65.88 -23.398)" fill="#ff6d00"/>
      <path id="Tracé_4690" data-name="Tracé 4690" d="M82.55,232.043v1.165a7.339,7.339,0,0,0,2.726,5.335L134.449,274.1a5.638,5.638,0,0,0,5.638.291l69.361-40.051a6.419,6.419,0,0,0,2.912-5.044v-1.165a5.732,5.732,0,0,0-3.052-4.776l-62.243-28.739a7.258,7.258,0,0,0-5.965.268L85.462,227.034a6.454,6.454,0,0,0-2.912,5.009Z" transform="translate(-65.88 -23.398)" opacity="0.4"/>
      <path id="Tracé_4691" data-name="Tracé 4691" d="M85.23,227l55.638-32.153a7.258,7.258,0,0,1,5.965-.268l62.243,28.739c1.689.781,1.747,2.167.14,3.1l-69.361,40.039a5.638,5.638,0,0,1-5.638-.28L85.043,230.662A2.015,2.015,0,0,1,85.23,227Z" transform="translate(-65.647 -23.403)" fill="#ff6d00"/>
      <path id="Tracé_4692" data-name="Tracé 4692" d="M171.974,326.66c-1.165.454-1.549,3.017-1.841,4.881s-2.12,4.019,0,7.432,6.57,4.66,9.413,9.32,6.372,13.2,16.309,15.82,17.8-.326,19.8-3.239.478-5.825-5.825-9.821c-6.652-4.24-8.539-5.487-8.539-5.487Z" transform="translate(-51.599 -1.532)" fill="#263238"/>
      <path id="Tracé_4693" data-name="Tracé 4693" d="M183.861,309.33s4.229,13.7,6.885,20.014a69.187,69.187,0,0,0,11.358,18.29c1.072,1.246,3.495,3.553,4.392,4.567a1.934,1.934,0,0,1-.21,2.982c-2.19,2.1-11.5,2.574-16.694-1.34s-9.7-11.533-12.814-14.678c-1.549-1.573-3.006-3.087-4.077-4.194a4.217,4.217,0,0,1-1.037-4.019c.1-.408.233-.874.361-1.433.722-3.006-3.215-15.342-3.215-15.342Z" transform="translate(-51.651 -4.39)" fill="#ffa8a7"/>
      <path id="Tracé_4694" data-name="Tracé 4694" d="M95.972,189.685c-3.413,12.15-5.207,26.945-1.433,35.123,4.578,9.821,17.311,19.8,28.984,26.724s29.613,15.342,33.12,16.892,3.868,3.693,3.355,10.38,1.829,17.626,9.168,31.372a251.482,251.482,0,0,1,13.024,28.576c2.411,1.584,12.046,2.7,16.647-2.085,0,0-14.212-72.577-17.171-81.314s-35.764-37.08-35.764-37.08,11.055-19.338,13.677-29.4Z" transform="translate(-64.25 -24.261)" fill="#455a64"/>
      <path id="Tracé_4695" data-name="Tracé 4695" d="M170.2,293.339c-2.947-10.485-1.631-21.645-4.159-25.967S135.557,247.23,122.1,237.223c-12.418-9.238-16.309-28.7-12.57-47.763l-13.56.175c-3.413,12.1-5.207,26.9-1.433,35.077,4.578,9.821,17.311,19.8,28.984,26.724s29.613,15.342,33.12,16.892,3.868,3.693,3.355,10.38,1.829,17.626,9.168,31.372a251.482,251.482,0,0,1,13.024,28.576,15.145,15.145,0,0,0,7.968,1.328C183.634,326.144,172.113,300.084,170.2,293.339Z" transform="translate(-64.25 -24.163)" fill="#37474f"/>
      <path id="Tracé_4696" data-name="Tracé 4696" d="M199.7,308.14c-1.165.466-1.549,3.017-1.829,4.881s-2.132,4.019,0,7.432,6.57,4.66,9.424,9.32,6.361,13.211,16.309,15.832,17.812-.338,19.8-3.239.478-5.825-5.825-9.821c-6.652-4.24-8.539-5.487-8.539-5.487Z" transform="translate(-47.024 -4.587)" fill="#263238"/>
      <path id="Tracé_4697" data-name="Tracé 4697" d="M211.593,290.81s4.229,13.7,6.885,20.026a69.117,69.117,0,0,0,11.37,18.29c1.072,1.235,3.495,3.553,4.392,4.555a1.945,1.945,0,0,1-.221,2.994c-2.19,2.1-11.5,2.575-16.694-1.34s-9.7-11.533-12.814-14.69c-1.561-1.573-3.017-3.076-4.089-4.194a4.194,4.194,0,0,1-1.037-4.007c.1-.408.233-.885.361-1.445.722-3.006-3.215-15.331-3.215-15.331Z" transform="translate(-47.079 -7.445)" fill="#ffa8a7"/>
      <path id="Tracé_4698" data-name="Tracé 4698" d="M122.489,170.63c-5.184,11.2-3.017,23.509.349,33.784s16.869,21.61,28.541,28.53,26.794,16.67,30.289,18.231,3.763,3.716,4.66,10.368c.9,7.106,3.39,16.309,10.787,30.021,7.817,14.48,12.244,23.9,12.244,23.9a15.506,15.506,0,0,0,15.587-3.763s-12.477-66.2-15.436-74.953-52.574-43.29-52.574-43.29Z" transform="translate(-59.803 -27.269)" fill="#455a64"/>
      <path id="Tracé_4699" data-name="Tracé 4699" d="M168.967,239.947c-1.561-1.678-3.169-3.262-4.765-4.788-5.079-4.823-18.092-16.519-22.612-20.585a55.082,55.082,0,0,0,3.262-9.564s-2.586,4.66-4.858,8.155h0l-1.433,2.085-.221.315h0l.093.093c1,.862,9.774,8.481,18.395,16.81C161.08,235.1,165.32,237.745,168.967,239.947Z" transform="translate(-56.677 -21.598)" opacity="0.6"/>
      <path id="Tracé_4700" data-name="Tracé 4700" d="M155.583,159.614c.28,2.633-.722,9.716-.722,9.716,3.239,14.352,5.242,33.1,5.242,33.1-7.654,13.9-54.695,25.524-67.183,8.294,3.343-12.4,10.939-33.481,10.939-33.481l-5.93-24.2s11-15.307,1.6-36.277l15.144-2.33,21.074-3.087,8.726.361s10.927,12.5,14.515,21.423C161.21,138.622,165.24,148.221,155.583,159.614Z" transform="translate(-64.169 -37.048)" fill="#f0f0f0"/>
      <path id="Tracé_4701" data-name="Tracé 4701" d="M160.1,198.386s-7.747,7.258-14.748,5.825-24.93-22.938-27.2-29.357-6.652-34.226-8.5-38.944l-7.13,1.643a32.875,32.875,0,0,1-4.59,11.475l5.93,24.2s-7.6,21.086-10.939,33.481C105.408,223.9,152.426,212.273,160.1,198.386Z" transform="translate(-64.169 -32.997)" fill="#e0e0e0"/>
      <path id="Tracé_4702" data-name="Tracé 4702" d="M159.879,82.169c.117-18.639-12.616-34.448-31.745-34.6a34.774,34.774,0,0,0-25.478,10.764,4.217,4.217,0,0,0-.175-1.514,4.415,4.415,0,0,0-5.7-2.784l2,6.419a4.567,4.567,0,0,0-2.167-1.561,4.415,4.415,0,0,0-5.662,2.842l7.223,2.47A32.887,32.887,0,0,0,93.453,81h0c-.14,20.387,16.74,37.011,37.616,37.034h28.856Z" transform="translate(-64.493 -47.569)" fill="#37474f"/>
      <path id="Tracé_4703" data-name="Tracé 4703" d="M147.473,66.39c3.611,2,6.7,4.66,6.78,23.369,0,15.89-4.986,19.956-7.537,21.156s-7.549.652-12.418,0l.117,7.817s6.99,4.3,4.415,7.607c-2.668,3.495-7.467,3.984-13.653,2.458a24.953,24.953,0,0,1-11.836-6.99l-.466-22.018s-2.773,2.842-7.724-1.258c-4.089-3.378-5.592-9.226-2.575-12.465a6.99,6.99,0,0,1,11.125,1.9c10.4,0,12.348-11.941,13.013-19.163C132.456,62.849,141.438,77.166,147.473,66.39Z" transform="translate(-62.839 -44.464)" fill="#ffa8a7"/>
      <path id="Tracé_4704" data-name="Tracé 4704" d="M113.625,90.627l-2.575-8.481a4.3,4.3,0,0,1,5.568,2.784,4.66,4.66,0,0,1-2.994,5.7Z" transform="translate(-61.179 -41.907)" fill="#37474f"/>
      <path id="Tracé_4705" data-name="Tracé 4705" d="M130.2,82.643a1.992,1.992,0,1,1-2.144-1.922,2.039,2.039,0,0,1,2.144,1.922Z" transform="translate(-58.676 -42.101)" fill="#263238"/>
      <path id="Tracé_4706" data-name="Tracé 4706" d="M132.172,95l4.66,1.351a2.388,2.388,0,0,1-2.971,1.747,2.575,2.575,0,0,1-1.689-3.1Z" transform="translate(-57.708 -39.745)" fill="#f28f8f"/>
      <path id="Tracé_4707" data-name="Tracé 4707" d="M144.874,78.6l-4.124-2.691a2.33,2.33,0,0,1,3.343-.781,2.6,2.6,0,0,1,.78,3.472Z" transform="translate(-56.28 -43.09)" fill="#263238"/>
      <path id="Tracé_4708" data-name="Tracé 4708" d="M126.131,78.6l4.124-2.691a2.33,2.33,0,0,0-3.343-.781A2.6,2.6,0,0,0,126.131,78.6Z" transform="translate(-58.751 -43.09)" fill="#263238"/>
      <path id="Tracé_4709" data-name="Tracé 4709" d="M143.857,82.053A2,2,0,1,1,141.7,80.13,2.05,2.05,0,0,1,143.857,82.053Z" transform="translate(-56.428 -42.198)" fill="#263238"/>
      <path id="Tracé_4710" data-name="Tracé 4710" d="M134.93,81.05l.233,13.013,6.267-2.132Z" transform="translate(-57.24 -42.046)" fill="#f28f8f"/>
      <path id="Tracé_4711" data-name="Tracé 4711" d="M132.054,105.634c-5.126-.536-15.715-3.262-17.474-7.374a10.729,10.729,0,0,0,3.833,5.2c3.215,2.609,13.723,5.359,13.723,5.359Z" transform="translate(-60.596 -39.207)" fill="#f28f8f"/>
      <path id="Tracé_4712" data-name="Tracé 4712" d="M147.444,65.573s-2.691,15.54-24.324,16.006V64Z" transform="translate(-59.188 -44.858)" fill="#37474f"/>
      <path id="Tracé_4713" data-name="Tracé 4713" d="M180.934,237.37c-10.182-4.928-16.368-6.733-23.753-12.931s-42.4-40.063-42.4-40.063l-4.171-45.212s.431-14.946-10.123-23.194c-8.586,1.293-13.665,9.25-13.35,17.381s5.1,55.918,7.63,60.484c2.411,4.427,44.851,35.776,50.757,40.272h0c4.543,3.856,2.143,6.128,9.028,9.89,3.681,2,15.762,4.007,21.191,6.256,6.827,2.819,13.525-1.6,16.938-3.064C196.486,245.571,191.116,242.3,180.934,237.37Z" transform="translate(-65.126 -36.286)" fill="#ffa8a7"/>
    </g>
    <g id="freepik--Table--inject-53" transform="translate(89.532 166.366)">
      <g id="freepik--table--inject-53-2" data-name="freepik--table--inject-53" transform="translate(0 7.612)">
        <g id="freepik--table--inject-53-3" data-name="freepik--table--inject-53">
          <path id="Tracé_4714" data-name="Tracé 4714" d="M259.75,449.231a1.852,1.852,0,0,0,1.107,1.631,6.081,6.081,0,0,0,5.475,0,1.957,1.957,0,0,0,1.165-1.619h0l.1-119.582-7.735.1Z" transform="translate(-48.94 -126.647)" fill="#455a64"/>
          <path id="Tracé_4715" data-name="Tracé 4715" d="M263.41,451.482a5.521,5.521,0,0,0,2.33-.641,1.957,1.957,0,0,0,1.165-1.619h0l.1-119.582h-3.495Z" transform="translate(-48.336 -126.65)" fill="#37474f"/>
          <path id="Tracé_4716" data-name="Tracé 4716" d="M260.948,331.6a6.011,6.011,0,0,0,5.475,0c1.526-.874,1.549-2.33,0-3.157a6.011,6.011,0,0,0-5.475,0C259.469,329.329,259.446,330.738,260.948,331.6Z" transform="translate(-48.927 -126.956)" fill="#263238"/>
          <path id="Tracé_4717" data-name="Tracé 4717" d="M387.85,375.741a1.829,1.829,0,0,0,1.107,1.631,6.081,6.081,0,0,0,5.475,0,1.934,1.934,0,0,0,1.165-1.608h0l.1-119.594-7.747.1Z" transform="translate(-27.81 -138.769)" fill="#455a64"/>
          <path id="Tracé_4718" data-name="Tracé 4718" d="M391.51,377.992a5.475,5.475,0,0,0,2.33-.641A1.934,1.934,0,0,0,395,375.744h0l.1-119.594h-3.495Z" transform="translate(-27.206 -138.773)" fill="#37474f"/>
          <path id="Tracé_4719" data-name="Tracé 4719" d="M389.048,258.119a6.046,6.046,0,0,0,5.475,0c1.526-.874,1.549-2.33,0-3.157a6.081,6.081,0,0,0-5.475,0C387.569,255.836,387.546,257.245,389.048,258.119Z" transform="translate(-27.796 -139.076)" fill="#263238"/>
          <path id="Tracé_4720" data-name="Tracé 4720" d="M108.49,375.741a1.829,1.829,0,0,0,1.165,1.631,6.081,6.081,0,0,0,5.475,0,1.98,1.98,0,0,0,1.165-1.608h0l.1-119.594-7.747.1Z" transform="translate(-73.891 -138.769)" fill="#455a64"/>
          <path id="Tracé_4721" data-name="Tracé 4721" d="M112.14,377.992a5.534,5.534,0,0,0,2.33-.641,1.981,1.981,0,0,0,1.165-1.608h0l.1-119.594h-3.495Z" transform="translate(-73.289 -138.773)" fill="#37474f"/>
          <path id="Tracé_4722" data-name="Tracé 4722" d="M109.689,258.119a6.046,6.046,0,0,0,5.475,0c1.526-.874,1.538-2.33,0-3.157a6.1,6.1,0,0,0-5.487,0C108.2,255.836,108.186,257.245,109.689,258.119Z" transform="translate(-73.879 -139.076)" fill="#263238"/>
          <g id="freepik--Desk--inject-53">
            <path id="Tracé_4723" data-name="Tracé 4723" d="M78.79,273.819v-1.165a6.559,6.559,0,0,1,2.982-5.161L274.584,156.1a6.64,6.64,0,0,1,5.965,0L468.816,264.534a6.559,6.559,0,0,1,2.982,5.161v1.165a6.559,6.559,0,0,1-2.982,5.161L275.993,387.413a6.617,6.617,0,0,1-5.953,0L81.772,278.979a6.57,6.57,0,0,1-2.982-5.161Z" transform="translate(-78.79 -155.393)" fill="#ff6d00"/>
            <g id="Groupe_1330" data-name="Groupe 1330" opacity="0.65">
              <path id="Tracé_4724" data-name="Tracé 4724" d="M78.79,273.819v-1.165a6.559,6.559,0,0,1,2.982-5.161L274.584,156.1a6.64,6.64,0,0,1,5.965,0L468.816,264.534a6.559,6.559,0,0,1,2.982,5.161v1.165a6.559,6.559,0,0,1-2.982,5.161L275.993,387.413a6.617,6.617,0,0,1-5.953,0L81.772,278.979a6.57,6.57,0,0,1-2.982-5.161Z" transform="translate(-78.79 -155.393)" fill="#fff"/>
            </g>
            <path id="Tracé_4725" data-name="Tracé 4725" d="M273.023,364.122v8.073a6.338,6.338,0,0,1-2.982-.711L81.772,263.062A6.594,6.594,0,0,1,78.79,257.9v-1.165a6.605,6.605,0,0,1,2.435-4.776c-1.083.92-.9,2.2.548,3.052l188.315,108.4a5.918,5.918,0,0,0,2.936.711Z" transform="translate(-78.79 -139.464)" fill="#ff6d00"/>
            <g id="Groupe_1331" data-name="Groupe 1331" transform="translate(0 112.496)" opacity="0.5">
              <path id="Tracé_4726" data-name="Tracé 4726" d="M273.023,364.122v8.073a6.338,6.338,0,0,1-2.982-.711L81.772,263.062A6.594,6.594,0,0,1,78.79,257.9v-1.165a6.605,6.605,0,0,1,2.435-4.776c-1.083.92-.9,2.2.548,3.052l188.315,108.4a5.918,5.918,0,0,0,2.936.711Z" transform="translate(-78.79 -251.96)" fill="#fff"/>
            </g>
            <path id="Tracé_4727" data-name="Tracé 4727" d="M81.526,270.906,269.84,379.34a6.617,6.617,0,0,0,5.953,0l192.776-111.4c1.654-.944,1.654-2.493,0-3.437L280.325,156.1a6.64,6.64,0,0,0-5.965,0L81.526,267.47C79.871,268.413,79.871,269.963,81.526,270.906Z" transform="translate(-78.543 -155.393)" fill="#ff6d00"/>
            <g id="Groupe_1332" data-name="Groupe 1332" transform="translate(1.742)" opacity="0.8">
              <path id="Tracé_4728" data-name="Tracé 4728" d="M81.526,270.906,269.84,379.34a6.617,6.617,0,0,0,5.953,0l192.776-111.4c1.654-.944,1.654-2.493,0-3.437L280.325,156.1a6.64,6.64,0,0,0-5.965,0L81.526,267.47C79.871,268.413,79.871,269.963,81.526,270.906Z" transform="translate(-80.285 -155.393)" fill="#fff"/>
            </g>
          </g>
        </g>
      </g>
      <g id="freepik--Food--inject-53" transform="translate(118.93 0)">
        <g id="freepik--french-fries--inject-53" transform="translate(0 73.16)">
          <path id="Tracé_4729" data-name="Tracé 4729" d="M216.679,258.675l-27.365-15.8-1.759-2.738v-2.586l-6.081-2.563-.594-2.563,4.019-.664,2.61.186-.408-2.213,3.6-1.328,50.664,11.731,3.8,2.2a.617.617,0,0,1,0,1.072l-26.433,15.261a2.074,2.074,0,0,1-2.05,0Z" transform="translate(-180.88 -208.897)" opacity="0.1"/>
          <path id="Tracé_4730" data-name="Tracé 4730" d="M220.857,229.012,205.515,215.86l-2.609,2.027,2.609,3.495-4.438-2.9-2.33,1.934-2.132,1.165-3.227-1.876-2.33,1.654.338,1.491,4.194,2.33a12.44,12.44,0,0,1-2.19,1.06,24.711,24.711,0,0,1-3.262-2.19l-1.4,2.947,1.934,5.662-2.8.582.443,3.029,4.112,3.041-5.172,1.456,1.06,2.656s14.387,5.068,14.6,5.068C203.348,248.479,220.857,229.012,220.857,229.012Z" transform="translate(-179.828 -210.967)" fill="#b16668"/>
          <path id="Tracé_4731" data-name="Tracé 4731" d="M182.325,232.925l18.115,11.393,1.945-2.54L184.4,229.71l-2.388.652Z" transform="translate(-180.694 -208.683)" fill="#ffbda7"/>
          <path id="Tracé_4732" data-name="Tracé 4732" d="M182.01,230.27l19.7,12.3-1.27,1.654-18.115-11.393Z" transform="translate(-180.694 -208.59)" fill="#f0997a"/>
          <path id="Tracé_4733" data-name="Tracé 4733" d="M184.808,227.357l15.1,12.931,2.4-1.433L184.33,223.07Z" transform="translate(-180.311 -209.778)" fill="#f0997a"/>
          <path id="Tracé_4734" data-name="Tracé 4734" d="M184.33,223.177l3.087-.757,16.4,14.958-1.514,1.584Z" transform="translate(-180.311 -209.885)" fill="#ffbda7"/>
          <path id="Tracé_4735" data-name="Tracé 4735" d="M191.21,225.281l17.614,9.855V232.9L191.21,222.66Z" transform="translate(-179.176 -209.846)" fill="#f0997a"/>
          <path id="Tracé_4736" data-name="Tracé 4736" d="M191.21,222.8l2.889-.967,16.123,9.832-1.4,1.375Z" transform="translate(-179.176 -209.982)" fill="#ffbda7"/>
          <path id="Tracé_4737" data-name="Tracé 4737" d="M215.2,234.754,193.36,220.635V218.06l22.286,15.6Z" transform="translate(-178.821 -210.604)" fill="#f0997a"/>
          <path id="Tracé_4738" data-name="Tracé 4738" d="M193.36,218.174l2.947-.8,20.643,15.249-1.3,1.153Z" transform="translate(-178.821 -210.718)" fill="#ffbda7"/>
          <path id="Tracé_4739" data-name="Tracé 4739" d="M222.8,229.765l-19.874-12.4.652,2.738,17.94,11.638Z" transform="translate(-177.243 -210.718)" fill="#f0997a"/>
          <path id="Tracé_4740" data-name="Tracé 4740" d="M202.93,217.37h3.961l16.286,11.114-.373,1.281Z" transform="translate(-177.243 -210.718)" fill="#ffbda7"/>
          <path id="Tracé_4741" data-name="Tracé 4741" d="M182.28,211.66l.839,1.9s4,3.052,8.388,2.528,9.226-4.427,9.226-4.427Z" transform="translate(-180.649 -211.66)" fill="#f0997a"/>
          <path id="Tracé_4742" data-name="Tracé 4742" d="M182.28,211.66a17.94,17.94,0,0,0,7.339,2.167c4.532.408,11.114-2.167,11.114-2.167Z" transform="translate(-180.649 -211.66)" fill="#ffbda7"/>
          <path id="Tracé_4743" data-name="Tracé 4743" d="M195.707,236.954l20.084,15.459,23.66-13.653-20.084-15.471a16.927,16.927,0,0,0-17.393-1.165l-5.5,3.169C191.467,228.217,191.117,233.424,195.707,236.954Z" transform="translate(-178.967 -210.242)" fill="#ff6d00"/>
          <path id="Tracé_4744" data-name="Tracé 4744" d="M211.422,239.554a11.253,11.253,0,0,1-6.733-2.027,5.149,5.149,0,0,1-2.248-4.415,5.988,5.988,0,0,1,3.3-4.66c3.8-2.19,9.506-1.945,12.733.536a5.161,5.161,0,0,1,2.26,4.415,6,6,0,0,1-3.308,4.66,12.162,12.162,0,0,1-6,1.491Zm.338-11.393a11.056,11.056,0,0,0-5.44,1.351,4.9,4.9,0,0,0-2.726,3.67,4.019,4.019,0,0,0,1.806,3.413c2.889,2.225,8.015,2.435,11.44.454a4.869,4.869,0,0,0,2.726-3.67,4.019,4.019,0,0,0-1.806-3.4,9.96,9.96,0,0,0-6-1.806Z" transform="translate(-177.324 -209.137)" fill="#fafafa"/>
          <path id="Tracé_4745" data-name="Tracé 4745" d="M215.334,250.049v5.464L195.25,243.921V234.59Z" transform="translate(-178.51 -207.878)" fill="#ff6d00"/>
          <path id="Tracé_4746" data-name="Tracé 4746" d="M215.334,250.049v5.464L195.25,243.921V234.59Z" transform="translate(-178.51 -207.878)" opacity="0.15"/>
          <path id="Tracé_4747" data-name="Tracé 4747" d="M236.15,236.14V241.6l-23.66,13.653v-5.464Z" transform="translate(-175.666 -207.622)" fill="#ff6d00"/>
          <path id="Tracé_4748" data-name="Tracé 4748" d="M236.15,236.14V241.6l-23.66,13.653v-5.464Z" transform="translate(-175.666 -207.622)" opacity="0.3"/>
        </g>
        <g id="freepik--french-fries--inject-53-2" data-name="freepik--french-fries--inject-53" transform="translate(99.619 67.825)">
          <path id="Tracé_4749" data-name="Tracé 4749" d="M295.187,258.675l27.365-15.8,1.759-2.738v-2.586l6.081-2.563.582-2.563-4.007-.664-2.621.186.408-2.213-3.588-1.328L270.5,240.141l-3.8,2.2a.617.617,0,0,0,0,1.072l26.433,15.261A2.074,2.074,0,0,0,295.187,258.675Z" transform="translate(-266.393 -203.562)" opacity="0.1"/>
          <path id="Tracé_4750" data-name="Tracé 4750" d="M286.69,229.012l15.342-13.152,2.609,2.027-2.609,3.495,4.438-2.9,2.33,1.934,2.132,1.165,3.227-1.876,2.33,1.654-.338,1.491-4.205,2.33a12.439,12.439,0,0,0,2.19,1.06,24.705,24.705,0,0,0,3.262-2.19l1.41,2.947-1.945,5.662,2.8.582-.443,3.029-4.042,3.052,5.172,1.456-1.06,2.656s-14.387,5.068-14.6,5.068C304.2,248.479,286.69,229.012,286.69,229.012Z" transform="translate(-263.045 -205.632)" fill="#b16668"/>
          <path id="Tracé_4751" data-name="Tracé 4751" d="M320.739,227.215l-18.115,11.393-1.934-2.551L318.677,224l2.376.641Z" transform="translate(-260.736 -204.289)" fill="#ffbda7"/>
          <path id="Tracé_4752" data-name="Tracé 4752" d="M320.959,224.55l-19.7,12.3,1.27,1.666,18.115-11.393Z" transform="translate(-260.642 -204.198)" fill="#f0997a"/>
          <path id="Tracé_4753" data-name="Tracé 4753" d="M302.306,210.889l-23-.338,1.491-1.6,21.19-1.876,1.794,1.689Z" transform="translate(-264.263 -207.08)" fill="#ffbda7"/>
          <path id="Tracé_4754" data-name="Tracé 4754" d="M303.786,208.53l-24.476,1.782,1.643,1.864,21.354-1.526Z" transform="translate(-264.263 -206.841)" fill="#f0997a"/>
          <path id="Tracé_4755" data-name="Tracé 4755" d="M321.5,235.928l-18.861,6.279-1.689-2.237,22.612-7.84Z" transform="translate(-260.693 -202.948)" fill="#f0997a"/>
          <path id="Tracé_4756" data-name="Tracé 4756" d="M323.676,232.394,321.1,230.53l-20.841,7.677.8,2.027Z" transform="translate(-260.807 -203.212)" fill="#ffbda7"/>
          <path id="Tracé_4757" data-name="Tracé 4757" d="M314.674,225.691l-17.614,9.855V233.31l17.614-10.24Z" transform="translate(-261.335 -204.442)" fill="#f0997a"/>
          <path id="Tracé_4758" data-name="Tracé 4758" d="M314.872,223.207l-2.877-.967-16.135,9.832,1.4,1.375Z" transform="translate(-261.533 -204.579)" fill="#ffbda7"/>
          <path id="Tracé_4759" data-name="Tracé 4759" d="M305.15,220.746,289.5,233.5l-.384-2.213L304.7,218.16Z" transform="translate(-262.644 -205.252)" fill="#f0997a"/>
          <path id="Tracé_4760" data-name="Tracé 4760" d="M304.925,218.223l-3.006-.443L287.73,230.245l1.619,1.107Z" transform="translate(-262.874 -205.315)" fill="#ffbda7"/>
          <path id="Tracé_4761" data-name="Tracé 4761" d="M282.742,236.5l17.369-19.35-.664-2.481L282.02,235.546Z" transform="translate(-263.816 -205.828)" fill="#f0997a"/>
          <path id="Tracé_4762" data-name="Tracé 4762" d="M299.667,214.67h-3.052L280.69,234.789l1.549.757Z" transform="translate(-264.035 -205.828)" fill="#ffbda7"/>
          <path id="Tracé_4763" data-name="Tracé 4763" d="M295.43,229.3,315.3,216.9l-.652,2.738-17.94,11.638Z" transform="translate(-261.604 -205.46)" fill="#f0997a"/>
          <path id="Tracé_4764" data-name="Tracé 4764" d="M315.357,216.9H311.4L295.11,228.014l.373,1.281Z" transform="translate(-261.656 -205.46)" fill="#ffbda7"/>
          <path id="Tracé_4765" data-name="Tracé 4765" d="M313.732,236.954l-20.084,15.459L270,238.76l20.084-15.471a16.927,16.927,0,0,1,17.393-1.165l5.5,3.169C317.973,228.217,318.322,233.424,313.732,236.954Z" transform="translate(-265.798 -204.906)" fill="#ff6d00"/>
          <path id="Tracé_4766" data-name="Tracé 4766" d="M287.959,238.063a6,6,0,0,1-3.308-4.66,5.184,5.184,0,0,1,2.26-4.415c3.227-2.481,8.935-2.726,12.733-.536a6.023,6.023,0,0,1,3.308,4.66,5.184,5.184,0,0,1-2.26,4.415,11.253,11.253,0,0,1-6.733,2.027,12.162,12.162,0,0,1-6-1.491Zm-.338-8.085a4.019,4.019,0,0,0-1.806,3.4,4.87,4.87,0,0,0,2.726,3.67c3.425,1.98,8.551,1.771,11.44-.454a4.019,4.019,0,0,0,1.806-3.413,4.9,4.9,0,0,0-2.726-3.67,11.044,11.044,0,0,0-5.429-1.351A9.972,9.972,0,0,0,287.621,229.978Z" transform="translate(-263.382 -203.801)" fill="#fafafa"/>
          <path id="Tracé_4767" data-name="Tracé 4767" d="M290.3,250.049v5.464l20.084-11.591V234.59Z" transform="translate(-262.45 -202.542)" fill="#ff6d00"/>
          <path id="Tracé_4768" data-name="Tracé 4768" d="M290.3,250.049v5.464l20.084-11.591V234.59Z" transform="translate(-262.45 -202.542)" opacity="0.15"/>
          <path id="Tracé_4769" data-name="Tracé 4769" d="M269.99,236.14V241.6l23.66,13.653v-5.464Z" transform="translate(-265.8 -202.286)" fill="#ff6d00"/>
          <path id="Tracé_4770" data-name="Tracé 4770" d="M269.99,236.14V241.6l23.66,13.653v-5.464Z" transform="translate(-265.8 -202.286)" opacity="0.3"/>
        </g>
        <g id="freepik--Soda--inject-53" transform="translate(28.632)">
          <path id="Tracé_4771" data-name="Tracé 4771" d="M230.623,184.912c-5.825-2.563-15.238-2.563-20.911,0s-5.673,6.71,0,9.32,15.04,2.563,20.911,0S236.495,187.475,230.623,184.912Z" transform="translate(-205.457 -143.229)" opacity="0.1"/>
          <path id="Tracé_4772" data-name="Tracé 4772" d="M234.441,158.6H205.9l2.155,33.632h0c.128,1.223,1.281,2.435,3.495,3.367a25.28,25.28,0,0,0,17.125,0c2.248-.932,3.495-2.144,3.576-3.367h0Z" transform="translate(-205.384 -147.252)" fill="#fafafa"/>
          <path id="Tracé_4773" data-name="Tracé 4773" d="M223.391,184.1a3.32,3.32,0,0,1-2-.641c-1.223-.9-1.887-2.726-1.887-5.126,0-3.215,2.33-7.363,5.58-8.155a3.646,3.646,0,0,1,3.262.513c1.083.85,1.654,2.493,1.654,4.741s-1.06,7.2-5.079,8.434a5.325,5.325,0,0,1-1.526.233Zm2.9-12.931a4.065,4.065,0,0,0-.944.128c-2.679.664-4.66,4.264-4.66,6.99,0,1.992.513,3.495,1.41,4.182a2.691,2.691,0,0,0,2.493.221c3.378-1.037,4.264-5.231,4.264-7.316,0-1.887-.419-3.2-1.165-3.833a2.109,2.109,0,0,0-1.4-.373Z" transform="translate(-203.141 -145.372)" fill="#ff6d00"/>
          <path id="Tracé_4774" data-name="Tracé 4774" d="M208.055,192.256h0c.128,1.223,1.281,2.435,3.495,3.367a25.28,25.28,0,0,0,17.125,0,6.081,6.081,0,0,0,3.332-2.6,15.307,15.307,0,0,1-9.692,2.33c-5.534-.617-8.947-1.608-9.937-5.976-.85-3.728-2.866-24.464-3.4-30.708H205.9Z" transform="translate(-205.384 -147.24)" fill="#f0f0f0"/>
          <path id="Tracé_4775" data-name="Tracé 4775" d="M205.9,158.635l.431,6.827a13.327,13.327,0,0,0,2.33,1.281c6.174,2.551,16.309,2.551,22.74,0,.28-.117.5-.233.757-.35a15.231,15.231,0,0,0,1.794-1l.431-6.792Z" transform="translate(-205.384 -147.252)" fill="#e0e0e0"/>
          <path id="Tracé_4776" data-name="Tracé 4776" d="M235.027,160.585v-4.73h-3.064c-.408-.21-.85-.419-1.34-.617-5.825-2.33-15.238-2.33-20.911,0-.466.2-.885.408-1.281.617H205.46v4.73h0c0,1.538,1.421,3.075,4.252,4.252,5.673,2.33,15.04,2.33,20.911,0C233.559,163.66,235.027,162.122,235.027,160.585Z" transform="translate(-205.457 -148.095)" fill="#37474f"/>
          <path id="Tracé_4777" data-name="Tracé 4777" d="M230.623,152.117c-5.825-2.33-15.238-2.33-20.911,0s-5.673,6.163,0,8.5,15.04,2.33,20.911,0S236.495,154.459,230.623,152.117Z" transform="translate(-205.457 -148.61)" fill="#455a64"/>
          <path id="Tracé_4778" data-name="Tracé 4778" d="M230.718,154.827h0l-1.165-3.157H209.889l-1.165,3.157h0c-.443,1.223.582,2.516,3.087,3.495a26.247,26.247,0,0,0,15.727,0C230.124,157.343,231.2,156.05,230.718,154.827Z" transform="translate(-204.935 -148.395)" fill="#37474f"/>
          <path id="Tracé_4779" data-name="Tracé 4779" d="M226.493,149.932a23.3,23.3,0,0,0-13.979,0c-3.8,1.433-3.8,3.74,0,5.172a23.45,23.45,0,0,0,13.979,0C230.419,153.683,230.419,151.353,226.493,149.932Z" transform="translate(-204.763 -148.859)" fill="#455a64"/>
          <path id="Tracé_4780" data-name="Tracé 4780" d="M227.885,152.326a1.165,1.165,0,0,1-.443.489,6.186,6.186,0,0,1-1.608.815,20.258,20.258,0,0,1-6.57.99,19.385,19.385,0,0,1-6.477-.979,5.382,5.382,0,0,1-1.549-.827c-.326-.256-.408-.443-.408-.489s.338-.7,1.957-1.316a19.385,19.385,0,0,1,6.477-.979,19.944,19.944,0,0,1,6.57.99C227.466,151.6,227.873,152.209,227.885,152.326Z" transform="translate(-204.571 -148.666)" fill="#37474f"/>
          <path id="Tracé_4781" data-name="Tracé 4781" d="M227.385,152.676a6.187,6.187,0,0,1-1.608.815,20.257,20.257,0,0,1-6.57.99,19.385,19.385,0,0,1-6.477-.979,5.382,5.382,0,0,1-1.549-.827,5.429,5.429,0,0,1,1.549-.815,19.373,19.373,0,0,1,6.477-.99,20.259,20.259,0,0,1,6.57.99,6.187,6.187,0,0,1,1.608.815Z" transform="translate(-204.514 -148.527)" fill="#263238"/>
          <path id="Tracé_4782" data-name="Tracé 4782" d="M221.813,152.548a1.957,1.957,0,0,1,1.549-.291c.291.151,0,.548-.513.885a1.992,1.992,0,0,1-1.561.291C220.974,153.271,221.242,152.875,221.813,152.548Z" transform="translate(-202.868 -148.307)"/>
        </g>
      </g>
    </g>
  </g>
</svg>
