<svg id="Take_Away-bro" data-name="Take Away-bro" xmlns="http://www.w3.org/2000/svg" xmlns:xlink="http://www.w3.org/1999/xlink" width="568.089" height="498.141" viewBox="0 0 568.089 498.141">
  <defs>
    <clipPath id="clip-path">
      <rect id="Rectangle_14" data-name="Rectangle 14" width="525.026" height="169.076" fill="#fff" stroke="#263238" stroke-linecap="round" stroke-linejoin="round" stroke-width="1"/>
    </clipPath>
    <clipPath id="clip-path-2">
      <rect id="Rectangle_17" data-name="Rectangle 17" width="184.064" height="169.076" fill="#fff" stroke="#263238" stroke-linecap="round" stroke-linejoin="round" stroke-width="1"/>
    </clipPath>
    <clipPath id="clip-path-3">
      <path id="Tracé_4542" data-name="Tracé 4542" d="M285.989,160.964s35.087,33.9,36.663,50.85-24.446,30.752-16.946,36.269,27.967,20.111,20.1,32.722-11.823,15.776-9.064,18.535,9.458,5.085,9.064,11.823-8.276,12.522-8.276,12.522H192.946s-6.7.394-5.911-9.064,14.187-14.581,11.823-21.688-19.717-12.611-19.717-26.811,20.505-20.1,23.658-26.8-10.246-11.047-13-19.717,11.441-23.658,20.1-31.54,43.375-30.752,57.206-31.54S285.989,160.964,285.989,160.964Z" transform="translate(-179.14 -156.446)" fill="#263238" stroke="#263238" stroke-linecap="round" stroke-linejoin="round" stroke-width="1"/>
    </clipPath>
    <clipPath id="clip-path-4">
      <path id="Tracé_4554" data-name="Tracé 4554" d="M321.82,404.516c-5.822-4.538-13.386-12-17.009-22.171-5.632-15.776-9.776-100.429-10.64-119.5-3.013-.915-6.038-1.831-9.013-2.708l1.271,79.618H229.858l-4.945-79.212c-3.013.928-6.051,1.881-9.026,2.822.064,16.081.064,91.1-4.462,112.62-3.471,16.526-17.925,27.675-26.7,33.053a231.049,231.049,0,0,1-12.039,50.176H334.774a187.05,187.05,0,0,1-12.954-54.7Z" transform="translate(-172.69 -260.14)" fill="#263238" stroke="#263238" stroke-linecap="round" stroke-linejoin="round" stroke-width="1"/>
    </clipPath>
    <clipPath id="clip-path-5">
      <path id="Tracé_4571" data-name="Tracé 4571" d="M201.279,219.153s61.9-25.628,76.885-37.464,18.916-34.692-16.17-33.51-72.143,42.193-75.3,61.109,9.42,14.95,9.42,14.95" transform="translate(-186.191 -148.135)" fill="#263238" stroke="#263238" stroke-linecap="round" stroke-linejoin="round" stroke-width="1"/>
    </clipPath>
  </defs>
  <g id="freepik--background-simple--inject-8" transform="translate(0 0)">
    <path id="Tracé_4480" data-name="Tracé 4480" d="M415.286,37.341s-93.373-27.5-185.577,28.107S90.494,224.774,50.158,307.977,32.182,472.706,102.05,506.941s117.934-23.658,216.329-31.2,124.761,4.716,206.743-52.884,97.581-184.916,33.8-275.416S415.286,37.341,415.286,37.341Z" transform="translate(-30.157 -30.542)" fill="#ff6d00"/>
    <path id="Tracé_4481" data-name="Tracé 4481" d="M415.286,37.341s-93.373-27.5-185.577,28.107S90.494,224.774,50.158,307.977,32.182,472.706,102.05,506.941s117.934-23.658,216.329-31.2,124.761,4.716,206.743-52.884,97.581-184.916,33.8-275.416S415.286,37.341,415.286,37.341Z" transform="translate(-30.157 -30.542)" fill="#fff" opacity="0.7"/>
  </g>
  <g id="freepik--Menu--inject-8" transform="translate(23.954 92.112)">
    <rect id="Rectangle_12" data-name="Rectangle 12" width="510.611" height="23.671" transform="translate(7.577 154.66)" fill="#263238"/>
    <rect id="Rectangle_13" data-name="Rectangle 13" width="525.026" height="169.076" fill="#fff"/>
    <g id="Groupe_1319" data-name="Groupe 1319" clip-path="url(#clip-path)">
      <path id="Tracé_4482" data-name="Tracé 4482" d="M205.487,103v84.7H192.393c-16.526,1.742-26.175-11.34-22.679-31.413s-53.227,11.352-66.308,0c-9.267-8.022,23.429-37.019,43.324-53.291Zm257.822,45.892c9.674,22.882,112.061-40.807,89.242-4.144s-46.35,61.567,4.844,50.507l2.314-.547V103H511.133c-23.226,12.115-53.99,31.374-47.824,45.892Z" transform="translate(-34.681 -103)" fill="#ff6d00"/>
      <path id="Tracé_4483" data-name="Tracé 4483" d="M205.487,103v84.7H192.393c-16.526,1.742-26.175-11.34-22.679-31.413s-53.227,11.352-66.308,0c-9.267-8.022,23.429-37.019,43.324-53.291Zm257.822,45.892c9.674,22.882,112.061-40.807,89.242-4.144s-46.35,61.567,4.844,50.507l2.314-.547V103H511.133c-23.226,12.115-53.99,31.374-47.824,45.892Z" transform="translate(-34.681 -103)" fill="#fff" opacity="0.5"/>
    </g>
    <rect id="Rectangle_15" data-name="Rectangle 15" width="525.026" height="169.076" fill="none" stroke="#263238" stroke-linecap="round" stroke-linejoin="round" stroke-width="1"/>
    <rect id="Rectangle_16" data-name="Rectangle 16" width="184.064" height="169.076" transform="translate(170.475)" fill="#fff"/>
    <g id="Groupe_1320" data-name="Groupe 1320" transform="translate(170.475)" clip-path="url(#clip-path-2)">
      <path id="Tracé_4484" data-name="Tracé 4484" d="M301.785,192.814c-20.175,10.78-78.436,57.829-104.065,78.818H363.211V104.64c-21.611,8.8-103.976,43.146-108.514,56.393C249.46,176.288,327.947,178.83,301.785,192.814Z" transform="translate(-179.134 -102.555)" fill="#ff6d00"/>
      <path id="Tracé_4485" data-name="Tracé 4485" d="M301.785,192.814c-20.175,10.78-78.436,57.829-104.065,78.818H363.211V104.64c-21.611,8.8-103.976,43.146-108.514,56.393C249.46,176.288,327.947,178.83,301.785,192.814Z" transform="translate(-179.134 -102.555)" fill="#fff" opacity="0.5"/>
    </g>
    <rect id="Rectangle_18" data-name="Rectangle 18" width="184.064" height="169.076" transform="translate(170.475)" fill="none" stroke="#263238" stroke-linecap="round" stroke-linejoin="round" stroke-width="1"/>
    <path id="Tracé_4486" data-name="Tracé 4486" d="M338,164.63c5.454,11.975,20.785,21.154,28.171,23.378,0,0,19.781,6.916,34.616-4.551s18.1-33.714,4.106-55.376-43.9-17-56.711-4.805S332.56,152.655,338,164.63Zm41.392-19.844c4.818,4.2,5.085,10.17.318,13.056a8.568,8.568,0,0,1-8.772-.153,6.8,6.8,0,0,1-2.987-8.7C369.35,145.587,374.613,140.578,379.393,144.786Z" transform="translate(28.678 -100.292)" fill="#fff" stroke="#263238" stroke-miterlimit="10" stroke-width="1"/>
    <path id="Tracé_4487" data-name="Tracé 4487" d="M348.176,124.5c-1.856,5.937-2.759,7.628-5.822,10.551s-4.691,7.793-4.322,10.361a46.744,46.744,0,0,1,.407,9.2,13.564,13.564,0,0,0,5.085,11.034,27.776,27.776,0,0,1,6.877,7.233c2.682,3.7,1.805,4.538,5.822,6.56s11.607,6.064,11.607,6.064,8.67,3.814,12.56,2.237,8.517-7.259,11.543-8.467,4.437,2.034,8.441-3.814,5.174-10.348,7.627-12.649,3.038-10.4-.292-13.895a17.874,17.874,0,0,1-5.466-12.331c-.5-5.784-2.123-9.255-8.263-11.327s-10.729-7.322-13.03-9.306-8.517-1.5-12.42.534-7.449-1.271-11.556.572c-1.271.585-2.543.953-3.547,1.373a34.692,34.692,0,0,0-3.153,2.085,10.958,10.958,0,0,0-2.1,3.979Zm19.6,21.09c2.542.483,3.954-4.182,8.441-4.284s1.869,2.4,2.543,3.051a12.217,12.217,0,0,1,2.619,3.165,7.628,7.628,0,0,1,1.5,3.356,9.344,9.344,0,0,0,1.78,5.822c1.437,1.958-1.767,2.1-4.564,2.67s-3,.343-5.187,2-5.314-1.195-5.314-1.195-1.907-.686-3.75-3.941.1-3.814-1.551-6.458S365.223,145.033,367.778,145.592Z" transform="translate(29.386 -99.827)" fill="#fff" stroke="#263238" stroke-miterlimit="10" stroke-width="1"/>
    <circle id="Ellipse_109" data-name="Ellipse 109" cx="2.212" cy="2.212" r="2.212" transform="translate(396.147 25.667)" fill="#fff" stroke="#263238" stroke-miterlimit="10" stroke-width="1"/>
    <ellipse id="Ellipse_110" data-name="Ellipse 110" cx="0.953" cy="0.953" rx="0.953" ry="0.953" transform="translate(384.121 32.302)" fill="#fff" stroke="#263238" stroke-miterlimit="10" stroke-width="1"/>
    <circle id="Ellipse_111" data-name="Ellipse 111" cx="1.424" cy="1.424" r="1.424" transform="translate(389.181 20.912)" fill="#fff" stroke="#263238" stroke-miterlimit="10" stroke-width="1"/>
    <path id="Tracé_4488" data-name="Tracé 4488" d="M351.995,138.412a2.542,2.542,0,1,1-2.543-2.542A2.542,2.542,0,0,1,351.995,138.412Z" transform="translate(31.808 -94.084)" fill="#fff" stroke="#263238" stroke-miterlimit="10" stroke-width="1"/>
    <path id="Tracé_4489" data-name="Tracé 4489" d="M374.8,131.9a1.729,1.729,0,1,1-.506-1.235,1.742,1.742,0,0,1,.506,1.235Z" transform="translate(38.429 -95.633)" fill="#fff" stroke="#263238" stroke-miterlimit="10" stroke-width="1"/>
    <circle id="Ellipse_112" data-name="Ellipse 112" cx="1.424" cy="1.424" r="1.424" transform="translate(411.339 24.395)" fill="#fff" stroke="#263238" stroke-miterlimit="10" stroke-width="1"/>
    <path id="Tracé_4490" data-name="Tracé 4490" d="M384.879,133.209a2.059,2.059,0,1,1-2.059-2.059,2.059,2.059,0,0,1,2.059,2.059Z" transform="translate(40.99 -95.364)" fill="#fff" stroke="#263238" stroke-miterlimit="10" stroke-width="1"/>
    <path id="Tracé_4491" data-name="Tracé 4491" d="M386.743,146.832A1.742,1.742,0,1,1,385,145.09,1.742,1.742,0,0,1,386.743,146.832Z" transform="translate(41.668 -91.583)" fill="#fff" stroke="#263238" stroke-miterlimit="10" stroke-width="1"/>
    <path id="Tracé_4492" data-name="Tracé 4492" d="M378.364,160.924a1.907,1.907,0,1,1-1.907-1.894,1.907,1.907,0,0,1,1.907,1.894Z" transform="translate(39.306 -87.802)" fill="#fff" stroke="#263238" stroke-miterlimit="10" stroke-width="1"/>
    <circle id="Ellipse_113" data-name="Ellipse 113" cx="2.848" cy="2.848" r="2.848" transform="translate(392.664 73.122)" fill="#fff" stroke="#263238" stroke-miterlimit="10" stroke-width="1"/>
    <circle id="Ellipse_114" data-name="Ellipse 114" cx="1.424" cy="1.424" r="1.424" transform="translate(383.485 57.308)" fill="#fff" stroke="#263238" stroke-miterlimit="10" stroke-width="1"/>
    <path id="Tracé_4493" data-name="Tracé 4493" d="M364.4,155.071a1.271,1.271,0,1,1-1.271-1.271A1.271,1.271,0,0,1,364.4,155.071Z" transform="translate(35.863 -89.22)" fill="#fff" stroke="#263238" stroke-miterlimit="10" stroke-width="1"/>
    <path id="Tracé_4494" data-name="Tracé 4494" d="M344.662,144.236a1.106,1.106,0,1,1-1.106-1.106A1.106,1.106,0,0,1,344.662,144.236Z" transform="translate(30.598 -92.115)" fill="#fff" stroke="#263238" stroke-miterlimit="10" stroke-width="1"/>
    <path id="Tracé_4495" data-name="Tracé 4495" d="M351.567,121.653a.953.953,0,1,1-.953-.953.941.941,0,0,1,.953.953Z" transform="translate(32.554 -98.199)" fill="#fff" stroke="#263238" stroke-miterlimit="10" stroke-width="1"/>
    <path id="Tracé_4496" data-name="Tracé 4496" d="M360.688,131.7a.788.788,0,0,1-.788.788.795.795,0,1,1,.788-.788Z" transform="translate(35.142 -95.432)" fill="#fff" stroke="#263238" stroke-miterlimit="10" stroke-width="1"/>
    <path id="Tracé_4497" data-name="Tracé 4497" d="M379.012,140.476a1.106,1.106,0,1,1-1.106-1.106A1.106,1.106,0,0,1,379.012,140.476Z" transform="translate(39.916 -93.135)" fill="#fff" stroke="#263238" stroke-miterlimit="10" stroke-width="1"/>
    <path id="Tracé_4498" data-name="Tracé 4498" d="M387.574,154.7a1.894,1.894,0,1,1-.559-1.344,1.907,1.907,0,0,1,.559,1.344Z" transform="translate(41.804 -89.489)" fill="#fff" stroke="#263238" stroke-miterlimit="10" stroke-width="1"/>
    <path id="Tracé_4499" data-name="Tracé 4499" d="M357.873,142.372a1.729,1.729,0,1,1-.5-1.231,1.742,1.742,0,0,1,.5,1.231Z" transform="translate(33.837 -92.793)" fill="#fff" stroke="#263238" stroke-miterlimit="10" stroke-width="1"/>
    <path id="Tracé_4500" data-name="Tracé 4500" d="M351.453,154.571a1.271,1.271,0,1,1-1.271-1.271A1.271,1.271,0,0,1,351.453,154.571Z" transform="translate(32.351 -89.356)" fill="#fff" stroke="#263238" stroke-miterlimit="10" stroke-width="1"/>
    <path id="Tracé_4501" data-name="Tracé 4501" d="M346.118,135.966a1.589,1.589,0,1,1-1.589-1.576,1.589,1.589,0,0,1,1.589,1.576Z" transform="translate(30.731 -94.485)" fill="#fff" stroke="#263238" stroke-miterlimit="10" stroke-width="1"/>
    <path id="Tracé_4502" data-name="Tracé 4502" d="M368.247,119.9a.953.953,0,1,1-.953-.941.953.953,0,0,1,.953.941Z" transform="translate(37.079 -98.671)" fill="#fff" stroke="#263238" stroke-miterlimit="10" stroke-width="1"/>
    <path id="Tracé_4503" data-name="Tracé 4503" d="M125.452,154.527h0a2.708,2.708,0,0,1-2.288-1.78,23.416,23.416,0,0,0-42.371-3.623,2.7,2.7,0,0,1-2.543,1.373l-2.937-.254a2.682,2.682,0,0,0-2.67,3.814l5.25,11.708c.42.953.839,1.907,1.195,2.886a23.416,23.416,0,0,0,44.023.267c.814-2.225,1.678-4.449,2.682-6.6l1.843-3.941a2.67,2.67,0,0,0-2.187-3.852Z" transform="translate(-42.656 -93.698)" fill="#fff" stroke="#263238" stroke-miterlimit="10" stroke-width="1"/>
    <path id="Tracé_4504" data-name="Tracé 4504" d="M121.161,152.22h0a2.708,2.708,0,0,1-2.288-1.78,23.213,23.213,0,0,0-2.3-4.64L112.1,157.089A277.139,277.139,0,0,1,88.21,180.213a23.416,23.416,0,0,0,8.632,1.64h.992a165.072,165.072,0,0,0,21.243-16.005c.75-1.983,1.513-3.954,2.415-5.86l1.843-3.941a2.67,2.67,0,0,0-2.174-3.826Z" transform="translate(-38.364 -91.39)" fill="#fff" stroke="#263238" stroke-miterlimit="10" stroke-width="1"/>
    <circle id="Ellipse_115" data-name="Ellipse 115" cx="34.794" cy="34.794" r="34.794" transform="translate(23.709 7.704)" fill="#fff" stroke="#263238" stroke-miterlimit="10" stroke-width="1"/>
    <ellipse id="Ellipse_116" data-name="Ellipse 116" cx="30.154" cy="30.154" rx="30.154" ry="30.154" transform="translate(28.349 12.344)" fill="#fff" stroke="#263238" stroke-miterlimit="10" stroke-width="1"/>
    <circle id="Ellipse_117" data-name="Ellipse 117" cx="23.416" cy="23.416" r="23.416" transform="translate(35.087 19.081)" fill="#fff" stroke="#263238" stroke-miterlimit="10" stroke-width="1"/>
    <path id="Tracé_4505" data-name="Tracé 4505" d="M89.917,126.682h0L61.3,112.19,59,119.271l27.078,14.111a3.928,3.928,0,0,0,2.212.686,3.814,3.814,0,0,0,1.589-7.386Z" transform="translate(-46.287 -100.507)" fill="#fff" stroke="#263238" stroke-miterlimit="10" stroke-width="1"/>
    <path id="Tracé_4506" data-name="Tracé 4506" d="M63.7,115.534a3.814,3.814,0,1,1-3.814-3.814A3.814,3.814,0,0,1,63.7,115.534Z" transform="translate(-47.082 -100.635)" fill="#fff" stroke="#263238" stroke-miterlimit="10" stroke-width="1"/>
    <line id="Ligne_51" data-name="Ligne 51" x2="76.288" transform="translate(199.574 21.395)" fill="none" stroke="#263238" stroke-miterlimit="10" stroke-width="1"/>
    <line id="Ligne_52" data-name="Ligne 52" x2="31.947" transform="translate(297.371 21.395)" fill="none" stroke="#263238" stroke-miterlimit="10" stroke-width="1"/>
    <line id="Ligne_53" data-name="Ligne 53" x2="76.288" transform="translate(199.574 34.425)" fill="none" stroke="#263238" stroke-miterlimit="10" stroke-width="1"/>
    <line id="Ligne_54" data-name="Ligne 54" x2="31.947" transform="translate(297.371 34.425)" fill="none" stroke="#263238" stroke-miterlimit="10" stroke-width="1"/>
    <line id="Ligne_55" data-name="Ligne 55" x2="76.288" transform="translate(199.574 47.468)" fill="none" stroke="#263238" stroke-miterlimit="10" stroke-width="1"/>
    <line id="Ligne_56" data-name="Ligne 56" x2="31.947" transform="translate(297.371 47.468)" fill="none" stroke="#263238" stroke-miterlimit="10" stroke-width="1"/>
    <line id="Ligne_57" data-name="Ligne 57" x2="76.288" transform="translate(199.574 60.512)" fill="none" stroke="#263238" stroke-miterlimit="10" stroke-width="1"/>
    <line id="Ligne_58" data-name="Ligne 58" x2="31.947" transform="translate(297.371 60.512)" fill="none" stroke="#263238" stroke-miterlimit="10" stroke-width="1"/>
    <line id="Ligne_59" data-name="Ligne 59" x2="76.288" transform="translate(199.574 73.555)" fill="none" stroke="#263238" stroke-miterlimit="10" stroke-width="1"/>
    <line id="Ligne_60" data-name="Ligne 60" x2="31.947" transform="translate(297.371 73.555)" fill="none" stroke="#263238" stroke-miterlimit="10" stroke-width="1"/>
    <line id="Ligne_61" data-name="Ligne 61" x2="76.288" transform="translate(199.574 100.276)" fill="none" stroke="#263238" stroke-miterlimit="10" stroke-width="1"/>
    <line id="Ligne_62" data-name="Ligne 62" x2="31.947" transform="translate(297.371 100.276)" fill="none" stroke="#263238" stroke-miterlimit="10" stroke-width="1"/>
    <line id="Ligne_63" data-name="Ligne 63" x2="76.288" transform="translate(199.574 113.319)" fill="none" stroke="#263238" stroke-miterlimit="10" stroke-width="1"/>
    <line id="Ligne_64" data-name="Ligne 64" x2="31.947" transform="translate(297.371 113.319)" fill="none" stroke="#263238" stroke-miterlimit="10" stroke-width="1"/>
    <line id="Ligne_65" data-name="Ligne 65" x2="76.288" transform="translate(199.574 126.362)" fill="none" stroke="#263238" stroke-miterlimit="10" stroke-width="1"/>
    <line id="Ligne_66" data-name="Ligne 66" x2="31.947" transform="translate(297.371 126.362)" fill="none" stroke="#263238" stroke-miterlimit="10" stroke-width="1"/>
    <line id="Ligne_67" data-name="Ligne 67" x2="76.288" transform="translate(199.574 139.405)" fill="none" stroke="#263238" stroke-miterlimit="10" stroke-width="1"/>
    <line id="Ligne_68" data-name="Ligne 68" x2="31.947" transform="translate(297.371 139.405)" fill="none" stroke="#263238" stroke-miterlimit="10" stroke-width="1"/>
    <line id="Ligne_69" data-name="Ligne 69" x2="76.288" transform="translate(199.574 152.436)" fill="none" stroke="#263238" stroke-miterlimit="10" stroke-width="1"/>
    <line id="Ligne_70" data-name="Ligne 70" x2="31.947" transform="translate(297.371 152.436)" fill="none" stroke="#263238" stroke-miterlimit="10" stroke-width="1"/>
    <line id="Ligne_71" data-name="Ligne 71" x2="76.288" transform="translate(374.307 100.276)" fill="none" stroke="#263238" stroke-miterlimit="10" stroke-width="1"/>
    <line id="Ligne_72" data-name="Ligne 72" x2="31.947" transform="translate(472.104 100.276)" fill="none" stroke="#263238" stroke-miterlimit="10" stroke-width="1"/>
    <line id="Ligne_73" data-name="Ligne 73" x2="76.288" transform="translate(374.307 113.319)" fill="none" stroke="#263238" stroke-miterlimit="10" stroke-width="1"/>
    <line id="Ligne_74" data-name="Ligne 74" x2="31.947" transform="translate(472.104 113.319)" fill="none" stroke="#263238" stroke-miterlimit="10" stroke-width="1"/>
    <line id="Ligne_75" data-name="Ligne 75" x2="76.288" transform="translate(374.307 126.362)" fill="none" stroke="#263238" stroke-miterlimit="10" stroke-width="1"/>
    <line id="Ligne_76" data-name="Ligne 76" x2="31.947" transform="translate(472.104 126.362)" fill="none" stroke="#263238" stroke-miterlimit="10" stroke-width="1"/>
    <line id="Ligne_77" data-name="Ligne 77" x2="76.288" transform="translate(374.307 139.405)" fill="none" stroke="#263238" stroke-miterlimit="10" stroke-width="1"/>
    <line id="Ligne_78" data-name="Ligne 78" x2="31.947" transform="translate(472.104 139.405)" fill="none" stroke="#263238" stroke-miterlimit="10" stroke-width="1"/>
    <line id="Ligne_79" data-name="Ligne 79" x2="76.288" transform="translate(374.307 152.436)" fill="none" stroke="#263238" stroke-miterlimit="10" stroke-width="1"/>
    <line id="Ligne_80" data-name="Ligne 80" x2="31.947" transform="translate(472.104 152.436)" fill="none" stroke="#263238" stroke-miterlimit="10" stroke-width="1"/>
    <line id="Ligne_81" data-name="Ligne 81" x2="76.275" transform="translate(17.67 101.586)" fill="none" stroke="#263238" stroke-miterlimit="10" stroke-width="1"/>
    <line id="Ligne_82" data-name="Ligne 82" x2="31.947" transform="translate(115.468 101.586)" fill="none" stroke="#263238" stroke-miterlimit="10" stroke-width="1"/>
    <line id="Ligne_83" data-name="Ligne 83" x2="76.275" transform="translate(17.67 114.629)" fill="none" stroke="#263238" stroke-miterlimit="10" stroke-width="1"/>
    <line id="Ligne_84" data-name="Ligne 84" x2="31.947" transform="translate(115.468 114.629)" fill="none" stroke="#263238" stroke-miterlimit="10" stroke-width="1"/>
    <line id="Ligne_85" data-name="Ligne 85" x2="76.275" transform="translate(17.67 127.672)" fill="none" stroke="#263238" stroke-miterlimit="10" stroke-width="1"/>
    <line id="Ligne_86" data-name="Ligne 86" x2="31.947" transform="translate(115.468 127.672)" fill="none" stroke="#263238" stroke-miterlimit="10" stroke-width="1"/>
    <line id="Ligne_87" data-name="Ligne 87" x2="76.275" transform="translate(17.67 140.702)" fill="none" stroke="#263238" stroke-miterlimit="10" stroke-width="1"/>
    <line id="Ligne_88" data-name="Ligne 88" x2="31.947" transform="translate(115.468 140.702)" fill="none" stroke="#263238" stroke-miterlimit="10" stroke-width="1"/>
    <line id="Ligne_89" data-name="Ligne 89" x2="76.275" transform="translate(17.67 153.745)" fill="none" stroke="#263238" stroke-miterlimit="10" stroke-width="1"/>
    <line id="Ligne_90" data-name="Ligne 90" x2="31.947" transform="translate(115.468 153.745)" fill="none" stroke="#263238" stroke-miterlimit="10" stroke-width="1"/>
  </g>
  <g id="freepik--Plants--inject-8" transform="translate(19.657 293.364)">
    <path id="Tracé_4507" data-name="Tracé 4507" d="M104.456,283.8s0-4.894-6.839-11.734S86.366,261.31,86.366,261.31s-3.42,11.251,2.937,18.09a120.625,120.625,0,0,0,15.153,13.2Z" transform="translate(-34.816 -261.31)" fill="#ff6d00"/>
    <path id="Tracé_4508" data-name="Tracé 4508" d="M96.646,307.8s0-4.882-6.852-11.721S78.556,285.32,78.556,285.32s-3.42,11.238,2.937,18.077a119.5,119.5,0,0,0,15.153,13.2Z" transform="translate(-36.935 -254.797)" fill="#ff6d00"/>
    <path id="Tracé_4509" data-name="Tracé 4509" d="M100.258,289.892s.508-4.856,8.034-10.933,12.318-9.509,12.318-9.509,2.212,11.543-4.831,17.67a119.5,119.5,0,0,1-16.45,11.53Z" transform="translate(-31.051 -259.102)" fill="#ff6d00"/>
    <path id="Tracé_4510" data-name="Tracé 4510" d="M91.013,317.772s1.03-4.78,9.153-10.043,13.246-8.149,13.246-8.149.966,11.7-6.661,17.06a119.094,119.094,0,0,1-17.581,9.725Z" transform="translate(-33.807 -250.929)" fill="#ff6d00"/>
    <path id="Tracé_4511" data-name="Tracé 4511" d="M92.4,349.6s0-4.894,6.839-11.734,11.238-10.742,11.238-10.742,3.42,11.238-2.937,18.077a119.983,119.983,0,0,1-15.141,13.2Z" transform="translate(-32.931 -243.459)" fill="#ff6d00"/>
    <path id="Tracé_4512" data-name="Tracé 4512" d="M95.9,357.635s.686-4.831-5.085-12.573-9.6-12.242-9.6-12.242-4.983,10.64.331,18.306a119.919,119.919,0,0,0,13.119,15.255Z" transform="translate(-36.54 -241.913)" fill="#ff6d00"/>
    <path id="Tracé_4513" data-name="Tracé 4513" d="M87,379.5s0-4.882,6.839-11.721,11.238-10.755,11.238-10.755,3.42,11.238-2.924,18.077A119.5,119.5,0,0,1,87,388.293Z" transform="translate(-34.395 -235.349)" fill="#ff6d00"/>
    <path id="Tracé_4514" data-name="Tracé 4514" d="M90.621,400.618s-1.271-4.729,3.648-13.081,8.149-13.246,8.149-13.246,6.166,10,1.754,18.23-12.56,14.67-12.56,14.67Z" transform="translate(-33.453 -230.664)" fill="#ff6d00"/>
    <path id="Tracé_4515" data-name="Tracé 4515" d="M104.714,278a138.752,138.752,0,0,1-1.869,15.179c-2.708,13.984-9.471,22.984-12.166,35.595s5.085,28.87,2.975,45.091-8.39,25.222-6.585,36.04,8.9,44.8,8.9,44.8" transform="translate(-34.464 -256.783)" fill="none" stroke="#263238" stroke-linecap="round" stroke-linejoin="round" stroke-width="1"/>
    <line id="Ligne_91" data-name="Ligne 91" y1="5.657" x2="7.361" transform="translate(69.144 28.387)" fill="none" stroke="#263238" stroke-linecap="round" stroke-linejoin="round" stroke-width="1"/>
    <line id="Ligne_92" data-name="Ligne 92" x1="3.076" y1="5.479" transform="translate(66.398 22.043)" fill="none" stroke="#263238" stroke-linecap="round" stroke-linejoin="round" stroke-width="1"/>
    <path id="Tracé_4516" data-name="Tracé 4516" d="M90.16,319.465s6.166-4.627,12.522-9.255" transform="translate(-33.538 -248.046)" fill="none" stroke="#263238" stroke-linecap="round" stroke-linejoin="round" stroke-width="1"/>
    <path id="Tracé_4517" data-name="Tracé 4517" d="M94.92,313.488A98.855,98.855,0,0,0,84,296.72" transform="translate(-35.209 -251.705)" fill="none" stroke="#263238" stroke-linecap="round" stroke-linejoin="round" stroke-width="1"/>
    <path id="Tracé_4518" data-name="Tracé 4518" d="M92.59,354.04a76.276,76.276,0,0,1,13.234-17.67" transform="translate(-32.879 -240.95)" fill="none" stroke="#263238" stroke-linecap="round" stroke-linejoin="round" stroke-width="1"/>
    <path id="Tracé_4519" data-name="Tracé 4519" d="M93.943,359.653a85.175,85.175,0,0,0-6.687-12.712c-3.6-5.314-4.106-6-4.106-6" transform="translate(-35.44 -239.71)" fill="none" stroke="#263238" stroke-linecap="round" stroke-linejoin="round" stroke-width="1"/>
    <path id="Tracé_4520" data-name="Tracé 4520" d="M87,386.181a83.627,83.627,0,0,1,5.555-11.251,71.6,71.6,0,0,1,7.157-9.42" transform="translate(-34.395 -233.046)" fill="none" stroke="#263238" stroke-linecap="round" stroke-linejoin="round" stroke-width="1"/>
    <path id="Tracé_4521" data-name="Tracé 4521" d="M91,408.11a45.307,45.307,0,0,1,3.6-11.95c2.543-4.983,5.492-11.441,6.687-14.06" transform="translate(-33.31 -228.546)" fill="none" stroke="#263238" stroke-linecap="round" stroke-linejoin="round" stroke-width="1"/>
    <path id="Tracé_4522" data-name="Tracé 4522" d="M56.486,333.766s-.534-3.064,3.013-8.1,5.886-7.958,5.886-7.958,3.369,6.674.127,11.657a75.98,75.98,0,0,1-8.072,9.916Z" transform="translate(-42.68 -246.011)" fill="#ff6d00"/>
    <path id="Tracé_4523" data-name="Tracé 4523" d="M64.006,347.979s-.521-3.064,3.026-8.1S72.9,331.91,72.9,331.91s3.369,6.687.127,11.657a76.567,76.567,0,0,1-8.072,9.928Z" transform="translate(-40.64 -242.16)" fill="#ff6d00"/>
    <path id="Tracé_4524" data-name="Tracé 4524" d="M60.6,336.675s-.852-2.987-6.229-5.988-8.746-4.627-8.746-4.627-.14,7.475,4.945,10.564a76.86,76.86,0,0,0,11.568,5.441Z" transform="translate(-45.62 -243.747)" fill="#ff6d00"/>
    <path id="Tracé_4525" data-name="Tracé 4525" d="M69.826,353.075s-1.17-2.886-6.865-5.288S53.77,344.1,53.77,344.1s.648,7.449,6.026,9.979a76.826,76.826,0,0,0,12.077,4.2Z" transform="translate(-43.409 -238.853)" fill="#ff6d00"/>
    <path id="Tracé_4526" data-name="Tracé 4526" d="M71.6,373.328s-.534-3.064-5.568-6.611-8.212-5.517-8.212-5.517-.928,7.411,3.814,11.009a75.965,75.965,0,0,0,10.933,6.636Z" transform="translate(-42.331 -234.215)" fill="#ff6d00"/>
    <path id="Tracé_4527" data-name="Tracé 4527" d="M69.554,379.111s-.966-2.949,1.831-8.441S76.076,362,76.076,362s4.284,6.14,1.78,11.53a76.785,76.785,0,0,1-6.572,10.958Z" transform="translate(-39.171 -233.998)" fill="#ff6d00"/>
    <path id="Tracé_4528" data-name="Tracé 4528" d="M76.406,397.663s.356-3.089,5.174-6.928,7.894-5.975,7.894-5.975,1.348,7.348-3.165,11.212a76.6,76.6,0,0,1-10.539,7.246Z" transform="translate(-37.441 -227.824)" fill="#ff6d00"/>
    <path id="Tracé_4529" data-name="Tracé 4529" d="M78.226,391.5s-.534-3.064-5.568-6.61-8.212-5.53-8.212-5.53-.928,7.424,3.814,11.022a77.316,77.316,0,0,0,10.933,6.636Z" transform="translate(-40.533 -229.289)" fill="#ff6d00"/>
    <path id="Tracé_4530" data-name="Tracé 4530" d="M77.623,405.255s.254-3.1-3.712-7.806S67.364,390,67.364,390s-2.771,6.941.89,11.632a76.506,76.506,0,0,0,8.9,9.178Z" transform="translate(-39.994 -226.403)" fill="#ff6d00"/>
    <path id="Tracé_4531" data-name="Tracé 4531" d="M56.07,329.78a85.724,85.724,0,0,0,2.822,9.306c3.2,8.467,8.428,13.386,11.441,21.014s0,18.649,3.026,28.59,8.047,14.912,8.047,21.891-3.191,27.535-3.191,27.535" transform="translate(-42.785 -242.737)" fill="none" stroke="#263238" stroke-linecap="round" stroke-linejoin="round" stroke-width="1"/>
    <line id="Ligne_93" data-name="Ligne 93" x1="5.238" y1="2.759" transform="translate(10.132 92.204)" fill="none" stroke="#263238" stroke-linecap="round" stroke-linejoin="round" stroke-width="1"/>
    <line id="Ligne_94" data-name="Ligne 94" y1="3.776" x2="1.335" transform="translate(14.455 87.132)" fill="none" stroke="#263238" stroke-linecap="round" stroke-linejoin="round" stroke-width="1"/>
    <path id="Tracé_4532" data-name="Tracé 4532" d="M68.979,354.317s-4.373-2.225-8.9-4.437" transform="translate(-41.697 -237.285)" fill="none" stroke="#263238" stroke-linecap="round" stroke-linejoin="round" stroke-width="1"/>
    <path id="Tracé_4533" data-name="Tracé 4533" d="M64.73,351.388a62.784,62.784,0,0,1,5.085-11.708" transform="translate(-40.436 -240.052)" fill="none" stroke="#263238" stroke-linecap="round" stroke-linejoin="round" stroke-width="1"/>
    <path id="Tracé_4534" data-name="Tracé 4534" d="M71.28,376.246a48.447,48.447,0,0,0-10.17-9.636" transform="translate(-41.418 -232.747)" fill="none" stroke="#263238" stroke-linecap="round" stroke-linejoin="round" stroke-width="1"/>
    <path id="Tracé_4535" data-name="Tracé 4535" d="M70.29,380.22a55.657,55.657,0,0,1,2.822-8.683c1.678-3.725,1.92-4.208,1.92-4.208" transform="translate(-38.928 -232.552)" fill="none" stroke="#263238" stroke-linecap="round" stroke-linejoin="round" stroke-width="1"/>
    <path id="Tracé_4536" data-name="Tracé 4536" d="M75.85,399.426a46.45,46.45,0,0,1,5.632-5.848,30.025,30.025,0,0,0,3.661-3.178" transform="translate(-37.42 -226.294)" fill="none" stroke="#263238" stroke-linecap="round" stroke-linejoin="round" stroke-width="1"/>
    <path id="Tracé_4537" data-name="Tracé 4537" d="M78.186,395.8a53.222,53.222,0,0,0-4.7-6.445,46.139,46.139,0,0,0-5.543-5.085" transform="translate(-39.565 -227.957)" fill="none" stroke="#263238" stroke-linecap="round" stroke-linejoin="round" stroke-width="1"/>
    <path id="Tracé_4538" data-name="Tracé 4538" d="M76.572,409.533a13.386,13.386,0,0,0-2.352-6.585c-2.148-2.848-4.691-6.611-5.721-8.1" transform="translate(-39.413 -225.087)" fill="none" stroke="#263238" stroke-linecap="round" stroke-linejoin="round" stroke-width="1"/>
  </g>
  <g id="freepik--Character--inject-8" transform="translate(100.487 149.491)">
    <path id="Tracé_4539" data-name="Tracé 4539" d="M285.989,160.964s35.087,33.9,36.663,50.85-24.446,30.752-16.946,36.269,27.967,20.111,20.1,32.722-11.823,15.776-9.064,18.535,9.458,5.085,9.064,11.823-8.276,12.522-8.276,12.522H192.946s-6.7.394-5.911-9.064,14.187-14.581,11.823-21.688-19.717-12.611-19.717-26.811,20.505-20.1,23.658-26.8-10.246-11.047-13-19.717,11.441-23.658,20.1-31.54,43.375-30.752,57.206-31.54S285.989,160.964,285.989,160.964Z" transform="translate(-90.232 -145.881)" fill="#263238"/>
    <g id="Groupe_1321" data-name="Groupe 1321" transform="translate(88.908 10.565)" clip-path="url(#clip-path-3)">
      <path id="Tracé_4540" data-name="Tracé 4540" d="M270.839,167.22s19.069,33.319,16.056,46.4-23.2,27.967-15.471,38.074,19.069,14.276,14.289,26.773a62.775,62.775,0,0,1-12.5,20.226" transform="translate(-154.583 -153.524)" fill="none" stroke="#858585" stroke-linecap="round" stroke-linejoin="round" stroke-width="1"/>
      <path id="Tracé_4541" data-name="Tracé 4541" d="M205.619,203.26s11.9,18.433,8.9,23.785-20.226,11.9-17.8,25.578,27.37,35.1,27.37,37.489" transform="translate(-174.435 -143.748)" fill="none" stroke="#858585" stroke-linecap="round" stroke-linejoin="round" stroke-width="1"/>
    </g>
    <path id="Tracé_4543" data-name="Tracé 4543" d="M285.989,160.964s35.087,33.9,36.663,50.85-24.446,30.752-16.946,36.269,27.967,20.111,20.1,32.722-11.823,15.776-9.064,18.535,9.458,5.085,9.064,11.823-8.276,12.522-8.276,12.522H192.946s-6.7.394-5.911-9.064,14.187-14.581,11.823-21.688-19.717-12.611-19.717-26.811,20.505-20.1,23.658-26.8-10.246-11.047-13-19.717,11.441-23.658,20.1-31.54,43.375-30.752,57.206-31.54S285.989,160.964,285.989,160.964Z" transform="translate(-90.232 -145.881)" fill="none" stroke="#263238" stroke-linecap="round" stroke-linejoin="round" stroke-width="1"/>
    <path id="Tracé_4544" data-name="Tracé 4544" d="M301.6,273.27s47.672,74.368,54.664,83.267-.636,23.518-11.441,31.146-28.9.966-38.277-8.733-18.929-32.582-18.929-32.582Z" transform="translate(-60.807 -114.192)" fill="#fff" stroke="#263238" stroke-linecap="round" stroke-linejoin="round" stroke-width="1"/>
    <path id="Tracé_4545" data-name="Tracé 4545" d="M252.709,253.773s-44.494,13.348-58.478,18.433-17.8,5.721-17.8,10.806c0,2.962,10.615,60.562,9.534,109.963-.775,35.7-13.348,68.012-13.348,68.012H334.7s-13.3-30.319-13.348-66.741C321.28,343.205,334.285,280.8,332.8,278.562,330.255,274.749,258.429,253.137,252.709,253.773Z" transform="translate(-92.001 -119.485)" fill="#fff" stroke="#263238" stroke-linecap="round" stroke-linejoin="round" stroke-width="1"/>
    <path id="Tracé_4546" data-name="Tracé 4546" d="M321.82,404.516c-5.822-4.538-13.386-12-17.009-22.171-5.632-15.776-9.776-100.429-10.64-119.5-3.013-.915-6.038-1.831-9.013-2.708l1.271,79.618H229.858l-4.945-79.212c-3.013.928-6.051,1.881-9.026,2.822.064,16.081.064,91.1-4.462,112.62-3.471,16.526-17.925,27.675-26.7,33.053a231.049,231.049,0,0,1-12.039,50.176H334.774a187.05,187.05,0,0,1-12.954-54.7Z" transform="translate(-91.982 -117.754)" fill="#263238"/>
    <g id="Groupe_1322" data-name="Groupe 1322" transform="translate(80.708 142.386)" clip-path="url(#clip-path-4)">
      <path id="Tracé_4547" data-name="Tracé 4547" d="M209.636,262.22l-1.856.585c.064,16.081.064,91.1-4.462,112.62-.254,1.195-.572,2.339-.928,3.47v79.8h7.246Z" transform="translate(-164.634 -259.576)" fill="#424242"/>
      <rect id="Rectangle_19" data-name="Rectangle 19" width="7.246" height="119.498" transform="translate(68.33 79.618)" fill="#424242"/>
      <path id="Tracé_4548" data-name="Tracé 4548" d="M178.34,403.612v24.154h7.2V376c-.864.572-1.7,1.119-2.479,1.6A227.018,227.018,0,0,1,178.34,403.612Z" transform="translate(-171.157 -228.713)" fill="#424242"/>
      <path id="Tracé_4549" data-name="Tracé 4549" d="M197.6,365.38a61.747,61.747,0,0,1-7.233,7.424V430.71H197.6Z" transform="translate(-167.894 -231.594)" fill="#424242"/>
      <path id="Tracé_4550" data-name="Tracé 4550" d="M214.41,271.47V456.183h7.246v-119.5h-3.165Z" transform="translate(-161.373 -257.067)" fill="#424242"/>
      <path id="Tracé_4551" data-name="Tracé 4551" d="M274.53,346.17v89.75h7.233V368.036a41.777,41.777,0,0,1-4.577-9.026,76.345,76.345,0,0,1-2.657-12.84Z" transform="translate(-145.066 -236.804)" fill="#424242"/>
      <path id="Tracé_4552" data-name="Tracé 4552" d="M286.55,370.76v58.478H293.8V395.219a179.937,179.937,0,0,1-2.86-20.709C289.55,373.43,288.063,372.171,286.55,370.76Z" transform="translate(-141.805 -230.134)" fill="#424242"/>
      <path id="Tracé_4553" data-name="Tracé 4553" d="M269.743,262.727c-2.415-.75-4.843-1.475-7.233-2.187V459.147h7.233Z" transform="translate(-148.326 -260.031)" fill="#424242"/>
      <rect id="Rectangle_20" data-name="Rectangle 20" width="7.246" height="119.498" transform="translate(98.891 79.618)" fill="#424242"/>
      <rect id="Rectangle_21" data-name="Rectangle 21" width="7.246" height="119.498" transform="translate(83.61 79.618)" fill="#424242"/>
    </g>
    <path id="Tracé_4555" data-name="Tracé 4555" d="M321.82,404.516c-5.822-4.538-13.386-12-17.009-22.171-5.632-15.776-9.776-100.429-10.64-119.5-3.013-.915-6.038-1.831-9.013-2.708l1.271,79.618H229.858l-4.945-79.212c-3.013.928-6.051,1.881-9.026,2.822.064,16.081.064,91.1-4.462,112.62-3.471,16.526-17.925,27.675-26.7,33.053a231.049,231.049,0,0,1-12.039,50.176H334.774a187.05,187.05,0,0,1-12.954-54.7Z" transform="translate(-91.982 -117.754)" fill="none" stroke="#263238" stroke-linecap="round" stroke-linejoin="round" stroke-width="1"/>
    <path id="Tracé_4556" data-name="Tracé 4556" d="M238.168,245.049s-16.526,5.911-19.717,12.611-1.576,33.052-4.335,41-9.458,13.806-5.9,14.251,14.187-15.776,19.7-13.806,20.505,22.476,21.688,22.476,12.623-13.793,14.988-18.128,11.034,2.365,14.975,12.217,5.085,6.356,5.085,2.759-4.729-18.929-3.941-21.688-.394-16.526-.394-30.357A22.882,22.882,0,0,0,261.394,243.5C252.711,241.883,238.168,245.049,238.168,245.049Z" transform="translate(-82.621 -122.393)" fill="#fff" stroke="#263238" stroke-linecap="round" stroke-linejoin="round" stroke-width="1"/>
    <path id="Tracé_4557" data-name="Tracé 4557" d="M225.66,236.86v44.557s14.594,48.091,19.717,44.494,16.959-42.574,16.959-42.574V237.254S244.195,245.149,225.66,236.86Z" transform="translate(-77.614 -124.069)" fill="#fff" stroke="#263238" stroke-linecap="round" stroke-linejoin="round" stroke-width="1"/>
    <path id="Tracé_4558" data-name="Tracé 4558" d="M225.66,236.86v9.267c7.373,4.233,16.056,7.094,23.874,7.094a28.908,28.908,0,0,0,12.8-3.165v-12.8S244.195,245.149,225.66,236.86Z" transform="translate(-77.614 -124.069)" fill="#263238" stroke="#263238" stroke-linecap="round" stroke-linejoin="round" stroke-width="1"/>
    <path id="Tracé_4559" data-name="Tracé 4559" d="M217.072,200.037s-8.67-11.441-13.806-3.165,8.289,23.658,12.229,23.264S217.072,200.037,217.072,200.037Z" transform="translate(-84.001 -135.731)" fill="#fff" stroke="#263238" stroke-linecap="round" stroke-linejoin="round" stroke-width="1"/>
    <path id="Tracé_4560" data-name="Tracé 4560" d="M268.88,200.037s8.67-11.441,13.806-3.165-8.289,23.658-12.229,23.264S268.88,200.037,268.88,200.037Z" transform="translate(-66.081 -135.731)" fill="#fff" stroke="#263238" stroke-linecap="round" stroke-linejoin="round" stroke-width="1"/>
    <path id="Tracé_4561" data-name="Tracé 4561" d="M213.452,192.62s-4.373,39.409-.547,50.85,24.065,24.065,40.477,24.065,30.065-15.853,32.264-25.158-2.746-68.9-6.026-75.461-24.052-7.106-44.837,3.28S213.452,192.62,213.452,192.62Z" transform="translate(-81.499 -144.331)" fill="#fff" stroke="#263238" stroke-linecap="round" stroke-linejoin="round" stroke-width="1"/>
    <path id="Tracé_4562" data-name="Tracé 4562" d="M246.874,191s-3.547,9.471-.394,14.988,1.182,9.458-2.365,9.458-5.085-5.911-5.085-5.911" transform="translate(-73.987 -136.508)" fill="none" stroke="#263238" stroke-linecap="round" stroke-linejoin="round" stroke-width="1"/>
    <path id="Tracé_4563" data-name="Tracé 4563" d="M229.39,213.29s16.526,11.441,31.146,0" transform="translate(-76.602 -130.462)" fill="none" stroke="#263238" stroke-linecap="round" stroke-linejoin="round" stroke-width="1"/>
    <path id="Tracé_4564" data-name="Tracé 4564" d="M248,187.32s7.106-7.882,15.382.788" transform="translate(-71.554 -138.396)" fill="none" stroke="#263238" stroke-linecap="round" stroke-linejoin="round" stroke-width="1"/>
    <path id="Tracé_4565" data-name="Tracé 4565" d="M238.646,186.763s-7.094-7.488-15.776-.788" transform="translate(-78.371 -138.627)" fill="none" stroke="#263238" stroke-linecap="round" stroke-linejoin="round" stroke-width="1"/>
    <ellipse id="Ellipse_118" data-name="Ellipse 118" cx="2.365" cy="4.729" rx="2.365" ry="4.729" transform="translate(180.781 56.017)" fill="#263238"/>
    <ellipse id="Ellipse_119" data-name="Ellipse 119" cx="2.365" cy="4.729" rx="2.365" ry="4.729" transform="translate(151.212 56.017)" fill="#263238"/>
    <path id="Tracé_4566" data-name="Tracé 4566" d="M221,201.307a37.592,37.592,0,0,1,12.229,0" transform="translate(-78.878 -133.848)" fill="none" stroke="#263238" stroke-linecap="round" stroke-linejoin="round" stroke-width="1"/>
    <path id="Tracé_4567" data-name="Tracé 4567" d="M252.65,201.625a32.608,32.608,0,0,1,11.823,0" transform="translate(-70.293 -133.773)" fill="none" stroke="#263238" stroke-linecap="round" stroke-linejoin="round" stroke-width="1"/>
    <path id="Tracé_4568" data-name="Tracé 4568" d="M201.279,219.153s61.9-25.628,76.885-37.464,18.916-34.692-16.17-33.51-72.143,42.193-75.3,61.109,9.42,14.95,9.42,14.95" transform="translate(-88.32 -148.135)" fill="#263238"/>
    <g id="Groupe_1323" data-name="Groupe 1323" transform="translate(97.871)" clip-path="url(#clip-path-5)">
      <path id="Tracé_4569" data-name="Tracé 4569" d="M286.84,149a187.8,187.8,0,0,1-51.155,43.426c-32.722,19.069-53.545,22.616-53.545,22.616" transform="translate(-187.29 -147.901)" fill="none" stroke="#858585" stroke-linecap="round" stroke-linejoin="round" stroke-width="1"/>
      <path id="Tracé_4570" data-name="Tracé 4570" d="M264.02,144.29s-29.15,45.765-83.28,63.652" transform="translate(-187.67 -149.178)" fill="none" stroke="#858585" stroke-linecap="round" stroke-linejoin="round" stroke-width="1"/>
    </g>
    <path id="Tracé_4572" data-name="Tracé 4572" d="M201.279,219.153s61.9-25.628,76.885-37.464,18.916-34.692-16.17-33.51-72.143,42.193-75.3,61.109,9.42,14.95,9.42,14.95" transform="translate(-88.32 -148.135)" fill="none" stroke="#263238" stroke-linecap="round" stroke-linejoin="round" stroke-width="1"/>
    <path id="Tracé_4573" data-name="Tracé 4573" d="M307.359,316.972s-7.31-3.178-15.891-6.038-13.348,2.86-9.852,7.945,15.891,6.038,21.929,11.441S314.351,353.2,320.39,356.38a38.761,38.761,0,0,0,12.713,3.814V316.972Z" transform="translate(-62.749 -104.184)" fill="#fff" stroke="#263238" stroke-linecap="round" stroke-linejoin="round" stroke-width="1"/>
    <path id="Tracé_4574" data-name="Tracé 4574" d="M340.5,372.358H304.241L296.13,297.57h52.477Z" transform="translate(-58.499 -107.601)" fill="#ff6d00" stroke="#263238" stroke-linecap="round" stroke-linejoin="round" stroke-width="1"/>
    <path id="Tracé_4575" data-name="Tracé 4575" d="M351.144,288.35H296.163l-4.793,10.068h65.152Z" transform="translate(-59.79 -110.102)" fill="#fff" stroke="#263238" stroke-linecap="round" stroke-linejoin="round" stroke-width="1"/>
    <path id="Tracé_4576" data-name="Tracé 4576" d="M297.835,299.524h52.032l4.538-3.254H292.75Z" transform="translate(-59.416 -107.954)" fill="#fff" stroke="#263238" stroke-linecap="round" stroke-linejoin="round" stroke-width="1"/>
    <path id="Tracé_4577" data-name="Tracé 4577" d="M342.458,349.425l4.653-42.9H297.1l4.653,42.9Z" transform="translate(-58.236 -105.173)" fill="#fff" stroke="#263238" stroke-linecap="round" stroke-linejoin="round" stroke-width="1"/>
    <path id="Tracé_4578" data-name="Tracé 4578" d="M346.773,316.77s-16.844.318-20.022,3.5-2.225,6.992,3.814,7.628,14.937,1.907,19.7.636S355.036,316.77,346.773,316.77Z" transform="translate(-50.677 -102.393)" fill="#fff" stroke="#263238" stroke-linecap="round" stroke-linejoin="round" stroke-width="1"/>
    <path id="Tracé_4579" data-name="Tracé 4579" d="M342.772,343.52s-13.374.254-15.891,2.784-1.767,5.543,3.026,6.051,11.848,1.513,15.636.5S349.319,343.52,342.772,343.52Z" transform="translate(-50.541 -95.137)" fill="#fff" stroke="#263238" stroke-linecap="round" stroke-linejoin="round" stroke-width="1"/>
    <path id="Tracé_4580" data-name="Tracé 4580" d="M351.455,327s-21.929,0-27.332.953-7.31,6.356.636,7.945,24.154,2.542,29.239,1.907S359.4,326.709,351.455,327Z" transform="translate(-52.18 -99.619)" fill="#fff" stroke="#263238" stroke-linecap="round" stroke-linejoin="round" stroke-width="1"/>
    <path id="Tracé_4581" data-name="Tracé 4581" d="M349.4,336.018s-17.48-.636-23.518,1.589-3.814,5.4,1.907,6.674,18.433,2.86,23.2,1.271S355.76,335.408,349.4,336.018Z" transform="translate(-51.401 -97.195)" fill="#fff" stroke="#263238" stroke-linecap="round" stroke-linejoin="round" stroke-width="1"/>
    <path id="Tracé_4582" data-name="Tracé 4582" d="M131.394,247.989s-3.369,2.021-1,12.14l2.352,10.106,14.492-2.7s-6.356-11.441-9.1-16.526S132.118,246.642,131.394,247.989Z" transform="translate(-103.684 -121.316)" fill="#fff" stroke="#263238" stroke-linecap="round" stroke-linejoin="round" stroke-width="1"/>
    <path id="Tracé_4583" data-name="Tracé 4583" d="M125.471,267.046s46.172-7.755,60-12.471a311.35,311.35,0,0,1,31.68-8.428,39.746,39.746,0,0,1,8.428-1.017s1.348,0,1.017,5.733,7.411,80.229,14.492,103.149,11.441,33.714,11.441,33.714-41.455,8.428-79.885,8.428a347.656,347.656,0,0,1-63.372-5.4c-1.348,0,16.526-67.376,15.84-90.335C124.48,277.2,125.471,267.046,125.471,267.046Z" transform="translate(-109.203 -121.825)" fill="#ff6d00" stroke="#263238" stroke-linecap="round" stroke-linejoin="round" stroke-width="1"/>
    <path id="Tracé_4584" data-name="Tracé 4584" d="M217.708,354.013c-7.081-22.883-14.835-97.416-14.492-103.149s-1.017-5.733-1.017-5.733a40.685,40.685,0,0,0-4.729.343,17.966,17.966,0,0,0,0,4.373s-.356,36.752-1.373,80.292c-.839,36.078-.292,56.825-.076,62.851,19.183-2.377,33.053-5.2,33.053-5.2S224.763,376.933,217.708,354.013Z" transform="translate(-85.756 -121.825)" fill="#ff6d00" stroke="#263238" stroke-linecap="round" stroke-linejoin="round" stroke-width="1"/>
    <path id="Tracé_4585" data-name="Tracé 4585" d="M221.715,246.677v16.857c0,5.39,1.017,8.085-1.017,8.085s-18.865,3.038-46.172,8.428a381.432,381.432,0,0,1-52.592,6.738c-2.021,0,.343-19.882.343-19.882s51.231-8.1,67.745-13.488a243.752,243.752,0,0,1,30-7.755" transform="translate(-105.971 -121.682)" fill="#ff6d00" stroke="#263238" stroke-linecap="round" stroke-linejoin="round" stroke-width="1"/>
    <path id="Tracé_4586" data-name="Tracé 4586" d="M153.9,237.851s3.369-7.755,12.471-2.7,15.166,23.264,13.818,26.963-5.733,4.729-9.445,1.017-13.145-17.187-15.5-20.9S153.9,237.851,153.9,237.851Z" transform="translate(-97.138 -124.996)" fill="#fff" stroke="#263238" stroke-linecap="round" stroke-linejoin="round" stroke-width="1"/>
    <path id="Tracé_4587" data-name="Tracé 4587" d="M145.932,242.07s17.035,24.84,20.226,26.976,9.128,3.356,7.411-4.043c-1.614-7.03-8.085-20.569-12.471-25.285s-7.411-5.39-11.123-3.369S145.258,239.375,145.932,242.07Z" transform="translate(-99.293 -124.499)" fill="#fff" stroke="#263238" stroke-linecap="round" stroke-linejoin="round" stroke-width="1"/>
    <path id="Tracé_4588" data-name="Tracé 4588" d="M149.125,239.767s15.84,20.226,17.2,24.955-1.36,12.471-8.428,8.085-13.488-18.878-17.531-23.938S143.328,236.067,149.125,239.767Z" transform="translate(-101.075 -123.543)" fill="#fff" stroke="#263238" stroke-linecap="round" stroke-linejoin="round" stroke-width="1"/>
    <path id="Tracé_4589" data-name="Tracé 4589" d="M142,243.54s-10.17,1.348-11.441,6.738,7.411,17.2,14.492,19.221,9.1-3.712,7.081-8.428S145.367,244.557,142,243.54Z" transform="translate(-103.445 -122.257)" fill="#fff" stroke="#263238" stroke-linecap="round" stroke-linejoin="round" stroke-width="1"/>
  </g>
  <g id="freepik--Device--inject-8" transform="translate(15.933 348.346)">
    <path id="Tracé_4590" data-name="Tracé 4590" d="M452.439,423.994H342.45L368.18,304.56H478.169Z" transform="translate(38.62 -304.56)" fill="#263238" stroke="#263238" stroke-linecap="round" stroke-linejoin="round" stroke-width="1"/>
    <path id="Tracé_4591" data-name="Tracé 4591" d="M472.679,304.56H362.69S424.969,319.6,472.679,304.56Z" transform="translate(44.11 -304.56)" fill="#6b6b6b" stroke="#263238" stroke-linecap="round" stroke-linejoin="round" stroke-width="1"/>
    <path id="Tracé_4592" data-name="Tracé 4592" d="M392.894,345.11,381.3,380.769l19.768,13.323,7.729-22.336Z" transform="translate(49.158 -293.561)" fill="#3b3b3b" stroke="#263238" stroke-linecap="round" stroke-linejoin="round" stroke-width="1"/>
    <path id="Tracé_4593" data-name="Tracé 4593" d="M390.42,345.11h38.239l6.013,22.781-28.349,3.865Z" transform="translate(51.632 -293.561)" fill="#3b3b3b" stroke="#263238" stroke-linecap="round" stroke-linejoin="round" stroke-width="1"/>
    <path id="Tracé_4594" data-name="Tracé 4594" d="M428.558,430.34a170.919,170.919,0,0,0-23.594-74.75L374.81,430.34Z" transform="translate(47.398 -290.718)" fill="#3b3b3b" stroke="#263238" stroke-linecap="round" stroke-linejoin="round" stroke-width="1"/>
    <path id="Tracé_4595" data-name="Tracé 4595" d="M469.568,430.34c.788-34.9-17.327-74.75-17.327-74.75H398.53a170.92,170.92,0,0,1,23.594,74.75Z" transform="translate(53.832 -290.718)" fill="#6b6b6b" stroke="#263238" stroke-linecap="round" stroke-linejoin="round" stroke-width="1"/>
    <rect id="Rectangle_22" data-name="Rectangle 22" width="541.07" height="13.641" transform="translate(0 135.655)" fill="#fff" stroke="#263238" stroke-linecap="round" stroke-linejoin="round" stroke-width="1"/>
  </g>
</svg>
