<svg xmlns="http://www.w3.org/2000/svg" xmlns:xlink="http://www.w3.org/1999/xlink" width="437.276" height="301.455" viewBox="0 0 437.276 301.455">
  <defs>
    <linearGradient id="linear-gradient" x1="0.214" y1="1.402" x2="0.895" y2="-0.175" gradientUnits="objectBoundingBox">
      <stop offset="0.007" stop-color="#dc3728"/>
      <stop offset="1" stop-color="#ec9f23"/>
    </linearGradient>
    <linearGradient id="linear-gradient-2" x1="0.432" y1="0.97" x2="0.739" y2="-0.072" gradientUnits="objectBoundingBox">
      <stop offset="0.007" stop-color="#be3728"/>
      <stop offset="1" stop-color="#ec9f23"/>
    </linearGradient>
    <linearGradient id="linear-gradient-3" x1="0.395" y1="0.513" x2="0.527" y2="0.32" gradientUnits="objectBoundingBox">
      <stop offset="0" stop-color="#dc3728"/>
      <stop offset="1" stop-color="#fa0"/>
    </linearGradient>
    <linearGradient id="linear-gradient-4" x1="0.381" y1="1.027" x2="0.584" y2="0.252" xlink:href="#linear-gradient"/>
    <linearGradient id="linear-gradient-5" x1="0.5" y1="0.164" x2="0.5" y2="1.007" gradientUnits="objectBoundingBox">
      <stop offset="0.007" stop-color="#8ac340"/>
      <stop offset="0.989" stop-color="#68931c"/>
    </linearGradient>
    <linearGradient id="linear-gradient-6" x1="0" y1="0.5" x2="1" y2="0.5" xlink:href="#linear-gradient"/>
    <linearGradient id="linear-gradient-8" x1="-1.87" y1="-3.665" x2="3.229" y2="-3.665" xlink:href="#linear-gradient"/>
    <linearGradient id="linear-gradient-9" x1="-2.832" y1="-11.108" x2="1.423" y2="-11.108" xlink:href="#linear-gradient"/>
    <linearGradient id="linear-gradient-13" x1="0.5" y1="0.833" x2="0.5" y2="-0.195" xlink:href="#linear-gradient-5"/>
  </defs>
  <g id="Groupe_12" data-name="Groupe 12" transform="translate(-975.838 -83.986)">
    <path id="Tracé_3748" data-name="Tracé 3748" d="M1250.96,161.275a8.941,8.941,0,0,1,.139-1.568,6.3,6.3,0,0,0-.547-3.905,54.735,54.735,0,0,0-5.266-7.86,5.859,5.859,0,0,0-3.64-1.705,8.944,8.944,0,0,1-6.595-6.292,7.383,7.383,0,0,0-2.046-3.386,66.987,66.987,0,0,0-8.946-5.232,12.826,12.826,0,0,0-4.565-.209,8.947,8.947,0,0,1-9.042-3.251,5.855,5.855,0,0,0-3.439-2.527,104.965,104.965,0,0,0-10.646-1.971,5.631,5.631,0,0,0-3.916,1.171,8.921,8.921,0,0,1-10.146-1.066,4.958,4.958,0,0,0-3.044-1.2q-6.605-.014-12.608.573a5.037,5.037,0,0,0-3.06,1.838,8.93,8.93,0,0,1-11.254,1.775,4.11,4.11,0,0,0-3.107-.4,83.369,83.369,0,0,0-10.221,3.559,4.029,4.029,0,0,0-1.8,2.313,8.934,8.934,0,0,1-9.931,5.908,4.962,4.962,0,0,0-3.562.693,54.006,54.006,0,0,0-8.2,7.967c-.989,1.028-.81,2.688-.81,3.4a8.93,8.93,0,0,1-4.691,7.862,5.988,5.988,0,0,0-2.269,2.3c-1.4,4.035-1.229,8.1-1.188,12.027,11.706,5.5,19.184-5.375,26.229-5.375,8.447,0,12.922,10.141,19.547,10.141,4.749,0,16.549-10.141,21.08-10.141,8.627,0,14.524,13.251,27.837,13.251,6.376,0,16.689-6.751,24.189-6.751,12.376,0,19.127,9.563,31.1,3a28.441,28.441,0,0,0-.51-5.3c-.264-1.314-1.686-2.6-2.251-3.13A8.913,8.913,0,0,1,1250.96,161.275Z" transform="translate(9.783 11.029)" fill="url(#linear-gradient)"/>
    <path id="Tracé_3749" data-name="Tracé 3749" d="M1146.585,130.357s-16.251,4-26.377,13.751c0,0-10.19,10.636-8.8,18.719,1.25,7.25,5.9-.844,18.047-.844,12.5,0,15.625,9.065,21.751,9.065,5.5,0,13-9.055,21.375-9.055,11.376,0,17.876,12.615,29,12.615,7.126,0,13.454-6.25,21.73-6.25,7.6,0,29.666,11.031,26.291,1.03-1.787-5.293-10.018-13.281-44.019-16.907C1205.589,152.484,1170.711,126.733,1146.585,130.357Z" transform="translate(10.52 13.257)" fill="url(#linear-gradient-2)"/>
    <path id="Tracé_3750" data-name="Tracé 3750" d="M1110.8,174.1s4.875.751,2.875,2.625l23.627,4.5,18.876-3.25,44.878-.25,20,4.625s27.252-4.126,27.626-4,6.876-.75,6.876-.75-3.625-1.376-.25-3.25,1.374-3.626,1.374-3.626l-41.753-.375-18.75,3.5-13.127-4.625-22-1.874-14.752.625-24.5-.125Z" transform="translate(10.223 24.015)" fill="#3d5107"/>
    <g id="Groupe_1308" data-name="Groupe 1308" transform="translate(975.838 163.991)">
      <path id="Tracé_3751" data-name="Tracé 3751" d="M1074.97,240.354c-1.375,0-.251-.75-.251-.75,28-10.5,64.13-27,64.13-50.753,0-24-9.877-42.752-40-42.752-60.879,0-123.007,52.628-123.007,84.5,0,13.4,8,16.125,8,16.125-5.25-43.877,83.505-80.629,119.258-80.629,24.66,0,20.408,14.881,5.625,30.751-18.621,19.992-53.8,41.968-67.583,41.509,9-11.278,29.412-29.812,50.707-43.384-.374-3.125-4.75-11.876-10.75-11.876-11.6,0-38.373,24-59.273,49.011-1.513.79-4.925,1.574-11.607-1.132,0,0-5.357,8.086-.482,16.656-9.616,13.386-16.154,25.639-16.154,32.973,0,14.5,12.386,21.5,12.386,21.5a3.489,3.489,0,0,0,1.251-1.376c2.232-17.112,18.464-37.739,23.278-43.536a7.75,7.75,0,0,0,4.224,6.409c1.75-1.124,19.626-13.365,33.5-13.365,8.063,0,12.663,2.938,14.078,7.147-35.206,14.943-60.919,31.06-69.456,44.845-10.307,16.644-1.171,30.5,13.5,30.5,17.75,0,75.629-38.252,75.629-72.254C1101.971,243.354,1081.969,238.729,1074.97,240.354Zm-43.128,65.5c-10.82,0,28.283-27.983,46.178-34.519C1065.774,286.882,1035.667,305.858,1031.842,305.858Z" transform="translate(-975.838 -146.099)" fill="#a80e0e"/>
      <path id="Tracé_3752" data-name="Tracé 3752" d="M1232.682,276.886a201.951,201.951,0,0,0-21.751,1.233c15.382-26.106,29-50.743,41.191-56.985-.813-8.5-9.251-6.126-9.251-6.126-1.751.25-1.251-1-1.251-1,0-5-3.25-15.126-12.375-15.126-11.554,0-28.374,14.362-40.341,30.68-.95,1.112-2.051,2.436-3.286,3.947-3.376,4.124-20.72,24.438-25.877,22.751-1.526-.5.181-5.738,4.688-11.438,8.385-10.607,23.345-22.876,23.345-32.721,0-13.97-28.5-8.813-26.783-24.6-.626-1.249-2.125-.5-2.125-.5-.751.5-4.376,4.625-4.126,13.25,0,.073.005.146.008.218.324,8.465,5.118,11.783,5.118,11.783-2,10.593-8.052,13.241-10.938,13.9,2.767-3.743,4.564-6.9,4.564-9.154,0-7.437-7.533-12.313-14-8.875-2.344,8.312-34.221,50.252-42.5,50.252-2.916,0-.815-4.866,4.437-11.219,5.777-6.989,15.091-15.878,19.313-24.377,4.367-8.787,2.487-19.282-5-19.282-13,0-33.836,24.626-33.836,27.626,0,1.407,2.562,1.75,2.562,1.75,1-1,14.342-12.439,17.617-12.439,3.223,0,.531,5.473-5.062,12.282-6.255,7.615-15.966,17.1-21.657,26.44-6.694,10.986-7.237,21.969,2.125,21.969,10.893,0,26.877-18.625,27.627-19.5s.749.125.749.125c-2.281,3.5-3.688,18.752,8.626,18.752,4.282,0,6.125-2.375,6.125-2.375-6.55-12.9,12.656-32.694,24.429-47.035a9.327,9.327,0,0,0,1.385.126c7.688.187,17.314-11.1,19.063-12.969s6.876-1.656,6.876-.375c0,4.249-21.954,19.743-32.69,37.158-7.391,11.991-8.221,25.22,2.063,25.22,14.224,0,32.394-25.229,35.038-29.012-5.114,14.058-3.221,25.267,4.471,25.267,10.12,0,25.745-19.506,26.621-20.506s1.316-1.651,1.749-1.5c.985.344-.125,1.75-.125,1.75-4.755,7.936-10.034,16.43-15.781,24.386-48.648,8.952-95.242,32.688-95.242,57.954,0,8.228,11.957,17.229,21.143,17.229,26.44,0,58.625-25.471,78.381-56.44q1.443-2.264,2.866-4.558c31.6-2.5,62.848,5.677,70.638,30.809.125,1.376.25,1.126.25,1.126C1287.436,321.89,1305.248,276.886,1232.682,276.886Zm-54.941,22.5c-26.813,25.383-56.252,36.564-56.252,30.626,0-7.424,24.3-23.086,53.627-30.814q1.872-.493,3.773-.938C1178.505,298.639,1178.127,299.023,1177.74,299.389Zm17.439-45.654c-4.892,0,1.55-12.176,11.063-22.975,7.989-9.069,18.247-17.064,24.751-17.064,1.1,0,3.376.375,3.469,3.845C1224.525,225.416,1200.618,253.735,1195.179,253.735Z" transform="translate(-948.602 -134.379)" fill="#a80e0e"/>
      <path id="Tracé_3753" data-name="Tracé 3753" d="M1338.092,199.841c-9.449,0-16.541,6.751-21.386,17.14a19.8,19.8,0,0,0-1.709,3.455c-6.47,15.75-33.846,38.252-36.158,36.908-2.561-1.488,2.2-8.286,9.438-16.188,7.736-8.446,17.689-15.938,17.689-23.314,0-14-29.221-12.5-21-31,1.209-2.72-1.874-4.249-1.874-4.249a23.424,23.424,0,0,0-12.627,21c0,4.432,1.174,7.4,2.946,9.445-1.948,6.615-32.876,46.433-50.074,46.433-7.75,0-4.621-10.845-4.109-12.266.843-2.344,2.36-1.485,2.36-1.485a5.176,5.176,0,0,0,3.125.75c7.875,0,27.2-12.126,34.377-24.25,5.509-9.314,4.735-19.376-6.126-19.376-17.9,0-40.083,22.348-48.879,42.752-6.743,15.646-5.186,30.628,9.626,30.628,28.208,0,61.208-49.65,68.039-58.9,4.7,1,9.091.877,9.091,3.4,0,6.094-22.532,20.132-32.753,35.346-7.181,10.69-6.658,22.408,5,22.408,12.836,0,40.415-30.239,47.045-38.058a102.717,102.717,0,0,1-5.042,17.181c-5.89,14.69-15.146,28-23.876,28-3.25,0-4.625-1.376-5.625-3.626a1.509,1.509,0,0,0-1.376-.375c-1.751,1.626-6.562,19.563,13.688,19.563,14.438,0,26.4-13,32.065-29.813,4.5-13.37,3.832-28.885,7.5-40.5,3.536-11.2,11.687-20.751,21-20.751C1348.467,210.091,1347.6,199.841,1338.092,199.841Zm-88.005,15.126c8.094,0-15.719,21.125-22,21.125C1221.711,236.092,1242.525,214.967,1250.087,214.967Z" transform="translate(-911.191 -135.587)" fill="#a80e0e"/>
    </g>
    <path id="Tracé_3754" data-name="Tracé 3754" d="M1331.644,174.991c8-4.875,26-13.375,25.877-28.627,0,0-5.274,9.751-22.712,11.626-4.242.456-7.554-.656-17.166,4-7.228,3.5-18.5.625-16.375-7.126s10.875-8.876,15.625-5.5c0,0-1-5.5-10.375-8.876,0,0-17.877-8.375-37.753,5.75,0,0-2.875.375-1.5-6.375s8-14.876,18.5-20,26.252-8.876,34.627-6.126c0,0-8.125-10-24.125-10.75s-30.048,8.75-31.8,9.751-18.082,8.375-22.081.5,2.75-13.5,10-15.752,15.75-8.375,13-13.5c0,0-2.126,6.626-24.127,3.125s-58.128,2.25-74.754,20.877c0,0-6.375-15.5-22.5-14.251,0,0,12.416,13.876-6.421,33.689,13.688-5.625,26.409-5.438,40.463-5.438,34,0,62.534,16.561,77.482,44.253,7.54,13.972,12.336,42.378,5.773,60,5-4,17.182-7.065,21.336-7,0,0,12.126-25.5,50.127-23.627a35.17,35.17,0,0,0-5-5.5C1324.268,186.867,1323.644,179.867,1331.644,174.991Z" transform="translate(9.014 0)" fill="url(#linear-gradient-3)"/>
    <path id="Tracé_3755" data-name="Tracé 3755" d="M1137.176,131.869s29.127-9.876,56.878-3.874c0,0,26.77,7.126,38.521,21.25a38.034,38.034,0,0,1,11.063,21.939s.561,3.094-1.312,3.094-1.5-1.343-3-3.469-6.517-9.939-27.143-10.189-34-15.626-40-19.5-19.25-13-39-6.626C1133.176,134.494,1130.551,134.244,1137.176,131.869Z" transform="translate(13.207 12.12)" fill="url(#linear-gradient-4)"/>
    <path id="Tracé_3756" data-name="Tracé 3756" d="M1101.731,158.812s2.947,7.157,9.751,8.5,12,.25,16.626-3.751,7.625-5,11.376-.375,14.625,9.126,22.627,4.126a41.685,41.685,0,0,0,6.876-4.126c4-2.875,6-4.5,9.749-.75s13.974,11.25,23.207,11c6.459-.175,20.751-6.085,24.69-6.085,13.813,0,29.189,15.086,39.734-4.915a9.039,9.039,0,0,1,.538,4.364,12.774,12.774,0,0,1-13.038,10.512c-3.6,0-10.786-4-16.8-4-8.875,0-27.252,3.751-38.082,3.751-6.989,0-16.5-2.844-25.922-1.814-8.741.957-10.455-.811-12.83-1.687s-5.045-1.032-11.921.469-11.479,4.543-15.564,2.344c-4.875-2.625-12.981.16-16.876.563C1110.437,177.5,1100.686,171.687,1101.731,158.812Z" transform="translate(8.926 21.554)" fill="url(#linear-gradient-5)"/>
    <path id="Tracé_3757" data-name="Tracé 3757" d="M1244.647,117.726c14.4-10.731,36.939-16.876,47.815-11.814,2.067.963,2.883,1.163,2.848.86a36.022,36.022,0,0,0-19.1-6.36c-16-.75-30.128,8.8-31.939,9.689-26.127,12.751-30.1-8.97-10.782-15.814-1.839-.782-11.182-2.159-19.221,3.844-7.406,5.532-8.538,15.307-5.25,21.469C1209.943,121.332,1218.645,137.1,1244.647,117.726Z" transform="translate(20.682 2.762)" fill="url(#linear-gradient-6)"/>
    <path id="Tracé_3758" data-name="Tracé 3758" d="M1299.74,144.467c-3.868-.049-8.063-1-14.939,3.156-8.844,5.344-24.6-2.531-13.594-12.656-15.5-1.685-25.639,13.563-16.277,23.641,10.9,11.735,26.621-2.61,31.309-5.235s5.25-3.938,12.376-5.812a50.062,50.062,0,0,0,10.969-4.969A21.578,21.578,0,0,1,1299.74,144.467Z" transform="translate(26.352 14.649)" fill="url(#linear-gradient-6)"/>
    <path id="Tracé_3759" data-name="Tracé 3759" d="M1034.327,115.43s-.42,9.751-6.8,10.377c0,0,6.5.375,7.046,8.5,0,0,1-8.125,6.126-9.126C1040.7,125.181,1034.7,124.306,1034.327,115.43Z" transform="translate(14.89 9.058)" fill="#fa0"/>
    <path id="Tracé_3760" data-name="Tracé 3760" d="M1044.368,93.11s-.568,16.617-10.816,16.371c0,0,11.263,1.52,10.892,17.017,0,0-.785-16.148,10.235-16.76C1054.679,109.738,1043.6,107.847,1044.368,93.11Z" transform="translate(16.625 2.628)" fill="#fa0"/>
    <g id="Groupe_1309" data-name="Groupe 1309" transform="translate(1069.925 128.302)">
      <path id="Tracé_3761" data-name="Tracé 3761" d="M1048.883,118.916h5.863v9.922h11.387v-9.922H1072v26.607h-5.863v-11.5h-11.387v11.5h-5.863Z" transform="translate(-1048.883 -118.24)" fill="#a80e0e"/>
      <path id="Tracé_3762" data-name="Tracé 3762" d="M1069.919,132.372a15.014,15.014,0,0,1,1.072-5.789,12.676,12.676,0,0,1,2.986-4.415,13.177,13.177,0,0,1,4.547-2.8,17.421,17.421,0,0,1,11.5,0,13.177,13.177,0,0,1,4.547,2.8,12.67,12.67,0,0,1,2.987,4.415,16.168,16.168,0,0,1,0,11.576,12.64,12.64,0,0,1-2.987,4.414,13.138,13.138,0,0,1-4.547,2.8,17.4,17.4,0,0,1-11.5,0,13.138,13.138,0,0,1-4.547-2.8,12.647,12.647,0,0,1-2.986-4.414A15.008,15.008,0,0,1,1069.919,132.372Zm6.088,0a9.77,9.77,0,0,0,.582,3.438,7.889,7.889,0,0,0,1.673,2.706,7.63,7.63,0,0,0,2.611,1.784,9.377,9.377,0,0,0,6.8,0,7.627,7.627,0,0,0,2.611-1.784,7.9,7.9,0,0,0,1.673-2.706,10.38,10.38,0,0,0,0-6.858,7.85,7.85,0,0,0-1.673-2.726,7.649,7.649,0,0,0-2.611-1.785,9.377,9.377,0,0,0-6.8,0,7.652,7.652,0,0,0-2.611,1.785,7.84,7.84,0,0,0-1.673,2.726A9.813,9.813,0,0,0,1076.007,132.372Z" transform="translate(-1042.823 -118.391)" fill="#a80e0e"/>
      <path id="Tracé_3763" data-name="Tracé 3763" d="M1101,124.1h-7.59v-5.186h21.044V124.1h-7.59v21.422H1101Z" transform="translate(-1036.058 -118.24)" fill="#a80e0e"/>
    </g>
    <path id="Tracé_3764" data-name="Tracé 3764" d="M1131.235,150.427a4.813,4.813,0,1,1-4.813-4.813A4.813,4.813,0,0,1,1131.235,150.427Z" transform="translate(41.991 17.752)" fill="#e2aa48"/>
    <circle id="Ellipse_97" data-name="Ellipse 97" cx="6.938" cy="6.938" r="6.938" transform="translate(1146.14 152.615)" fill="#e2aa48"/>
    <path id="Tracé_3765" data-name="Tracé 3765" d="M1127.344,141.154a2.625,2.625,0,1,1-2.625-2.625A2.625,2.625,0,0,1,1127.344,141.154Z" transform="translate(42.13 15.712)" fill="#e2aa48"/>
    <path id="Tracé_3766" data-name="Tracé 3766" d="M1230.4,162.551c1.341,1.388,3.4.639,2.091-2.361-2.624-5.6-8.486-17.443-26.252-24.751,0,0-15.313-7.345-28.689-8.72,0,0-20.705-1.5-14.955.375a121.62,121.62,0,0,1,13.626,3.751c8.375,2.75,17.876,7.875,22.376,14.751s14,7.875,20.875,10.625C1223.766,157.937,1227.571,159.459,1230.4,162.551Z" transform="translate(17.264 12.146)" fill="#e2aa48"/>
    <path id="Tracé_3767" data-name="Tracé 3767" d="M1198.44,141.34a2.313,2.313,0,1,1-2.3-2.326A2.313,2.313,0,0,1,1198.44,141.34Z" transform="translate(23.112 15.851)" fill="url(#linear-gradient-8)"/>
    <path id="Tracé_3768" data-name="Tracé 3768" d="M1209.87,148.523A5.312,5.312,0,1,1,1204.78,143,5.313,5.313,0,0,1,1209.87,148.523Z" transform="translate(23.441 16.997)" fill="url(#linear-gradient-9)"/>
    <g id="Groupe_1310" data-name="Groupe 1310" transform="translate(1115.467 221.494)">
      <path id="Tracé_3769" data-name="Tracé 3769" d="M1152.436,192.224c19.876,5.966,19.921,13.967,19.921,13.967a71,71,0,0,1,17.706-12.735Z" transform="translate(-1092.344 -190.315)" fill="url(#linear-gradient-6)"/>
      <path id="Tracé_3770" data-name="Tracé 3770" d="M1118.5,204.367c6.874-7.25,17.626-5.5,17.626-5.5a17.311,17.311,0,0,1,.781-7.1l-29.863-1.023c-1.126.125-1.126,1.376-1.126,1.376-.049.565-.093,1.426-.133,2.436C1117.372,194.742,1118.5,204.367,1118.5,204.367Z" transform="translate(-1105.783 -190.742)" fill="url(#linear-gradient-6)"/>
      <path id="Tracé_3771" data-name="Tracé 3771" d="M1225.434,194.788l-21.258-.732a26.372,26.372,0,0,1,8.571,13.232c1.5.375,4.1.875,4.6,1.751,3.125-3.376,11.461-10.125,11.461-10.125v-2.125C1228.686,194.663,1225.434,194.788,1225.434,194.788Z" transform="translate(-1077.44 -189.787)" fill="url(#linear-gradient-6)"/>
    </g>
    <g id="Groupe_1311" data-name="Groupe 1311" transform="translate(1120.946 202.555)">
      <path id="Tracé_3772" data-name="Tracé 3772" d="M1243.271,184.687a2.537,2.537,0,0,0-2.25-2.438,66.652,66.652,0,0,0-8.688-.25c-1.375.25-15.542,11.751-22.043,2.625a20.33,20.33,0,0,0-9.124-3.751,80.528,80.528,0,0,0-9.477-.531c-2.031-.031-7.61,5.8-17.626,5.8-5.206,0-10.952-.7-15.4-5.147-2.875-3.5-9.984-3.305-11.375-2-6.126,5.75-.983,12.438,2.3,13.462,14.592.565,32.77,1.175,46.75,1.713,10.042-4.445,17.173-2.222,21.647.835,11.053.425,22.223.775,22.913.8a1.864,1.864,0,0,0,1.874-1.75C1242.886,192.441,1243.332,186.312,1243.271,184.687Z" transform="translate(-1100.858 -175.435)" fill="#db1d19"/>
      <path id="Tracé_3773" data-name="Tracé 3773" d="M1147.891,178.445s-2.236.031-4.361-.094-22.252-2.75-30.626-2.25a1.681,1.681,0,0,0-1.751,1.626s-.75,9.126-.5,11.876a1.848,1.848,0,0,0,1.5,1.5c.32.032,10.692.384,23.645.891C1137.725,186.6,1141.235,180.976,1147.891,178.445Z" transform="translate(-1110.603 -176.038)" fill="#db1d19"/>
    </g>
    <path id="Tracé_3774" data-name="Tracé 3774" d="M1114.08,179.632c10.079,0,14.157,5.3,17.854,7.266,4.443,2.366,8.532-6.469,7.314-8.813l-8.051-1.124S1106.46,179.632,1114.08,179.632Z" transform="translate(13.934 26.782)" fill="#af130e"/>
    <path id="Tracé_3775" data-name="Tracé 3775" d="M1147.424,178.628a10.741,10.741,0,0,1,6.751,3.875s6.125,7.25,16.627,3.876c0,0-7.64-.25-11.766-4.126S1152.549,177.377,1147.424,178.628Z" transform="translate(17.593 27.116)" fill="#af130e"/>
    <path id="Tracé_3776" data-name="Tracé 3776" d="M1184.613,180.019c-.375.006,4,1.188,6.376,4.312a10.642,10.642,0,0,0,13.125,3.188,8.9,8.9,0,0,1-5.375-3.25C1196.739,181.518,1189.77,179.925,1184.613,180.019Z" transform="translate(21.556 27.662)" fill="#af130e"/>
    <path id="Tracé_3777" data-name="Tracé 3777" d="M1104.422,186.029a27.053,27.053,0,0,1,16-5.687c12.876,0,13.721,5.172,18.022,5.172,2.822,0,8.261-6.8,15.011-6.8,9.583,0,17.992,6.626,26.015,6.626,11.487,0,11.861-6.878,24.519-6.878,8.813,0,12.188,8.5,20.984,8.5,7.236,0,12.392-7.907,20.175-7.907a16.8,16.8,0,0,1,6.827,1.283c3.625,1.749,9.5,1,13.25-2.625a4.423,4.423,0,0,0-1.5-.626c-10.42-3.344-33.921-1-37.627-.625-6.228.63-22.171-3.719-30.921-1.969s-24.339-1.03-37.69-1.03c-12.189,0-15.751,4.875-32.065.563C1111.826,170.435,1103.19,185.843,1104.422,186.029Z" transform="translate(9.261 25.776)" fill="url(#linear-gradient-13)"/>
    <path id="Tracé_3778" data-name="Tracé 3778" d="M1130.047,162.389a14.6,14.6,0,0,0,10.876,6.469s-8.251,1.595-12.845-3.844c0,0-1.875-2.062-1.312-3.469S1128.922,160.983,1130.047,162.389Z" transform="translate(15.723 22.134)" fill="#b2dd14"/>
    <path id="Tracé_3779" data-name="Tracé 3779" d="M1172.809,170.5s-6.657-2.719-9.751-6.376-5.626-3.282-5.813-1.595S1157.527,167.033,1172.809,170.5Z" transform="translate(18.864 22.271)" fill="#b2dd14"/>
    <path id="Tracé_3780" data-name="Tracé 3780" d="M1215.781,170.009s-11.626-3.751-15.126-3.626-3.376,1.75.375,2S1213.781,169.008,1215.781,170.009Z" transform="translate(23.031 23.734)" fill="#b2dd14"/>
    <path id="Tracé_3781" data-name="Tracé 3781" d="M1211.74,178.125s-3.261,1.762-5.165,3.063c-2.1,1.437-6.085,4.063-7.71,3.313s.25-2.125,2.749-2.875S1211.241,178.375,1211.74,178.125Z" transform="translate(23.219 27.118)" fill="#b2dd14"/>
    <path id="Tracé_3782" data-name="Tracé 3782" d="M1180.614,177.069a47.85,47.85,0,0,0-7,3c-2.25,1.374-7.75,3.25-9.251,2.875s-1-2,2-2.5a44.4,44.4,0,0,0,7.875-2.25C1175.864,177.569,1179.238,176.819,1180.614,177.069Z" transform="translate(19.469 26.799)" fill="#b2dd14"/>
    <path id="Tracé_3783" data-name="Tracé 3783" d="M1141.614,177.543s-5.25,2.125-7.751,4.376-2.875.625-2.875.125S1134.988,179.418,1141.614,177.543Z" transform="translate(16.279 26.95)" fill="#b2dd14"/>
  </g>
</svg>
