<svg xmlns="http://www.w3.org/2000/svg" width="595.642" height="497.641" viewBox="0 0 595.642 497.641">
  <g id="Cash_Payment-rafiki_1_" data-name="Cash Payment-rafiki (1)" transform="translate(-56.103 -103.576)">
    <g id="freepik--Shadow--inject-173" transform="translate(56.114 566.442)">
      <ellipse id="freepik--path--inject-173" cx="297.816" cy="17.388" rx="297.816" ry="17.388" fill="#f5f5f5"/>
    </g>
    <g id="freepik--Plant--inject-173" transform="translate(56.103 408.501)">
      <path id="Tracé_4783" data-name="Tracé 4783" d="M95.082,434.783s-8.678-18.939,1.244-37.6,12.78-23.04,6.467-26.88-9.216,14.93-9.216,14.93-5.315-12.9-.922-26.4,7.158-35.5,1.152-37.862-1.152,27.433-6.359,37.6a87.553,87.553,0,0,1-5.1-22.164c-.722-10.844.4-28.155-4.347-32.594s-7.772-1.367-3.072,22.564a250.242,250.242,0,0,1,4.608,43.392s-10.307-31.4-17.219-32.256-6.9,9.216-.983,18.063,17.326,24.576,19.2,32.748c0,0-11.3-23.624-21.5-16.374s8.847,21.5,17.326,26.665S90.72,436.089,90.72,436.089Z" transform="translate(-56.103 -302.094)" fill="#ff6d00"/>
      <path id="Tracé_4784" data-name="Tracé 4784" d="M95.082,434.783s-8.678-18.939,1.244-37.6,12.78-23.04,6.467-26.88-9.216,14.93-9.216,14.93-5.315-12.9-.922-26.4,7.158-35.5,1.152-37.862-1.152,27.433-6.359,37.6a87.553,87.553,0,0,1-5.1-22.164c-.722-10.844.4-28.155-4.347-32.594s-7.772-1.367-3.072,22.564a250.242,250.242,0,0,1,4.608,43.392s-10.307-31.4-17.219-32.256-6.9,9.216-.983,18.063,17.326,24.576,19.2,32.748c0,0-11.3-23.624-21.5-16.374s8.847,21.5,17.326,26.665S90.72,436.089,90.72,436.089Z" transform="translate(-56.103 -302.094)" fill="#fff" opacity="0.6"/>
      <path id="Tracé_4785" data-name="Tracé 4785" d="M81.107,439.938s8.448-19.062-1.69-37.571S66.361,379.5,72.628,375.58s9.4,14.792,9.4,14.792,5.176-12.979.614-26.419-7.588-35.328-1.536-37.832,1.536,27.418,6.82,37.494a87.461,87.461,0,0,0,4.823-22.226c.6-10.86-.737-28.155,3.948-32.671s7.772-1.536,3.395,22.518a249.88,249.88,0,0,0-4.1,43.453s9.923-31.534,16.9-32.563,7,9.216,1.2,18.063-17.019,24.868-18.8,33.024c0,0,11.013-23.793,21.274-16.712s-8.586,21.642-17,26.926-13.916,37.694-13.916,37.694Z" transform="translate(-49.009 -299.493)" fill="#ff6d00"/>
      <path id="Tracé_4786" data-name="Tracé 4786" d="M81.107,439.938s8.448-19.062-1.69-37.571S66.361,379.5,72.628,375.58s9.4,14.792,9.4,14.792,5.176-12.979.614-26.419-7.588-35.328-1.536-37.832,1.536,27.418,6.82,37.494a87.461,87.461,0,0,0,4.823-22.226c.6-10.86-.737-28.155,3.948-32.671s7.772-1.536,3.395,22.518a249.88,249.88,0,0,0-4.1,43.453s9.923-31.534,16.9-32.563,7,9.216,1.2,18.063-17.019,24.868-18.8,33.024c0,0,11.013-23.793,21.274-16.712s-8.586,21.642-17,26.926-13.916,37.694-13.916,37.694Z" transform="translate(-49.009 -299.493)" fill="#fff" opacity="0.7"/>
      <path id="Tracé_4787" data-name="Tracé 4787" d="M126.746,384.68H56.95L62.6,434.631h58.506Z" transform="translate(-55.649 -257.828)" fill="#ff6d00"/>
    </g>
    <g id="freepik--character-2--inject-173" transform="translate(244.796 103.576)">
      <path id="Tracé_4788" data-name="Tracé 4788" d="M294.168,265.391H194.85V191.54H257.3l5.668,30.643,31.2,12.657Z" transform="translate(-170.428 -56.427)" fill="#263238"/>
      <path id="Tracé_4789" data-name="Tracé 4789" d="M294.168,265.391H194.85V191.54H257.3l5.668,30.643,31.2,12.657Z" transform="translate(-170.428 -56.427)" fill="#fff" opacity="0.1"/>
      <path id="Tracé_4790" data-name="Tracé 4790" d="M249.16,265.391H192.85V191.54H212.3l5.668,30.643,31.2,12.657Z" transform="translate(-171.5 -56.427)" fill="#fff" opacity="0.1"/>
      <path id="Tracé_4791" data-name="Tracé 4791" d="M247.375,203.878,245.7,194.8H209.82l1.674,9.078Z" transform="translate(-162.404 -54.679)" opacity="0.2"/>
      <path id="Tracé_4792" data-name="Tracé 4792" d="M211.4,203.35l1.2,6.482h35.881l-1.2-6.482Z" transform="translate(-161.557 -50.096)" opacity="0.2"/>
      <path id="Tracé_4793" data-name="Tracé 4793" d="M209.2,211.49h46.08l31.2,12.657H240.4Z" transform="translate(-162.736 -45.733)" fill="#fff" opacity="0.3"/>
      <g id="freepik--group--inject-173" transform="translate(103.518)">
        <path id="Tracé_4794" data-name="Tracé 4794" d="M320.068,155.722c9.708,4.946,6.927,28.754-17.894,73.206l-17-13.824a251.442,251.442,0,0,1,15.606-40.182C310.837,154.862,320.068,155.722,320.068,155.722Z" transform="translate(-225.534 -75.628)" fill="#ff6d00"/>
        <path id="Tracé_4795" data-name="Tracé 4795" d="M320.068,155.722c9.708,4.946,6.927,28.754-17.894,73.206l-17-13.824a251.442,251.442,0,0,1,15.606-40.182C310.837,154.862,320.068,155.722,320.068,155.722Z" transform="translate(-225.534 -75.628)" fill="#fff" opacity="0.4"/>
        <path id="Tracé_4796" data-name="Tracé 4796" d="M391.092,225.38H325.044c-6.282,34.33-25.958,155.782-11.843,263.993l22.333-2.78s-2.074-143.662,17.695-196.762c2.273,28.416,4.961,58.66,7.311,74.757,5.714,39.6,18,126.167,18,126.167h22.779s-4.608-82.852-6.82-121.79C392.2,326.71,391.184,234.012,391.092,225.38Z" transform="translate(-213.183 -38.288)" fill="#263238"/>
        <path id="Tracé_4797" data-name="Tracé 4797" d="M305.277,158.937c6.835-1.536,42.885-9.615,71.977-8.479,0,0,9.354,95.862,18.125,134.83L319.3,298.621s-17.08-95.386-15.222-138.24A1.536,1.536,0,0,1,305.277,158.937Z" transform="translate(-215.474 -78.505)" fill="#ff6d00"/>
        <path id="Tracé_4798" data-name="Tracé 4798" d="M305.277,158.937c6.835-1.536,42.885-9.615,71.977-8.479,0,0,9.354,95.862,18.125,134.83L319.3,298.621s-17.08-95.386-15.222-138.24A1.536,1.536,0,0,1,305.277,158.937Z" transform="translate(-215.474 -78.505)" fill="#fff" opacity="0.6"/>
        <path id="Tracé_4799" data-name="Tracé 4799" d="M370.394,149.58s-8.709,36.618,15.1,67.722l5.883,39.061,6.835,32.348L360.364,298.7,346.8,268.328l-1.367,33.531-30.121,4.393-3.272-38.4s-5.207-30.321-6.543-46.971c0,0-4.516-38.584,2.519-63.191l9.907-2.135s.553,23.516,15.606,42.378c0,0,14.285-37.647,27.249-48.307Z" transform="translate(-215.403 -78.917)" fill="#ff6d00"/>
        <path id="Tracé_4800" data-name="Tracé 4800" d="M370.394,149.58s-8.709,36.618,15.1,67.722l5.883,39.061,6.835,32.348L360.364,298.7,346.8,268.328l-1.367,33.531-30.121,4.393-3.272-38.4s-5.207-30.321-6.543-46.971c0,0-4.516-38.584,2.519-63.191l9.907-2.135s.553,23.516,15.606,42.378c0,0,14.285-37.647,27.249-48.307Z" transform="translate(-215.403 -78.917)" opacity="0.2"/>
        <path id="Tracé_4801" data-name="Tracé 4801" d="M309.222,204.329s-4.516,12.365-7.972,12.764S275.322,179.8,275.322,179.8s-2.58-7.48-6.835-9.508-16.9-9.216-20.152-7.588-1.536,14.07-1.536,16.9c0,2.488,10.752,6.144,13.978,6.758a10.875,10.875,0,0,0,6.236-.553s18.017,44.36,29.706,52.132,29.292-18.662,29.292-18.662Z" transform="translate(-246.344 -72.011)" fill="#ebb376"/>
        <path id="Tracé_4802" data-name="Tracé 4802" d="M283.27,194.715l3.195-2.565,19.43,16.435-3.118,5.576Z" transform="translate(-226.552 -56.1)" fill="#ff6d00"/>
        <path id="Tracé_4803" data-name="Tracé 4803" d="M283.27,194.715l3.195-2.565,19.43,16.435-3.118,5.576Z" transform="translate(-226.552 -56.1)" fill="#fff" opacity="0.3"/>
        <path id="Tracé_4804" data-name="Tracé 4804" d="M329.742,419.195,316.9,420.546l-2.411-27.71,12.841-1.367Z" transform="translate(-209.818 50.737)" fill="#ebb376"/>
        <path id="Tracé_4805" data-name="Tracé 4805" d="M370.886,418.976H358.429L357.4,390.13h12.457Z" transform="translate(-186.818 50.019)" fill="#ebb376"/>
        <path id="Tracé_4806" data-name="Tracé 4806" d="M365.007,408h15.13a1.121,1.121,0,0,1,1.075.86l2.442,11.09a1.828,1.828,0,0,1-1.413,2.181,1.755,1.755,0,0,1-.4,0c-4.9-.077-8.463-.369-14.607-.369-3.794,0-15.206.384-20.444.384s-5.9-5.161-3.763-5.637c9.6-2.089,16.819-4.992,19.891-7.68A3.072,3.072,0,0,1,365.007,408Z" transform="translate(-195.132 59.597)" fill="#263238"/>
        <path id="Tracé_4807" data-name="Tracé 4807" d="M355.314,410.491a3.732,3.732,0,0,1-2.381-.645,1.736,1.736,0,0,1-.63-1.536.891.891,0,0,1,.507-.814c1.382-.722,5.407,1.751,5.852,2.043a.261.261,0,0,1,.138.276.323.323,0,0,1-.215.261,16.8,16.8,0,0,1-3.272.415Zm-1.843-2.6a.784.784,0,0,0-.384.092c-.077,0-.184.108-.2.338a1.244,1.244,0,0,0,.4,1.06,6.006,6.006,0,0,0,4.439.23A12.288,12.288,0,0,0,353.471,407.9Z" transform="translate(-189.555 59.256)" fill="#ff6d00"/>
        <path id="Tracé_4808" data-name="Tracé 4808" d="M357.627,411.044h-.154c-1.275-.707-3.763-3.441-3.517-4.762a.968.968,0,0,1,.952-.768,1.628,1.628,0,0,1,1.26.369c1.444,1.183,1.736,4.762,1.751,4.931a.323.323,0,0,1-.138.276A.261.261,0,0,1,357.627,411.044Zm-2.5-5.053h-.154c-.369,0-.4.215-.43.292-.154.814,1.428,2.888,2.719,3.855a7.1,7.1,0,0,0-1.536-3.9A1.029,1.029,0,0,0,355.123,405.991Z" transform="translate(-188.673 58.257)" fill="#ff6d00"/>
        <path id="Tracé_4809" data-name="Tracé 4809" d="M323.249,407.71h15.1a1.121,1.121,0,0,1,1.06.86l2.458,11.09a1.843,1.843,0,0,1-1.413,2.181h-.4c-4.9-.092-8.463-.384-14.607-.384-3.794,0-15.222.4-20.444.4s-5.914-5.176-3.763-5.652c9.6-2.089,16.819-4.992,19.891-7.68A3.072,3.072,0,0,1,323.249,407.71Z" transform="translate(-217.533 59.441)" fill="#263238"/>
        <path id="Tracé_4810" data-name="Tracé 4810" d="M313.543,410.226a3.794,3.794,0,0,1-2.4-.63,1.813,1.813,0,0,1-.614-1.536.875.875,0,0,1,.507-.814c1.382-.722,5.407,1.751,5.852,2.043a.277.277,0,0,1,.138.277.307.307,0,0,1-.23.261A14.479,14.479,0,0,1,313.543,410.226Zm-1.859-2.58a.614.614,0,0,0-.369.077c-.092,0-.184.108-.2.353a1.275,1.275,0,0,0,.4,1.06,6.144,6.144,0,0,0,4.439.215,12.289,12.289,0,0,0-4.27-1.705Z" transform="translate(-211.943 59.122)" fill="#ff6d00"/>
        <path id="Tracé_4811" data-name="Tracé 4811" d="M315.842,410.785H315.7c-1.29-.691-3.763-3.441-3.517-4.762a.968.968,0,0,1,.952-.768,1.536,1.536,0,0,1,1.244.384c1.444,1.167,1.751,4.746,1.766,4.915a.354.354,0,0,1-.138.277.308.308,0,0,1-.169-.046Zm-2.5-5.053H313.2c-.384,0-.415.215-.43.292-.154.814,1.428,2.888,2.719,3.855a7.1,7.1,0,0,0-1.536-3.9A1.074,1.074,0,0,0,313.338,405.731Z" transform="translate(-211.062 58.118)" fill="#ff6d00"/>
        <path id="Tracé_4812" data-name="Tracé 4812" d="M327.331,391.47l-12.841,1.367,1.244,14.3,12.856-1.367Z" transform="translate(-209.818 50.737)" opacity="0.2"/>
        <path id="Tracé_4813" data-name="Tracé 4813" d="M369.857,390.14H357.4l.538,14.869H370.41Z" transform="translate(-186.818 50.024)" opacity="0.2"/>
        <path id="Tracé_4814" data-name="Tracé 4814" d="M310.446,404.757l27.694-4.117-.845-7.68-28.815,3.794Z" transform="translate(-213.039 51.535)" fill="#ff6d00"/>
        <path id="Tracé_4815" data-name="Tracé 4815" d="M310.446,404.757l27.694-4.117-.845-7.68-28.815,3.794Z" transform="translate(-213.039 51.535)" fill="#fff" opacity="0.6"/>
        <path id="Tracé_4816" data-name="Tracé 4816" d="M352.594,401.255h26.865v-8.033L351.58,392.7Z" transform="translate(-189.938 51.396)" fill="#ff6d00"/>
        <path id="Tracé_4817" data-name="Tracé 4817" d="M352.594,401.255h26.865v-8.033L351.58,392.7Z" transform="translate(-189.938 51.396)" fill="#fff" opacity="0.6"/>
        <path id="Tracé_4818" data-name="Tracé 4818" d="M340.177,275.525a176.957,176.957,0,0,0-7.373,28.662c-1.859-25.3,5.545-52.117,5.545-52.117Z" transform="translate(-200.162 -23.982)" opacity="0.2"/>
        <path id="Tracé_4819" data-name="Tracé 4819" d="M345.705,161.848c-4.792,6.636-19.768,7.68-19.768,7.68s-9.6-.568-8.294-3.809c5.161-2.012,7.219-5.053,7.68-8.479a15.773,15.773,0,0,0-.753-6.221A30.458,30.458,0,0,0,323.4,147.7l15.16-17.111C338.01,139.929,338.548,156.7,345.705,161.848Z" transform="translate(-208.194 -89.096)" fill="#ebb376"/>
        <path id="Tracé_4820" data-name="Tracé 4820" d="M333.7,136.7c1.536,10.936-6.666,15.79-10.875,17.311a15.774,15.774,0,0,0-.753-6.221Z" transform="translate(-205.755 -85.821)" opacity="0.2"/>
        <path id="Tracé_4821" data-name="Tracé 4821" d="M310.1,114.292s-3.748,16.9,4.9,24.161,10.752-24.684,10.752-24.684Z" transform="translate(-212.603 -98.112)" fill="#263238"/>
        <path id="Tracé_4822" data-name="Tracé 4822" d="M340.27,154.841a15.59,15.59,0,0,1-18.263,4.823,17.342,17.342,0,0,1-9.324-8.709,14.217,14.217,0,0,1-.722-1.7c-3.763-10.752-3.948-29.184,7.572-35.328a16.9,16.9,0,0,1,24.883,14.423C344.954,140.71,345.845,147.944,340.27,154.841Z" transform="translate(-212.404 -99.108)" fill="#ebb376"/>
        <path id="Tracé_4823" data-name="Tracé 4823" d="M321.221,126.7c.169.983-.338,1.859-1,1.935s-1.26-.707-1.367-1.7.353-1.859,1-1.92S321.113,125.687,321.221,126.7Z" transform="translate(-207.486 -92.088)" fill="#263238"/>
        <path id="Tracé_4824" data-name="Tracé 4824" d="M313.836,127.451c.169.983-.353,1.859-1.014,1.935s-1.26-.707-1.367-1.69.353-1.874,1-1.935S313.836,126.514,313.836,127.451Z" transform="translate(-211.453 -91.686)" fill="#263238"/>
        <path id="Tracé_4825" data-name="Tracé 4825" d="M316.771,126.94a36.632,36.632,0,0,1-3.9,9.047,5.791,5.791,0,0,0,4.884.4Z" transform="translate(-210.686 -91.052)" fill="#d58745"/>
        <path id="Tracé_4826" data-name="Tracé 4826" d="M324.229,124.514a.66.66,0,0,1-.6-.169,4.716,4.716,0,0,0-3.948-1.536.6.6,0,0,1-.2-1.167h0a5.883,5.883,0,0,1,5.007,1.935.584.584,0,0,1,0,.829h0a.783.783,0,0,1-.261.107Z" transform="translate(-207.361 -93.91)" fill="#263238"/>
        <path id="Tracé_4827" data-name="Tracé 4827" d="M309.879,126.216a.568.568,0,0,1-.353,0,.584.584,0,0,1-.353-.753h0a5.837,5.837,0,0,1,3.886-3.717.584.584,0,0,1,.707.43h0a.6.6,0,0,1-.445.707h0a4.731,4.731,0,0,0-3.072,3.072.645.645,0,0,1-.369.261Z" transform="translate(-212.688 -93.845)" fill="#263238"/>
        <path id="Tracé_4828" data-name="Tracé 4828" d="M325.539,113.27l-.369,5.468a4.055,4.055,0,0,1,2.3,4.992c-1.536,4.608,1.536,11.6,5.13,14.239,0,0,0-2,1.69-1.536s1.8,10.752-1.2,15.805c0,0,4.685-4.716,6.881-15.683,2.043-10.138,1.9-18.432-.369-22.257Z" transform="translate(-204.093 -98.38)" fill="#263238"/>
        <path id="Tracé_4829" data-name="Tracé 4829" d="M340.617,131.408A11.689,11.689,0,0,1,334.473,138c-3.748,1.7-6.252-1.536-5.729-5.376.476-3.425,2.98-8.556,7-8.6S341.892,127.814,340.617,131.408Z" transform="translate(-202.215 -92.618)" fill="#ebb376"/>
        <path id="Tracé_4830" data-name="Tracé 4830" d="M334.046,123.934a36.05,36.05,0,0,0-12.534,1.229,20.49,20.49,0,0,1-10.921.445s-5.468-11.059,1.766-17.756,19.338-4.086,23.255-1.812-4.04,1.889-4.04,1.889,12.81,2.381,18.355,7.25,4.209,12.887,3.072,14.239-2.15-1.628-2.15-1.628a14.7,14.7,0,0,1-7.68,1.536C338.393,129.264,340.39,125.04,334.046,123.934Z" transform="translate(-212.969 -103.576)" fill="#263238"/>
        <path id="Tracé_4831" data-name="Tracé 4831" d="M316.53,137.018a32.252,32.252,0,0,1,2.212,4.255,7.045,7.045,0,0,0,.814-.215c3.717-.952,5.115-2.627,5.545-4.193a4.991,4.991,0,0,0,0-2.335,4.609,4.609,0,0,0-.445-1.26,18.232,18.232,0,0,1-6.881,3.395Z" transform="translate(-208.725 -87.659)" fill="#263238"/>
        <path id="Tracé_4832" data-name="Tracé 4832" d="M317.35,136.665l.691,1.244c3.487-.922,5.821-2.043,6.636-3.379a4.61,4.61,0,0,0-.445-1.26,18.232,18.232,0,0,1-6.881,3.395Z" transform="translate(-208.285 -87.659)" fill="#fff"/>
        <path id="Tracé_4833" data-name="Tracé 4833" d="M318.5,139.8c3.717-.952,5.115-2.627,5.545-4.193a12.194,12.194,0,0,0-3.9,1.889,4.608,4.608,0,0,0-1.644,2.3Z" transform="translate(-207.669 -86.405)" fill="#de5753"/>
        <path id="Tracé_4834" data-name="Tracé 4834" d="M342.432,147.77a41.734,41.734,0,0,1-14.239,11.643,18.432,18.432,0,0,1-3.5-7.9,32.133,32.133,0,0,0-8.172,5.56,22.364,22.364,0,0,0,3.625,10.045l7.788-5.576,9.446,6.9s12.411-8.018,15.191-16.251Z" transform="translate(-208.73 -79.887)" fill="#ff6d00"/>
        <path id="Tracé_4835" data-name="Tracé 4835" d="M342.432,147.77a41.734,41.734,0,0,1-14.239,11.643,18.432,18.432,0,0,1-3.5-7.9,32.133,32.133,0,0,0-8.172,5.56,22.364,22.364,0,0,0,3.625,10.045l7.788-5.576,9.446,6.9s12.411-8.018,15.191-16.251Z" transform="translate(-208.73 -79.887)" fill="#fff" opacity="0.4"/>
        <path id="Tracé_4836" data-name="Tracé 4836" d="M272.538,188.447c-10.476-.768-9.108,7.9-7.235,14.1l8.141,18.432,16.558-.6S283.013,189.2,272.538,188.447Zm-.753,21.6c-2.427-3.994-9.431-16.435-1.981-18.57s16.251,14.438,14.131,20.813-7.342,5.668-12.15-2.243Z" transform="translate(-236.878 -58.11)" fill="#ff6d00"/>
        <path id="Tracé_4837" data-name="Tracé 4837" d="M272.538,188.447c-10.476-.768-9.108,7.9-7.235,14.1l8.141,18.432,16.558-.6S283.013,189.2,272.538,188.447Zm-.753,21.6c-2.427-3.994-9.431-16.435-1.981-18.57s16.251,14.438,14.131,20.813-7.342,5.668-12.15-2.243Z" transform="translate(-236.878 -58.11)" fill="#fff" opacity="0.5"/>
        <path id="Tracé_4838" data-name="Tracé 4838" d="M267.58,215.573l5.161-19.123,25.068,6.344L291.4,234.4Z" transform="translate(-234.962 -53.795)" fill="#ff6d00"/>
        <path id="Tracé_4839" data-name="Tracé 4839" d="M287.9,234.532l-6.083-38.262,15.191-6.851,11.965,6.851,1.26,40.09Z" transform="translate(-227.329 -57.563)" fill="#ff6d00"/>
        <path id="Tracé_4840" data-name="Tracé 4840" d="M287.9,234.532l-6.083-38.262,15.191-6.851,11.965,6.851,1.26,40.09Z" transform="translate(-227.329 -57.563)" opacity="0.2"/>
        <path id="Tracé_4841" data-name="Tracé 4841" d="M292.9,230.271s8.356-52.224,14.438-53.929,11.689,6.39,11.689,6.39-5.176,34.022-8.97,46.08S292.9,230.271,292.9,230.271Z" transform="translate(-221.39 -64.699)" fill="#ff6d00"/>
        <path id="Tracé_4842" data-name="Tracé 4842" d="M292.9,230.271s8.356-52.224,14.438-53.929,11.689,6.39,11.689,6.39-5.176,34.022-8.97,46.08S292.9,230.271,292.9,230.271Z" transform="translate(-221.39 -64.699)" fill="#fff" opacity="0.8"/>
        <path id="Tracé_4843" data-name="Tracé 4843" d="M333.934,223.5c0-7.68,10.138-29.184-2.473-31.3s-22.641,20.767-36.864,20.721-24.3-12.288-24.3-12.288l2.181,4.531s-27.418,53.653-14.346,58.983c12.165,4.946,80.44,0,80.44,0C348.557,257.294,333.934,231.2,333.934,223.5Zm-1.536-7.941c-1.536.384-8.8-7.48-8.8-7.48-.614-14.254,7.142-15.222,10.936-11.121s-.6,18.232-2.12,18.6Z" transform="translate(-241.919 -56.148)" fill="#ff6d00"/>
        <path id="Tracé_4844" data-name="Tracé 4844" d="M333.934,223.5c0-7.68,10.138-29.184-2.473-31.3s-22.641,20.767-36.864,20.721-24.3-12.288-24.3-12.288l2.181,4.531s-27.418,53.653-14.346,58.983c12.165,4.946,80.44,0,80.44,0C348.557,257.294,333.934,231.2,333.934,223.5Zm-1.536-7.941c-1.536.384-8.8-7.48-8.8-7.48-.614-14.254,7.142-15.222,10.936-11.121s-.6,18.232-2.12,18.6Z" transform="translate(-241.919 -56.148)" fill="#fff" opacity="0.7"/>
        <rect id="Rectangle_24" data-name="Rectangle 24" width="15.483" height="10.598" transform="matrix(0.994, -0.107, 0.107, 0.994, 129.155, 123.456)" fill="#fff" opacity="0.6"/>
        <path id="Tracé_4845" data-name="Tracé 4845" d="M333.7,180.579l1.536,5.084a1.352,1.352,0,0,0,1.536.952h0a1.382,1.382,0,0,0,1.152-1.167l.814-5.9Z" transform="translate(-199.521 -62.853)" fill="#ff6d00"/>
        <path id="Tracé_4846" data-name="Tracé 4846" d="M333.7,180.579l1.536,5.084a1.352,1.352,0,0,0,1.536.952h0a1.382,1.382,0,0,0,1.152-1.167l.814-5.9Z" transform="translate(-199.521 -62.853)" opacity="0.4"/>
        <path id="Tracé_4847" data-name="Tracé 4847" d="M375.747,189.66s-5.714,17.157-8.172,20.89-65.818,20.122-65.818,20.122-5.315-2.7-8.663-2.412-16.4,3.333-16.712,5.76,6.7,13.363,8.356,14.27,18.432-1.613,20.214-5.975c0,0,64.712-11.612,70.794-14.054s19.123-31.3,19.123-31.3Z" transform="translate(-230.249 -57.434)" fill="#ebb376"/>
        <path id="Tracé_4848" data-name="Tracé 4848" d="M359.528,150.424c9.8.66,18.355,21.765,16.681,38.784s-17.326,46.08-17.326,46.08L337.01,224.536s5.468-19.461,11.7-37.893S352.124,149.917,359.528,150.424Z" transform="translate(-197.747 -78.471)" fill="#ff6d00"/>
        <path id="Tracé_4849" data-name="Tracé 4849" d="M359.528,150.424c9.8.66,18.355,21.765,16.681,38.784s-17.326,46.08-17.326,46.08L337.01,224.536s5.468-19.461,11.7-37.893S352.124,149.917,359.528,150.424Z" transform="translate(-197.747 -78.471)" fill="#fff" opacity="0.4"/>
        <path id="Tracé_4850" data-name="Tracé 4850" d="M335.31,201.158l2.427-3.548,25.544,8.632-1.321,6.344Z" transform="translate(-198.658 -53.173)" fill="#ff6d00"/>
        <path id="Tracé_4851" data-name="Tracé 4851" d="M335.31,201.158l2.427-3.548,25.544,8.632-1.321,6.344Z" transform="translate(-198.658 -53.173)" fill="#fff" opacity="0.3"/>
      </g>
      <path id="Tracé_4852" data-name="Tracé 4852" d="M204.959,222.07H249.9a2.749,2.749,0,0,1,2.749,2.749V250.1H202.21V224.8A2.749,2.749,0,0,1,204.959,222.07Z" transform="translate(-166.483 -40.062)" fill="#ff6d00"/>
      <path id="Tracé_4853" data-name="Tracé 4853" d="M252.576,224.8v25.283H202.21V224.8a2.734,2.734,0,0,1,2.734-2.734H249.9a2.734,2.734,0,0,1,2.673,2.734Z" transform="translate(-166.483 -40.062)" fill="#fff" opacity="0.3"/>
      <path id="Tracé_4854" data-name="Tracé 4854" d="M240.288,224.8v25.283H202.21V224.8a2.734,2.734,0,0,1,2.734-2.734h32.671a2.734,2.734,0,0,1,2.673,2.734Z" transform="translate(-166.483 -40.062)" fill="#fff" opacity="0.4"/>
      <rect id="Rectangle_25" data-name="Rectangle 25" width="351.622" height="264.177" transform="translate(3.702 217.551)" fill="#ff6d00"/>
      <rect id="Rectangle_26" data-name="Rectangle 26" width="351.622" height="264.177" transform="translate(3.702 217.551)" fill="#fff" opacity="0.3"/>
      <rect id="Rectangle_27" data-name="Rectangle 27" width="260.383" height="264.177" transform="translate(3.702 217.551)" fill="#fff" opacity="0.4"/>
      <rect id="Rectangle_28" data-name="Rectangle 28" width="360.408" height="15.283" rx="1.56" transform="translate(0 207.828)" fill="#ff6d00"/>
      <rect id="Rectangle_29" data-name="Rectangle 29" width="268.248" height="15.283" rx="1.56" transform="translate(0 207.828)" fill="#fff" opacity="0.2"/>
    </g>
    <g id="freepik--character-1--inject-173" transform="translate(120.273 164.446)">
      <path id="Tracé_4855" data-name="Tracé 4855" d="M178.812,210.13c5.3,1.659,6.144,32.456,6.144,32.456h-3.072s1.536-32.64-6.374-31.626Z" transform="translate(-56.27 -107.332)" fill="#263238"/>
      <path id="Tracé_4856" data-name="Tracé 4856" d="M178.812,210.13c5.3,1.659,6.144,32.456,6.144,32.456h-3.072s1.536-32.64-6.374-31.626Z" transform="translate(-56.27 -107.332)" opacity="0.2"/>
      <path id="Tracé_4857" data-name="Tracé 4857" d="M188.045,409.425l-9.692,1.7-3.978-13.21L170.75,385.8l11.182-3.9,3.241,14.577Z" transform="translate(-58.822 -15.263)" fill="#e4897b"/>
      <path id="Tracé_4858" data-name="Tracé 4858" d="M185.208,396.747l-10.8,1.429-3.64-12.257,11.151-3.978Z" transform="translate(-58.811 -15.241)" opacity="0.2"/>
      <path id="Tracé_4859" data-name="Tracé 4859" d="M144.408,412.657h-9.846l-1.613-13.87-1.459-12.641,11.674-1.935.661,15.053Z" transform="translate(-79.865 -14.024)" fill="#e4897b"/>
      <path id="Tracé_4860" data-name="Tracé 4860" d="M143.824,399.375l-10.875-.476-1.459-12.7,11.674-1.966Z" transform="translate(-79.865 -14.014)" opacity="0.2"/>
      <path id="Tracé_4861" data-name="Tracé 4861" d="M158.924,425.082a16.893,16.893,0,0,0-5.253-2.857h0s-5.714-5.668-8.463-22.733l-7.48-1.951a6.405,6.405,0,0,0-6.8,2.657,3.623,3.623,0,0,0-.476.983,42.674,42.674,0,0,0-.8,5.545c-.753,5.775-.108,18.739-.108,18.739h1.352l.538-11.766c.2-3.994,3.256.691,4.132,4.992s2.734,8.878,11.489,9.093C157.265,427.985,161.5,427.524,158.924,425.082Z" transform="translate(-81.049 -6.973)" fill="#263238"/>
      <path id="Tracé_4862" data-name="Tracé 4862" d="M201.424,424.332a16.9,16.9,0,0,0-5.253-2.857h0s-5.714-5.668-8.463-22.733l-7.48-1.951a6.405,6.405,0,0,0-6.8,2.657,3.625,3.625,0,0,0-.476.983,42.671,42.671,0,0,0-.8,5.545c-.753,5.775-.108,18.739-.108,18.739h1.352l.538-11.766c.2-3.994,3.256.691,4.132,4.992s2.734,8.878,11.489,9.093C199.765,427.235,204,426.835,201.424,424.332Z" transform="translate(-58.268 -7.375)" fill="#263238"/>
      <path id="Tracé_4863" data-name="Tracé 4863" d="M215.09,468.46l-15.928,2.8c-16.082-40.044-27.51-73.467-35.589-101.207-4.347-14.961-7.972-28.262-10.568-40.074l.476,43.592v98.2h-15.7C98.446,284.37,126.325,241.654,126.325,241.654L173.4,233.82a215.7,215.7,0,0,1,3.932,26.389l2.12,15.606,18.432,95.048Z" transform="translate(-87.771 -94.634)" fill="#ff6d00"/>
      <g id="Groupe_1333" data-name="Groupe 1333" transform="translate(28.969 139.186)" opacity="0.4">
        <path id="Tracé_4864" data-name="Tracé 4864" d="M215.09,468.46l-15.928,2.8c-16.082-40.044-27.51-73.467-35.589-101.207-4.347-14.961-7.972-28.262-10.568-40.074l.476,43.592v98.2h-15.7C98.446,284.37,126.325,241.654,126.325,241.654L173.4,233.82a215.7,215.7,0,0,1,3.932,26.389l2.12,15.606,18.432,95.048Z" transform="translate(-116.74 -233.82)" fill="#fff"/>
      </g>
      <path id="Tracé_4865" data-name="Tracé 4865" d="M189.91,212.582l15.882-15.7s.553-4.209,2.089-5.376,12.442-5.13,13.824-4.255,3.18,9.692,1.321,11.305-11.781,3.671-12.795,3.5l-17.188,20.4Z" transform="translate(-48.552 -119.661)" fill="#eec1bb"/>
      <path id="Tracé_4866" data-name="Tracé 4866" d="M153.519,185.07c6.851,3.64,31.166,37.632,34.76,39.322s30.966-20.521,30.966-20.521l4.608,7.88s-22.518,31.749-35.159,30.213-37.033-28.416-37.033-28.416Z" transform="translate(-69.054 -120.764)" fill="#263238"/>
      <path id="Tracé_4867" data-name="Tracé 4867" d="M153.519,185.07c6.851,3.64,31.166,37.632,34.76,39.322s30.966-20.521,30.966-20.521l4.608,7.88s-22.518,31.749-35.159,30.213-37.033-28.416-37.033-28.416Z" transform="translate(-69.054 -120.764)" fill="#fff" opacity="0.4"/>
      <path id="Tracé_4868" data-name="Tracé 4868" d="M194.68,198.487l1.889-1.8,4.992,8.448-1.782,3.456Z" transform="translate(-45.995 -114.536)" fill="#ff6d00"/>
      <path id="Tracé_4869" data-name="Tracé 4869" d="M161.409,218.18c-5.683-5.422-9.769-9.923-9.769-9.923l.43-6.758,2.135-6.559a26.957,26.957,0,0,1,7.2,23.24Z" transform="translate(-69.065 -115.474)" opacity="0.2"/>
      <path id="Tracé_4870" data-name="Tracé 4870" d="M150.837,351.084c-4.347-14.961-7.68-28.262-10.337-40.074a368.939,368.939,0,0,1,3.072-41.81S150.484,323.114,150.837,351.084Z" transform="translate(-75.036 -75.67)" opacity="0.2"/>
      <path id="Tracé_4871" data-name="Tracé 4871" d="M176.636,257.386c1.92-33.792,1.075-52.408.2-61.7-.968-9.907-2.488-10.276-2.488-10.276s-10.752-1.044-20.076-.968a151.235,151.235,0,0,0-21.5,2.273,143.8,143.8,0,0,0-19.968,4.808q1.628,4.608,3,8.847c1.229,3.656,2.319,7.066,3.3,10.23,1.859,5.944,3.287,11.075,4.439,15.667a171.4,171.4,0,0,1,5.115,35.328s-11.827,30.874-14.131,53.53l39.168,4.224,5.376-22.656,5.376,23.424,21.888-7.68Z" transform="translate(-89.883 -121.103)" fill="#263238"/>
      <path id="Tracé_4872" data-name="Tracé 4872" d="M176.636,257.386c1.92-33.792,1.075-52.408.2-61.7-.968-9.907-2.488-10.276-2.488-10.276s-10.752-1.044-20.076-.968a151.235,151.235,0,0,0-21.5,2.273,143.8,143.8,0,0,0-19.968,4.808q1.628,4.608,3,8.847c1.229,3.656,2.319,7.066,3.3,10.23,1.859,5.944,3.287,11.075,4.439,15.667a171.4,171.4,0,0,1,5.115,35.328s-11.827,30.874-14.131,53.53l39.168,4.224,5.376-22.656,5.376,23.424,21.888-7.68Z" transform="translate(-89.883 -121.103)" fill="#fff" opacity="0.4"/>
      <path id="Tracé_4873" data-name="Tracé 4873" d="M128,184.082s5.637-4.5,15.713-.906l1.367,5.13s-8.648,3.272-13.01,2.411S128,184.082,128,184.082Z" transform="translate(-81.737 -122.526)" fill="#ff6d00"/>
      <path id="Tracé_4874" data-name="Tracé 4874" d="M128,184.082s5.637-4.5,15.713-.906l1.367,5.13s-8.648,3.272-13.01,2.411S128,184.082,128,184.082Z" transform="translate(-81.737 -122.526)" opacity="0.2"/>
      <path id="Tracé_4875" data-name="Tracé 4875" d="M122.2,222.949c-.522-2.58-1.137-5.33-1.889-8.279-.476-1.874-1-3.84-1.536-5.929,1.536-5.238,3.072-1.152,3.072-1.152A47.2,47.2,0,0,1,122.2,222.949Z" transform="translate(-86.683 -109.507)" opacity="0.2"/>
      <path id="Tracé_4876" data-name="Tracé 4876" d="M146.037,191.848a12.15,12.15,0,0,0-1.536-.63c-1.106-.876-2.442-2.98-2.381-8.095a41.765,41.765,0,0,1,.553-6.006L128.45,174.46s4.854,9.585.8,16.712c-1.382.614-2.212,1.536-2.074,2.642C128.25,202.047,145.93,210,145.93,210S154.562,196.563,146.037,191.848Z" transform="translate(-82.186 -126.451)" fill="#eec1bb"/>
      <path id="Tracé_4877" data-name="Tracé 4877" d="M142.269,177.117a41.766,41.766,0,0,0-.553,6.006c-9.615,0-13.686-8.663-13.686-8.663Z" transform="translate(-81.72 -126.451)" opacity="0.2"/>
      <path id="Tracé_4878" data-name="Tracé 4878" d="M133.16,145.642s16.65-2.1,19.722,11.366a20.69,20.69,0,0,1-7.3,20.92Z" transform="translate(-78.97 -141.962)" fill="#263238"/>
      <path id="Tracé_4879" data-name="Tracé 4879" d="M137.356,150.287c12.38-.676,16.727,5.729,18.325,18.432,2.012,15.882-.906,27.4-16.573,24.853C117.833,190.1,116.789,151.408,137.356,150.287Z" transform="translate(-84.671 -139.434)" fill="#eec1bb"/>
      <path id="Tracé_4880" data-name="Tracé 4880" d="M138.88,162.11a26.111,26.111,0,0,0,3.886,4.931,3.394,3.394,0,0,1-3.195,1.536Z" transform="translate(-75.904 -133.071)" fill="#d4827d"/>
      <path id="Tracé_4881" data-name="Tracé 4881" d="M134.77,162.332c.077,1.014-.415,1.874-1.091,1.935s-1.29-.722-1.367-1.751.415-1.874,1.091-1.935S134.694,161.318,134.77,162.332Z" transform="translate(-79.429 -133.892)" fill="#263238"/>
      <path id="Tracé_4882" data-name="Tracé 4882" d="M132.84,160.994l2.135-1.044S134.023,161.9,132.84,160.994Z" transform="translate(-79.142 -134.229)" fill="#263238"/>
      <path id="Tracé_4883" data-name="Tracé 4883" d="M142.98,161.552c0,1.014-.415,1.874-1.091,1.935s-1.29-.737-1.367-1.751.4-1.874,1.091-1.935S142.9,160.538,142.98,161.552Z" transform="translate(-75.028 -134.31)" fill="#263238"/>
      <path id="Tracé_4884" data-name="Tracé 4884" d="M141,160.214l2.15-1.044S142.26,161.121,141,160.214Z" transform="translate(-74.768 -134.647)" fill="#263238"/>
      <path id="Tracé_4885" data-name="Tracé 4885" d="M135.358,156.165a6.467,6.467,0,0,0-5.268,2.166" transform="translate(-80.616 -136.265)" fill="none" stroke="#263238" stroke-linecap="round" stroke-linejoin="round" stroke-width="0.686"/>
      <path id="Tracé_4886" data-name="Tracé 4886" d="M139.36,155.593a5.775,5.775,0,0,1,4.992.737" transform="translate(-75.647 -136.707)" fill="none" stroke="#263238" stroke-linecap="round" stroke-linejoin="round" stroke-width="0.686"/>
      <path id="Tracé_4887" data-name="Tracé 4887" d="M126.224,173.523s5.238-10.476,3.932-18.278c0,0,23.977-11.366,26.558,13.455,0,0,1.183-22.241-20.122-21.5s-19.523,31.811-8.018,40.474C128.574,187.609,122.983,180.082,126.224,173.523Z" transform="translate(-85.935 -141.074)" fill="#263238"/>
      <path id="Tracé_4888" data-name="Tracé 4888" d="M144.594,145.884s10.168-2.5,13.056.184-17.664,21.7-28.416,23.624c0,0-3.656,11.9-.768,17.464,0,0-12.1-4.224-12.672-22.656S134.549,139.126,144.594,145.884Z" transform="translate(-88.285 -143.126)" fill="#263238"/>
      <path id="Tracé_4889" data-name="Tracé 4889" d="M128.673,167.627a5.437,5.437,0,0,0-6.144-4.608c-3.809.63-5.207,8.6,4.439,9.984C128.382,173.1,129.073,171.728,128.673,167.627Z" transform="translate(-86.219 -132.613)" fill="#eec1bb"/>
      <path id="Tracé_4890" data-name="Tracé 4890" d="M131.08,153.228s-4.224-10.752-15.56-9.984-13.056,18.432-7.1,31.488,1.981,17.311,1.981,17.311,6.328-.768,6.328-12.488a42.258,42.258,0,0,1,.384,7.5s4.224-5.96.2-17.28,8.832-6.144,8.832-6.144Z" transform="translate(-94.032 -143.204)" fill="#263238"/>
      <path id="Tracé_4891" data-name="Tracé 4891" d="M149.308,145.73s-5.376,17.28-19.768,22.456" transform="translate(-80.911 -141.851)" fill="none" stroke="#263238" stroke-linecap="round" stroke-linejoin="round" stroke-width="0.686"/>
      <path id="Tracé_4892" data-name="Tracé 4892" d="M133,169.23a9.907,9.907,0,0,0,7.1,2.872" transform="translate(-79.056 -129.255)" fill="none" stroke="#263238" stroke-linecap="round" stroke-linejoin="round" stroke-width="0.686"/>
      <path id="Tracé_4893" data-name="Tracé 4893" d="M128.815,183.6s2.55,5.176,11.244,8.863l3.548,5.729V191.66a20.2,20.2,0,0,0,.922-8.97l2.888,5.453A4.608,4.608,0,0,1,150.9,191.8c.922,3.349-4.024,15.36-4.024,15.36s-15.805-5.668-19.354-12.78c-2.627-5.3.522-6.574.522-6.574Z" transform="translate(-82.551 -122.04)" fill="#ff6d00"/>
      <path id="Tracé_4894" data-name="Tracé 4894" d="M142.223,201.877a1.137,1.137,0,1,1-1.137-1.137,1.137,1.137,0,0,1,1.137,1.137Z" transform="translate(-75.331 -112.365)" fill="#263238"/>
      <path id="Tracé_4895" data-name="Tracé 4895" d="M144.023,213.447a1.137,1.137,0,1,1-1.137-1.137A1.137,1.137,0,0,1,144.023,213.447Z" transform="translate(-74.366 -106.164)" fill="#263238"/>
      <path id="Tracé_4896" data-name="Tracé 4896" d="M144.793,227.467a1.137,1.137,0,1,1-1.137-1.137,1.137,1.137,0,0,1,1.137,1.137Z" transform="translate(-73.953 -98.649)" fill="#263238"/>
      <path id="Tracé_4897" data-name="Tracé 4897" d="M145.4,242.157a1.137,1.137,0,1,1-1.137-1.137A1.137,1.137,0,0,1,145.4,242.157Z" transform="translate(-73.626 -90.775)" fill="#263238"/>
      <path id="Tracé_4898" data-name="Tracé 4898" d="M202.7,193.729a46.2,46.2,0,0,1,23.347-4.884l8.556,9s-7.3-1.766-23.762,2.028Z" transform="translate(-41.697 -118.779)" fill="#ff6d00"/>
      <path id="Tracé_4899" data-name="Tracé 4899" d="M202.7,193.729a46.2,46.2,0,0,1,23.347-4.884l8.556,9s-7.3-1.766-23.762,2.028Z" transform="translate(-41.697 -118.779)" opacity="0.4"/>
      <path id="Tracé_4900" data-name="Tracé 4900" d="M202.64,193.694a46.249,46.249,0,0,1,23.04-6.144l9.032,8.525s-7.388-1.306-23.639,3.3Z" transform="translate(-41.729 -119.435)" fill="#ff6d00"/>
      <path id="Tracé_4901" data-name="Tracé 4901" d="M202.64,193.694a46.249,46.249,0,0,1,23.04-6.144l9.032,8.525s-7.388-1.306-23.639,3.3Z" transform="translate(-41.729 -119.435)" opacity="0.2"/>
      <path id="Tracé_4902" data-name="Tracé 4902" d="M203.07,193.065l8.279,6.9a42,42,0,0,1,26.342-4.147l-10.4-9.139S212.178,184.924,203.07,193.065Z" transform="translate(-41.498 -119.989)" fill="#ff6d00"/>
      <path id="Tracé_4903" data-name="Tracé 4903" d="M204.44,192.987l5.806,5.13s11.843-6.328,23.547-3.994l-7.68-6.989S212.98,185.475,204.44,192.987Z" transform="translate(-40.764 -119.741)" opacity="0.2"/>
      <path id="Tracé_4904" data-name="Tracé 4904" d="M217.194,190.213c0,1.244-1.352,2.258-3.072,2.258s-3.072-1.014-3.072-2.258,1.352-2.273,3.072-2.273S217.194,188.954,217.194,190.213Z" transform="translate(-37.221 -119.226)" fill="#ff6d00"/>
      <path id="Tracé_4905" data-name="Tracé 4905" d="M164.895,267.308c.568-8.556,5.868-33.792,5.868-33.792a51.839,51.839,0,0,1,7.311-4.116,39.935,39.935,0,0,1,12.119-2.319s2.412,31.841,0,35.328S164.219,277.43,164.895,267.308Z" transform="translate(-61.968 -98.247)" fill="#263238"/>
      <path id="Tracé_4906" data-name="Tracé 4906" d="M168.71,242.6s3.794-33.9,13.747-32.456c0,0-7.864,1.659-10.752,33.562Z" transform="translate(-59.915 -107.348)" fill="#263238"/>
      <path id="Tracé_4907" data-name="Tracé 4907" d="M155.938,225.544c1.766-.384,6.344-11.919,5.76-13.333S127,215.56,127,215.56L129.243,228Z" transform="translate(-82.272 -106.357)" fill="#ff6d00"/>
      <path id="Tracé_4908" data-name="Tracé 4908" d="M155.938,225.544c1.766-.384,6.344-11.919,5.76-13.333S127,215.56,127,215.56L129.243,228Z" transform="translate(-82.272 -106.357)" opacity="0.2"/>
      <path id="Tracé_4909" data-name="Tracé 4909" d="M117.893,216.073s36.4-5.176,38.031-4.608,4.977,14.377,4.977,14.377-31.534,4.992-34.284,4.193S116.6,217.978,117.893,216.073Z" transform="translate(-87.235 -106.64)" fill="#ff6d00"/>
      <path id="Tracé_4910" data-name="Tracé 4910" d="M109.79,236.71l18.893-11.919s1.444-3.978,3.195-4.792,13.256-2.335,14.377-1.183,1.014,10.138-1.152,11.32-12.288,1.044-13.24.66L110.681,246.97Z" transform="translate(-91.497 -102.9)" fill="#eec1bb"/>
      <path id="Tracé_4911" data-name="Tracé 4911" d="M120.782,189.05s12.288,17.941,10.552,33.3L114.96,249.476l11-5.622,4.992,9.4s-12.672,19.523-28.8,14.915S120.782,189.05,120.782,189.05Z" transform="translate(-97.88 -118.631)" fill="#263238"/>
      <path id="Tracé_4912" data-name="Tracé 4912" d="M120.782,189.05s12.288,17.941,10.552,33.3L114.96,249.476l11-5.622,4.992,9.4s-12.672,19.523-28.8,14.915S120.782,189.05,120.782,189.05Z" transform="translate(-97.88 -118.631)" fill="#fff" opacity="0.4"/>
      <path id="Tracé_4913" data-name="Tracé 4913" d="M115.41,224.792l6.282,11.658,1.4-3.333L118.1,223.64Z" transform="translate(-88.484 -100.091)" fill="#ff6d00"/>
    </g>
  </g>
</svg>
