<svg xmlns="http://www.w3.org/2000/svg" width="542.275" height="497.641" viewBox="0 0 542.275 497.641">
  <g id="Plain_credit_card-pana" data-name="Plain credit card-pana" transform="translate(-33.976 -40.61)">
    <g id="freepik--Floor--inject-72" transform="translate(65.543 537.596)">
      <path id="Tracé_4914" data-name="Tracé 4914" d="M570.218,442.941c0,.185-114.341.334-255.348.334s-255.36-.185-255.36-.334,114.3-.321,255.36-.321S570.218,442.768,570.218,442.941Z" transform="translate(-59.51 -442.62)" fill="#263238"/>
    </g>
    <g id="freepik--Device--inject-72" transform="translate(33.976 65.187)">
      <path id="Tracé_4915" data-name="Tracé 4915" d="M190.162,144.024s1.076-55.4-44.752-83.534H290.657s41.526,33.651,41.872,83.534Z" transform="translate(-7.649 -60.49)" fill="#ebebeb"/>
      <path id="Tracé_4916" data-name="Tracé 4916" d="M268.115,76.891c0,.185-16.59.334-37.088.334s-37.088-.148-37.088-.334,16.59-.321,37.088-.321S268.115,76.718,268.115,76.891Z" transform="translate(3.817 -56.691)" fill="#455a64"/>
      <path id="Tracé_4917" data-name="Tracé 4917" d="M285.523,85c0,.173-21.981.321-49.092.321S187.34,85.177,187.34,85s21.981-.334,49.092-.334S285.523,84.818,285.523,85Z" transform="translate(2.257 -54.777)" fill="#263238"/>
      <path id="Tracé_4918" data-name="Tracé 4918" d="M292.206,105.5c0,.173-21.981.321-49.092.321s-49.1-.148-49.1-.321,21.981-.321,49.1-.321S292.206,105.328,292.206,105.5Z" transform="translate(3.833 -49.932)" fill="#263238"/>
      <path id="Tracé_4919" data-name="Tracé 4919" d="M241.721,94.331a11.722,11.722,0,0,1-2,.136l-5.489.1c-4.636.062-11.027.1-18.1.1s-13.463,0-18.1-.1l-5.489-.1a11.722,11.722,0,0,1-2-.136,12.871,12.871,0,0,1,2-.124l5.489-.1c4.636,0,11.027-.1,18.1-.1s13.463,0,18.1.1l5.489.1A12.871,12.871,0,0,1,241.721,94.331Z" transform="translate(3.013 -52.571)" fill="#263238"/>
      <path id="Tracé_4920" data-name="Tracé 4920" d="M273.985,94.331a6.465,6.465,0,0,1-1.484.136l-4.055.1c-3.412.062-8.147.1-13.364.1s-9.952,0-13.364-.1l-4.055-.1a6.6,6.6,0,0,1-1.484-.136,7.234,7.234,0,0,1,1.483-.124l4.055-.1c3.412,0,8.147-.1,13.364-.1s9.89,0,13.364.1l4.055.1a7.084,7.084,0,0,1,1.484.124Z" transform="translate(13.796 -52.571)" fill="#263238"/>
      <path id="Tracé_4921" data-name="Tracé 4921" d="M249.093,116.491a11.978,11.978,0,0,1-2.015.136l-5.477.1c-4.636,0-11.04.1-18.1.1s-13.475,0-18.111-.1l-5.477-.1a11.979,11.979,0,0,1-2.015-.136,13.154,13.154,0,0,1,2.015-.124l5.477-.1c4.636,0,11.04-.1,18.111-.1s13.463,0,18.1.1l5.477.1A13.155,13.155,0,0,1,249.093,116.491Z" transform="translate(4.752 -47.335)" fill="#263238"/>
      <path id="Tracé_4922" data-name="Tracé 4922" d="M281.357,116.491a6.6,6.6,0,0,1-1.484.136l-4.055.1c-3.424,0-8.147.1-13.364.1s-9.89,0-13.376-.1l-4.055-.1a6.6,6.6,0,0,1-1.483-.136,7.232,7.232,0,0,1,1.483-.124l4.055-.1c3.424,0,8.147-.1,13.376-.1s9.89,0,13.364.1l4.055.1a7.232,7.232,0,0,1,1.484.124Z" transform="translate(15.535 -47.335)" fill="#263238"/>
      <path id="Tracé_4923" data-name="Tracé 4923" d="M176.868,126.79H391.16l11.67,371.247a18.976,18.976,0,0,1-19,19.57h-222.8a12.264,12.264,0,0,1-12.251-11.66l-10.3-209.629S74.927,273.237,76,202.857C76,202.857,78.9,126.79,176.868,126.79Z" transform="translate(-24.05 -44.826)" fill="#263238"/>
      <path id="Tracé_4924" data-name="Tracé 4924" d="M168.786,517.038,159.44,126.79H379.221l3.968,373.83a16.417,16.417,0,0,1-16.454,16.937Z" transform="translate(-4.334 -44.826)" fill="#455a64"/>
      <path id="Tracé_4925" data-name="Tracé 4925" d="M174.13,145.08l4.451,181.7h179l-2.411-181.7Z" transform="translate(-0.864 -40.505)" fill="#263238"/>
      <path id="Tracé_4926" data-name="Tracé 4926" d="M190.375,164.981c8.74,2.361,19.78,1.36,28.755.927a2.473,2.473,0,1,0,0-4.945c-8.975-.445-20.027-1.446-28.755.927a1.644,1.644,0,0,0,0,3.152Z" transform="translate(2.696 -36.893)" fill="#e0e0e0"/>
      <path id="Tracé_4927" data-name="Tracé 4927" d="M225.987,164.7c8.58,2.188,19.669,1.793,28.434.952a2.473,2.473,0,0,0,0-4.945c-8.765-.853-19.854-1.236-28.434.952a1.595,1.595,0,0,0,0,3.054Z" transform="translate(11.12 -36.972)" fill="#e0e0e0"/>
      <path id="Tracé_4928" data-name="Tracé 4928" d="M261.106,163.954c4.315,1.31,8.975,1.088,13.45,1.162a87.479,87.479,0,0,0,13.71-.26c2.238-.321,2.238-4.216,0-4.525a86.008,86.008,0,0,0-13.71-.272c-4.475.074-9.136-.148-13.45,1.162a1.422,1.422,0,0,0,0,2.732Z" transform="translate(19.442 -37.003)" fill="#e0e0e0"/>
      <path id="Tracé_4929" data-name="Tracé 4929" d="M293.7,164.183a72.462,72.462,0,0,0,9.828.754c3.264.074,6.787.606,9.952-.3a2.163,2.163,0,0,0,0-4.141c-3.165-.9-6.688-.371-9.952-.3a70.469,70.469,0,0,0-9.828.766,1.681,1.681,0,0,0,0,3.214Z" transform="translate(27.104 -36.985)" fill="#e0e0e0"/>
      <rect id="Rectangle_30" data-name="Rectangle 30" width="51.873" height="37.075" transform="translate(177.779 307.889)" fill="#ff6d00"/>
      <rect id="Rectangle_31" data-name="Rectangle 31" width="9.383" height="37.075" transform="translate(177.779 307.889)" fill="#263238"/>
      <rect id="Rectangle_32" data-name="Rectangle 32" width="51.873" height="37.075" transform="translate(241.297 307.889)" fill="#ff6d00"/>
      <rect id="Rectangle_33" data-name="Rectangle 33" width="9.383" height="37.075" transform="translate(240.766 307.889)" fill="#263238"/>
      <rect id="Rectangle_34" data-name="Rectangle 34" width="51.873" height="37.075" transform="translate(304.828 307.889)" fill="#ff6d00"/>
      <rect id="Rectangle_35" data-name="Rectangle 35" width="9.383" height="37.075" transform="translate(303.345 307.889)" fill="#263238"/>
      <rect id="Rectangle_36" data-name="Rectangle 36" width="51.873" height="37.075" transform="translate(304.828 357.215)" fill="#ff6d00"/>
      <rect id="Rectangle_37" data-name="Rectangle 37" width="9.667" height="37.075" transform="translate(304.828 357.215)" fill="#263238"/>
      <rect id="Rectangle_38" data-name="Rectangle 38" width="51.873" height="37.075" transform="translate(177.779 357.215)" fill="#ff6d00"/>
      <rect id="Rectangle_39" data-name="Rectangle 39" width="9.383" height="37.075" transform="translate(177.779 357.141)" fill="#263238"/>
      <rect id="Rectangle_40" data-name="Rectangle 40" width="51.873" height="37.075" transform="translate(177.779 406.047)" fill="#ff6d00"/>
      <rect id="Rectangle_41" data-name="Rectangle 41" width="51.873" height="37.075" transform="translate(177.779 406.047)" opacity="0.3"/>
      <rect id="Rectangle_42" data-name="Rectangle 42" width="9.383" height="37.075" transform="translate(177.779 406.047)" fill="#263238"/>
      <rect id="Rectangle_43" data-name="Rectangle 43" width="51.873" height="37.075" transform="translate(241.013 357.215)" fill="#ff6d00"/>
      <rect id="Rectangle_44" data-name="Rectangle 44" width="9.383" height="37.075" transform="translate(241.013 357.141)" fill="#263238"/>
      <rect id="Rectangle_45" data-name="Rectangle 45" width="51.873" height="37.075" transform="translate(241.297 406.047)" fill="#ff6d00"/>
      <rect id="Rectangle_46" data-name="Rectangle 46" width="51.873" height="37.075" transform="translate(241.297 406.047)" opacity="0.3"/>
      <rect id="Rectangle_47" data-name="Rectangle 47" width="9.383" height="37.075" transform="translate(241.297 406.047)" fill="#263238"/>
      <rect id="Rectangle_48" data-name="Rectangle 48" width="51.873" height="37.075" transform="translate(304.828 406.047)" fill="#e0e0e0"/>
      <rect id="Rectangle_49" data-name="Rectangle 49" width="9.383" height="37.075" transform="translate(304.828 406.047)" fill="#263238"/>
      <path id="Tracé_4930" data-name="Tracé 4930" d="M155.357,517.6c-.89,0-4.141-87.453-7.269-195.328s-4.945-195.439-4.055-195.464,4.141,87.428,7.269,195.328S156.247,517.577,155.357,517.6Z" transform="translate(-8.028 -44.822)" fill="#455a64"/>
      <path id="Tracé_4931" data-name="Tracé 4931" d="M322.3,275.32v6.663l20.522,5.106-.111-10.273Z" transform="translate(34.142 -9.736)" fill="#455a64"/>
      <path id="Tracé_4932" data-name="Tracé 4932" d="M76.71,424.482v0Z" transform="translate(-23.879 25.501)" fill="none"/>
      <path id="Tracé_4933" data-name="Tracé 4933" d="M141.187,264.623a8.3,8.3,0,0,0-3.536-.581,12.533,12.533,0,0,0-3.536.865l-14.044,4.7-27.445,9.222L40.7,296.135a8.654,8.654,0,0,0-4.945,3.709,8.357,8.357,0,0,0-1.174,5.946,23.028,23.028,0,0,0,.89,3l1,2.992c.668,1.99,1.323,3.956,1.99,5.922q3.907,11.732,7.615,22.784c4.945,14.711,9.494,28.434,13.685,40.908,8.332,25.009,15.095,45.259,19.78,59.254,2.324,7,4.117,12.424,5.353,16.071.593,1.842,1.063,3.239,1.372,4.191s.445,1.434.445,1.434h0a7.734,7.734,0,0,0,.63,1.36,8.617,8.617,0,0,0,9.841,4.141c2.7-.865,5.786-1.953,9.284-3.115L158.1,447.329,103.036,275.366l27.544-9.235,49.734,152.393-2.176-53.011c-10.014-29.831-20.831-62.085-32.143-95.748A8.431,8.431,0,0,0,141.187,264.623ZM77.718,342.965,65.429,304.072l4.166-1.323,12.288,38.893Zm8.53-21.424-7.17-22.673,4.166-1.31,7.17,22.661ZM95.866,350.3l-7.158-22.673,4.166-1.31,7.158,22.661Zm2.473,6.082,4.166-1.323,19.842,62.777-4.166,1.31ZM124.3,438.515l-4.24-13.413,4.166-1.323,4.24,13.426Zm17.147-7.121-4.166,1.31-26.171-82.829,4.166-1.31Zm-28.31-90.753-4.166,1.31-15.181-48,4.166-1.323Z" transform="translate(-33.862 -12.403)" fill="#ff6d00"/>
      <path id="Tracé_4934" data-name="Tracé 4934" d="M141.187,264.623a8.3,8.3,0,0,0-3.536-.581,12.533,12.533,0,0,0-3.536.865l-14.044,4.7-27.445,9.222L40.7,296.135a8.654,8.654,0,0,0-4.945,3.709,8.357,8.357,0,0,0-1.174,5.946,23.028,23.028,0,0,0,.89,3l1,2.992c.668,1.99,1.323,3.956,1.99,5.922q3.907,11.732,7.615,22.784c4.945,14.711,9.494,28.434,13.685,40.908,8.332,25.009,15.095,45.259,19.78,59.254,2.324,7,4.117,12.424,5.353,16.071.593,1.842,1.063,3.239,1.372,4.191s.445,1.434.445,1.434h0a7.734,7.734,0,0,0,.63,1.36,8.617,8.617,0,0,0,9.841,4.141c2.7-.865,5.786-1.953,9.284-3.115L158.1,447.329,103.036,275.366l27.544-9.235,49.734,152.393-2.176-53.011c-10.014-29.831-20.831-62.085-32.143-95.748A8.431,8.431,0,0,0,141.187,264.623ZM77.718,342.965,65.429,304.072l4.166-1.323,12.288,38.893Zm8.53-21.424-7.17-22.673,4.166-1.31,7.17,22.661ZM95.866,350.3l-7.158-22.673,4.166-1.31,7.158,22.661Zm2.473,6.082,4.166-1.323,19.842,62.777-4.166,1.31ZM124.3,438.515l-4.24-13.413,4.166-1.323,4.24,13.426Zm17.147-7.121-4.166,1.31-26.171-82.829,4.166-1.31Zm-28.31-90.753-4.166,1.31-15.181-48,4.166-1.323Z" transform="translate(-33.862 -12.403)" opacity="0.3"/>
      <path id="Tracé_4935" data-name="Tracé 4935" d="M148.153,413.971l-.062-.2L96.465,431.18c-3.5,1.162-6.589,2.25-9.284,3.115a8.617,8.617,0,0,1-9.841-4.141c-.482-.865-.593-1.372-.631-1.36h0l.124.359a8.2,8.2,0,0,0,.457,1.026,8.53,8.53,0,0,0,2.979,3.227,8.653,8.653,0,0,0,6.948,1.063c2.72-.853,5.81-1.916,9.321-3.078l59.254-19.78,14.056-4.7,1.36-.692Z" transform="translate(-23.879 21.19)" fill="#263238"/>
      <path id="Tracé_4936" data-name="Tracé 4936" d="M86.361,461.049c-.309-.952-.779-2.349-1.372-4.191-1.236-3.709-3.029-9.124-5.353-16.071-4.661-13.994-11.423-34.244-19.78-59.254-4.191-12.5-8.765-26.2-13.685-40.908q-3.709-11.027-7.615-22.784c-.668-1.966-1.323-3.931-1.99-5.922l-1-2.992a23.032,23.032,0,0,1-.89-3,8.357,8.357,0,0,1,1.174-5.946,8.654,8.654,0,0,1,4.945-3.709l51.923-17.308,27.445-9.2,14.044-4.7a12.536,12.536,0,0,1,3.536-.865,8.3,8.3,0,0,1,3.536.581,8.431,8.431,0,0,1,4.834,5.118c11.287,33.663,22.1,65.917,32.143,95.748l-.087-2c-9.816-29.324-20.423-60.947-31.463-93.955a9.062,9.062,0,0,0-5.18-5.489,8.864,8.864,0,0,0-3.8-.618,13.152,13.152,0,0,0-3.709.89l-14.031,4.71-27.445,9.2L40.62,295.787a9.16,9.16,0,0,0-5.266,3.869A8.913,8.913,0,0,0,34.117,306a24.032,24.032,0,0,0,.915,3.078c.334,1,.68,1.99,1.014,2.992.655,1.978,1.323,3.956,1.978,5.909q3.956,11.732,7.652,22.784l13.8,40.858,19.941,59.192c2.374,6.972,4.2,12.363,5.452,16.071.63,1.83,1.113,3.227,1.434,4.179l.507,1.422h0S86.67,462,86.361,461.049Z" transform="translate(-33.976 -12.512)" fill="#263238"/>
      <rect id="Rectangle_50" data-name="Rectangle 50" width="4.364" height="86.859" transform="translate(77.207 337.495) rotate(-17.54)" fill="#fafafa"/>
      <rect id="Rectangle_51" data-name="Rectangle 51" width="4.364" height="50.377" transform="translate(59.93 281.538) rotate(-17.54)" fill="#fafafa"/>
      <rect id="Rectangle_52" data-name="Rectangle 52" width="4.364" height="23.773" transform="translate(45.224 286.464) rotate(-17.54)" fill="#fafafa"/>
      <rect id="Rectangle_53" data-name="Rectangle 53" width="4.348" height="40.643" transform="translate(30.796 290.5) rotate(-17.526)" fill="#fafafa"/>
      <rect id="Rectangle_54" data-name="Rectangle 54" width="4.364" height="14.069" transform="translate(86.254 412.686) rotate(-17.54)" fill="#fafafa"/>
      <rect id="Rectangle_55" data-name="Rectangle 55" width="4.364" height="23.773" transform="translate(54.84 315.224) rotate(-17.54)" fill="#fafafa"/>
      <rect id="Rectangle_56" data-name="Rectangle 56" width="4.364" height="65.83" transform="translate(64.435 343.997) rotate(-17.54)" fill="#fafafa"/>
      <path id="Tracé_4937" data-name="Tracé 4937" d="M89.93,274.965l55.038,172,.062.2,23.056-7.727h0l-.878-21.338L117.474,265.73Z" transform="translate(-20.756 -12.001)" fill="#fafafa"/>
      <path id="Tracé_4938" data-name="Tracé 4938" d="M134.25,424.176l22.351-7.863-.482-9.8-21.56,7.393Z" transform="translate(-10.285 21.258)" fill="#263238"/>
    </g>
    <g id="freepik--Icon--inject-72" transform="translate(416.404 40.61)">
      <path id="Tracé_4939" data-name="Tracé 4939" d="M362.8,190.687c0,.173-.692.284-1.558.247s-1.533-.21-1.521-.4.7-.284,1.558-.247S362.811,190.5,362.8,190.687Z" transform="translate(-339.445 -5.249)" fill="#263238"/>
      <path id="Tracé_4940" data-name="Tracé 4940" d="M373.158,190.215a7.133,7.133,0,0,1-3,.556,7.344,7.344,0,0,1-3.054-.087,14.476,14.476,0,0,1,6.058-.47Z" transform="translate(-337.702 -5.296)" fill="#263238"/>
      <path id="Tracé_4941" data-name="Tracé 4941" d="M382.836,188.46a7.345,7.345,0,0,1-2.905.952,7.591,7.591,0,0,1-3.041.321,14.5,14.5,0,0,1,5.946-1.236Z" transform="translate(-335.389 -5.68)" fill="#263238"/>
      <path id="Tracé_4942" data-name="Tracé 4942" d="M392.141,185.47a7.417,7.417,0,0,1-2.744,1.323,7.293,7.293,0,0,1-2.967.717,7.233,7.233,0,0,1,2.744-1.323,7.739,7.739,0,0,1,2.967-.717Z" transform="translate(-333.135 -6.386)" fill="#263238"/>
      <path id="Tracé_4943" data-name="Tracé 4943" d="M400.95,181.24a14.8,14.8,0,0,1-5.39,2.806,7.6,7.6,0,0,1,2.547-1.694A7.418,7.418,0,0,1,400.95,181.24Z" transform="translate(-330.978 -7.386)" fill="#263238"/>
      <path id="Tracé_4944" data-name="Tracé 4944" d="M409.032,175.794c.111.136-.9,1.051-2.275,2.04a7.331,7.331,0,0,1-2.646,1.521c-.1-.148.915-1.063,2.275-2.052S408.92,175.646,409.032,175.794Z" transform="translate(-328.959 -8.677)" fill="#263238"/>
      <path id="Tracé_4945" data-name="Tracé 4945" d="M416.132,169.133c.136.124-.729,1.236-1.916,2.374s-2.262,2.052-2.374,1.916.729-1.236,1.916-2.374S416,168.973,416.132,169.133Z" transform="translate(-327.134 -10.25)" fill="#263238"/>
      <path id="Tracé_4946" data-name="Tracé 4946" d="M421.944,161.341c.161.087-.507,1.236-1.471,2.67s-1.867,2.473-2,2.312a7.641,7.641,0,0,1,1.471-2.683C420.905,162.281,421.8,161.242,421.944,161.341Z" transform="translate(-325.566 -12.088)" fill="#263238"/>
      <path id="Tracé_4947" data-name="Tracé 4947" d="M426.152,152.56a14.539,14.539,0,0,1-2.472,5.563,13.638,13.638,0,0,1,2.472-5.563Z" transform="translate(-324.335 -14.161)" fill="#263238"/>
      <path id="Tracé_4948" data-name="Tracé 4948" d="M428.537,143.1a7.418,7.418,0,0,1-.358,3.029,7.28,7.28,0,0,1-.989,2.893,14.452,14.452,0,0,1,1.347-5.922Z" transform="translate(-323.505 -16.396)" fill="#263238"/>
      <path id="Tracé_4949" data-name="Tracé 4949" d="M429.4,133.33a14.178,14.178,0,0,1-.383,6.058,7.419,7.419,0,0,1-.124-3.041,7.58,7.58,0,0,1,.507-3.016Z" transform="translate(-323.128 -18.705)" fill="#263238"/>
      <path id="Tracé_4950" data-name="Tracé 4950" d="M428.825,123.53a14.155,14.155,0,0,1,.532,6.045,7.666,7.666,0,0,1-.581-2.992A7.554,7.554,0,0,1,428.825,123.53Z" transform="translate(-323.162 -21.02)" fill="#263238"/>
      <path id="Tracé_4951" data-name="Tracé 4951" d="M426.8,113.91a7.345,7.345,0,0,1,1.051,2.868,7.418,7.418,0,0,1,.42,3.029,7.552,7.552,0,0,1-1.051-2.868,7.615,7.615,0,0,1-.42-3.029Z" transform="translate(-323.601 -23.293)" fill="#263238"/>
      <path id="Tracé_4952" data-name="Tracé 4952" d="M423.24,104.76a7.344,7.344,0,0,1,1.521,2.646,7.244,7.244,0,0,1,.927,2.918,7.764,7.764,0,0,1-1.521-2.658,7.479,7.479,0,0,1-.927-2.905Z" transform="translate(-324.439 -25.454)" fill="#263238"/>
      <path id="Tracé_4953" data-name="Tracé 4953" d="M418,96.452c.136-.111,1.026.915,2,2.3a7.48,7.48,0,0,1,1.471,2.67c-.148.1-1.051-.94-2-2.3A7.505,7.505,0,0,1,418,96.452Z" transform="translate(-325.677 -27.419)" fill="#263238"/>
      <path id="Tracé_4954" data-name="Tracé 4954" d="M411.192,89.413c.111-.136,1.236.606,2.473,1.755s2.077,2.238,1.953,2.361-1.162-.754-2.386-1.891S411.08,89.549,411.192,89.413Z" transform="translate(-327.287 -29.084)" fill="#263238"/>
      <path id="Tracé_4955" data-name="Tracé 4955" d="M405.082,85.2c.087-.148.754.087,1.484.532s1.236.927,1.15,1.076-.766-.087-1.484-.519S404.983,85.359,405.082,85.2Z" transform="translate(-328.731 -30.086)" fill="#263238"/>
      <circle id="Ellipse_122" data-name="Ellipse 122" cx="42.824" cy="42.824" r="42.824" fill="#ff6d00"/>
      <path id="Tracé_4956" data-name="Tracé 4956" d="M357.47,81.489l6.626-6.626,12.783,11.361,25.1-24.144,6.157,6.626-32.192,30.3Z" transform="translate(-339.977 -35.538)" fill="#fafafa"/>
    </g>
    <g id="freepik--Character--inject-72" transform="translate(250.983 181.906)">
      <path id="Tracé_4957" data-name="Tracé 4957" d="M408,165.585c-2.559,4.265-2.3,9.618-1.582,14.551s1.83,9.964.729,14.835c-.729,3.2-2.473,6.4-1.632,9.581.556,2.262,2.25,4.043,3.091,6.181,1.236,3.091.532,6.527.124,9.816s-.383,6.96,1.793,9.445c2.707,3.091,7.69,2.955,11.4,1.236s6.651-4.772,10.088-7.01,7.912-3.709,11.608-1.929c1.706.816,3.177,2.275,5.056,2.473,2.633.2,4.71-2.213,7.257-2.918,2.188-.593,4.525.136,6.775-.124,4.586-.507,7.974-5.452,7.331-10.014a11.238,11.238,0,0,0-9.3-9.012c-1.941-.321-4.277-.371-5.341-2.027-1.582-2.473,1.236-5.576.7-8.431-.346-2.052-2.3-3.424-4.216-4.265s-4.03-1.4-5.514-2.856c-2.658-2.6-2.361-6.849-3.177-10.483-1.348-5.983-6.948-18.235-19.137-19.434" transform="translate(-163.26 -154.834)" fill="#263238"/>
      <path id="Tracé_4958" data-name="Tracé 4958" d="M405.035,440.668l.235-8.728,16.356.334-.21,12.771H420.4c-4.512.161-22.982.494-25.961-.482C391.077,443.511,405.035,440.668,405.035,440.668Z" transform="translate(-165.946 -89.453)" fill="#ff6d00"/>
      <path id="Tracé_4959" data-name="Tracé 4959" d="M411.37,443.2a5.637,5.637,0,0,1,2.151-3.437,5.477,5.477,0,0,1,3.845-1.113l-.087,4.562Z" transform="translate(-161.823 -87.873)" fill="#ff6d00"/>
      <path id="Tracé_4960" data-name="Tracé 4960" d="M398.223,440.31s-4.945,1.31-4.3,2.126,19.261,1.236,27.507.618V442.7l-21.77-.247S399.175,440.372,398.223,440.31Z" transform="translate(-165.959 -87.476)" fill="#ff6d00"/>
      <path id="Tracé_4961" data-name="Tracé 4961" d="M421.652,442.329h-1.088l-2.967.074h-9.816c-3.832,0-7.306-.21-9.816-.346L395,441.872l-.8-.062h.8l2.979.111c2.473.1,5.971.223,9.8.3s7.294.087,9.8.074h4.067Z" transform="translate(-165.948 -87.122)" fill="#263238"/>
      <path id="Tracé_4962" data-name="Tracé 4962" d="M398.821,442.746a6.982,6.982,0,0,0-.532-1.434,7.086,7.086,0,0,0-.989-1.162,2.2,2.2,0,0,1,1.162,1.063A2.25,2.25,0,0,1,398.821,442.746Z" transform="translate(-165.147 -87.514)" fill="#263238"/>
      <path id="Tracé_4963" data-name="Tracé 4963" d="M402.632,440.6a3.712,3.712,0,0,1-.507-.63c-.235-.371-.383-.717-.334-.742s.272.26.507.63S402.682,440.578,402.632,440.6Z" transform="translate(-164.088 -87.731)" fill="#263238"/>
      <path id="Tracé_4964" data-name="Tracé 4964" d="M403.742,439.98a2.626,2.626,0,0,1-.569-.4c-.284-.26-.47-.507-.433-.544s.3.136.569.4S403.779,439.943,403.742,439.98Z" transform="translate(-163.863 -87.777)" fill="#263238"/>
      <path id="Tracé_4965" data-name="Tracé 4965" d="M404.576,438.582c0,.062-.383.1-.853.1s-.853,0-.853-.111a1.916,1.916,0,0,1,.853-.087,2.029,2.029,0,0,1,.853.1Z" transform="translate(-163.831 -87.911)" fill="#263238"/>
      <path id="Tracé_4966" data-name="Tracé 4966" d="M404.869,437.69a1.657,1.657,0,0,1-.952.26,1.57,1.57,0,0,1-.977-.161,5.71,5.71,0,0,1,.964,0A3.975,3.975,0,0,1,404.869,437.69Z" transform="translate(-163.815 -88.095)" fill="#263238"/>
      <path id="Tracé_4967" data-name="Tracé 4967" d="M402.585,439.462a3.032,3.032,0,0,1-1.051,0,6.854,6.854,0,0,1-1.113-.272,3.354,3.354,0,0,1-.631-.272.606.606,0,0,1-.26-.334.42.42,0,0,1,.173-.42,1.941,1.941,0,0,1,2.374.618,1.731,1.731,0,0,1,.321.7c0,.173,0,.284,0,.284a2.869,2.869,0,0,0-.457-.9,1.842,1.842,0,0,0-.89-.606,1.62,1.62,0,0,0-1.236.062c-.173.124-.111.321.074.433a3.472,3.472,0,0,0,.581.26,7.018,7.018,0,0,0,1.076.309A9.615,9.615,0,0,1,402.585,439.462Z" transform="translate(-164.622 -88.025)" fill="#263238"/>
      <path id="Tracé_4968" data-name="Tracé 4968" d="M401.844,439.607a1.051,1.051,0,0,1-.1-.729,1.62,1.62,0,0,1,.321-.779,1.038,1.038,0,0,1,.89-.519.433.433,0,0,1,.309.495,1.237,1.237,0,0,1-.185.457,3.514,3.514,0,0,1-.507.63,1.582,1.582,0,0,1-.618.42,5.431,5.431,0,0,0,.519-.519,3.191,3.191,0,0,0,.445-.618c.148-.223.26-.618,0-.668s-.544.223-.7.433a1.581,1.581,0,0,0-.309.68A4.821,4.821,0,0,0,401.844,439.607Z" transform="translate(-164.103 -88.121)" fill="#263238"/>
      <path id="Tracé_4969" data-name="Tracé 4969" d="M417.284,438.639a6.425,6.425,0,0,0-1.236,0,5.13,5.13,0,0,0-4.352,3.338c-.26.692-.3,1.162-.334,1.162a1.237,1.237,0,0,1,0-.334,4.945,4.945,0,0,1,4.673-4.3,5.777,5.777,0,0,1,.89,0A1.574,1.574,0,0,1,417.284,438.639Z" transform="translate(-161.827 -87.907)" fill="#263238"/>
      <path id="Tracé_4970" data-name="Tracé 4970" d="M414.917,433.08a27.2,27.2,0,0,1,.074,3.363,26.364,26.364,0,0,1-.124,3.35,30.169,30.169,0,0,1-.074-3.35,29.575,29.575,0,0,1,.124-3.363Z" transform="translate(-161.018 -89.184)" fill="#263238"/>
      <path id="Tracé_4971" data-name="Tracé 4971" d="M410.644,441.015a9.086,9.086,0,0,1-2.4.185,9.609,9.609,0,0,1-2.386-.235c0-.062,1.076,0,2.4,0S410.632,441.015,410.644,441.015Z" transform="translate(-163.125 -87.328)" fill="#263238"/>
      <path id="Tracé_4972" data-name="Tracé 4972" d="M412.414,441.063a5,5,0,0,1-.21.457c-.124.235-.173.47-.235.457s-.074-.26.062-.532S412.376,440.989,412.414,441.063Z" transform="translate(-161.692 -87.302)" fill="#263238"/>
      <path id="Tracé_4973" data-name="Tracé 4973" d="M413.44,439.861a1.041,1.041,0,0,1-.247.371c-.173.161-.334.272-.371.235s.062-.21.235-.371S413.4,439.824,413.44,439.861Z" transform="translate(-161.482 -87.584)" fill="#263238"/>
      <path id="Tracé_4974" data-name="Tracé 4974" d="M414.908,439.349c0,.062-.235,0-.47.136s-.42.2-.457.161.1-.26.4-.359S414.921,439.3,414.908,439.349Z" transform="translate(-161.207 -87.727)" fill="#263238"/>
      <path id="Tracé_4975" data-name="Tracé 4975" d="M415.825,439.1a.443.443,0,0,1-.21.185.5.5,0,0,1-.284,0,.38.38,0,0,1,.21-.185C415.676,439.048,415.8,439.048,415.825,439.1Z" transform="translate(-160.888 -87.771)" fill="#263238"/>
      <path id="Tracé_4976" data-name="Tracé 4976" d="M442.566,440.668l.235-8.728,16.343.334-.21,12.771h-1.014c-4.512.161-22.97.494-25.961-.482C428.609,443.511,442.566,440.668,442.566,440.668Z" transform="translate(-157.081 -89.453)" fill="#ff6d00"/>
      <path id="Tracé_4977" data-name="Tracé 4977" d="M448.89,443.2a5.662,5.662,0,0,1,2.163-3.437,5.452,5.452,0,0,1,3.845-1.113l-.1,4.562Z" transform="translate(-152.959 -87.873)" fill="#ff6d00"/>
      <path id="Tracé_4978" data-name="Tracé 4978" d="M435.755,440.31s-4.945,1.31-4.315,2.126,19.261,1.236,27.507.618V442.7l-21.783-.247S436.707,440.372,435.755,440.31Z" transform="translate(-157.094 -87.476)" fill="#ff6d00"/>
      <path id="Tracé_4979" data-name="Tracé 4979" d="M459.184,442.329H458.1l-2.979.074H445.3c-3.832,0-7.306-.21-9.8-.346l-2.979-.185-.8-.062h.816l2.967.111c2.472.1,5.971.223,9.8.3s7.306.087,9.816.074h4.067Z" transform="translate(-157.084 -87.122)" fill="#263238"/>
      <path id="Tracé_4980" data-name="Tracé 4980" d="M436.338,442.746a6.511,6.511,0,0,0-.519-1.434,7.082,7.082,0,0,0-.989-1.162,2.633,2.633,0,0,1,1.508,2.6Z" transform="translate(-156.28 -87.514)" fill="#263238"/>
      <path id="Tracé_4981" data-name="Tracé 4981" d="M440.16,440.6a3.35,3.35,0,0,1-.495-.63c-.223-.371-.383-.717-.334-.742s.272.26.494.63A3.129,3.129,0,0,1,440.16,440.6Z" transform="translate(-155.219 -87.731)" fill="#263238"/>
      <path id="Tracé_4982" data-name="Tracé 4982" d="M441.272,439.98a2.334,2.334,0,0,1-.569-.4c-.272-.26-.47-.507-.433-.544s.284.136.569.4S441.309,439.943,441.272,439.98Z" transform="translate(-154.996 -87.777)" fill="#263238"/>
      <path id="Tracé_4983" data-name="Tracé 4983" d="M442.106,438.582c0,.062-.383.1-.853.1s-.853,0-.853-.111a1.916,1.916,0,0,1,.853-.087,2.029,2.029,0,0,1,.853.1Z" transform="translate(-154.965 -87.911)" fill="#263238"/>
      <path id="Tracé_4984" data-name="Tracé 4984" d="M442.371,437.69a1.767,1.767,0,0,1-.964.26,1.57,1.57,0,0,1-.977-.161,5.942,5.942,0,0,1,.964,0,4.067,4.067,0,0,1,.977-.1Z" transform="translate(-154.957 -88.095)" fill="#263238"/>
      <path id="Tracé_4985" data-name="Tracé 4985" d="M440.155,439.462a3.041,3.041,0,0,1-1.051,0,6.855,6.855,0,0,1-1.113-.272,3.129,3.129,0,0,1-.643-.272.581.581,0,0,1-.247-.334.445.445,0,0,1,.161-.42,1.929,1.929,0,0,1,2.374.618,1.782,1.782,0,0,1,.334.7.632.632,0,0,1,0,.284,2.769,2.769,0,0,0-.47-.9,1.865,1.865,0,0,0-.878-.606,1.656,1.656,0,0,0-1.236.062c-.161.124-.1.321.074.433a3.188,3.188,0,0,0,.593.26,6.638,6.638,0,0,0,1.076.309C439.747,439.425,440.155,439.425,440.155,439.462Z" transform="translate(-155.745 -88.025)" fill="#263238"/>
      <path id="Tracé_4986" data-name="Tracé 4986" d="M439.376,439.605a1,1,0,0,1-.111-.729,1.792,1.792,0,0,1,.309-.766,1.038,1.038,0,0,1,.878-.519.433.433,0,0,1,.322.495,1.025,1.025,0,0,1-.2.457,3.055,3.055,0,0,1-.507.63,1.6,1.6,0,0,1-.606.42,6.624,6.624,0,0,0,.507-.519,3.818,3.818,0,0,0,.457-.618c.148-.223.247-.618,0-.668s-.532.223-.7.433a1.942,1.942,0,0,0-.309.68,3.834,3.834,0,0,0-.037.7Z" transform="translate(-155.239 -88.119)" fill="#263238"/>
      <path id="Tracé_4987" data-name="Tracé 4987" d="M454.814,438.639a6.482,6.482,0,0,0-1.236,0,5.34,5.34,0,0,0-2.658,1.039,5.4,5.4,0,0,0-1.694,2.3c-.26.692-.3,1.162-.334,1.162a.988.988,0,0,1,0-.334,4.159,4.159,0,0,1,.2-.878,4.945,4.945,0,0,1,4.463-3.424,6.027,6.027,0,0,1,.9,0,.939.939,0,0,1,.358.136Z" transform="translate(-152.961 -87.907)" fill="#263238"/>
      <path id="Tracé_4988" data-name="Tracé 4988" d="M452.448,433.08a30.465,30.465,0,0,1,.074,3.363,29.458,29.458,0,0,1-.124,3.35,26.953,26.953,0,0,1-.074-3.35,26.514,26.514,0,0,1,.124-3.363Z" transform="translate(-152.152 -89.184)" fill="#263238"/>
      <path id="Tracé_4989" data-name="Tracé 4989" d="M448.162,441.015a8.953,8.953,0,0,1-2.386.185,9.411,9.411,0,0,1-2.386-.235c0-.062,1.076,0,2.386,0S448.162,441.015,448.162,441.015Z" transform="translate(-154.258 -87.328)" fill="#263238"/>
      <path id="Tracé_4990" data-name="Tracé 4990" d="M449.932,441.063s-.087.223-.2.457-.185.47-.235.457-.074-.26,0-.532S449.907,440.989,449.932,441.063Z" transform="translate(-152.826 -87.302)" fill="#263238"/>
      <path id="Tracé_4991" data-name="Tracé 4991" d="M450.972,439.861a1.04,1.04,0,0,1-.247.371c-.173.161-.346.272-.383.235s.074-.21.247-.371S450.922,439.824,450.972,439.861Z" transform="translate(-152.618 -87.584)" fill="#263238"/>
      <path id="Tracé_4992" data-name="Tracé 4992" d="M452.429,439.349c0,.062-.223,0-.47.136s-.408.2-.457.161.1-.26.4-.359S452.454,439.3,452.429,439.349Z" transform="translate(-152.344 -87.727)" fill="#263238"/>
      <path id="Tracé_4993" data-name="Tracé 4993" d="M453.345,439.1a.444.444,0,0,1-.21.185.509.509,0,0,1-.284,0c-.025,0,.087-.136.223-.185S453.333,439.048,453.345,439.1Z" transform="translate(-152.024 -87.771)" fill="#263238"/>
      <path id="Tracé_4994" data-name="Tracé 4994" d="M401.738,257.55,393.9,374.388V479.754h31.327s1.323-90.865.495-96.811c0,0,5.118-91.013,5.7-89.715,1.236,2.658,1.162,80.023,2.918,89.6s9.89,96.922,9.89,96.922H474.38L464.243,379.618c-.21-12.066-3.313-118.025-3.313-118.025Z" transform="translate(-165.95 -130.654)" fill="#263238"/>
      <path id="Tracé_4995" data-name="Tracé 4995" d="M463.99,432.9a2.225,2.225,0,0,1-1.162.408,6.811,6.811,0,0,1-3.313-.544,21.6,21.6,0,0,0-4.537-1.632c-1.768-.26-3.61.668-5.365,1.842a12.98,12.98,0,0,1-5.526,2.547,11.547,11.547,0,0,1-4.945-.606,26.948,26.948,0,0,1-3.091-1.236,3.905,3.905,0,0,1-1.051-.606c0-.111,1.619.643,4.265,1.434a11.806,11.806,0,0,0,4.747.445,12.684,12.684,0,0,0,5.254-2.473,15.647,15.647,0,0,1,2.794-1.508,6,6,0,0,1,2.992-.371,19.518,19.518,0,0,1,4.673,1.743,7.219,7.219,0,0,0,3.115.7C463.57,433.023,463.965,432.837,463.99,432.9Z" transform="translate(-156.24 -89.782)" fill="#455a64"/>
      <path id="Tracé_4996" data-name="Tracé 4996" d="M425.363,432.208a8.658,8.658,0,0,0-.989-.8,4.735,4.735,0,0,0-3.3-.494,13.6,13.6,0,0,0-4.6,2.312,16.473,16.473,0,0,1-2.794,1.508,6.49,6.49,0,0,1-3.449.408c-2.374-.408-4.253-1.644-6.181-2.065a9.975,9.975,0,0,0-5.069.222c-2.843.853-4.512,1.731-4.562,1.607a5.045,5.045,0,0,1,1.137-.668,22.487,22.487,0,0,1,3.3-1.385,10.236,10.236,0,0,1,5.328-.359c2.015.433,3.919,1.657,6.095,2.015s4.166-.766,5.81-1.793a13.24,13.24,0,0,1,4.834-2.25,4.833,4.833,0,0,1,3.536.729,2.127,2.127,0,0,1,.9,1.014Z" transform="translate(-165.827 -89.82)" fill="#455a64"/>
      <path id="Tracé_4997" data-name="Tracé 4997" d="M448.678,277.783a3.932,3.932,0,0,1-1.83.618,11.126,11.126,0,0,1-8.79-2.472c-.915-.779-1.323-1.409-1.236-1.459a14.106,14.106,0,0,0,11.88,3.276Z" transform="translate(-155.812 -126.656)" fill="#455a64"/>
      <path id="Tracé_4998" data-name="Tracé 4998" d="M405.727,273.46c.074,0,.074.63-.247,1.545a7.7,7.7,0,0,1-2.114,3.115,7.887,7.887,0,0,1-3.338,1.756c-.952.21-1.558.136-1.558.062a10.038,10.038,0,0,0,7.257-6.478Z" transform="translate(-164.871 -126.895)" fill="#455a64"/>
      <path id="Tracé_4999" data-name="Tracé 4999" d="M413.188,241.708l-6.3-23.106s-29.67,7.727-31.562,5.328c-10.768-13.314-16.207-31.611-17.9-38.175.235-.94.556-2.04.989-3.326a10.249,10.249,0,0,1,1.657-3.041,15.579,15.579,0,0,1,2.992-3.091,1.335,1.335,0,0,0-.4-2.473c-1.236-.087-4.352,1.793-6.688,5.365s-3.041-3.1-3.338-5.526-1.595-9.89-2.411-10.422c-1.236-.729-2.213.42-1.854,2.843s.915,9.766-.371,9.89-2.646-12.363-2.646-12.363.136-2.7-1.36-2.633c-2.707.111-.272,13.191,0,14.439.185.853-1.236,1.014-1.36.074s-1.088-12.363-3.832-12.363c-2.114.074,1.891,10.78.766,13.265s-2.213-8.431-4.228-8.283c-.742,0-1.3.2.235,6.379a128.571,128.571,0,0,0,4.574,12.981h-.111s11,64.557,39.56,60.947C410,244.662,413.188,241.708,413.188,241.708Z" transform="translate(-179.96 -153.469)" fill="#ffbe9d"/>
      <path id="Tracé_5000" data-name="Tracé 5000" d="M399.606,305.45l-181.2-13.191a9.321,9.321,0,0,1-8.654-9.977l8.11-111.325a9.321,9.321,0,0,1,9.977-8.654L409.1,175.533a9.334,9.334,0,0,1,8.654,9.977l-8.11,111.325a9.309,9.309,0,0,1-10.038,8.617Z" transform="translate(-209.461 -153.161)" fill="#ff6d00"/>
      <path id="Tracé_5001" data-name="Tracé 5001" d="M399.657,305.493a15.1,15.1,0,0,0,1.657,0,9.148,9.148,0,0,0,4.475-1.756,9.247,9.247,0,0,0,3.709-6.663c.223-3.14.482-6.762.766-10.83L415.21,217.3q.779-10.916,1.644-22.858c.148-1.978.284-3.993.433-6.008s.495-4.092-.148-6.021a8.864,8.864,0,0,0-3.461-4.858,9.26,9.26,0,0,0-2.769-1.335,16.072,16.072,0,0,0-3.115-.408l-54.655-3.944-125.22-9.161a9.025,9.025,0,0,0-7.232,2.831,8.889,8.889,0,0,0-2,3.424,16.307,16.307,0,0,0-.544,4.005q-.618,8.233-1.236,16.343-1.236,16.232-2.324,31.945c-1.533,20.942-3.016,41.155-4.426,60.391a9.21,9.21,0,0,0,1.632,6.626,9,9,0,0,0,5.662,3.61c4.611.457,9.284.7,13.834,1.076L257.8,294.9l47.62,3.511,68.933,5.118,18.729,1.434,4.945.42,1.657.148s-.556,0-1.657-.087l-4.945-.321-18.742-1.3-68.958-4.945L257.8,295.492l-26.53-1.916c-4.562-.359-9.148-.593-13.9-1.063a9.569,9.569,0,0,1-6.033-3.832,9.89,9.89,0,0,1-1.743-7.01c1.4-19.248,2.868-39.449,4.389-60.4q1.137-15.713,2.312-31.945.593-8.122,1.236-16.343a17.308,17.308,0,0,1,.569-4.154,9.643,9.643,0,0,1,9.89-6.7l125.22,9.148,54.642,4.005a16.876,16.876,0,0,1,3.214.433,9.729,9.729,0,0,1,2.93,1.409,9.544,9.544,0,0,1,3.709,5.143,9.346,9.346,0,0,1,.359,3.14c0,1.038-.136,2.04-.21,3.066-.148,2.015-.3,4.03-.445,6.008q-.865,11.917-1.681,22.846c-2.163,29.1-3.919,52.652-5.13,68.946q-.457,6.095-.816,10.817a9.346,9.346,0,0,1-3.857,6.75,9.074,9.074,0,0,1-4.537,1.718,7.68,7.68,0,0,1-1.236,0Z" transform="translate(-209.512 -153.204)" fill="#263238"/>
      <path id="Tracé_5002" data-name="Tracé 5002" d="M358.185,199.1A13.821,13.821,0,1,1,345.4,184.267,13.821,13.821,0,0,1,358.185,199.1Z" transform="translate(-180.909 -147.976)" fill="#fafafa"/>
      <path id="Tracé_5003" data-name="Tracé 5003" d="M358.029,213.576h-1.051a14.279,14.279,0,1,1,1.051,0Zm0-27.655a13.08,13.08,0,1,0,.964,0Z" transform="translate(-177.922 -147.787)" fill="#fafafa"/>
      <path id="Tracé_5004" data-name="Tracé 5004" d="M227.06,230.045l-.8,11.126-1.137-.087.729-10.075-2.608-.185.074-1.014Z" transform="translate(-206.269 -137.207)" fill="#fafafa"/>
      <path id="Tracé_5005" data-name="Tracé 5005" d="M236.5,240.859l-.087,1.014-7.776-.569v-.8l4.945-4.179c1.335-1.15,1.632-1.867,1.681-2.633.1-1.236-.754-2.139-2.473-2.262a3.709,3.709,0,0,0-3.115,1.014l-.754-.754a4.945,4.945,0,0,1,4.043-1.3c2.25.161,3.6,1.409,3.461,3.264a4.624,4.624,0,0,1-2.077,3.338l-4.03,3.424Z" transform="translate(-204.993 -137.081)" fill="#fafafa"/>
      <path id="Tracé_5006" data-name="Tracé 5006" d="M246.358,239.614l-2.213-.161-.223,2.918-1.137-.087.21-2.918-6.255-.445v-.828l6.416-6.923,1.236.087-6.181,6.75,4.821.358.185-2.571,1.113.074-.185,2.571,2.213.161Z" transform="translate(-203.08 -136.886)" fill="#fafafa"/>
      <path id="Tracé_5007" data-name="Tracé 5007" d="M260.108,240.614l-2.213-.161-.223,2.918-1.137-.087.21-2.905-6.255-.457v-.828l6.416-6.923,1.236.1-6.181,6.738,4.821.358.185-2.571,1.113.087-.2,2.559,2.225.161Z" transform="translate(-199.831 -136.65)" fill="#fafafa"/>
      <path id="Tracé_5008" data-name="Tracé 5008" d="M267.685,240.878c-.136,1.891-1.558,3.264-4.265,3.066a5.675,5.675,0,0,1-3.869-1.718l.618-.853a4.846,4.846,0,0,0,3.313,1.533c1.879.136,2.942-.717,3.041-2.065s-.717-2.374-3.536-2.584l-2.361-.173.977-5.514,6.07.445-.074,1.014-5.069-.371-.643,3.5,1.434.111C266.658,237.5,267.833,238.912,267.685,240.878Z" transform="translate(-197.691 -136.555)" fill="#fafafa"/>
      <path id="Tracé_5009" data-name="Tracé 5009" d="M276.567,241.453a3.462,3.462,0,0,1-4.03,3.128c-2.955-.21-4.4-2.374-4.141-5.872.272-3.771,2.473-5.588,5.489-5.365a5.106,5.106,0,0,1,2.584.791l-.532.89a3.906,3.906,0,0,0-2.114-.68c-2.4-.173-4.043,1.236-4.265,4.253v.915a3.536,3.536,0,0,1,3.523-1.657,3.363,3.363,0,0,1,3.486,3.6Zm-1.125,0c.111-1.459-.9-2.473-2.608-2.6a2.571,2.571,0,0,0-3.029,2.213c-.1,1.236.841,2.473,2.757,2.6a2.472,2.472,0,0,0,2.88-2.262Z" transform="translate(-195.608 -136.377)" fill="#fafafa"/>
      <path id="Tracé_5010" data-name="Tracé 5010" d="M288.827,242.525c-.136,1.854-1.582,3.177-4.265,2.979a5.724,5.724,0,0,1-3.882-1.718l.618-.853a4.945,4.945,0,0,0,3.338,1.533c1.842.124,2.918-.655,3.016-2.027s-.779-2.275-2.831-2.473l-.791-.062.062-.841,3.35-3.622-5.674-.408.074-1.014,7.133.519-.062.8-3.424,3.709C287.863,239.41,288.951,240.745,288.827,242.525Z" transform="translate(-192.699 -136.213)" fill="#fafafa"/>
      <path id="Tracé_5011" data-name="Tracé 5011" d="M297.84,243a3.461,3.461,0,0,1-4.043,3.152c-2.942-.21-4.4-2.374-4.141-5.872.272-3.709,2.473-5.588,5.489-5.365a5.106,5.106,0,0,1,2.584.791l-.532.89a3.807,3.807,0,0,0-2.114-.68c-2.4-.173-4.043,1.236-4.265,4.253v.915a3.536,3.536,0,0,1,3.523-1.657,3.363,3.363,0,0,1,3.5,3.573Zm-1.125,0c.111-1.459-.9-2.473-2.608-2.6a2.571,2.571,0,0,0-3.029,2.213c-.1,1.236.841,2.473,2.757,2.6a2.473,2.473,0,0,0,2.88-2.262Z" transform="translate(-190.585 -136.006)" fill="#fafafa"/>
      <path id="Tracé_5012" data-name="Tracé 5012" d="M306.6,235.883l-.062.8-5.39,9.89-1.236-.087,5.3-9.742-5.7-.42-.161,2.077-1.125-.074.235-3.091Z" transform="translate(-188.553 -135.924)" fill="#fafafa"/>
      <path id="Tracé_5013" data-name="Tracé 5013" d="M319.409,236.813l-.062.816-5.39,9.89-1.236-.087,5.291-9.742-5.7-.42-.148,2.077-1.125-.087.223-3.091Z" transform="translate(-185.526 -135.705)" fill="#fafafa"/>
      <path id="Tracé_5014" data-name="Tracé 5014" d="M327.8,245.422c-.136,1.966-1.891,3.054-4.537,2.868s-4.191-1.533-4.043-3.5a2.782,2.782,0,0,1,2.337-2.571,2.473,2.473,0,0,1-1.57-2.559c.136-1.8,1.755-2.819,4.1-2.658s3.832,1.422,3.709,3.227a2.472,2.472,0,0,1-1.953,2.3,2.806,2.806,0,0,1,1.953,2.893Zm-1.162-.1c.1-1.372-1.014-2.312-2.979-2.473s-3.177.618-3.276,1.99.989,2.312,2.955,2.473S326.54,246.7,326.639,245.323Zm-2.918-3.375c1.731.124,2.819-.581,2.905-1.78s-.952-2.1-2.608-2.213-2.794.556-2.88,1.793S322,241.837,323.722,241.948Z" transform="translate(-183.596 -135.512)" fill="#fafafa"/>
      <path id="Tracé_5015" data-name="Tracé 5015" d="M336.57,243.512c-.272,3.771-2.473,5.588-5.489,5.365a5.192,5.192,0,0,1-2.584-.791l.519-.89a3.956,3.956,0,0,0,2.126.68c2.386.173,4.03-1.236,4.253-4.265v-.9a3.56,3.56,0,0,1-3.536,1.657,3.363,3.363,0,0,1-3.5-3.6,3.474,3.474,0,0,1,4.043-3.128C335.408,237.85,336.855,240.013,336.57,243.512Zm-1.409-2.324c.087-1.236-.841-2.473-2.757-2.584a2.472,2.472,0,0,0-2.88,2.213c-.111,1.459.9,2.473,2.608,2.6a2.571,2.571,0,0,0,3.066-2.225Z" transform="translate(-181.436 -135.369)" fill="#fafafa"/>
      <path id="Tracé_5016" data-name="Tracé 5016" d="M345.182,238.675l-.816,11.126-1.137-.074.729-10.075-2.608-.2.074-1.014Z" transform="translate(-178.365 -135.168)" fill="#fafafa"/>
      <path id="Tracé_5017" data-name="Tracé 5017" d="M354.58,249.466l-.074,1.014-7.776-.556v-.816l4.945-4.179c1.335-1.137,1.632-1.867,1.694-2.633.087-1.236-.754-2.139-2.473-2.262a3.808,3.808,0,0,0-3.115,1.014l-.717-.791a4.945,4.945,0,0,1,4.043-1.3c2.25.161,3.6,1.409,3.461,3.264-.074,1.063-.482,1.99-2.077,3.338L348.461,249Z" transform="translate(-177.094 -135.056)" fill="#fafafa"/>
      <path id="Tracé_5018" data-name="Tracé 5018" d="M362.807,247.9c-.136,1.842-1.582,3.177-4.253,2.979a5.736,5.736,0,0,1-3.894-1.718l.618-.865a4.809,4.809,0,0,0,3.35,1.533c1.83.136,2.905-.643,3.016-2.015s-.779-2.275-2.843-2.473h-.791l.062-.841,3.363-3.622-5.674-.408.074-1.014,7.121.519v.8l-3.424,3.709C361.843,244.788,362.943,246.123,362.807,247.9Z" transform="translate(-175.221 -134.927)" fill="#fafafa"/>
      <rect id="Rectangle_57" data-name="Rectangle 57" width="4.834" height="89.072" transform="matrix(0.073, -0.997, 0.997, 0.073, 101.178, 122.997)" fill="#fafafa"/>
      <rect id="Rectangle_58" data-name="Rectangle 58" width="4.834" height="45.68" transform="matrix(0.073, -0.997, 0.997, 0.073, 143.766, 135.774)" fill="#fafafa"/>
      <rect id="Rectangle_59" data-name="Rectangle 59" width="37.372" height="27.915" rx="4.96" transform="translate(16.703 55.028) rotate(4.17)" fill="#455a64"/>
      <path id="Tracé_5019" data-name="Tracé 5019" d="M221.85,217.908l.136-1.78,19.187,1.4a4.03,4.03,0,1,0,.581-8.036l-19.187-1.4.124-1.793,19.2,1.4a5.823,5.823,0,0,1-.841,11.608Z" transform="translate(-206.598 -142.762)" fill="#ff6d00"/>
      <rect id="Rectangle_60" data-name="Rectangle 60" width="1.793" height="13.203" transform="translate(39.708 71.988) rotate(-85.78)" fill="#ff6d00"/>
      <rect id="Rectangle_61" data-name="Rectangle 61" width="96.119" height="8.246" transform="translate(22.782 32.414) rotate(4.17)" fill="#fafafa"/>
      <path id="Tracé_5020" data-name="Tracé 5020" d="M409.1,158.32a11.027,11.027,0,0,0-3.128,8.58,19.706,19.706,0,0,0,2.979,8.839" transform="translate(-163.105 -154.097)" fill="#263238"/>
      <path id="Tracé_5021" data-name="Tracé 5021" d="M435.716,207.061l1.681-38.732-15.54-11.769-14.118,6.9s-.47,17.728,0,25.417,8.221,8.505,8.221,8.505-.223,4.24-.47,8.654a10.137,10.137,0,0,0,9.408,10.644h0a10.125,10.125,0,0,0,10.817-9.618Z" transform="translate(-162.73 -154.513)" fill="#ffbe9d"/>
      <path id="Tracé_5022" data-name="Tracé 5022" d="M409.74,172.789a.989.989,0,1,0,.989-.989.989.989,0,0,0-.989.989Z" transform="translate(-162.208 -150.912)" fill="#263238"/>
      <path id="Tracé_5023" data-name="Tracé 5023" d="M408.183,171.958c.124.124.853-.494,1.9-.556s1.854.457,1.966.321-.074-.3-.42-.544a2.546,2.546,0,0,0-1.582-.408,2.473,2.473,0,0,0-1.508.606C408.22,171.649,408.121,171.9,408.183,171.958Z" transform="translate(-162.58 -151.157)" fill="#263238"/>
      <path id="Tracé_5024" data-name="Tracé 5024" d="M419,172.791a.977.977,0,0,0,.977.977.989.989,0,1,0-.977-.977Z" transform="translate(-160.02 -150.915)" fill="#263238"/>
      <path id="Tracé_5025" data-name="Tracé 5025" d="M417.683,171.958c.124.124.853-.494,1.9-.556s1.854.457,1.966.321-.074-.3-.42-.544a2.634,2.634,0,0,0-3.1.2C417.72,171.649,417.622,171.9,417.683,171.958Z" transform="translate(-160.336 -151.157)" fill="#263238"/>
      <path id="Tracé_5026" data-name="Tracé 5026" d="M418.388,179.78a19.782,19.782,0,0,1-5.118,1.755,2.992,2.992,0,0,0,3.511,1,2.176,2.176,0,0,0,1.607-2.757Z" transform="translate(-161.374 -149.027)" fill="#fafafa"/>
      <path id="Tracé_5027" data-name="Tracé 5027" d="M414.35,190.237a19.162,19.162,0,0,0,10.187-3.437s-2.312,5.65-10.014,5.328Z" transform="translate(-161.119 -147.368)" fill="#eb996e"/>
      <path id="Tracé_5028" data-name="Tracé 5028" d="M415.095,180.765a7.42,7.42,0,0,0-1.731-.21c-.272,0-.532,0-.593-.247a1.508,1.508,0,0,1,.161-.865c.223-.692.47-1.422.717-2.188.507-1.57.94-2.979,1.236-4.018a6.34,6.34,0,0,0,.383-1.706,7.421,7.421,0,0,0-.668,1.607c-.371,1.014-.853,2.473-1.36,3.981-.235.779-.47,1.508-.692,2.213a1.731,1.731,0,0,0-.1,1.1.618.618,0,0,0,.445.383,1.544,1.544,0,0,0,.457,0A6.318,6.318,0,0,0,415.095,180.765Z" transform="translate(-161.579 -150.976)" fill="#263238"/>
      <path id="Tracé_5029" data-name="Tracé 5029" d="M430.778,178.4a9.322,9.322,0,0,1,.42-3.8,3.536,3.536,0,0,1,2.757-2.386,3.029,3.029,0,0,1,3.128,2.473,3.709,3.709,0,0,1-1.9,3.709,4.945,4.945,0,0,1-4.277.111" transform="translate(-157.248 -150.814)" fill="#ffbe9d"/>
      <path id="Tracé_5030" data-name="Tracé 5030" d="M432.6,176.97c0-.087.408.111.952-.062a1.706,1.706,0,0,0,1.15-1.632A.989.989,0,0,0,433.584,174c-.569,0-.977.2-1.014.111s.26-.359.952-.556a1.508,1.508,0,0,1,1.236.247,1.755,1.755,0,0,1,.532,1.521,2.473,2.473,0,0,1-.569,1.434,1.829,1.829,0,0,1-1.137.593C432.88,177.427,432.521,177.019,432.6,176.97Z" transform="translate(-156.815 -150.507)" fill="#eb996e"/>
      <path id="Tracé_5031" data-name="Tracé 5031" d="M408.024,159.881c-3.412,4.24,1.137,6.911,3.4,8.654,1.743,1.36,6.886,4.945,11.4,3.251-1.595-2.139-3.412-3.078-4.117-5.118,1.842,2.6,3.783,4.562,6.948,4.883-.63-1.842-1.521-5.588-.841-5.736.841,7.319,7.7,13.475,12.424,11.126a15.663,15.663,0,0,0-1.459-14.118,17.8,17.8,0,0,0-12.078-7.7,19.125,19.125,0,0,0-15.676,4.7" transform="translate(-162.903 -154.904)" fill="#263238"/>
      <path id="Tracé_5032" data-name="Tracé 5032" d="M434.816,178.1c0-.074.581.482.346,1.533a2.065,2.065,0,0,1-1.137,1.4,2.472,2.472,0,0,1-2.225-.087,2.6,2.6,0,0,1-1.236-1.867,2.473,2.473,0,0,1,.445-1.743c.618-.841,1.31-.927,1.31-.865a4.528,4.528,0,0,0-.927,1.113,2.114,2.114,0,0,0-.235,1.409,2.028,2.028,0,0,0,.927,1.4,1.966,1.966,0,0,0,1.657.111,1.706,1.706,0,0,0,.952-1,3.635,3.635,0,0,0,.124-1.4Z" transform="translate(-157.293 -149.812)" fill="#ff6d00"/>
      <path id="Tracé_5033" data-name="Tracé 5033" d="M392.688,236.846l11.6-2.411,3.523,19.508a310.672,310.672,0,0,0-7.417,30.387l27.2,16.974,4.191-7.961,6.713,6.379,28.941-15.391c-3.573-18.544-12.6-23.39-12.6-26.406,0-8.654-1.236-.247,6.021-28.916s-19.224-31.6-19.224-31.6.593,4.005-20.472.185c-7.714-1.4-38.509,14.773-38.509,14.773Z" transform="translate(-168.608 -144.862)" fill="#ff6d00"/>
      <path id="Tracé_5034" data-name="Tracé 5034" d="M413.77,197.6s-.247,21.214,4.809,19.78,15.243-10.5,15.663-20.015Z" transform="translate(-161.256 -144.871)" fill="#ffbe9d"/>
      <path id="Tracé_5035" data-name="Tracé 5035" d="M414.813,230.484a45.742,45.742,0,0,1,.433-7.516,43.111,43.111,0,0,1,1.088-7.418,45.132,45.132,0,0,1-.445,7.529,43.269,43.269,0,0,1-1.076,7.405Z" transform="translate(-161.013 -140.576)" fill="#263238"/>
      <path id="Tracé_5036" data-name="Tracé 5036" d="M417.529,228.546a28.585,28.585,0,0,1-.482-6.021,29.124,29.124,0,0,1,.161-6.045,28.891,28.891,0,0,1,.482,6.033,27.2,27.2,0,0,1-.161,6.033Z" transform="translate(-160.502 -140.357)" fill="#263238"/>
      <path id="Tracé_5037" data-name="Tracé 5037" d="M413.784,229.678c-.173,0-.3-.544,0-1.15s.779-.878.89-.742-.087.532-.3,1S413.97,229.69,413.784,229.678Z" transform="translate(-161.295 -137.693)" fill="#263238"/>
      <path id="Tracé_5038" data-name="Tracé 5038" d="M414.346,229.639c-.173,0-.235-.445-.148-.927s.321-.828.495-.791.235.445.148.927S414.519,229.676,414.346,229.639Z" transform="translate(-161.164 -137.654)" fill="#263238"/>
      <path id="Tracé_5039" data-name="Tracé 5039" d="M414.92,229.651c-.173,0-.359-.358-.408-.841s.062-.878.247-.89.359.358.4.828S415.118,229.626,414.92,229.651Z" transform="translate(-161.083 -137.654)" fill="#263238"/>
      <path id="Tracé_5040" data-name="Tracé 5040" d="M415.946,230.083c-.185,0-.321-.618-.643-1.236s-.692-1.162-.569-1.31.779.223,1.162,1.038S416.119,230.1,415.946,230.083Z" transform="translate(-161.034 -137.752)" fill="#263238"/>
      <path id="Tracé_5041" data-name="Tracé 5041" d="M417.615,228.253c-.161.062-.495-.47-.495-1.236s.334-1.236.495-1.236.148.581.148,1.236S417.788,228.191,417.615,228.253Z" transform="translate(-160.465 -138.159)" fill="#263238"/>
      <path id="Tracé_5042" data-name="Tracé 5042" d="M418.141,227.861c-.173,0-.359-.4-.408-.915s0-.964.235-.977.359.4.408.915S418.314,227.849,418.141,227.861Z" transform="translate(-160.324 -138.115)" fill="#263238"/>
      <path id="Tracé_5043" data-name="Tracé 5043" d="M419.15,227.659c-.136.111-.519-.148-.853-.581s-.495-.865-.346-.964.519.148.853.569S419.261,227.548,419.15,227.659Z" transform="translate(-160.281 -138.086)" fill="#263238"/>
      <path id="Tracé_5044" data-name="Tracé 5044" d="M419.487,227.361c-.161.074-.47-.247-.865-.593s-.742-.606-.68-.779.618-.148,1.113.3S419.647,227.262,419.487,227.361Z" transform="translate(-160.272 -138.134)" fill="#263238"/>
      <path id="Tracé_5045" data-name="Tracé 5045" d="M412.707,199.471c0-.074.371-.26.8.136a1.038,1.038,0,1,1-1.718,1.137,1.088,1.088,0,0,1,.136-.989c.359-.47.791-.359.766-.284a1.75,1.75,0,0,0-.371.519c-.124.334,0,.779.507.717s.544-.494.346-.8S412.719,199.57,412.707,199.471Z" transform="translate(-161.738 -144.401)" fill="#263238"/>
      <path id="Tracé_5046" data-name="Tracé 5046" d="M413.157,202.86c-.111.136-.457,0-.791-.173s-.519-.544-.42-.692.457-.074.791.173S413.255,202.712,413.157,202.86Z" transform="translate(-161.693 -143.797)" fill="#263238"/>
      <path id="Tracé_5047" data-name="Tracé 5047" d="M413.44,203.368c.148.111,0,.544-.495.729s-.9,0-.865-.185.321-.284.63-.408S413.3,203.257,413.44,203.368Z" transform="translate(-161.656 -143.464)" fill="#263238"/>
      <path id="Tracé_5048" data-name="Tracé 5048" d="M413.378,205.054c.136.111,0,.433-.185.717s-.544.433-.68.309-.062-.433.185-.717S413.23,204.992,413.378,205.054Z" transform="translate(-161.569 -143.061)" fill="#263238"/>
      <path id="Tracé_5049" data-name="Tracé 5049" d="M412.993,206.9c0-.074.494-.247,1.076.284a1.236,1.236,0,0,1,.334,1.236,1.409,1.409,0,0,1-1.31,1.014,1.372,1.372,0,0,1-1.236-1.063,1.125,1.125,0,0,1,.556-1.236c.717-.4,1.236,0,1.113.062a1.882,1.882,0,0,0-.853.309.655.655,0,0,0-.235.717.816.816,0,0,0,.717.556.853.853,0,0,0,.618-1.372C413.4,207.045,412.98,207.045,412.993,206.9Z" transform="translate(-161.715 -142.641)" fill="#263238"/>
      <path id="Tracé_5050" data-name="Tracé 5050" d="M414.139,209.8c.087.161-.185.457-.482.791s-.544.643-.717.581-.148-.556.235-1S414.065,209.644,414.139,209.8Z" transform="translate(-161.476 -141.951)" fill="#263238"/>
      <path id="Tracé_5051" data-name="Tracé 5051" d="M414.685,211.6c.161.062.136.556-.247,1s-.878.532-.964.383.185-.47.482-.8S414.512,211.54,414.685,211.6Z" transform="translate(-161.33 -141.511)" fill="#263238"/>
      <path id="Tracé_5052" data-name="Tracé 5052" d="M414.828,214.894c-.173,0-.359-.4-.4-.927s0-.952.235-.977.359.4.4.927S415.013,214.882,414.828,214.894Z" transform="translate(-161.102 -141.181)" fill="#263238"/>
      <path id="Tracé_5053" data-name="Tracé 5053" d="M419.845,215.14c-.087.148-.433.124-.766,0s-.532-.47-.445-.63.433-.124.766.062S419.932,214.917,419.845,215.14Z" transform="translate(-160.112 -140.846)" fill="#263238"/>
      <path id="Tracé_5054" data-name="Tracé 5054" d="M421.569,213.006c.124.124-.087.532-.457.915s-.791.593-.915.47.074-.532.457-.915S421.433,212.895,421.569,213.006Z" transform="translate(-159.746 -141.185)" fill="#263238"/>
      <path id="Tracé_5055" data-name="Tracé 5055" d="M422.808,211.92c0-.1.321-.148.791-.136h.062l.087.074a.927.927,0,0,1,.26.853.9.9,0,0,1-.8.742.977.977,0,0,1-1-.606.816.816,0,0,1,.2-.915c.408-.371.791-.185.742-.111s-.247.124-.383.4a.408.408,0,0,0,0,.4.457.457,0,0,0,.408.2c.26,0,.383-.457.247-.618l.148.074C423.08,212.143,422.8,212.069,422.808,211.92Z" transform="translate(-159.279 -141.484)" fill="#263238"/>
      <path id="Tracé_5056" data-name="Tracé 5056" d="M424.147,211.941c-.173,0-.247-.457-.148-.927s.321-.828.495-.8.235.457.136.927S424.32,211.978,424.147,211.941Z" transform="translate(-158.85 -141.838)" fill="#263238"/>
      <path id="Tracé_5057" data-name="Tracé 5057" d="M426.6,210.214c-.062.161-.47.136-.9,0s-.717-.482-.643-.643.482-.136.9,0S426.672,210.053,426.6,210.214Z" transform="translate(-158.593 -142.015)" fill="#263238"/>
      <path id="Tracé_5058" data-name="Tracé 5058" d="M426.594,208.262c.074,0,.062.223.21.383s.334.2.47,0,0-.346-.2-.42a.867.867,0,0,0-.445,0c-.074,0,0-.346.42-.433a.766.766,0,0,1,.717.247.8.8,0,0,1,.062.964.816.816,0,0,1-.89.4.767.767,0,0,1-.544-.519C426.273,208.411,426.532,208.2,426.594,208.262Z" transform="translate(-158.281 -142.412)" fill="#263238"/>
      <path id="Tracé_5059" data-name="Tracé 5059" d="M428.18,206.788a.621.621,0,0,1-.359-1.026c.124-.062.383.124.482.408S428.341,206.739,428.18,206.788Z" transform="translate(-157.975 -142.891)" fill="#263238"/>
      <path id="Tracé_5060" data-name="Tracé 5060" d="M429.744,205.341c-.087.148-.433.124-.766-.074s-.532-.47-.433-.618.42-.124.754.062S429.831,205.18,429.744,205.341Z" transform="translate(-157.771 -143.175)" fill="#263238"/>
      <path id="Tracé_5061" data-name="Tracé 5061" d="M430.79,203.11c.074.173-.223.457-.643.643s-.841.21-.915,0,.223-.445.643-.63A.941.941,0,0,1,430.79,203.11Z" transform="translate(-157.606 -143.54)" fill="#263238"/>
      <path id="Tracé_5062" data-name="Tracé 5062" d="M431.07,200.612c0-.062.235-.3.655-.074a.841.841,0,0,1,.42.68.865.865,0,0,1-.581.841.853.853,0,0,1-.989-.235.816.816,0,0,1-.136-.791c.161-.433.507-.457.519-.371s-.1.223-.074.457.173.445.445.346.272-.346.111-.556S431.144,200.7,431.07,200.612Z" transform="translate(-157.329 -144.145)" fill="#263238"/>
      <path id="Tracé_5063" data-name="Tracé 5063" d="M432.606,198.425c0,.173-.272.4-.7.494s-.8,0-.841-.136.272-.4.7-.494S432.569,198.252,432.606,198.425Z" transform="translate(-157.172 -144.665)" fill="#263238"/>
      <path id="Tracé_5064" data-name="Tracé 5064" d="M430.91,197.759l.68-.519" transform="translate(-157.207 -144.902)" fill="#263238"/>
      <path id="Tracé_5065" data-name="Tracé 5065" d="M385.522,212.143c-.161,0-.223-.359-.111-.68s.321-.532.482-.482.223.358.124.68S385.7,212.242,385.522,212.143Z" transform="translate(-167.969 -141.657)" fill="#263238"/>
      <path id="Tracé_5066" data-name="Tracé 5066" d="M386.811,213.406c0-.074.223-.309.668-.111a.865.865,0,0,1,0,1.582.89.89,0,0,1-1.038-.124.866.866,0,0,1-.247-.779c.087-.482.445-.556.47-.482s-.074.247,0,.494.247.47.556.321.247-.42,0-.63S386.848,213.493,386.811,213.406Z" transform="translate(-167.775 -141.127)" fill="#263238"/>
      <path id="Tracé_5067" data-name="Tracé 5067" d="M388.463,216.776c-.074.161-.457.161-.865,0s-.668-.433-.606-.593.457-.161.865,0S388.525,216.616,388.463,216.776Z" transform="translate(-167.585 -140.455)" fill="#263238"/>
      <path id="Tracé_5068" data-name="Tracé 5068" d="M388.773,218.743c-.062.173-.359.223-.68.124s-.532-.321-.482-.494.359-.223.68-.111S388.823,218.583,388.773,218.743Z" transform="translate(-167.438 -139.95)" fill="#263238"/>
      <path id="Tracé_5069" data-name="Tracé 5069" d="M389.319,220c.148.087.111.445-.1.791s-.494.569-.643.47-.111-.445.087-.791A.8.8,0,0,1,389.319,220Z" transform="translate(-167.229 -139.525)" fill="#263238"/>
      <path id="Tracé_5070" data-name="Tracé 5070" d="M389.627,221.452c-.087,0,.21-.457.841-.284a1.15,1.15,0,0,1,.779.742,1.014,1.014,0,0,1-.643,1.236,1.236,1.236,0,0,1-1.323-.26.878.878,0,0,1,0-1.15.544.544,0,0,1,.779,0c.136.161.074.284,0,.284a.215.215,0,0,1-.185-.074.184.184,0,0,0-.272.1.408.408,0,0,0,.111.445.68.68,0,0,0,.655.074c.507-.185.3-.754-.074-.94S389.689,221.526,389.627,221.452Z" transform="translate(-167.092 -139.258)" fill="#263238"/>
      <path id="Tracé_5071" data-name="Tracé 5071" d="M391.177,224.015c.124.124,0,.408-.223.63s-.532.272-.655.148,0-.42.223-.63S391.016,223.855,391.177,224.015Z" transform="translate(-166.813 -138.595)" fill="#263238"/>
      <path id="Tracé_5072" data-name="Tracé 5072" d="M391.723,225.729c.136.124,0,.433-.21.692s-.556.383-.692.26,0-.433.223-.692S391.6,225.606,391.723,225.729Z" transform="translate(-166.691 -138.183)" fill="#263238"/>
      <path id="Tracé_5073" data-name="Tracé 5073" d="M401.934,270.558c-.148.087-.482-.2-.717-.643s-.321-.865-.173-.952.482.2.729.643S402.095,270.471,401.934,270.558Z" transform="translate(-164.28 -127.961)" fill="#263238"/>
      <path id="Tracé_5074" data-name="Tracé 5074" d="M402.775,270.557c-.161.074-.457-.223-.655-.668s-.223-.853,0-.927.457.223.655.668S402.936,270.483,402.775,270.557Z" transform="translate(-164.046 -127.96)" fill="#263238"/>
      <path id="Tracé_5075" data-name="Tracé 5075" d="M403.942,270.954v.4c0,.185.185.26.359.161s.161-.235,0-.4-.284-.136-.334-.223.148-.309.544-.185a.729.729,0,0,1,.111,1.347.779.779,0,0,1-.915,0,.742.742,0,0,1-.235-.668C403.608,270.93,403.917,270.868,403.942,270.954Z" transform="translate(-163.691 -127.554)" fill="#263238"/>
      <path id="Tracé_5076" data-name="Tracé 5076" d="M407.207,271.562c.111.136-.124.494-.519.791s-.791.42-.9.272.124-.495.519-.791S407.108,271.414,407.207,271.562Z" transform="translate(-163.149 -127.358)" fill="#263238"/>
      <path id="Tracé_5077" data-name="Tracé 5077" d="M408.147,272.571c.074.161-.1.408-.383.556s-.606.136-.68,0,.087-.408.383-.556S408.072,272.423,408.147,272.571Z" transform="translate(-162.84 -127.131)" fill="#263238"/>
      <path id="Tracé_5078" data-name="Tracé 5078" d="M409.443,274.379c-.185,0-.359-.235-.42-.581s.062-.643.235-.668.359.235.408.581S409.616,274.354,409.443,274.379Z" transform="translate(-162.381 -126.973)" fill="#263238"/>
      <path id="Tracé_5079" data-name="Tracé 5079" d="M411.738,274.163a.985.985,0,0,0,0,.482c.074.247.235.42.507.26s.2-.4,0-.569-.4-.124-.445-.2.148-.346.618-.222a.828.828,0,0,1,.581.569.9.9,0,0,1-1.446.9.816.816,0,0,1-.26-.767C411.355,274.139,411.713,274.027,411.738,274.163Z" transform="translate(-161.845 -126.795)" fill="#263238"/>
      <path id="Tracé_5080" data-name="Tracé 5080" d="M414.613,275.17c.124.136-.062.482-.408.779s-.717.433-.828.3.062-.482.408-.779S414.5,275.034,414.613,275.17Z" transform="translate(-161.357 -126.503)" fill="#263238"/>
      <path id="Tracé_5081" data-name="Tracé 5081" d="M416.444,276.242c.124.124-.074.507-.532.717s-.89.1-.9-.087.284-.346.631-.507S416.308,276.106,416.444,276.242Z" transform="translate(-160.963 -126.253)" fill="#263238"/>
      <path id="Tracé_5082" data-name="Tracé 5082" d="M417.632,278.385c-.173.062-.4-.136-.495-.433s0-.581.124-.631.4.136.495.433S417.793,278.335,417.632,278.385Z" transform="translate(-160.47 -125.984)" fill="#263238"/>
      <path id="Tracé_5083" data-name="Tracé 5083" d="M419.134,277.326c-.074,0,.074-.371.544-.346a.779.779,0,0,1,.655.47.791.791,0,0,1-.346.977.8.8,0,0,1-1.038-.136.767.767,0,0,1-.062-.816c.235-.42.63-.334.593-.247a.859.859,0,0,0-.161.408c-.012.223.1.371.334.235s.148-.309-.074-.445S419.208,277.388,419.134,277.326Z" transform="translate(-160.068 -126.063)" fill="#263238"/>
      <path id="Tracé_5084" data-name="Tracé 5084" d="M420.647,276.037c-.148.1-.408,0-.581-.26s-.185-.532,0-.63.408,0,.581.26S420.8,275.938,420.647,276.037Z" transform="translate(-159.8 -126.505)" fill="#263238"/>
      <path id="Tracé_5085" data-name="Tracé 5085" d="M421.369,274.858c-.124.124-.383.074-.581-.124s-.26-.457-.136-.581.4-.074.593.124S421.493,274.734,421.369,274.858Z" transform="translate(-159.645 -126.747)" fill="#263238"/>
      <path id="Tracé_5086" data-name="Tracé 5086" d="M422.1,272.555c-.087,0,.1-.334.482-.2a.606.606,0,0,1,.408.544.729.729,0,0,1-1.335.346.668.668,0,0,1,0-.63c.148-.321.42-.334.445-.26a1.8,1.8,0,0,1,0,.371.284.284,0,0,0,.087.185h.136a.508.508,0,0,0,.111,0v-.136C422.434,272.728,422.2,272.617,422.1,272.555Z" transform="translate(-159.412 -127.164)" fill="#263238"/>
      <path id="Tracé_5087" data-name="Tracé 5087" d="M423.646,274.294a.4.4,0,0,1-.223-.482.358.358,0,0,1,.408-.321.371.371,0,0,1,.222.47A.383.383,0,0,1,423.646,274.294Z" transform="translate(-158.98 -126.888)" fill="#263238"/>
      <path id="Tracé_5088" data-name="Tracé 5088" d="M424.362,275.187a.556.556,0,0,1-.148-.532.472.472,0,0,1,.321-.445c.173-.037.383.21.321.556S424.5,275.3,424.362,275.187Z" transform="translate(-158.793 -126.718)" fill="#263238"/>
      <path id="Tracé_5089" data-name="Tracé 5089" d="M425.53,276.257a.532.532,0,0,1-.544.148.47.47,0,0,1-.445-.334c-.037-.173.223-.371.569-.309S425.616,276.059,425.53,276.257Z" transform="translate(-158.712 -126.354)" fill="#263238"/>
      <path id="Tracé_5090" data-name="Tracé 5090" d="M426.224,277.189c-.062-.062.1-.309.482-.247a.729.729,0,0,1,.532.445.742.742,0,0,1-1.236.729.618.618,0,0,1,0-.7c.2-.371.544-.272.507-.185a.6.6,0,0,0-.087.334c.012.161,0,.161.074.161h.124c.124,0,.087-.074.1-.111a.3.3,0,0,0-.111-.185C426.421,277.263,426.273,277.263,426.224,277.189Z" transform="translate(-158.392 -126.075)" fill="#263238"/>
      <path id="Tracé_5091" data-name="Tracé 5091" d="M427.493,279.274a.383.383,0,0,1-.272-.445.343.343,0,0,1,.359-.359.359.359,0,0,1,.284.433A.383.383,0,0,1,427.493,279.274Z" transform="translate(-158.08 -125.712)" fill="#263238"/>
      <path id="Tracé_5092" data-name="Tracé 5092" d="M429.619,278.183c0,.173-.346.26-.692.173s-.593-.284-.556-.457.359-.247.7-.173S429.656,278.072,429.619,278.183Z" transform="translate(-157.807 -125.894)" fill="#263238"/>
      <path id="Tracé_5093" data-name="Tracé 5093" d="M430.179,277.91a.406.406,0,0,1-.359-.408c-.025-.247.1-.47.284-.482s.334.173.359.42S430.365,277.9,430.179,277.91Z" transform="translate(-157.465 -126.054)" fill="#263238"/>
      <path id="Tracé_5094" data-name="Tracé 5094" d="M431.531,276.83c-.173,0-.321-.2-.321-.445s.148-.445.321-.445.321.2.321.445S431.717,276.83,431.531,276.83Z" transform="translate(-157.136 -126.309)" fill="#263238"/>
      <path id="Tracé_5095" data-name="Tracé 5095" d="M432.64,275.223c0-.062.223-.309.63-.062a.717.717,0,0,1,.334.717.754.754,0,0,1-.816.618.717.717,0,0,1-.346-1.372c.42-.21.68.074.606.136s-.223,0-.346.235a.309.309,0,0,0-.086.26.322.322,0,0,0,.2.1c.124.012.185,0,.21-.087a.913.913,0,0,0,0-.26C433.023,275.421,432.677,275.3,432.64,275.223Z" transform="translate(-156.947 -126.52)" fill="#263238"/>
      <path id="Tracé_5096" data-name="Tracé 5096" d="M435.454,274.461c-.136.136-.371.1-.606.074s-.482-.1-.556-.26.2-.457.655-.383S435.578,274.35,435.454,274.461Z" transform="translate(-156.41 -126.795)" fill="#263238"/>
      <path id="Tracé_5097" data-name="Tracé 5097" d="M436.891,273.74c-.087.161-.433.148-.8.087s-.692-.173-.717-.359.359-.371.828-.284S436.977,273.592,436.891,273.74Z" transform="translate(-156.153 -126.965)" fill="#263238"/>
      <path id="Tracé_5098" data-name="Tracé 5098" d="M437.434,273.171c-.173,0-.3-.235-.284-.482s.185-.433.371-.408.3.223.272.47A.419.419,0,0,1,437.434,273.171Z" transform="translate(-155.732 -127.174)" fill="#263238"/>
      <path id="Tracé_5099" data-name="Tracé 5099" d="M438.64,271.2c-.062,0,.124-.334.569-.247a.7.7,0,0,1,.532.593.8.8,0,0,1-.507.865.791.791,0,0,1-.94-.4.643.643,0,0,1,.173-.8c.4-.284.68,0,.618,0s-.21.111-.3.284,0,.148,0,.185a.26.26,0,0,0,.2.087.272.272,0,0,0,.136-.21.235.235,0,0,0-.1-.21C438.887,271.249,438.69,271.274,438.64,271.2Z" transform="translate(-155.479 -127.491)" fill="#263238"/>
      <path id="Tracé_5100" data-name="Tracé 5100" d="M440.319,271.271a.408.408,0,0,1-.235-.507.38.38,0,0,1,.408-.383c.173.037.272.26.222.507S440.492,271.308,440.319,271.271Z" transform="translate(-155.044 -127.623)" fill="#263238"/>
      <path id="Tracé_5101" data-name="Tracé 5101" d="M441.773,270.037a.383.383,0,0,1-.272-.445.334.334,0,1,1,.643.074A.383.383,0,0,1,441.773,270.037Z" transform="translate(-154.706 -127.898)" fill="#263238"/>
      <path id="Tracé_5102" data-name="Tracé 5102" d="M444.02,268.826c-.1.148-.408.124-.729,0s-.606-.185-.63-.371.334-.359.779-.26S444.119,268.678,444.02,268.826Z" transform="translate(-154.431 -128.145)" fill="#263238"/>
      <path id="Tracé_5103" data-name="Tracé 5103" d="M444.8,268.152c-.161.074-.408-.161-.309-.482s.42-.383.519-.235a.569.569,0,0,1,.087.42.532.532,0,0,1-.3.3Z" transform="translate(-154.003 -128.336)" fill="#263238"/>
      <path id="Tracé_5104" data-name="Tracé 5104" d="M445.973,267a.383.383,0,0,1-.272-.445.352.352,0,0,1,.371-.359.368.368,0,0,1,.272.433A.383.383,0,0,1,445.973,267Z" transform="translate(-153.714 -128.61)" fill="#263238"/>
      <path id="Tracé_5105" data-name="Tracé 5105" d="M433.066,213.762l-8.2,8.246,19.854,19.52s4.043-11.769,6.861-22.129C453.576,212.081,433.066,213.762,433.066,213.762Z" transform="translate(-158.634 -141.038)" fill="#ff6d00"/>
      <path id="Tracé_5106" data-name="Tracé 5106" d="M428.99,221.328c-.173,0-.359-.358-.408-.828s.062-.878.235-.89.359.346.408.828S429.163,221.328,428.99,221.328Z" transform="translate(-157.759 -139.617)" fill="#263238"/>
      <path id="Tracé_5107" data-name="Tracé 5107" d="M430.7,221.371c0,.173-.309.321-.692.321s-.68-.148-.68-.321.309-.321.68-.321S430.7,221.186,430.7,221.371Z" transform="translate(-157.58 -139.277)" fill="#263238"/>
      <path id="Tracé_5108" data-name="Tracé 5108" d="M430.888,223.8c-.161-.1-.148-.383-.148-.692s0-.581.148-.68.495.173.495.68S431.061,223.907,430.888,223.8Z" transform="translate(-157.247 -138.957)" fill="#263238"/>
      <path id="Tracé_5109" data-name="Tracé 5109" d="M432.272,223.8c-.074,0,.21-.4.742-.223a.952.952,0,0,1,.643.717.964.964,0,0,1-1.817.544.89.89,0,0,1,.247-.952.7.7,0,0,1,.593-.2c.161,0,.21.124.185.148a.854.854,0,0,0-.433.346c-.161.272-.074.63.359.519s.321-.507,0-.7S432.321,223.875,432.272,223.8Z" transform="translate(-156.998 -138.69)" fill="#263238"/>
      <path id="Tracé_5110" data-name="Tracé 5110" d="M433.943,226.65c-.161,0-.222-.334-.136-.618s.309-.47.482-.42.235.334.136.618S434.117,226.7,433.943,226.65Z" transform="translate(-156.531 -138.201)" fill="#263238"/>
      <path id="Tracé_5111" data-name="Tracé 5111" d="M435.514,226.16c.173,0,.235.519.136,1.088s-.321,1.014-.494.977-.235-.519-.136-1.088S435.34,226.135,435.514,226.16Z" transform="translate(-156.247 -138.07)" fill="#263238"/>
      <path id="Tracé_5112" data-name="Tracé 5112" d="M437.3,228.048c0,.173-.309.359-.742.408s-.779-.062-.8-.235.309-.358.742-.408S437.3,227.838,437.3,228.048Z" transform="translate(-156.063 -137.683)" fill="#263238"/>
      <path id="Tracé_5113" data-name="Tracé 5113" d="M437.738,228.79c0-.074.26-.272.729-.074a1.026,1.026,0,0,1,.581.68.964.964,0,0,1-.507,1.051.878.878,0,0,1-1.174-.26.791.791,0,0,1,.173-.952.594.594,0,0,1,.63-.148c.148.062.173.148.148.173a.5.5,0,0,0-.4.3c-.136.3,0,.495.359.346s.235-.544,0-.766S437.75,228.889,437.738,228.79Z" transform="translate(-155.702 -137.486)" fill="#263238"/>
      <path id="Tracé_5114" data-name="Tracé 5114" d="M439.391,232.685c-.173,0-.321-.47-.321-1.038s.148-1.026.321-1.026.321.457.321,1.026S439.577,232.685,439.391,232.685Z" transform="translate(-155.279 -137.016)" fill="#263238"/>
      <path id="Tracé_5115" data-name="Tracé 5115" d="M439.622,206.89a11.8,11.8,0,0,1-1.78,2.658c-1.236,1.558-2.942,3.709-4.945,5.9s-3.832,4.253-5.18,5.687a16.938,16.938,0,0,1-2.287,2.225,15.76,15.76,0,0,1,1.941-2.534c1.236-1.5,3.066-3.548,5.044-5.8l5.069-5.773a22.7,22.7,0,0,1,2.139-2.361Z" transform="translate(-158.501 -142.622)" fill="#263238"/>
      <path id="Tracé_5116" data-name="Tracé 5116" d="M448.4,266.83c0,.173-.371.235-.742.148s-.63-.309-.593-.482.383-.235.742-.148S448.433,266.656,448.4,266.83Z" transform="translate(-153.392 -128.584)" fill="#263238"/>
      <path id="Tracé_5117" data-name="Tracé 5117" d="M448.968,265.564c0-.062.074-.26.433-.284a.593.593,0,0,1,.544.371.581.581,0,0,1-.383.828c-.618.161-1.15-.445-.878-.915a.4.4,0,0,1,.408-.2.11.11,0,0,1,.111.148.272.272,0,0,0-.111.247s.185.136.3.1h0a.111.111,0,0,0-.074-.124C449.178,265.651,449.005,265.651,448.968,265.564Z" transform="translate(-153.025 -128.827)" fill="#263238"/>
      <path id="Tracé_5118" data-name="Tracé 5118" d="M365.39,233.125c-.7-2.337-9.569-7.133-8.233-8.431,1.731-1.706,9.025,5.415,9.68,5.971s1.459-.4.841-.865c-.89-.68-10.113-8-8.419-9.68.94-.94,2.473.952,2.473.952s8.135,7.5,8.913,6.676-3.857-5.4-5.526-6.824-1.657-2.794-.445-3.016c.816-.161,6.033,4.092,7.64,5.551s6,5.514,5.415,1.718a.875.875,0,0,1,0-.173c-.668-3.709,0-6.812.865-7.553a1.464,1.464,0,0,1,2.1,1.582v.272a20.024,20.024,0,0,0,.26,3.869,10.285,10.285,0,0,0,1.076,3.288c.63,1.236,1.236,2.176,1.731,3,5.922,3.264,22.97,11.88,40.042,13.191,3.091.235,18.729-19.99,18.729-19.99l15.342,15.07c-2.077,3.548-2.806,4.364-13.228,18.618-17,23.254-70.466-15.255-70.466-15.255h0l-.495-.247a120.028,120.028,0,0,1-11.819-6.626c-4.6-3.227-4.327-3.647-3.869-4.141C359.035,228.786,366.107,235.523,365.39,233.125Z" transform="translate(-174.663 -140.213)" fill="#ffbe9d"/>
    </g>
  </g>
</svg>
