<svg xmlns="http://www.w3.org/2000/svg" xmlns:xlink="http://www.w3.org/1999/xlink" width="730.623" height="614.275" viewBox="0 0 730.623 614.275">
  <defs>
    <clipPath id="clip-path">
      <path id="Tracé_67" data-name="Tracé 67" d="M424.451,260.6c-4.636-5.919-72.354-9.643-134.446-11.915-54.366-1.993-120.538-1.437-126.72,2.7-4.806,3.245-4.064,18.313-.927,23.18s12.085,8.484,17.37,9.272c19.58,2.967,87.112,15.9,107.7,16.829s47.6,1,70.747,0c18.823-.8,57.9-2.457,66.25-16.164C427.557,279.4,426.182,262.792,424.451,260.6Z" transform="translate(-159.842 -247.569)" fill="#ff8700" stroke="#263238" stroke-linecap="round" stroke-linejoin="round" stroke-width="1"/>
    </clipPath>
    <clipPath id="clip-path-2">
      <path id="Tracé_83" data-name="Tracé 83" d="M166.7,237.93s-5.27,9.195-3.493,11.9.68,13.352,0,15.995,7.727,7.959,14.217,6.413,21.434,5.146,26.58,4.312,12.857,1.545,17.154,2.5,12.007,6.444,17.153,5.223,11.142,0,14.573,0,5.579,0,12.363.185,14.573,4.188,17.571,2.55,15.454.479,18.869,0,20.09.881,24.231.386,9.643.479,11.358-.386,6.429.7,9.009.495a54.733,54.733,0,0,1,12.811-.495c5.192.68,4.342,1.9,12.919.51s12.069-.51,12.069-.51,6.861-1.545,10.895-2.735,5.641,2.766,9.133,0,4.775-4.2,6.491-5.223,3.724-3.91,4.636-3.709a2.89,2.89,0,0,0,2.673-2.333c0-1.159,2.519-4.744,1.715-10.431s.232-23.18-4.389-28.976S216.447,211.721,166.7,237.93Z" transform="translate(-162.843 -223.393)" fill="#263238" stroke="#263238" stroke-miterlimit="10" stroke-width="1"/>
    </clipPath>
    <clipPath id="clip-path-3">
      <path id="Tracé_89" data-name="Tracé 89" d="M170.773,234.7s-10.323,12.657-7.047,18.127,4.76,8.113,4.868,14.727,2.782,8.824,4.883,0,2.627-11.853,6.429-12.487,9.72,1.932,9.272,4.512,6.058,3.616,7.34-2.272,11.158-4.636,18.436-6.305,9.442-9.133,14.588-9.071,21,4.775,30.011,2.643,20.09,4.914,23.582,8.252,5.981,10.184,10.709,11.467,3.446,26.148,9.009,27.446,3.863-16.721,9.875-18.436,4.281,6.429,8.577,3,2.565-10.23,7.727-13.043,4.713-5.409,8.577-8.19,4.327-7.418,10.787-7.418,16.288-.865,19.286-2.148,7.294-1.283,14.156,3.863,7.356,5.347,13.1,3.539,4.049-7.835,10.91-2.689,6.181,11.575,9.272,11.158,3.956,12.363,4.389,15.005,3.693,1.715,3.353-5.579a156.7,156.7,0,0,1,0-24.448c.9-13.1-16.674-36.718-70.7-39.36S198.992,206.4,170.773,234.7Z" transform="translate(-163.084 -206.14)" fill="#999" stroke="#263238" stroke-linecap="round" stroke-linejoin="round" stroke-width="1"/>
    </clipPath>
    <clipPath id="clip-path-4">
      <path id="Tracé_94" data-name="Tracé 94" d="M356.177,219.5l-.247.711-4.636,13.908a73.157,73.157,0,0,1-39.948-8.53c-15.639-8.515-9.89-16.69-6.491-19.966a14.5,14.5,0,0,1,1.777-1.545Z" transform="translate(-300.958 -204.08)" fill="#757575" stroke="#263238" stroke-linecap="round" stroke-linejoin="round" stroke-width="1"/>
    </clipPath>
    <clipPath id="clip-path-5">
      <path id="Tracé_99" data-name="Tracé 99" d="M266.829,213.748s-36.007,20.09-59.6,24.726a100.743,100.743,0,0,1-43.085-.989l-3.616-10.818-.464-1.36,8.144-11.575c29.733-7.835,62.726-5.44,82.028-2.828C260.416,212.295,266.829,213.748,266.829,213.748Z" transform="translate(-160.06 -208.399)" fill="#757575" stroke="#263238" stroke-linecap="round" stroke-linejoin="round" stroke-width="1"/>
    </clipPath>
    <clipPath id="clip-path-6">
      <path id="Tracé_104" data-name="Tracé 104" d="M367.332,209.376v21s-11.158,13.429-62.17,10.91-84.052-23.18-84.052-23.18A112.2,112.2,0,0,1,236.8,213.24C287.221,201.139,367.332,209.376,367.332,209.376Z" transform="translate(-221.11 -206.638)" fill="#757575" stroke="#263238" stroke-linecap="round" stroke-linejoin="round" stroke-width="1"/>
    </clipPath>
    <clipPath id="clip-path-7">
      <path id="Tracé_164" data-name="Tracé 164" d="M157.742,220.355c6.413-16.458,9.952-32.545,24.556-41.122,37.908-22.33,93.2-33.658,137.97-30.444s72.4,16.056,101.113,46.361c1.715,1.808,10.045,22.825,11.683,24.726,2.751,3.091,5.579,6.46,6.6,10.508s-.4,9.04-4.234,10.709c-2.534,1.1-5.455.525-8.175,0-62.077-12.7-126.287-8.917-189.291-2.272-20.507,2.163-41.091,4.636-61.66,3.415-8.5-.51-18.977-3.431-20.4-11.822a17.2,17.2,0,0,1,1.36-8.716C157.418,221.205,157.649,220.788,157.742,220.355Z" transform="translate(-155.809 -148.252)" fill="#ff8700" stroke="#263238" stroke-linecap="round" stroke-linejoin="round" stroke-width="1"/>
    </clipPath>
    <clipPath id="clip-path-8">
      <path id="Tracé_182" data-name="Tracé 182" d="M169.688,210.469s-10.308,2.581-9.272,7.294-4.636,5.1-4.636,5.1.433,1.762,6.97,2.194,8.932-4.3,12.023,0S180,238.966,189.438,233.7s9.427-15.577,17.571-10.818,15.454,12.471,22.732,8.608,14.156-14.156,19.719-11.575,15.006,11.142,21.867,8.144,9.875-12.363,18.869-10.725,12.44,7.65,19.734,5.548,9.427-6.831,15.454-7.48,8.994,11.374,18.436,12.224S354,216.048,363.059,215.4s14.2,12.656,19.781,12.656,9.921-10.292,16.1-9.442,7.48,10.292,13.043,10.725,10.292-6.985,16.3-6.49,6,8.515,15.454,0c0,0-9.272-1.221-13.228-12.363S217.718,188.649,169.688,210.469Z" transform="translate(-155.78 -197.805)" fill="#ff8700" stroke="#263238" stroke-linecap="round" stroke-linejoin="round" stroke-width="1"/>
    </clipPath>
  </defs>
  <g id="Hamburger-bro" transform="translate(-26.856 27.572)">
    <g id="freepik--background-simple--inject-39" transform="translate(47.475 -25.274)">
      <path id="Tracé_1" data-name="Tracé 1" d="M336.452,51.851c191.625-16.5,192,88.086,278.366,185.443S719.655,378.9,687.11,491.2,544.828,691.537,409.1,641.653s-213.476-1.932-299.074-46.206S-7.422,465.559,55.289,364.709,100.089,72.2,336.452,51.851Z" transform="translate(-22.422 -50.12)" fill="#ff8700"/>
      <path id="Tracé_2" data-name="Tracé 2" d="M336.452,51.851c191.625-16.5,192,88.086,278.366,185.443S719.655,378.9,687.11,491.2,544.828,691.537,409.1,641.653s-213.476-1.932-299.074-46.206S-7.422,465.559,55.289,364.709,100.089,72.2,336.452,51.851Z" transform="translate(-22.422 -50.12)" fill="#fff" opacity="0.7"/>
    </g>
    <g id="freepik--french-fries--inject-39" transform="translate(157.347 402.309)">
      <path id="Tracé_3" data-name="Tracé 3" d="M228.553,369.73c-27.245-.773-55.478.232-72.756,5.9L148.72,401.9s38.279,17.6,153.733,4.466" transform="translate(-63.416 -303.525)" fill="none" stroke="#263238" stroke-linecap="round" stroke-linejoin="round" stroke-width="1"/>
      <path id="Tracé_4" data-name="Tracé 4" d="M279.391,401.664l-7.727-26.271S242.673,371.545,209,370" transform="translate(-30.542 -303.254)" fill="none" stroke="#263238" stroke-linecap="round" stroke-linejoin="round" stroke-width="1"/>
      <line id="Ligne_1" data-name="Ligne 1" x1="2.751" y2="57.24" transform="translate(240.582 101.78)" fill="none" stroke="#263238" stroke-linecap="round" stroke-linejoin="round" stroke-width="1"/>
      <line id="Ligne_2" data-name="Ligne 2" x2="1.916" y2="45.974" transform="translate(90.666 100.281)" fill="none" stroke="#263238" stroke-linecap="round" stroke-linejoin="round" stroke-width="1"/>
      <path id="Tracé_5" data-name="Tracé 5" d="M299.405,373.47s-22.331,11.868-74.069,10.431-67.146-8.19-67.146-8.19" transform="translate(-58.251 -301.361)" fill="none" stroke="#263238" stroke-linecap="round" stroke-linejoin="round" stroke-width="1"/>
      <path id="Tracé_6" data-name="Tracé 6" d="M206.326,398.917l10.818-52.542,38.016-19.564s4.822-.325,4.822,6.97l-35.543,17.4-10.586,47.8s18.544,2.735-3.972,3.214-19.116-3.539-9.025-3.214" transform="translate(-39.242 -326.809)" fill="none" stroke="#263238" stroke-linecap="round" stroke-linejoin="round" stroke-width="1"/>
      <path id="Tracé_7" data-name="Tracé 7" d="M266.528,446.08,262,415.451l14.372-3.6s22.408,17.694,62.324,19.966,52.233-15.1,52.233-15.1l19.8,5.053a275.074,275.074,0,0,1-6.552,42.451" transform="translate(-1.638 -280.43)" fill="none" stroke="#263238" stroke-linecap="round" stroke-linejoin="round" stroke-width="1"/>
      <path id="Tracé_8" data-name="Tracé 8" d="M267.391,441.814l-4.281-37.923,14.526-7.279,2.287,7.99,10,.433,1.236-29.254,11.1-1.808,2.1,13.244,7.881.34-.572,13.615,8.407.355L321.463,369l13.259-2.5,1.113,11.173,8.932.386.726-17.293,11.93,4.327-.355,8.561,10.292,5.362-.479,11.389,9.89,2.581-2.565,10.848,11.034.464,5.053-19.734,13.445,5.826-8.979,25.421,7.68,5.069,2.673-10.957,11.127,8.376-9.674,29.439" transform="translate(-1.032 -308.293)" fill="none" stroke="#263238" stroke-linecap="round" stroke-linejoin="round" stroke-width="1"/>
      <line id="Ligne_3" data-name="Ligne 3" x1="6.12" y2="51.6" transform="translate(349.916 65.34)" fill="none" stroke="#263238" stroke-linecap="round" stroke-linejoin="round" stroke-width="1"/>
      <path id="Tracé_9" data-name="Tracé 9" d="M326.6,433.924l6.135-45.248,6.846-.046" transform="translate(33.593 -293.094)" fill="none" stroke="#263238" stroke-linecap="round" stroke-linejoin="round" stroke-width="1"/>
      <line id="Ligne_4" data-name="Ligne 4" x1="2.643" y2="76.681" transform="translate(332.16 69.373)" fill="none" stroke="#263238" stroke-linecap="round" stroke-linejoin="round" stroke-width="1"/>
      <path id="Tracé_10" data-name="Tracé 10" d="M295.643,436.077l2.1-41.817H283.96v33.488" transform="translate(10.339 -290.023)" fill="none" stroke="#263238" stroke-linecap="round" stroke-linejoin="round" stroke-width="1"/>
      <path id="Tracé_11" data-name="Tracé 11" d="M272.051,421.443,269.98,394.26h13.043l-1.576,27.183" transform="translate(2.714 -290.023)" fill="none" stroke="#263238" stroke-linecap="round" stroke-linejoin="round" stroke-width="1"/>
      <path id="Tracé_12" data-name="Tracé 12" d="M291.578,377.88H286.54l.556,19.9" transform="translate(11.746 -298.956)" fill="none" stroke="#263238" stroke-linecap="round" stroke-linejoin="round" stroke-width="1"/>
      <path id="Tracé_13" data-name="Tracé 13" d="M308.958,437.194l1.576-50.054H297.646l-1.916,54.567" transform="translate(16.758 -293.906)" fill="none" stroke="#263238" stroke-linecap="round" stroke-linejoin="round" stroke-width="1"/>
      <path id="Tracé_14" data-name="Tracé 14" d="M334.24,433.747l7.109-40.767,13.8,1.978-8.484,33.009" transform="translate(37.759 -290.721)" fill="none" stroke="#263238" stroke-linecap="round" stroke-linejoin="round" stroke-width="1"/>
      <line id="Ligne_5" data-name="Ligne 5" y1="21.944" x2="4.945" transform="translate(396.462 112.582)" fill="none" stroke="#263238" stroke-linecap="round" stroke-linejoin="round" stroke-width="1"/>
      <path id="Tracé_15" data-name="Tracé 15" d="M315.95,372.021l6.181-.2-4.373,48.262" transform="translate(27.785 -302.261)" fill="none" stroke="#263238" stroke-linecap="round" stroke-linejoin="round" stroke-width="1"/>
      <path id="Tracé_16" data-name="Tracé 16" d="M312.65,431.284l2.6-28.234h14.8l-4.111,25.468" transform="translate(25.985 -285.23)" fill="none" stroke="#263238" stroke-linecap="round" stroke-linejoin="round" stroke-width="1"/>
      <path id="Tracé_17" data-name="Tracé 17" d="M377.17,452.118V399.746l32.391-5.486" transform="translate(61.172 -290.023)" fill="none" stroke="#263238" stroke-linecap="round" stroke-linejoin="round" stroke-width="1"/>
      <path id="Tracé_18" data-name="Tracé 18" d="M154.046,441.5V393.855l-54.2-9.535" transform="translate(-90.068 -295.444)" fill="none" stroke="#263238" stroke-linecap="round" stroke-linejoin="round" stroke-width="1"/>
      <path id="Tracé_19" data-name="Tracé 19" d="M150.921,390.49l-39.978,11.3L105.58,435.1" transform="translate(-86.943 -292.079)" fill="none" stroke="#263238" stroke-linecap="round" stroke-linejoin="round" stroke-width="1"/>
      <line id="Ligne_6" data-name="Ligne 6" x1="23.999" y1="5.471" transform="translate(0 104.237)" fill="none" stroke="#263238" stroke-linecap="round" stroke-linejoin="round" stroke-width="1"/>
    </g>
    <g id="freepik--Speech-bubble--inject-39" transform="translate(222.406 -26.99)">
      <path id="Tracé_20" data-name="Tracé 20" d="M256.746,90.41c-4.636-27.817-35.327-45.928-68.6-40.411s-56.576,32.561-51.94,60.393c4.25,25.653,30.66,43.007,60.81,41.261,9.087,12.888,27.94,19.24,27.94,19.24-5.532-6.011-9.04-15.67-10.941-22.238C242.25,140.171,260.856,115.6,256.746,90.41Z" transform="translate(-135.62 -49.01)" fill="#fff" stroke="#263238" stroke-linecap="round" stroke-linejoin="round" stroke-width="1"/>
      <path id="Tracé_21" data-name="Tracé 21" d="M196.227,71.29c-8.561-1.777-13.136,3.817-15.1,7.325-2.6-3.091-8.129-7.727-16.211-4.4-8.778,3.632-10.818,15.454-2.256,25.236,6.181,7.047,15.454,11.389,20.2,13.259a16.065,16.065,0,0,0,1.545.556c.371-.216.85-.495,1.36-.819,4.25-2.782,12.579-8.7,17.339-16.69C209.749,84.457,205.514,73.237,196.227,71.29Z" transform="translate(-123.857 -37.044)" fill="#ff8700"/>
    </g>
    <g id="freepik--Right-hand--inject-39" transform="translate(458.448 146.067)">
      <path id="Tracé_22" data-name="Tracé 22" d="M288.609,315.014c1.545,8.592,11.281,15.454,21.759,20.6,10.818,5.347,22.361,8.994,26.379,11.142,13.908,7.449,25.993,11.621,30.907,24.417S406.4,406.453,414.4,417.61c3.8,5.285,14.6,8.716,25.7,13.058a108.577,108.577,0,0,1,15.624,7.232h0c6.073,3.616,10.972,8.067,13.151,14.016,3.724,10.246,15.454,57.8,26.163,102.257,10.416,43.347,57.611,40.488,69.7,15.16A232.854,232.854,0,0,0,586.6,488.017s-14.5-36.965-16.319-51.213-6.537-10.941-19.193-29.053-14.959-35.373-25.143-56.3-27.09-87.56-29.671-101.731c-2.009-11.158-9.272-11.5-18.7-15.454l-.263-.093a47.116,47.116,0,0,1-7.727-4.126c-3.786-2.55-9.272-8.036-15.222-14.65h0c-14.573-16.164-32.19-39-36.115-42.575-5.532-5.038-12.8-6.506-36.131-9.056-18.544-2.04-28.481-3.879-32.715-1.978-17.524,7.912-32.453,7.588-37.413,10.818a3.2,3.2,0,0,0-1.545,3.632c2.241,11.42,36.934,13.908,36.934,13.908s36.7,54.088,46.114,68.2c6.97,10.354,27.276,20.986,27.276,20.986,1.654,7.2,2.936,14.295,2.936,14.295-1.545,9.5-16.767,32.793-24.88,32.174s-45.835-12.007-63.483-14.186S287.589,309.08,288.609,315.014Zm120.245-86.247c-8.5-7.727-21.836-26.75-31.2-36.625h0A190.856,190.856,0,0,0,401.034,201s19.873,31.494,34.74,46.531c-3.013-1.947-6.181-3.972-9.272-6h-.093A155.039,155.039,0,0,1,408.853,228.767Z" transform="translate(-288.241 -160.994)" fill="#fff"/>
      <path id="Tracé_23" data-name="Tracé 23" d="M288.609,311.059c1.545,8.592,11.281,15.454,21.759,20.6,13.429-.51,27.353-1.545,32.793-2.967,11.575-2.967-1.777,6.784-1.777,6.784s8.3,2.148,15.593-5.672c0,0,20.522-.974,23.057,1.87s-2.04,8.592,1.144,17.293c0,0,13.336-14.465,18.359-15.716s.68,6.676,12.626,18.22,20.306,23.814,34.322,22.207a78.956,78.956,0,0,1,.912-15.763c1.36-7.727,3.493-15.964,2.612-27.909s-5.687-15.685-5.687-15.685-9.04-15.747-12.27-24.108S430.5,280.12,430.5,280.12s-23.273-15.732-30.737-25.715-19.889-27.09-19.92-34.508-31.788-48-35.435-47.674l-.495,6.073a18.73,18.73,0,0,1-10.972-2.72,13.151,13.151,0,0,0-9.38-2.287l15.021-4.018c-2.6.618-12.363,2.843-15.577,1.545-2.874-1.174-7.34-3.369-10.957-2.272a3.2,3.2,0,0,0-1.545,3.632c2.241,11.42,36.934,13.908,36.934,13.908s36.7,54.088,46.114,68.2c6.97,10.354,27.276,20.986,27.276,20.986,1.654,7.2,2.936,14.295,2.936,14.295-1.545,9.5-16.767,32.793-24.88,32.174S353.05,309.73,335.4,307.551,287.589,305.124,288.609,311.059Z" transform="translate(-288.241 -157.039)" fill="#ff8700" opacity="0.4"/>
      <path id="Tracé_24" data-name="Tracé 24" d="M338.78,174.77a138.388,138.388,0,0,0,11.5,9.859h0a190.846,190.846,0,0,0,23.381,8.855s19.873,31.494,34.74,46.531c-3.013-1.947-6.181-3.972-9.272-6a61.366,61.366,0,0,0,6.537,4.636c6.32,3.662,12.517,7.866,12.517,7.866s5.084-2.411-6.6-14.635-31.139-39.623-33.163-45.063S346.955,177.474,338.78,174.77Z" transform="translate(-260.866 -153.482)" fill="#ff8700" opacity="0.4"/>
      <path id="Tracé_25" data-name="Tracé 25" d="M335,165.165s44.29,8.036,51.646,10.818,33.7,44.645,65.431,56.545a47.12,47.12,0,0,1-7.727-4.126c-3.786-2.55-9.272-8.036-15.222-14.65h0a74.828,74.828,0,0,1-16.721-14.681c-9.952-11.606-22.454-25.344-27.183-27.708s-35.219-6.583-41.725-7.248S335,165.165,335,165.165Z" transform="translate(-262.927 -159.377)" fill="#ff8700" opacity="0.4"/>
      <path id="Tracé_26" data-name="Tracé 26" d="M402.33,223s19.41-.355,21.79,8.592,13.46,38.881,13.46,38.881-15.562-25.1-20.661-32.808S402.33,223,402.33,223Z" transform="translate(-226.208 -127.18)" fill="#ff8700" opacity="0.4"/>
      <path id="Tracé_27" data-name="Tracé 27" d="M396.75,340.19c6.073,3.616,10.972,8.067,13.151,14.017,3.724,10.246,15.454,57.8,26.163,102.256-5.146-37.259-18.3-90.682-13.908-87.838,5.888,3.724,15.16,45.774,16.705,36.919s.495-46.577,7.263-49.3,10.447-15.052,10.447-15.052c-11.157,4.5-26.178,2.318-26.178,2.318C420.317,347.283,406.98,344.053,396.75,340.19Z" transform="translate(-229.251 -63.268)" fill="#ff8700" opacity="0.4"/>
      <path id="Tracé_28" data-name="Tracé 28" d="M377.442,217.775c-8.515-7.727-21.851-26.75-31.232-36.625a189.233,189.233,0,0,0,23.443,8.886s19.873,31.495,34.74,46.531C394.657,230.246,383.53,223.292,377.442,217.775Z" transform="translate(-256.814 -150.002)" fill="none" stroke="#263238" stroke-linecap="round" stroke-linejoin="round" stroke-width="1"/>
      <path id="Tracé_29" data-name="Tracé 29" d="M586.737,488.013c-7.943-18.745-15.562-39.515-18.544-59.914-7.078-8.33-14.279-15.114-19.811-23.3-25.406-50.116-40.025-99.367-51.074-154.536a33.783,33.783,0,0,1-4-8.082c-10.153-8.561-24.015-9.689-32.453-19.672-15.577-18.328-29.609-36.517-46.84-53.408-19.657-6.181-41.338-6.444-61.366-8.067-12.827,5.162-26.936,7.124-39.623,10.818-4.883,2.7-.757,9.272,2.194,11.034,10.539,3.941,21.079,7.9,31.974,7.232,23.953,29.841,37.908,68.181,73.25,91.176,2.952,1.793,4,8.082,3.632,12.7-4.2,13.615-13.275,29.934-28.929,31.773-33.272-10.447-66.651-19.348-102.7-14.511-3.2,1.283-4.868,2.7-3.709,7.449,4,8.082,12.873,13.445,20.322,17.154,16.566,5.981,33.148,11.977,47.906,20.924,7.325,5.239,9.659,14.743,15.206,22.933,12.734,14.99,29.053,24.061,41.926,37.506,10.029,10.107,25.313,12.888,38.8,18.637,8.994,3.833,16.2,10.617,18.544,20.09,8.16,33.225,16.334,66.451,25.143,100.356" transform="translate(-288.362 -160.975)" fill="none" stroke="#263238" stroke-linecap="round" stroke-linejoin="round" stroke-width="1"/>
      <path id="Tracé_30" data-name="Tracé 30" d="M328.178,188.888s-11.142-23.18,2.086-25.838c0,0,13.908,17.092,22.655,23.01s26.364,32.205,36.749,41.586,35.281,22.949,43.27,30.444" transform="translate(-269.04 -159.873)" fill="none" stroke="#263238" stroke-linecap="round" stroke-linejoin="round" stroke-width="1"/>
      <path id="Tracé_31" data-name="Tracé 31" d="M346.21,181.15a189.228,189.228,0,0,0,23.443,8.886s19.873,31.494,34.74,46.531" transform="translate(-256.814 -150.002)" fill="none" stroke="#263238" stroke-linecap="round" stroke-linejoin="round" stroke-width="1"/>
      <path id="Tracé_32" data-name="Tracé 32" d="M374.11,237.48s7.99,6.892,16.319,4.961" transform="translate(-241.598 -119.282)" fill="none" stroke="#263238" stroke-linecap="round" stroke-linejoin="round" stroke-width="1"/>
      <path id="Tracé_33" data-name="Tracé 33" d="M376,246.72c3.276,9.921,23.381,27.662,23.381,27.662s4.327,15.454,3.786,22.083-6.707,23.18-3.523,43.533" transform="translate(-240.567 -114.243)" fill="none" stroke="#263238" stroke-linecap="round" stroke-linejoin="round" stroke-width="1"/>
      <path id="Tracé_34" data-name="Tracé 34" d="M391.14,264.62s10.4,4.713,18.235,4.08" transform="translate(-232.31 -104.481)" fill="none" stroke="#263238" stroke-linecap="round" stroke-linejoin="round" stroke-width="1"/>
      <path id="Tracé_35" data-name="Tracé 35" d="M393,338.345c.9,1.19,27.816,11.9,36.641,8.16,0,0,22.871,1.854,37.089-8.515" transform="translate(-231.296 -64.468)" fill="none" stroke="#263238" stroke-linecap="round" stroke-linejoin="round" stroke-width="1"/>
      <path id="Tracé_36" data-name="Tracé 36" d="M331,185.681s-19.518-2.024-19.827-12.069c0,0,15.067-3.245,19.58-5.841" transform="translate(-275.923 -157.299)" fill="none" stroke="#263238" stroke-linecap="round" stroke-linejoin="round" stroke-width="1"/>
      <path id="Tracé_37" data-name="Tracé 37" d="M330.82,167.384s5.084-2.952,8.036-2.72,40.38,8.839,48.323,10.23,41.138,48.432,61.521,54.443" transform="translate(-265.207 -159)" fill="none" stroke="#263238" stroke-linecap="round" stroke-linejoin="round" stroke-width="1"/>
      <path id="Tracé_38" data-name="Tracé 38" d="M366.346,267.55c-4.868,2.921-17.416,20.291-18.266,30.8" transform="translate(-255.794 -102.883)" fill="none" stroke="#263238" stroke-linecap="round" stroke-linejoin="round" stroke-width="1"/>
      <path id="Tracé_39" data-name="Tracé 39" d="M335.812,263.45s4.281,9.7-9.782,17.617" transform="translate(-267.819 -105.119)" fill="none" stroke="#263238" stroke-linecap="round" stroke-linejoin="round" stroke-width="1"/>
    </g>
    <g id="freepik--Left-hand--inject-39" transform="translate(27.49 145.932)">
      <path id="Tracé_40" data-name="Tracé 40" d="M260.807,311.522c-17.633,2.179-55.355,13.568-63.468,14.171s-23.366-22.67-24.88-32.174c0,0,1.283-7.093,2.936-14.279,0,0,20.306-10.632,27.26-21,9.427-14.047,46.129-68.181,46.129-68.181s34.709-2.426,36.95-13.908a3.214,3.214,0,0,0-1.638-3.632c-4.93-3.091-19.889-2.843-37.413-10.818-4.234-1.916-14.2,0-32.7,1.978-23.35,2.55-30.614,4.018-36.146,9.056-3.925,3.554-21.542,26.395-36.115,42.559h0c-5.981,6.614-11.451,12.1-15.237,14.65a47.12,47.12,0,0,1-7.727,4.126l-.263.093c-9.4,3.987-16.69,4.327-18.7,15.454-2.581,14.171-19.472,80.822-29.686,101.731s-12.44,38.418-25.1,56.452-17.37,14.8-19.178,29.037S9.5,488.049,9.5,488.049a232.763,232.763,0,0,0,21.867,81.317c12.085,25.328,59.265,28.2,69.7-15.145,10.678-44.46,22.439-92.011,26.178-102.257,2.164-5.95,7.078-10.4,13.136-14h0a109.558,109.558,0,0,1,15.639-7.232c11.1-4.327,21.9-7.727,25.684-13.043,8.02-11.157,41.864-33.642,46.763-46.438s17-17,30.907-24.417c4-2.148,15.562-5.8,26.364-11.142,10.478-5.192,20.26-11.992,21.759-20.6C308.527,309.127,278.455,309.313,260.807,311.522ZM169.63,241.548h-.093c-3.091,2.04-6.181,4.064-9.272,6.011,14.866-15.052,34.74-46.531,34.74-46.531a187.925,187.925,0,0,0,23.4-8.87h0c-9.38,9.875-22.7,28.929-31.216,36.61a156.873,156.873,0,0,1-17.509,12.78Z" transform="translate(-9.485 -160.907)" fill="#fff"/>
      <path id="Tracé_41" data-name="Tracé 41" d="M259.381,311.026c-1.545,8.608-11.281,15.454-21.759,20.6-13.414-.495-27.353-1.545-32.777-2.967-11.59-2.967,1.777,6.784,1.777,6.784s-8.314,2.148-15.593-5.672c0,0-20.538-.974-23.057,1.87s2.04,8.592-1.159,17.277c0,0-13.336-14.449-18.343-15.716s-.7,6.676-12.641,18.22-20.306,23.814-34.322,22.222a79.122,79.122,0,0,0-.912-15.732c-1.36-7.727-3.493-15.964-2.612-27.909s5.7-15.685,5.7-15.685,9.04-15.747,12.27-24.108,1.545-10.076,1.545-10.076,23.18-15.747,30.737-25.684,19.889-27.075,19.92-34.492,31.788-48.014,35.451-47.69l.479,6.089a18.776,18.776,0,0,0,10.988-2.72,13.136,13.136,0,0,1,9.38-2.287l-15.021-4.018c2.581.618,12.363,2.843,15.577,1.545,2.859-1.174,7.34-3.369,10.941-2.272a3.214,3.214,0,0,1,1.638,3.632c-2.241,11.436-36.95,13.908-36.95,13.908s-36.7,54.088-46.129,68.181c-6.954,10.369-27.26,21-27.26,21-1.654,7.186-2.936,14.279-2.936,14.279,1.545,9.5,16.752,32.808,24.88,32.174s45.835-11.992,63.468-14.171S260.385,305.092,259.381,311.026Z" transform="translate(38.658 -156.872)" fill="#ff8700" opacity="0.4"/>
      <path id="Tracé_42" data-name="Tracé 42" d="M180.621,174.77a143.83,143.83,0,0,1-11.5,9.859h0a187.925,187.925,0,0,1-23.4,8.87s-19.92,31.494-34.786,46.531c3.091-1.947,6.181-3.972,9.272-6.011a59.179,59.179,0,0,1-6.537,4.636c-6.321,3.662-12.517,7.866-12.517,7.866s-5.084-2.411,6.6-14.619,31.154-39.639,33.179-45.078S172.431,177.459,180.621,174.77Z" transform="translate(39.902 -153.347)" fill="#ff8700" opacity="0.4"/>
      <path id="Tracé_43" data-name="Tracé 43" d="M197.317,165.158s-44.275,8.02-51.631,10.818-33.72,44.645-65.446,56.545a47.122,47.122,0,0,0,7.727-4.126c3.786-2.55,9.272-8.036,15.237-14.65h0a75.46,75.46,0,0,0,16.736-14.665c9.937-11.621,22.439-25.359,27.183-27.724s35.2-6.583,41.725-7.232S197.317,165.158,197.317,165.158Z" transform="translate(29.094 -159.235)" fill="#ff8700" opacity="0.4"/>
      <path id="Tracé_44" data-name="Tracé 44" d="M101.054,223s-19.394-.355-21.774,8.592-13.46,38.881-13.46,38.881,15.562-25.1,20.661-32.808S101.054,223,101.054,223Z" transform="translate(21.23 -127.045)" fill="#ff8700" opacity="0.4"/>
      <path id="Tracé_45" data-name="Tracé 45" d="M115.268,340.19c-6.058,3.6-10.972,8.051-13.136,14-3.74,10.246-15.454,57.8-26.178,102.256,5.146-37.259,18.3-90.682,13.908-87.838-5.8,3.74-15.067,45.774-16.613,36.9S72.755,358.951,66,356.231,55.54,341.179,55.54,341.179c11.173,4.5,26.271,2.318,26.271,2.318C91.794,347.268,105.038,344.038,115.268,340.19Z" transform="translate(15.624 -63.134)" fill="#ff8700" opacity="0.4"/>
      <path id="Tracé_46" data-name="Tracé 46" d="M107.1,236.551c14.866-15.036,34.74-46.515,34.74-46.515a191.955,191.955,0,0,0,23.443-8.886c-9.38,9.875-22.717,28.929-31.232,36.625C127.962,223.277,116.836,230.231,107.1,236.551Z" transform="translate(43.743 -149.868)" fill="none" stroke="#263238" stroke-linecap="round" stroke-linejoin="round" stroke-width="1"/>
      <path id="Tracé_47" data-name="Tracé 47" d="M101.254,549.873c8.453-34.106,13.29-70.159,29.161-104,4.126-6.537,10.168-8.577,16.087-12.147,8.994-3.833,18.112-6.181,25.56-9.813A350.442,350.442,0,0,0,222.734,379.5c6.954-9.859,12.363-19.6,21.249-24.973,20.569-14.063,51.615-13.46,63.622-37.691,1.159-4.744-5.131-5.78-8.329-7.078-35.93-3.307-67.656,7.016-101.036,15.917-14.248-3.508-20.09-18.544-25.73-30.49-3.941-10.524,4.636-18.977,15.206-22.933a32.251,32.251,0,0,0,8.747-6.908c19.7-24.849,34.647-50.858,52.8-75.584,12.363-.989,22.98-3.4,33.4-8.886,2.952-1.793,4.126-6.537,2.457-7.959-14.6-8.129-28.589-8.546-44.244-10.385-14.109-1.963-29.516-.711-43.27,1.947-9.118,2.287-18.235,4.636-25.313,12.9-12.626,16.52-23.829,31.371-38.109,46.484-8.623,8.453-19.286,10.818-29.686,16.35-1.422,1.669-2.967,1.793-2.828,3.323C90.359,295.615,75.74,344.865,51.864,394.858c-6.707,12.935-15.33,21.388-23.69,32.916-6.83,11.4-4.126,17.154-18.683,59.914" transform="translate(-9.49 -160.546)" fill="none" stroke="#263238" stroke-linecap="round" stroke-linejoin="round" stroke-width="1"/>
      <path id="Tracé_48" data-name="Tracé 48" d="M201.3,188.888s11.142-23.18-2.086-25.838c0,0-13.908,17.092-22.64,22.995s-26.379,32.221-36.764,41.6-35.281,22.933-43.27,30.428" transform="translate(37.984 -159.739)" fill="none" stroke="#263238" stroke-linecap="round" stroke-linejoin="round" stroke-width="1"/>
      <path id="Tracé_49" data-name="Tracé 49" d="M165.283,181.15a191.972,191.972,0,0,1-23.443,8.886s-19.873,31.479-34.74,46.515" transform="translate(43.743 -149.868)" fill="none" stroke="#263238" stroke-linecap="round" stroke-linejoin="round" stroke-width="1"/>
      <path id="Tracé_50" data-name="Tracé 50" d="M122.609,237.47s-7.99,6.892-16.319,4.976" transform="translate(43.301 -119.153)" fill="none" stroke="#263238" stroke-linecap="round" stroke-linejoin="round" stroke-width="1"/>
      <path id="Tracé_51" data-name="Tracé 51" d="M124.609,246.72c-3.292,9.921-23.4,27.662-23.4,27.662s-4.327,15.454-3.786,22.068,6.707,23.18,3.523,43.533" transform="translate(38.442 -114.108)" fill="none" stroke="#263238" stroke-linecap="round" stroke-linejoin="round" stroke-width="1"/>
      <path id="Tracé_52" data-name="Tracé 52" d="M106.245,264.62s-10.385,4.636-18.235,4.064" transform="translate(33.332 -104.347)" fill="none" stroke="#263238" stroke-linecap="round" stroke-linejoin="round" stroke-width="1"/>
      <path id="Tracé_53" data-name="Tracé 53" d="M123.949,338.335c-.9,1.19-27.816,11.9-36.641,8.16,0,0-22.871,1.854-37.089-8.515" transform="translate(12.723 -64.339)" fill="none" stroke="#263238" stroke-linecap="round" stroke-linejoin="round" stroke-width="1"/>
      <path id="Tracé_54" data-name="Tracé 54" d="M167,185.681s19.518-2.024,19.812-12.069c0,0-15.067-3.245-19.564-5.841" transform="translate(76.41 -157.165)" fill="none" stroke="#263238" stroke-linecap="round" stroke-linejoin="round" stroke-width="1"/>
      <path id="Tracé_55" data-name="Tracé 55" d="M201.74,167.384s-5.084-2.952-8.036-2.72S153.339,173.5,145.4,174.879s-41.153,48.432-61.536,54.443" transform="translate(31.068 -158.865)" fill="none" stroke="#263238" stroke-linecap="round" stroke-linejoin="round" stroke-width="1"/>
      <path id="Tracé_56" data-name="Tracé 56" d="M131.05,267.55c4.883,2.905,17.416,20.275,18.266,30.8" transform="translate(56.804 -102.749)" fill="none" stroke="#263238" stroke-linecap="round" stroke-linejoin="round" stroke-width="1"/>
      <path id="Tracé_57" data-name="Tracé 57" d="M158.8,263.45s-4.265,9.7,9.782,17.6" transform="translate(71.608 -104.985)" fill="none" stroke="#263238" stroke-linecap="round" stroke-linejoin="round" stroke-width="1"/>
    </g>
    <g id="freepik--Burger--inject-39" transform="translate(253.561 126.375)">
      <path id="Tracé_58" data-name="Tracé 58" d="M424.451,260.6c-4.636-5.919-72.354-9.643-134.446-11.915-54.366-1.993-120.538-1.437-126.72,2.7-4.806,3.245-4.064,18.313-.927,23.18s12.085,8.484,17.37,9.272c19.58,2.967,87.112,15.9,107.7,16.829s47.6,1,70.747,0c18.823-.8,57.9-2.457,66.25-16.164C427.557,279.4,426.182,262.792,424.451,260.6Z" transform="translate(-153.565 -94.088)" fill="#ff8700"/>
      <g id="Groupe_1" data-name="Groupe 1" transform="translate(6.278 153.481)" clip-path="url(#clip-path)">
        <path id="Tracé_59" data-name="Tracé 59" d="M160.54,254.952a7.063,7.063,0,0,1,2.4-3.57c6.181-4.172,72.369-4.636,126.72-2.72,62.046,2.272,129.81,5.981,134.446,11.915-4.173,7.4-20.275,15.747-29.285,17.2a341.329,341.329,0,0,1-43.409,3.091c-14.156,0-54.088-2.241-73-3.091s-46.948-2.426-55.633-5.8-43.749-6.923-55-11.42a13.6,13.6,0,0,1-7.232-5.61Z" transform="translate(-159.462 -247.564)" fill="rgba(0,0,0,0.7)" opacity="0.2"/>
        <path id="Tracé_60" data-name="Tracé 60" d="M425.7,274.77a11.742,11.742,0,0,1-1.283,3.8c-8.345,13.707-47.412,15.361-66.25,16.18-23.18.989-50.162.927-70.747,0s-88.086-13.908-107.7-16.844c-5.285-.8-14.186-4.342-17.37-9.272A23.181,23.181,0,0,1,159.9,258.42c6.892,8.839,9.751,13.305,37.089,18.39,27.662,5.161,144.089,16.087,188.75,11.575C410.527,285.912,421.221,279.777,425.7,274.77Z" transform="translate(-159.811 -241.652)" fill="rgba(0,0,0,0.7)" opacity="0.2"/>
        <path id="Tracé_61" data-name="Tracé 61" d="M244.42,267.28c2.318.155,4.636.294,6.97.417" transform="translate(-113.717 -236.82)" fill="none" stroke="#263238" stroke-linecap="round" stroke-linejoin="round" stroke-width="1"/>
        <path id="Tracé_62" data-name="Tracé 62" d="M197.67,262.89c22.315,3.6,44.815,6.4,67.424,6.491" transform="translate(-139.212 -239.214)" fill="none" stroke="#263238" stroke-linecap="round" stroke-linejoin="round" stroke-width="1"/>
        <path id="Tracé_63" data-name="Tracé 63" d="M160.54,252.35c3.632,6.753,12.888,7.263,19.41,9.272,10.215,3.091,21.341,4.25,31.9,6.011" transform="translate(-159.462 -244.962)" fill="none" stroke="#263238" stroke-linecap="round" stroke-linejoin="round" stroke-width="1"/>
        <path id="Tracé_64" data-name="Tracé 64" d="M280.6,269.506c-1.545,0-3.168-.124-4.744-.216" transform="translate(-96.571 -235.724)" fill="none" stroke="#263238" stroke-linecap="round" stroke-linejoin="round" stroke-width="1"/>
        <path id="Tracé_65" data-name="Tracé 65" d="M292.566,269.33c-2.117.093-4.219.155-6.336.2" transform="translate(-90.915 -235.702)" fill="none" stroke="#263238" stroke-linecap="round" stroke-linejoin="round" stroke-width="1"/>
        <path id="Tracé_66" data-name="Tracé 66" d="M347.011,256c-8.067,16.319-29.053,18.668-45.171,19.672" transform="translate(-82.402 -242.972)" fill="none" stroke="#263238" stroke-linecap="round" stroke-linejoin="round" stroke-width="1"/>
      </g>
      <path id="Tracé_68" data-name="Tracé 68" d="M424.451,260.6c-4.636-5.919-72.354-9.643-134.446-11.915-54.366-1.993-120.538-1.437-126.72,2.7-4.806,3.245-4.064,18.313-.927,23.18s12.085,8.484,17.37,9.272c19.58,2.967,87.112,15.9,107.7,16.829s47.6,1,70.747,0c18.823-.8,57.9-2.457,66.25-16.164C427.557,279.4,426.182,262.792,424.451,260.6Z" transform="translate(-153.565 -94.088)" fill="none" stroke="#263238" stroke-linecap="round" stroke-linejoin="round" stroke-width="1"/>
      <path id="Tracé_69" data-name="Tracé 69" d="M166.7,237.93s-5.27,9.195-3.493,11.9.68,13.352,0,15.995,7.727,7.959,14.217,6.413,21.434,5.146,26.58,4.312,12.857,1.545,17.154,2.5,12.007,6.444,17.153,5.223,11.142,0,14.573,0,5.579,0,12.363.185,14.573,4.188,17.571,2.55,15.454.479,18.869,0,20.09.881,24.231.386,9.643.479,11.358-.386,6.429.7,9.009.495a54.733,54.733,0,0,1,12.811-.495c5.192.68,4.342,1.9,12.919.51s12.069-.51,12.069-.51,6.861-1.545,10.895-2.735,5.641,2.766,9.133,0,4.775-4.2,6.491-5.223,3.724-3.91,4.636-3.709a2.89,2.89,0,0,0,2.673-2.333c0-1.159,2.519-4.744,1.715-10.431s.232-23.18-4.389-28.976S216.447,211.721,166.7,237.93Z" transform="translate(-151.928 -107.273)" fill="#263238"/>
      <g id="Groupe_3" data-name="Groupe 3" transform="translate(10.915 116.12)" clip-path="url(#clip-path-2)">
        <g id="Groupe_2" data-name="Groupe 2" transform="translate(0.814 16.12)" opacity="0.2">
          <path id="Tracé_70" data-name="Tracé 70" d="M276.181,269.021c-2.241,0-5.455,2.905-5.455,2.905l10.6,2.519s14.48,3.183,15.454,2.256.958-7.727,0-10.246-.9-4.5-3.091-8.685-8.5-6.676-8.809-9.659-.325-1.545-5.146-3.848-13.182,0-18-2.055-11.9-4.482-11.9-4.482l18.637-3.894s-24.108.185-27.646,0-10.617,2.828-14.156,3.894-9.643,2.241-9.643,2.241,18.127,4.3,18.869,4.3H214.753c-6.429,0-7.727-1.283-10.941,0s-2.89,2.89-6.413,2.89a43.273,43.273,0,0,1-6.521,0c-4.42-.325-11.127-1.283-11.127-1.283s-4.945,3.616-5.872,4.219-6.815.6-10.308-4.049v-.185a43.687,43.687,0,0,1-.2,12.023c0-.17,0-.325,0-.495a6.692,6.692,0,0,0,2.473,1.344c4.5,1.283,1.3,4.837,6.1,4.188s9.659-4.837,13.2-2.256,14.789,4.822,17.679,5.146,4.512-3.848,11.25,0,5.161,2.89,9.659,3.848,9.118-2.89,12.116,0,8.469,3.23,12.656,2.6,7.062,5.053,8.345.263-7.387-7.727-9.968-7.727-7.727-.974-9.009-2.581-7.387-.958-4.5-2.256,22.191.958,25.746,2.256,6.089.325,11.575,1.545a35.822,35.822,0,0,0,10.292,1.3c2.89,0,2.89-.649,5.78,0S278.422,269.021,276.181,269.021Z" transform="translate(-163.37 -233.825)" fill="#fff"/>
          <path id="Tracé_71" data-name="Tracé 71" d="M366.137,260.741s-.834-.742-3.894-6.429-12.548-6.351-16.2-7.031a27.909,27.909,0,0,0-10.4,0c-4.512.6-8.036.68-9.968,0s5.146-3.261,8.669-3.585,5.316-1.283,7.65-1.545a3.817,3.817,0,0,0,2.967-2.689s-8.345.525-19.611,0-14.032-.757-19.24,0-11.637,4.636-15.176,4.945-9.968,0-7.727,1.283a58.725,58.725,0,0,0,16.4,4.018c4.512.17,8.685,0,8.685,0s-22.253,5.084-26.735,5.671-4.775,3.183-6.707,3.508-3.863,2.241-7.078,2.241-5.78.649-5.78,1.932-4.976,5.146,1.36,4.822a78.648,78.648,0,0,1,11.822.324l-14.465,3.214s5.78,3.462,16.381,2.534,10.941-3.168,18.343-3.492,12.533,1.283,17,.958,5.718-1.916,10.74-2.905,6.954.664,12.116.664,8.979,3.214,13.182.325,5.9-3.554,4.389-4.188-17.741,1.283-10.91-1.3,12.363-4.172,14.557-3.848a8.7,8.7,0,0,1,5.687,2.318c1,.788,2.024.525,3.338,0Q365.859,261.668,366.137,260.741Z" transform="translate(-110.597 -231.015)" fill="#fff"/>
        </g>
        <path id="Tracé_72" data-name="Tracé 72" d="M178.52,245.883c5.146-.155,10.617,2.1,15.454,2.735s9.272-1.267,13.506-.139,8.36,4.435,13.831,2.287" transform="translate(-154.293 -211.133)" fill="none" stroke="#263238" stroke-linecap="round" stroke-linejoin="round" stroke-width="1"/>
        <path id="Tracé_73" data-name="Tracé 73" d="M217.64,245h5.192l4.188,2.241H232.1" transform="translate(-132.959 -211.61)" fill="none" stroke="#263238" stroke-linecap="round" stroke-linejoin="round" stroke-width="1"/>
        <path id="Tracé_74" data-name="Tracé 74" d="M231.11,246.43c3.508,1.283,7.387.68,11.08,0" transform="translate(-125.613 -210.83)" fill="none" stroke="#263238" stroke-linecap="round" stroke-linejoin="round" stroke-width="1"/>
        <path id="Tracé_75" data-name="Tracé 75" d="M274.7,256.748c2.164-.541,4.76-.989,6.4.541a4.48,4.48,0,0,0,.865.757,2.7,2.7,0,0,0,.788.216,15.825,15.825,0,0,0,10.2-2.086,5.5,5.5,0,0,1,1.545-.757,6.862,6.862,0,0,1,3.091.665c1,.309,2.38.185,2.766-.8" transform="translate(-101.841 -206.004)" fill="none" stroke="#263238" stroke-linecap="round" stroke-linejoin="round" stroke-width="1"/>
        <path id="Tracé_76" data-name="Tracé 76" d="M296.53,256.155a6.089,6.089,0,0,0,6.321-1.885" transform="translate(-89.935 -206.554)" fill="none" stroke="#263238" stroke-linecap="round" stroke-linejoin="round" stroke-width="1"/>
        <path id="Tracé_77" data-name="Tracé 77" d="M308.34,254.921c2.4-.773,4.961.093,7.433.587a5.471,5.471,0,0,0,2.782,0,9.968,9.968,0,0,0,1.916-1.113,10.725,10.725,0,0,1,6.784-1.267,31.308,31.308,0,0,1,6.784,1.762" transform="translate(-83.495 -207.237)" fill="none" stroke="#263238" stroke-linecap="round" stroke-linejoin="round" stroke-width="1"/>
        <path id="Tracé_78" data-name="Tracé 78" d="M283,248.388a25.949,25.949,0,0,1,8.175.371c.989.2,2.225.371,2.813-.448" transform="translate(-97.314 -209.852)" fill="none" stroke="#263238" stroke-linecap="round" stroke-linejoin="round" stroke-width="1"/>
        <path id="Tracé_79" data-name="Tracé 79" d="M298.81,248.455a28.729,28.729,0,0,1,9.566-1.113,22.031,22.031,0,0,0,4.512,0,9.86,9.86,0,0,1,2.411-.263,19,19,0,0,1,2.086.6c2.3.572,4.636-.7,6.939-1.128a19.814,19.814,0,0,1,5.965.093" transform="translate(-88.692 -210.862)" fill="none" stroke="#263238" stroke-linecap="round" stroke-linejoin="round" stroke-width="1"/>
        <path id="Tracé_80" data-name="Tracé 80" d="M165.61,247.494c.943-.433,1.793.711,2.689,1.236,1.422.85,3.214.155,4.76-.448s3.539-.974,4.636.278" transform="translate(-161.334 -210.302)" fill="none" stroke="#263238" stroke-linecap="round" stroke-linejoin="round" stroke-width="1"/>
        <path id="Tracé_81" data-name="Tracé 81" d="M185.83,241.161c3.292-1.035,6.521,1.746,9.952,2.148,2.411.278,5.022-.618,7.217.464.6.294,1.144.742,1.777.989,2.519.974,5.038-1.375,7.727-1.731" transform="translate(-150.307 -213.829)" fill="none" stroke="#263238" stroke-linecap="round" stroke-linejoin="round" stroke-width="1"/>
        <path id="Tracé_82" data-name="Tracé 82" d="M207.22,242.84a8.33,8.33,0,0,1,3.6,1.669,3.647,3.647,0,0,0,3.786.386" transform="translate(-138.642 -212.788)" fill="none" stroke="#263238" stroke-linecap="round" stroke-linejoin="round" stroke-width="1"/>
      </g>
      <path id="Tracé_84" data-name="Tracé 84" d="M166.7,237.93s-5.27,9.195-3.493,11.9.68,13.352,0,15.995,7.727,7.959,14.217,6.413,21.434,5.146,26.58,4.312,12.857,1.545,17.154,2.5,12.007,6.444,17.153,5.223,11.142,0,14.573,0,5.579,0,12.363.185,14.573,4.188,17.571,2.55,15.454.479,18.869,0,20.09.881,24.231.386,9.643.479,11.358-.386,6.429.7,9.009.495a54.733,54.733,0,0,1,12.811-.495c5.192.68,4.342,1.9,12.919.51s12.069-.51,12.069-.51,6.861-1.545,10.895-2.735,5.641,2.766,9.133,0,4.775-4.2,6.491-5.223,3.724-3.91,4.636-3.709a2.89,2.89,0,0,0,2.673-2.333c0-1.159,2.519-4.744,1.715-10.431s.232-23.18-4.389-28.976S216.447,211.721,166.7,237.93Z" transform="translate(-151.928 -107.273)" fill="none" stroke="#263238" stroke-miterlimit="10" stroke-width="1"/>
      <path id="Tracé_85" data-name="Tracé 85" d="M170.773,234.7s-10.323,12.657-7.047,18.127,4.76,8.113,4.868,14.727,2.782,8.824,4.883,0,2.627-11.853,6.429-12.487,9.72,1.932,9.272,4.512,6.058,3.616,7.34-2.272,11.158-4.636,18.436-6.305,9.442-9.133,14.588-9.071,21,4.775,30.011,2.643,20.09,4.914,23.582,8.252,5.981,10.184,10.709,11.467,3.446,26.148,9.009,27.446,3.863-16.721,9.875-18.436,4.281,6.429,8.577,3,2.565-10.23,7.727-13.043,4.713-5.409,8.577-8.19,4.327-7.418,10.787-7.418,16.288-.865,19.286-2.148,7.294-1.283,14.156,3.863,7.356,5.347,13.1,3.539,4.049-7.835,10.91-2.689,6.181,11.575,9.272,11.158,3.956,12.363,4.389,15.005,3.693,1.715,3.353-5.579a156.7,156.7,0,0,1,0-24.448c.9-13.1-16.674-36.718-70.7-39.36S198.992,206.4,170.773,234.7Z" transform="translate(-151.796 -116.682)" fill="#999"/>
      <g id="Groupe_5" data-name="Groupe 5" transform="translate(11.288 89.458)" clip-path="url(#clip-path-3)">
        <path id="Tracé_86" data-name="Tracé 86" d="M170.773,234.7s-10.323,12.657-7.047,18.127,4.76,8.113,4.868,14.727,2.782,8.824,4.883,0,2.627-11.853,6.429-12.487,9.72,1.932,9.272,4.512,6.058,3.616,7.34-2.272,11.158-4.636,18.436-6.305,9.442-9.133,14.588-9.071,21,4.775,30.011,2.643,20.09,4.914,23.582,8.252,5.981,10.184,10.709,11.467,3.446,26.148,9.009,27.446,3.863-16.721,9.875-18.436,4.281,6.429,8.577,3,2.565-10.23,7.727-13.043,4.713-5.409,8.577-8.19,4.327-7.418,10.787-7.418,16.288-.865,19.286-2.148,7.294-1.283,14.156,3.863,7.356,5.347,13.1,3.539,4.049-7.835,10.91-2.689,6.181,11.575,9.272,11.158,3.956,12.363,4.389,15.005,3.693,1.715,3.353-5.579a156.7,156.7,0,0,1,0-24.448c.9-13.1-16.674-36.718-70.7-39.36S198.992,206.4,170.773,234.7Z" transform="translate(-163.084 -206.14)" fill="#fff" opacity="0.5"/>
        <g id="Groupe_4" data-name="Groupe 4" transform="translate(-0.007 -0.107)" opacity="0.2">
          <path id="Tracé_87" data-name="Tracé 87" d="M419.564,265.381c-.448-2.581-1.283-15.454-4.389-15.005s-2.473-6.011-9.272-11.158-5.162.865-10.91,2.689-6.181,1.545-13.1-3.539-11.158-5.146-14.14-3.863S354.8,236.73,348.4,236.73s-6.877,4.636-10.818,7.418-3.431,5.362-8.561,8.175-3.431,9.628-7.727,13.058-2.565-4.729-8.561-3-4.3,19.719-9.875,18.436-4.3-26.163-9.025-27.446-7.263-8.144-10.694-11.467-14.588-10.4-23.582-8.252-24.865-2.581-30.026-2.643-7.279,7.356-14.557,9.071-17.154.433-18.436,6.305-7.727,4.837-7.356,2.272-5.532-5.146-9.272-4.512-4.342,3.647-6.429,12.486-4.775,6.6-4.883,0-1.545-9.272-4.883-14.727a4.929,4.929,0,0,1-.634-2.457,6.181,6.181,0,0,0,3.276,2.457c3.539.417,2.735,9.751,4.42,7.82s1.36-8.469,5.548-9.272a22.67,22.67,0,0,1,14.712,3.632c3.616,2.689,5.332-5.625,9.952-6.181s11.992,1.746,16.18-2.751,8.036-7.047,11.9-7.387,13.506,4.636,19.626.989,11.575-2.936,15.114-1,8.685,7.078,13.182,5.471,12.564.958,14.171,4.806,4.482,10.06,7.371,8.252,5.471,2.38,7.078,5.579,1.545,1.3,4.822-1.283,9.272,4.188,11.9,0,4.188-8.561,8.36-8.778,4.837-.819,8.685-3.894,8.036-5.022,16.412-4.636a28.511,28.511,0,0,0,6.444-.587h0c5.718-1.113,10.694-3.261,13.908-2.04a7.727,7.727,0,0,1,1.236.618h0c4.25,2.5,9.689,9.195,14.063,6.691,4.822-2.751,4.822-9.272,10.617-5.331s8.051,8.175,10.941,7.294,2.473-3.384,4.636-1.963a7.294,7.294,0,0,0,5.131.294,150.576,150.576,0,0,0,.154,21.5C423.272,267.1,419.981,267.946,419.564,265.381Z" transform="translate(-163.08 -195.114)"/>
          <path id="Tracé_88" data-name="Tracé 88" d="M421.628,241.057c-5.486,1.329-1.654-1.87-7.217-1.236-6.583.757-8.917,1.236-11.42-.912s-9.071-1.375-23.86,2.751c-.819.232-1.669.417-2.5.618a82.8,82.8,0,0,1-15.16,1.422c-11.266.2-23.057-.711-31.541,1.236-13.2,3-15.114,2.241-22.84-1.623s-22.5-5.78-28.62-6.058-15.114-4.559-23.474-6.506-15.454,4.528-19.719,3.338-20.538,5.687-32.066,10.508-25.715,2.565-35.373,0a12.858,12.858,0,0,1-3.353-1.422,56.238,56.238,0,0,1,5.532-8.453c28.2-28.3,127.43-30.444,181.456-27.817C398.865,209.269,418.2,227.7,421.628,241.057Z" transform="translate(-162.316 -206.07)"/>
        </g>
      </g>
      <path id="Tracé_90" data-name="Tracé 90" d="M170.773,234.7s-10.323,12.657-7.047,18.127,4.76,8.113,4.868,14.727,2.782,8.824,4.883,0,2.627-11.853,6.429-12.487,9.72,1.932,9.272,4.512,6.058,3.616,7.34-2.272,11.158-4.636,18.436-6.305,9.442-9.133,14.588-9.071,21,4.775,30.011,2.643,20.09,4.914,23.582,8.252,5.981,10.184,10.709,11.467,3.446,26.148,9.009,27.446,3.863-16.721,9.875-18.436,4.281,6.429,8.577,3,2.565-10.23,7.727-13.043,4.713-5.409,8.577-8.19,4.327-7.418,10.787-7.418,16.288-.865,19.286-2.148,7.294-1.283,14.156,3.863,7.356,5.347,13.1,3.539,4.049-7.835,10.91-2.689,6.181,11.575,9.272,11.158,3.956,12.363,4.389,15.005,3.693,1.715,3.353-5.579a156.7,156.7,0,0,1,0-24.448c.9-13.1-16.674-36.718-70.7-39.36S198.992,206.4,170.773,234.7Z" transform="translate(-151.796 -116.682)" fill="none" stroke="#263238" stroke-linecap="round" stroke-linejoin="round" stroke-width="1"/>
      <path id="Tracé_91" data-name="Tracé 91" d="M356.177,219.5l-.247.711-4.636,13.908a73.157,73.157,0,0,1-39.948-8.53c-15.639-8.515-9.89-16.69-6.491-19.966a14.5,14.5,0,0,1,1.777-1.545Z" transform="translate(-76.605 -117.806)" fill="#757575"/>
      <g id="Groupe_6" data-name="Groupe 6" transform="translate(224.353 86.274)" clip-path="url(#clip-path-4)">
        <path id="Tracé_92" data-name="Tracé 92" d="M354.8,219.5l-.247.711a15.763,15.763,0,0,1-14.573,5.378c-10.818-1.545-26.549-12.177-36.5-19.966a14.5,14.5,0,0,1,1.777-1.545Z" transform="translate(-299.583 -204.08)" opacity="0.2"/>
        <path id="Tracé_93" data-name="Tracé 93" d="M325.278,230.315s4.265-.216,6.058-7.541,6.506-1.36,12.023,0,5.378-2.952,11.4-2.565l-49.3-16.118S293,223.005,325.278,230.315Z" transform="translate(-299.792 -204.075)" opacity="0.2"/>
      </g>
      <path id="Tracé_95" data-name="Tracé 95" d="M356.177,219.5l-.247.711-4.636,13.908a73.157,73.157,0,0,1-39.948-8.53c-15.639-8.515-9.89-16.69-6.491-19.966a14.5,14.5,0,0,1,1.777-1.545Z" transform="translate(-76.605 -117.806)" fill="none" stroke="#263238" stroke-linecap="round" stroke-linejoin="round" stroke-width="1"/>
      <path id="Tracé_96" data-name="Tracé 96" d="M266.829,213.748s-36.007,20.09-59.6,24.726a100.743,100.743,0,0,1-43.085-.989l-3.616-10.818-.464-1.36,8.144-11.575c29.733-7.835,62.726-5.44,82.028-2.828C260.416,212.295,266.829,213.748,266.829,213.748Z" transform="translate(-153.446 -115.45)" fill="#757575"/>
      <g id="Groupe_7" data-name="Groupe 7" transform="translate(6.614 92.949)" clip-path="url(#clip-path-5)">
        <path id="Tracé_97" data-name="Tracé 97" d="M250.232,210.872c-15.16,5.965-54.412,20.368-75.1,18.544a60.567,60.567,0,0,1-14.6-2.8l-.464-1.36,8.144-11.575C197.937,205.912,230.93,208.307,250.232,210.872Z" transform="translate(-160.06 -208.398)" opacity="0.2"/>
        <path id="Tracé_98" data-name="Tracé 98" d="M250.978,221.76s-.541-6.181-13.306-2.534-26.132,10.416-30.212,8.546-5.146-6.583-13.908-4.775-14.928,9.149-23.289,8.376-10.184-6.181-10.184-6.181l8.144-11.575s35.7-10.941,98.625,0Z" transform="translate(-160.049 -208.206)" opacity="0.2"/>
      </g>
      <path id="Tracé_100" data-name="Tracé 100" d="M266.829,213.748s-36.007,20.09-59.6,24.726a100.743,100.743,0,0,1-43.085-.989l-3.616-10.818-.464-1.36,8.144-11.575c29.733-7.835,62.726-5.44,82.028-2.828C260.416,212.295,266.829,213.748,266.829,213.748Z" transform="translate(-153.446 -115.45)" fill="none" stroke="#263238" stroke-linecap="round" stroke-linejoin="round" stroke-width="1"/>
      <path id="Tracé_101" data-name="Tracé 101" d="M367.332,209.376v21s-11.158,13.429-62.17,10.91-84.052-23.18-84.052-23.18A112.2,112.2,0,0,1,236.8,213.24C287.221,201.139,367.332,209.376,367.332,209.376Z" transform="translate(-120.152 -116.41)" fill="#757575"/>
      <g id="Groupe_8" data-name="Groupe 8" transform="translate(100.958 90.228)" clip-path="url(#clip-path-6)">
        <path id="Tracé_102" data-name="Tracé 102" d="M361.8,209.376v6.073c-4.482,8.252-19.487,15.855-51.878,17.6-40.288,2.148-67.749-12.579-78.659-19.812C281.685,201.139,361.8,209.376,361.8,209.376Z" transform="translate(-215.575 -206.638)" opacity="0.2"/>
        <path id="Tracé_103" data-name="Tracé 103" d="M231.26,213.059s4.528,4.636,9.751,3.709,8.639,1.545,14.835,6,11.467,1.808,23.273-2.565,10.2,7.51,22.748,6.877,7.912-15.345,17.463-11.853,11.528,11,20.09,5.8,19.317-7.65,22.423-3.369V209.2S283.246,202.18,231.26,213.059Z" transform="translate(-215.575 -206.458)" opacity="0.2"/>
      </g>
      <path id="Tracé_105" data-name="Tracé 105" d="M367.332,209.376v21s-11.158,13.429-62.17,10.91-84.052-23.18-84.052-23.18A112.2,112.2,0,0,1,236.8,213.24C287.221,201.139,367.332,209.376,367.332,209.376Z" transform="translate(-120.152 -116.41)" fill="none" stroke="#263238" stroke-linecap="round" stroke-linejoin="round" stroke-width="1"/>
      <path id="Tracé_106" data-name="Tracé 106" d="M160.07,223.206s6.645,3.508,24.324,4.172,60.779-15.1,60.779-15.1" transform="translate(-153.44 -113.334)" fill="none" stroke="#263238" stroke-linecap="round" stroke-linejoin="round" stroke-width="1"/>
      <path id="Tracé_107" data-name="Tracé 107" d="M234.91,214.06s47.6,16.35,75.259,14.835,45.588-12.363,45.588-12.363" transform="translate(-112.626 -112.363)" fill="none" stroke="#263238" stroke-linecap="round" stroke-linejoin="round" stroke-width="1"/>
      <path id="Tracé_108" data-name="Tracé 108" d="M315.73,212.28s10.184,8.839,17.571,8.839,10.648-2.333,14.8-6.042" transform="translate(-68.549 -113.334)" fill="none" stroke="#263238" stroke-linecap="round" stroke-linejoin="round" stroke-width="1"/>
      <path id="Tracé_109" data-name="Tracé 109" d="M253.83,213.283c-3.539.958,11.266,6.753,19.3,7.557s3.539-10.4,3.539-10.4" transform="translate(-102.601 -114.337)" fill="none" stroke="#263238" stroke-linecap="round" stroke-linejoin="round" stroke-width="1"/>
      <path id="Tracé_110" data-name="Tracé 110" d="M275.779,211.676s-5.8,8.592,0,10.4,22.516,0,23.8-2.766-10.292-8.87-10.292-8.87" transform="translate(-91.742 -114.337)" fill="none" stroke="#263238" stroke-linecap="round" stroke-linejoin="round" stroke-width="1"/>
      <path id="Tracé_111" data-name="Tracé 111" d="M292.77,210.445c0,1.87,7.248,9.118,11.343,8.87s15.345-2.813,15.67-6.027-19.858-2.843-19.858-2.843" transform="translate(-81.071 -114.342)" fill="none" stroke="#263238" stroke-linecap="round" stroke-linejoin="round" stroke-width="1"/>
      <path id="Tracé_112" data-name="Tracé 112" d="M259.512,209.93s-7.449,3.307-11.281,3.632-12.95-.989-10.122-2.859" transform="translate(-111.173 -114.615)" fill="none" stroke="#263238" stroke-linecap="round" stroke-linejoin="round" stroke-width="1"/>
      <path id="Tracé_113" data-name="Tracé 113" d="M197.342,212.326s-7.943,10.647-13.414,9.968-14.48,0-14.156-2.426,21.558-7.588,21.558-7.588" transform="translate(-148.153 -113.334)" fill="none" stroke="#263238" stroke-linecap="round" stroke-linejoin="round" stroke-width="1"/>
      <path id="Tracé_114" data-name="Tracé 114" d="M191.133,213.289s-1.545,5.965,1.623,6.027,21.542-4.42,22.5-6.027S203,210.43,203,210.43" transform="translate(-136.705 -114.343)" fill="none" stroke="#263238" stroke-linecap="round" stroke-linejoin="round" stroke-width="1"/>
      <path id="Tracé_115" data-name="Tracé 115" d="M318.88,210.44a97.49,97.49,0,0,0,10.679,6.181c3,1.144,8.422,1.1,8.438,0s-7.727-3.353-7.727-3.353" transform="translate(-66.832 -114.337)" fill="none" stroke="#263238" stroke-linecap="round" stroke-linejoin="round" stroke-width="1"/>
      <path id="Tracé_116" data-name="Tracé 116" d="M157.742,220.355c6.413-16.458,9.952-32.545,24.556-41.122,37.908-22.33,93.2-33.658,137.97-30.444s72.4,16.056,101.113,46.361c1.715,1.808,10.045,22.825,11.683,24.726,2.751,3.091,5.579,6.46,6.6,10.508s-.4,9.04-4.234,10.709c-2.534,1.1-5.455.525-8.175,0-62.077-12.7-126.287-8.917-189.291-2.272-20.507,2.163-41.091,4.636-61.66,3.415-8.5-.51-18.977-3.431-20.4-11.822a17.2,17.2,0,0,1,1.36-8.716C157.418,221.205,157.649,220.788,157.742,220.355Z" transform="translate(-155.764 -148.252)" fill="#ff8700"/>
      <g id="Groupe_9" data-name="Groupe 9" transform="translate(0.045)" clip-path="url(#clip-path-7)">
        <path id="Tracé_117" data-name="Tracé 117" d="M440.042,211.014a8.608,8.608,0,0,1-4.636,8.129c-2.534,1.1-5.471.525-8.175,0-62.077-12.7-126.287-8.932-189.307-2.272-20.476,2.163-41.076,4.636-61.644,3.415-8.5-.51-18.977-3.431-20.4-11.822a12.9,12.9,0,0,1,.17-4.744c2.952,2.38,6.259,4.451,8.778,4.281,5.8-.371,24.448-11.946,41.493-10.988s45.016,1.545,57.889-2.241,41.725-6.769,56.035-6.444,48.787,9.689,57.8,9.844,16.412,6.8,27.353,3.292C415.764,198.2,431.326,201.866,440.042,211.014Z" transform="translate(-155.848 -126.409)" fill="rgba(0,0,0,0.7)" opacity="0.2"/>
        <path id="Tracé_118" data-name="Tracé 118" d="M274.74,157.26s.711,6.784,2.843,6.413S274.74,157.26,274.74,157.26Z" transform="translate(-90.949 -143.339)" fill="#fff"/>
        <path id="Tracé_119" data-name="Tracé 119" d="M250.62,164.7s.711,6.784,2.859,6.429S250.62,164.7,250.62,164.7Z" transform="translate(-104.103 -139.282)" fill="#fff"/>
        <path id="Tracé_120" data-name="Tracé 120" d="M240.108,168.6s-3.091,2.1-1.314,2.874S240.108,168.6,240.108,168.6Z" transform="translate(-110.853 -137.155)" fill="#fff"/>
        <path id="Tracé_121" data-name="Tracé 121" d="M199.158,158.38s-3.091,2.086-1.314,2.874S199.158,158.38,199.158,158.38Z" transform="translate(-133.185 -142.729)" fill="#fff"/>
        <path id="Tracé_122" data-name="Tracé 122" d="M272.3,152s-3.091,2.1-1.314,2.874S272.3,152,272.3,152Z" transform="translate(-93.298 -146.208)" fill="#fff"/>
        <path id="Tracé_123" data-name="Tracé 123" d="M301.658,158.66s-3.091,2.1-1.314,2.874S301.658,158.66,301.658,158.66Z" transform="translate(-77.286 -142.576)" fill="#fff"/>
        <path id="Tracé_124" data-name="Tracé 124" d="M205.128,165.82s-3.091,2.1-1.314,2.874S205.128,165.82,205.128,165.82Z" transform="translate(-129.93 -138.671)" fill="#fff"/>
        <path id="Tracé_125" data-name="Tracé 125" d="M249.556,157.26s-5.934,1.545-4.033,3.214S249.556,157.26,249.556,157.26Z" transform="translate(-107.088 -143.339)" fill="#fff"/>
        <path id="Tracé_126" data-name="Tracé 126" d="M247.11,150s5.27,3.168,5.115.649S247.11,150,247.11,150Z" transform="translate(-106.017 -147.665)" fill="#fff"/>
        <path id="Tracé_127" data-name="Tracé 127" d="M266.781,156.11s-5.95,1.545-4.049,3.214S266.781,156.11,266.781,156.11Z" transform="translate(-97.702 -143.967)" fill="#fff"/>
        <path id="Tracé_128" data-name="Tracé 128" d="M259.114,161.42s3.091.587.958,2.133S259.114,161.42,259.114,161.42Z" transform="translate(-99.647 -141.071)" fill="#fff"/>
        <path id="Tracé_129" data-name="Tracé 129" d="M261.909,150s3.091.587.943,2.133S261.909,150,261.909,150Z" transform="translate(-98.13 -147.299)" fill="#fff"/>
        <path id="Tracé_130" data-name="Tracé 130" d="M257.254,175.7s3.091.587.958,2.133S257.254,175.7,257.254,175.7Z" transform="translate(-100.661 -133.283)" fill="#fff"/>
        <path id="Tracé_131" data-name="Tracé 131" d="M202.929,175.94s3.091.587.943,2.117S202.929,175.94,202.929,175.94Z" transform="translate(-130.296 -133.152)" fill="#fff"/>
        <path id="Tracé_132" data-name="Tracé 132" d="M177.114,174.57s3.091.587.958,2.133S177.114,174.57,177.114,174.57Z" transform="translate(-144.366 -133.899)" fill="#fff"/>
        <path id="Tracé_133" data-name="Tracé 133" d="M270.347,166.472s-2.751-1.545-.232-2.318S270.347,166.472,270.347,166.472Z" transform="translate(-94.051 -139.647)" fill="#fff"/>
        <path id="Tracé_134" data-name="Tracé 134" d="M322.857,178.972s-2.751-1.545-.232-2.318S322.857,178.972,322.857,178.972Z" transform="translate(-65.414 -132.83)" fill="#fff"/>
        <path id="Tracé_135" data-name="Tracé 135" d="M312.957,178.4s-2.751-1.545-.232-2.318S312.957,178.4,312.957,178.4Z" transform="translate(-70.813 -133.141)" fill="#fff"/>
        <path id="Tracé_136" data-name="Tracé 136" d="M231.337,153.282s-2.751-1.545-.232-2.318S231.337,153.282,231.337,153.282Z" transform="translate(-115.325 -146.841)" fill="#fff"/>
        <path id="Tracé_137" data-name="Tracé 137" d="M283.8,173.192s-2.751-1.545-.232-2.318S283.8,173.192,283.8,173.192Z" transform="translate(-86.716 -135.983)" fill="#fff"/>
        <path id="Tracé_138" data-name="Tracé 138" d="M316.307,171.222s-2.751-1.545-.232-2.318S316.307,171.222,316.307,171.222Z" transform="translate(-68.986 -137.057)" fill="#fff"/>
        <path id="Tracé_139" data-name="Tracé 139" d="M223.789,166s3.091.587.943,2.133S223.789,166,223.789,166Z" transform="translate(-118.92 -138.573)" fill="#fff"/>
        <path id="Tracé_140" data-name="Tracé 140" d="M183.229,164s3.091.587.943,2.133S183.229,164,183.229,164Z" transform="translate(-141.039 -139.664)" fill="#fff"/>
        <path id="Tracé_141" data-name="Tracé 141" d="M223.789,155.3s3.091.587.943,2.133S223.789,155.3,223.789,155.3Z" transform="translate(-118.92 -144.408)" fill="#fff"/>
        <path id="Tracé_142" data-name="Tracé 142" d="M239.814,153.92s3.091.294.958,1.066S239.814,153.92,239.814,153.92Z" transform="translate(-110.172 -145.161)" fill="#fff"/>
        <path id="Tracé_143" data-name="Tracé 143" d="M171.044,170.78s3.091.294.958,1.066S171.044,170.78,171.044,170.78Z" transform="translate(-147.677 -135.966)" fill="#fff"/>
        <path id="Tracé_144" data-name="Tracé 144" d="M256.894,153s-5.177,2.5-.726,2.241S256.894,153,256.894,153Z" transform="translate(-102.063 -145.663)" fill="#fff"/>
        <path id="Tracé_145" data-name="Tracé 145" d="M285.333,157.431s6.506-1.9,1.283-2.457S285.333,157.431,285.333,157.431Z" transform="translate(-85.949 -144.623)" fill="#fff"/>
        <path id="Tracé_146" data-name="Tracé 146" d="M209.387,161.051s6.506-1.9,1.3-2.457S209.387,161.051,209.387,161.051Z" transform="translate(-127.358 -142.649)" fill="#fff"/>
        <path id="Tracé_147" data-name="Tracé 147" d="M222,161.42s-10.709,0-8.082,2.519S222,161.42,222,161.42Z" transform="translate(-124.346 -141.071)" fill="#fff"/>
        <path id="Tracé_148" data-name="Tracé 148" d="M270.43,171.19s1.221,10.632,3.477,7.727S270.43,171.19,270.43,171.19Z" transform="translate(-93.299 -135.743)" fill="#fff"/>
        <path id="Tracé_149" data-name="Tracé 149" d="M232.378,156.41s-2.859,5.007-.958,4.528S232.378,156.41,232.378,156.41Z" transform="translate(-114.93 -143.803)" fill="#fff"/>
        <path id="Tracé_150" data-name="Tracé 150" d="M233.795,180.315s3.261-4.744,1.314-4.42S233.795,180.315,233.795,180.315Z" transform="translate(-113.333 -133.185)" fill="#fff"/>
        <path id="Tracé_151" data-name="Tracé 151" d="M279.8,152.2s-2.859,2.5-.943,2.272S279.8,152.2,279.8,152.2Z" transform="translate(-89.066 -146.099)" fill="#fff"/>
        <path id="Tracé_152" data-name="Tracé 152" d="M295.69,174s1.468,5.579,2.488,3.894S295.69,174,295.69,174Z" transform="translate(-79.524 -134.21)" fill="#fff"/>
        <path id="Tracé_153" data-name="Tracé 153" d="M292.508,162.42s-2.859,5.007-.958,4.512S292.508,162.42,292.508,162.42Z" transform="translate(-82.137 -140.525)" fill="#fff"/>
        <path id="Tracé_154" data-name="Tracé 154" d="M220.679,174.21s-4.806,3.091-2.89,3.6S220.679,174.21,220.679,174.21Z" transform="translate(-122.254 -134.096)" fill="#fff"/>
        <path id="Tracé_155" data-name="Tracé 155" d="M305.81,165.73s3.214,4.791,3.632,2.874S305.81,165.73,305.81,165.73Z" transform="translate(-74.005 -138.72)" fill="#fff"/>
        <path id="Tracé_156" data-name="Tracé 156" d="M191.628,170.17s-5.764,0-4.4,1.391S191.628,170.17,191.628,170.17Z" transform="translate(-138.79 -136.299)" fill="#fff"/>
        <path id="Tracé_157" data-name="Tracé 157" d="M215.82,154.348s5.764.155,4.435-1.3S215.82,154.348,215.82,154.348Z" transform="translate(-123.082 -145.867)" fill="#fff"/>
        <path id="Tracé_158" data-name="Tracé 158" d="M211.31,195.1c3.709-.247,7.4-.7,11.065-1.3" transform="translate(-125.541 -123.412)" fill="none" stroke="#263238" stroke-linecap="round" stroke-linejoin="round" stroke-width="1"/>
        <path id="Tracé_159" data-name="Tracé 159" d="M156,200.751c7,9.7,18.328-.2,25.916-3.338,16.18-6.691,33.905-2.024,50.842-2.024" transform="translate(-155.705 -123.409)" fill="none" stroke="#263238" stroke-linecap="round" stroke-linejoin="round" stroke-width="1"/>
        <path id="Tracé_160" data-name="Tracé 160" d="M261.934,188.09a63.607,63.607,0,0,0-7.464.757" transform="translate(-102.003 -126.526)" fill="none" stroke="#263238" stroke-linecap="round" stroke-linejoin="round" stroke-width="1"/>
        <path id="Tracé_161" data-name="Tracé 161" d="M295.317,193.514c-13.012-2.194-19.487-5.841-30.907-5.316" transform="translate(-96.583 -126.495)" fill="none" stroke="#263238" stroke-linecap="round" stroke-linejoin="round" stroke-width="1"/>
        <path id="Tracé_162" data-name="Tracé 162" d="M325.833,200.192c-4.512.139-9.689-3-15.964-4.172-6.661-1.236-14.418-.556-20.09-2.55" transform="translate(-82.747 -123.592)" fill="none" stroke="#263238" stroke-linecap="round" stroke-linejoin="round" stroke-width="1"/>
        <path id="Tracé_163" data-name="Tracé 163" d="M350.012,206.881c-7.279-6.181-18.884-12.61-29.192-10.632" transform="translate(-65.819 -122.275)" fill="none" stroke="#263238" stroke-linecap="round" stroke-linejoin="round" stroke-width="1"/>
      </g>
      <path id="Tracé_165" data-name="Tracé 165" d="M157.742,220.355c6.413-16.458,9.952-32.545,24.556-41.122,37.908-22.33,93.2-33.658,137.97-30.444s72.4,16.056,101.113,46.361c1.715,1.808,10.045,22.825,11.683,24.726,2.751,3.091,5.579,6.46,6.6,10.508s-.4,9.04-4.234,10.709c-2.534,1.1-5.455.525-8.175,0-62.077-12.7-126.287-8.917-189.291-2.272-20.507,2.163-41.091,4.636-61.66,3.415-8.5-.51-18.977-3.431-20.4-11.822a17.2,17.2,0,0,1,1.36-8.716C157.418,221.205,157.649,220.788,157.742,220.355Z" transform="translate(-155.764 -148.252)" fill="none" stroke="#263238" stroke-linecap="round" stroke-linejoin="round" stroke-width="1"/>
      <path id="Tracé_166" data-name="Tracé 166" d="M169.688,210.469s-10.308,2.581-9.272,7.294-4.636,5.1-4.636,5.1.433,1.762,6.97,2.194,8.932-4.3,12.023,0S180,238.966,189.438,233.7s9.427-15.577,17.571-10.818,15.454,12.471,22.732,8.608,14.156-14.156,19.719-11.575,15.006,11.142,21.867,8.144,9.875-12.363,18.869-10.725,12.44,7.65,19.734,5.548,9.427-6.831,15.454-7.48,8.994,11.374,18.436,12.224S354,216.048,363.059,215.4s14.2,12.656,19.781,12.656,9.921-10.292,16.1-9.442,7.48,10.292,13.043,10.725,10.292-6.985,16.3-6.49,6,8.515,15.454,0c0,0-9.272-1.221-13.228-12.363S217.718,188.649,169.688,210.469Z" transform="translate(-155.78 -121.228)" fill="#ff8700"/>
      <g id="Groupe_11" data-name="Groupe 11" transform="translate(0 76.577)" clip-path="url(#clip-path-8)">
        <path id="Tracé_167" data-name="Tracé 167" d="M443.664,222.841c-4.2,3.8-6.537,4.3-8.345,3.647-2.272-.788-3.755-3.384-7.078-3.647a10.817,10.817,0,0,0-6.568,2.1c-3.261,2.009-6.32,4.636-9.72,4.389-4.033-.325-5.826-5.331-8.855-8.407a7.186,7.186,0,0,0-4.2-2.318c-3.307-.448-6.089,2.272-8.809,4.93-2.38,2.287-4.713,4.512-7.31,4.512-3.323,0-6.521-4.744-10.462-8.438-2.658-2.473-5.656-4.466-9.272-4.2-4.636.325-7.047,3.693-9.581,6.815s-5.022,5.811-9.674,5.393c-5.548-.51-8.886-4.883-11.915-8.268-2.1-2.349-4.064-4.2-6.521-3.941-4.93.51-7.248,3.786-11.946,6.181a21.465,21.465,0,0,1-3.477,1.36c-5.671,1.638-9.025-1.545-14.465-3.91a24.434,24.434,0,0,0-5.254-1.638c-7.356-1.406-10.709,4.636-15.454,8.515a14.033,14.033,0,0,1-3.462,2.21c-5.285,2.318-12.069-2.241-17.478-5.625a39.772,39.772,0,0,0-4.389-2.519c-5.579-2.581-12.363,7.727-19.719,11.575a8.84,8.84,0,0,1-2.689.927c-5.5.927-11.065-3.709-17-7.727-.974-.649-1.978-1.283-2.983-1.87-8.144-4.76-8.144,5.61-17.571,10.817a12.84,12.84,0,0,1-2.6,1.128c-7.279,2.241-9.272-5.9-12.069-9.767a3.956,3.956,0,0,0-2.086-1.715c-2.333-.68-4.914,2.04-9.952,1.715-6.506-.433-6.954-2.179-6.954-2.179a7.725,7.725,0,0,0,1.746-.355,3.8,3.8,0,0,0,2.952-4.76c-1.082-4.713,9.272-7.294,9.272-7.294,48.014-21.867,256.824-11.142,260.764,0S443.664,222.841,443.664,222.841Z" transform="translate(-155.764 -197.814)" fill="#fff" opacity="0.6"/>
        <g id="Groupe_10" data-name="Groupe 10" transform="translate(1.7 -0.072)" opacity="0.1">
          <path id="Tracé_168" data-name="Tracé 168" d="M182.391,208.861c2.967,3.462-1.159,14.928-1.545,20.677-7.279,2.241-9.272-5.9-12.069-9.767a3.956,3.956,0,0,0-2.086-1.715C173.18,209.464,179.362,205.291,182.391,208.861Z" transform="translate(-151.53 -192.401)"/>
          <path id="Tracé_169" data-name="Tracé 169" d="M203.717,211.07c3.492,5.563,1.824,12.1,4.172,15.917-5.5.927-11.065-3.709-17-7.727C193.254,208.844,199.436,204.239,203.717,211.07Z" transform="translate(-138.332 -192.26)"/>
          <path id="Tracé_170" data-name="Tracé 170" d="M240.17,220.17a14.032,14.032,0,0,1-3.462,2.21c-5.285,2.318-12.069-2.241-17.478-5.625a40.957,40.957,0,0,1,3.972-5.934C228.579,204.485,232.026,211.346,240.17,220.17Z" transform="translate(-122.877 -191.98)"/>
          <path id="Tracé_171" data-name="Tracé 171" d="M264.1,216.923a21.466,21.466,0,0,1-3.477,1.36c-5.671,1.638-9.025-1.545-14.465-3.91,1.793-3.508,3.6-6.568,5.672-7.557C256.73,204.421,260.068,211.127,264.1,216.923Z" transform="translate(-108.19 -193.091)"/>
          <path id="Tracé_172" data-name="Tracé 172" d="M291.309,216.214c-2.473,3.091-5.022,5.811-9.674,5.393-5.548-.51-8.886-4.883-11.915-8.268A14.712,14.712,0,0,1,276.5,209.4C284.478,207.622,287.043,210.976,291.309,216.214Z" transform="translate(-95.342 -191.672)"/>
          <path id="Tracé_173" data-name="Tracé 173" d="M313.682,218.129c-2.38,2.287-4.713,4.512-7.31,4.512-3.323,0-6.521-4.744-10.462-8.438a64.364,64.364,0,0,1,5.749-5.471C306.017,205.41,309.308,211.731,313.682,218.129Z" transform="translate(-81.058 -192.273)"/>
          <path id="Tracé_174" data-name="Tracé 174" d="M334.405,219.8c-3.261,2.009-6.321,4.636-9.72,4.389-4.033-.325-5.826-5.332-8.855-8.407.958-4.883,2.272-9.272,5.842-8.314C328.085,209.275,330.449,214.266,334.405,219.8Z" transform="translate(-70.195 -192.536)"/>
          <path id="Tracé_175" data-name="Tracé 175" d="M443.081,222.857c-4.2,3.8-6.537,4.3-8.345,3.647-3.477-1.236-3.925-5.1-5.161-7.727-1.638-3.493-4.775-3.168-8.252-4.4a60.872,60.872,0,0,1-7.031-3.832c-2.38-1.221-5.316-1.9-7.727-.649-1.453.788-2.643,2.272-4.3,2.333-1.978.077-3.431-1.932-5.347-2.442-3.23-.85-6.321,2.735-9.6,2.071-2.612-.525-4.157-3.539-6.769-4.033-3.091-.587-5.61,2.658-8.669,3.523-3.307.927-6.645-1.02-9.921-2.04a18.715,18.715,0,0,0-9.983-.309,46.8,46.8,0,0,1-6.182,1.545c-3.431.34-6.877-1.035-10.292-.6-1.638.2-3.2.8-4.837.912-4.234.263-8.654-2.843-12.471-.974-1.545.788-2.983,2.457-4.791,2.38-2.287-.124-3.23-2.442-4.976-3.477-2.055-1.221-4.1-.989-6.413-1.3-4.822-.649-9.04-2.442-13.089,1.36-2.21,2.055-4.126,4.636-6.892,5.811-3.663,1.545-7.959.448-11.42-1.545s-6.444-4.636-9.921-6.66a20.183,20.183,0,0,0-11.992-2.689,14.387,14.387,0,0,0-10.4,6.181,47.062,47.062,0,0,1-2.766,4.636,4.821,4.821,0,0,1-4.636,2.055c-2.148-.572-3.091-3.091-4.327-4.883-8.809-12.626-21.3,5.084-31.139-1.205-4.5-2.874-10.941-2.874-18,1.839-6.351,4.234-10.122,12.595-20.553,10.122a3.8,3.8,0,0,0,2.952-4.76c-1.082-4.713,9.272-7.294,9.272-7.294,48.014-21.867,256.824-11.142,260.764,0S443.081,222.857,443.081,222.857Z" transform="translate(-156.88 -197.759)"/>
        </g>
        <path id="Tracé_176" data-name="Tracé 176" d="M195.67,200.73c-4.636.263-10.215,18.544-15.577,21.635s-8.793-3-8.793-3" transform="translate(-147.316 -196.21)" fill="none" stroke="#263238" stroke-linecap="round" stroke-linejoin="round" stroke-width="1"/>
        <path id="Tracé_177" data-name="Tracé 177" d="M158.49,214.99c3.941-1.391,8.438-2.89,10.153-6.32" transform="translate(-154.302 -191.88)" fill="none" stroke="#263238" stroke-linecap="round" stroke-linejoin="round" stroke-width="1"/>
        <path id="Tracé_178" data-name="Tracé 178" d="M196.83,217.584s4.636,8.824,12.007.881,13.769-13.46,20.6-9.612,12.363,10.694,17.354,7.263" transform="translate(-133.393 -192.464)" fill="none" stroke="#263238" stroke-linecap="round" stroke-linejoin="round" stroke-width="1"/>
        <path id="Tracé_179" data-name="Tracé 179" d="M306.06,209.683s5.934-7.325,13.646-1.1,6.011,10.508,12.224,8.577" transform="translate(-73.823 -193.295)" fill="none" stroke="#263238" stroke-linecap="round" stroke-linejoin="round" stroke-width="1"/>
        <path id="Tracé_180" data-name="Tracé 180" d="M324.47,202.7s9.859,5.8,12.224,10.076,5.347,9.875,8.36,9.009" transform="translate(-63.783 -195.136)" fill="none" stroke="#263238" stroke-linecap="round" stroke-linejoin="round" stroke-width="1"/>
        <path id="Tracé_181" data-name="Tracé 181" d="M257.18,210.311s6.645-7.959,15.005-4.528,12.007,12.007,17,11.575,7.943-7.51,13.089-7.928" transform="translate(-100.48 -193.923)" fill="none" stroke="#263238" stroke-linecap="round" stroke-linejoin="round" stroke-width="1"/>
      </g>
      <path id="Tracé_183" data-name="Tracé 183" d="M169.688,210.469s-10.308,2.581-9.272,7.294-4.636,5.1-4.636,5.1.433,1.762,6.97,2.194,8.932-4.3,12.023,0S180,238.966,189.438,233.7s9.427-15.577,17.571-10.818,15.454,12.471,22.732,8.608,14.156-14.156,19.719-11.575,15.006,11.142,21.867,8.144,9.875-12.363,18.869-10.725,12.44,7.65,19.734,5.548,9.427-6.831,15.454-7.48,8.994,11.374,18.436,12.224S354,216.048,363.059,215.4s14.2,12.656,19.781,12.656,9.921-10.292,16.1-9.442,7.48,10.292,13.043,10.725,10.292-6.985,16.3-6.49,6,8.515,15.454,0c0,0-9.272-1.221-13.228-12.363S217.718,188.649,169.688,210.469Z" transform="translate(-155.78 -121.228)" fill="none" stroke="#263238" stroke-linecap="round" stroke-linejoin="round" stroke-width="1"/>
    </g>
  </g>
</svg>
