<svg xmlns="http://www.w3.org/2000/svg" width="1217.439" height="249.4" viewBox="0 0 1217.439 249.4">
  <g id="fire" transform="translate(-20.885)">
    <g id="Groupe_1312" transform="translate(0.024)">
      <path id="Tracé_4326" d="M1208.6,109.3v1.9a100.812,100.812,0,0,0,20.5,2.5,54.947,54.947,0,0,0,9.1-.7l.1-1.8A45.89,45.89,0,0,0,1208.6,109.3Z" fill="#a80e0e"/>
      <path id="Tracé_4327" d="M1155.1,158.4c-4.1.2-8.3.1-12.4,0-1.7,0-3.5-.1-5.2-.1h0c-21.2-.8-42.4-1.5-63.6-2.3-.7,0-1.4-.1-2.1-.1-4.3-.2-8.7-.5-11.7,1.7-5,3.8-8.8,2.8-13.3-.1-1.7-3.6-4.5-2.7-7-2a13.1,13.1,0,0,1-2.7.6c-2.8-.4-3.6.1-3.9,1a2.438,2.438,0,0,0,0,1.2c-4.5-2.6-9.7-1.9-14.6-.9-1.1-2.6-3.6-2.8-6.1-3-.8-.1-1.7-.2-2.5-.3l-.5-.1c-.3-.1-.5-.1-.8-.2-2.4-.6-4.8-1.2-7.3.4h0c-2.2,1.2-4.5.9-7,.7a25.674,25.674,0,0,0-4.8-.1c-.5-.2-1.1-.5-1.6-.7a6.38,6.38,0,0,0-5-1c-1.4-2.4-3.5-1.9-5.6-1.5l-1.5.3a9.41,9.41,0,0,1-2.2-1.2c-1.5-.9-3.1-1.9-5.5-1.6l-6.4-1.1a3.468,3.468,0,0,0-2.4-2.3l.1-.2-1.4.1h-.2a3.89,3.89,0,0,0-3.6,2.5l-1.7,1.1a10.074,10.074,0,0,1-4.2-1.1c-2.1-.9-4.2-1.8-6.9-.6l-9.4,1.2c-1.6-.3-3.3-.7-4.9-1-2.4-1.5-5.2-1.4-7.8-1.2a26.7,26.7,0,0,1-4,0l-2.2-.3c-4.5-2.6-9.4-2.1-14.1-1.6-1.4.1-2.8.3-4.2.4a16.552,16.552,0,0,1-3.2-.3c-3-.3-6-.7-8.8,1.1l-3.1-.5a4.7,4.7,0,0,0-3-1.4l.2-1.1-4-.4v.9h0v-.9l-10.2,1.3h-8.4c-2.8-1.1-5.8-.8-8.6-.6a41.8,41.8,0,0,1-5,.2h0l-11.9-1.2a2.384,2.384,0,0,0-1.1-.6c-.8-1.1-1.6-2.1-2.4-3.1l1.2-1.1,3.2-1.4c1.2-.1,2.4-.1,3.6-.2,5.1-.1,10.3-.3,11.7-6.4l.1-.5-1.3-2.8-.2-.1c-2.7-1.3-3.2-2.5-3.2-3.1-.1-1.3,1.5-3.3,2.6-4.7a1.345,1.345,0,0,0,.7-.6l7.9-.8,3.3.2h0l9.9.2,2,.8.2-.1a2.3,2.3,0,0,1,1.4-.4l1.3-.3-.1,1,4,.4,1.1-.3,2.4-.7,6.7,2,3.5-.5c1.6.3,3.2.5,4.9.8,2.8-.1,5.5-.2,8.3-.2l1.9-.1,3.6,1.1,3.2.7h.1c3.8-1.1,7.6-.7,11.4-.4a38.731,38.731,0,0,0,9,.2c6.2-.1,12.5-.3,18.7-.4l10.1,1.1h.2c1.9.2,3.7.4,5.5.6a123,123,0,0,0,14.8,1.2,47.962,47.962,0,0,0,8.5-.7c1.2.1,2.3.2,3.5.3a41.867,41.867,0,0,1,7.8,1.1,13.858,13.858,0,0,0,4,.6,9.472,9.472,0,0,0,7.6-3.8l.3-.3v-.5a25.289,25.289,0,0,1-.1-2.8v-.9h-.5a33.317,33.317,0,0,1-8.9-1c-4.3-.8-8.8-1.7-13.4-.2-7.3-2.5-15-2.4-22.5-2.2-1.4,0-2.8.1-4.1.1h-.2a20.2,20.2,0,0,1-4.9-.3c-2.9-.4-6-.8-8.8,1a35.363,35.363,0,0,0-21-3c-6.1.8-13.1,1.3-19.4-1.7a1.986,1.986,0,0,1-.1-1.1c.2-1.3,2-2.7,3.1-3.5.9-.3,1.9-.5,2.8-.8,1.3,0,2.7.2,4,.3,1.4.2,2.8.3,4.3.4a9.431,9.431,0,0,0,6.5-2.1l1.8-1.4-.9-.1a38.349,38.349,0,0,1,11.2.3,48.543,48.543,0,0,0,10.1.5c4.7-.5,9.3.1,14.1.6,5.3.6,10.8,1.2,16.5.5a61.154,61.154,0,0,1,12.1,0,82.385,82.385,0,0,0,8.6.3h.2l.2-.3a5.227,5.227,0,0,0,.6-1.6c.4-1.4.8-2.5,3.5-2.2,1.5.2,1.7.8,1.7.8a9.359,9.359,0,0,1-.4,1.6l-.4,1.2.7.4a8.377,8.377,0,0,0,3,1.1c9.6-.9,19.3-.2,28.6.3,3.2.2,6.3.4,9.5.5,1.9.1,3.8.2,5.8.4,3.2.2,6.3.4,9.5.4,7,0,13.9-1.1,19.8-6,2.4.2,5,.3,7.6.3a51.537,51.537,0,0,0,16.5-2.4l-.1-1.9-24.3-.2c-4.1-.2-8.3-.3-12.4-.4-9.3-.3-18.9-.6-28.4-1.3-3.6-.2-7.3-.4-10.9-.5-9.7-.4-19.6-.8-29.2-3.2-2.9-.1-4.7-1-5.2-2.9l-.2-.7-.4.1c-.8.2-1.7.4-2.6.6a12.81,12.81,0,0,0-8.4.7c-2-2.5-5.6-2.8-8.1-2.3-3.3.7-6.4.2-9.4-.3a49.537,49.537,0,0,0-5.4-.6v.9l-.2-.8c-7.4,4.7-12.8,4.4-17.5-.9l-.2-.2-6.4,2.3-.2.1-.7.7c-3.2-1.2-6.5-2.4-9.7-3.5l-.2-.1-1.6,1.1-10-2.4-2,1.1a32.645,32.645,0,0,1-14.5-1.8c-.3-.8-.5-1.7-.8-2.5.1-.1.3-.2.4-.3,1.4-.9,2.9-1.9,3.2-3.8l.2-1.1-.7-.1a179.531,179.531,0,0,0-35.9.3h-.2l-.2.2c-.7,1.1-2.1,1.1-3.4,1.1a7.569,7.569,0,0,0-1.5.1h-.3c-.3,0-.6.1-.9.1v-.1l-.9.2H858l-4.7.9L852,75l-3.6-.8-6.9.2c-2.5-.7-5.1-.3-7.6.1-3.2.5-6.3,1.1-9.2-.6h-.1a65.5,65.5,0,0,1-13.5-4.7c-1-.4-2.1-.9-3.2-1.3a20.855,20.855,0,0,0-3.5-.4c-2.4-.1-4.9-.2-6.4-2.1l-.2-.2h-.2a2.3,2.3,0,0,1-1.4-.2c-3.9-1-8.4-.7-10.7.5-5.7,3.1-8.9.8-12.5-2l-.2-.2-8.5-.9c-8.6-.3-17.1-.6-25.7-1l-5.1-.3a8.087,8.087,0,0,1-5.1-.3l-4.9-.2-3.6-.3a31.733,31.733,0,0,1-11.9-.4h-.1l-.1.1c-.4.2-.8.4-1.3.6l-1.1-.1v-.1h-1.3a99.848,99.848,0,0,1-16.4-1.3c-6.7-1-13.6-1.9-20.6-1a25.3,25.3,0,0,1-5.5-.1,22.753,22.753,0,0,0-2.6-.2l-4.3-.2c-9.8-.4-19.9-.8-29.8.2l-8-1.7-4.2.5-.1-.2-.9.3.1,1.9h.2c-2.8,1.1-5.3,1.9-8.7-.2-4.4-2.7-9.8-2.6-15.1-2.5h-2.9c-4.3,0-8.3,0-8.6-3.9l-.1-.6-.7-.4c-.4-.2-.8-.5-1.2-.7l-.2-.1-.2.1a8.443,8.443,0,0,1-5.2.5l-6.9-.3h-.1c-5.8,2.3-11.4.9-16.8-.4a57.825,57.825,0,0,0-5.7-1.2l-8.7-1.5c-7.9-1.4-16-2.9-24.3-3.2h-.1l-4.2-.6c0-.2-.1-.4-.1-.6l-.1-.8-.5.1c-2.8.3-4.8-.7-6.9-1.7a19.426,19.426,0,0,0-3.6-1.5l-2.4-.4-4.1,1-.1.7c0,.1,0,.2-.1.2l-2.9-.5h-.1l-30.4-4c-.9-.1-1.8-.1-2.7-.2l-11.4.1-3-.2c-1.2-.2-2.5-.5-3.7-.7l-1.4-.2-3.2-.1-47-1.2c-6.9-.2-14-.3-18.4-5.4h0c-.3-.4-.5-.7-.8-1.1a6.806,6.806,0,0,0-.8-3.1c-.9-1.5-2.7-2-5.4-1.6l-8-1.1-.4,2.1c-.2.9-.4,1.9-.6,2.8-3.4.5-3.5-.7-3.7-2.1a5.939,5.939,0,0,0-.7-2.6l-.4.7-.1-.9a30.219,30.219,0,0,1-9-.3c-3.4-.5-6.8-.9-10.3,0l.4-.8-4.3-1c-2,0-4,0-6,.1-4.8.1-9.8.1-14.8-.2-2.6-.1-5.9-.3-7.6-2.5l-.1-.2h-.5l.3-3.2-.5-.2c-5.7-2.9-12.1-3.2-18.3-3.5-2-.1-4.1-.2-6.1-.4a1.012,1.012,0,0,0-.7-.4c-3.2-3.4-7.4-3.2-11.5-3a27.162,27.162,0,0,1-5.7-.1V5.2H244V4.3L233.6,3.1c-2.2.2-4.4.4-6.7.6l-3.3-1-1.9.6L215,2.5l-6.3-.1-.1.1c-1,.8-2.2.7-3.5.6-.4,0-.8-.1-1.2-.1h-2.4l-3.3-1.1-.2,1v-1c-1.7.1-3.4.1-5.1.2l-1.5-.7-3.6,1c-3.4-.2-6.8-.2-10.2-.2-6.7,0-13.7,0-20.3-1.9L153.9,0,129.8,3.3v.1l-2.3-.2h-.2l-5.8.8-.2.1a71.61,71.61,0,0,1-9.5,5.9,30.379,30.379,0,0,1-4,1.2c-3.1.7-6.3,1.5-7.8,4.6h0l-.1.1c0,.1-.1.1-.1.2L99,17.8,95.9,19c-4.2,0-5.4,2.2-6.6,4.4a7.607,7.607,0,0,1-1.2,1.9c-5.8,2.2-7.2,6.6-8.2,10.6h-.1l-.1.5-.5,1.8.2-.1-.8,4.6a17.552,17.552,0,0,1-2.4,4.2c-1.5,2.2-3,4.4-3.1,7.1a7.924,7.924,0,0,0,1,4c1.7,3.1,1.5,6.3-.7,10.2a6.353,6.353,0,0,0-4.8,3.3l-7.8,3.3A3.24,3.24,0,0,0,57,76.2c-2,1.5-2.1,3.6-2,5.3-6.1,2.9-5.9,7.5-5.8,11.6a16.85,16.85,0,0,1-.3,5,3.849,3.849,0,0,0-1.9,2.6,4,4,0,0,0,.2,1.9,7.425,7.425,0,0,0,.4,5.3l-.1.3c-.7,3.3-1.3,6.8-.2,10.3v.1h0c.8,1.8.4,3.8.1,6-.5,2.9-1,6.5,1.5,9.6,0,.7-.1,1.3-.1,2l-1.3,2.1-2.4,1.4a3.235,3.235,0,0,0-3.5,2.4l-1,1.9c-8.1,5.6-11.8,10.5-12.2,15.9-.3,4.8,2.1,9.7,7.7,16,.1.6.1,1.3.2,1.9l.1.8c-1.3,2.4-1.3,5.1-1.2,7.4,0,2.7.1,5.1-1.7,7.3-4.9,1.3-7.6,4.3-8.4,9.4l-.7.9c-1.4.2-3.1.8-3.3,2.9a5.832,5.832,0,0,0-.2,2.3c.3,1.8,1.6,3,3,4.3,1.1,1,2.3,2.1,2.5,3.2v.2l.1.2c.8,1.5,1.6,3.1,2.4,4.6l1.8,3.5.1.1c.1.2.2.3.3.5l.1.5h.4c1.7.1,3.2,1.6,4.1,3.9l.2.4,9.6,2.1a3.418,3.418,0,0,0,2.9,1.4,8.753,8.753,0,0,0,1.6-.2l11,1.9,1.9.3c.9.3,1.7.6,2.6.9h0a5.421,5.421,0,0,0,2.5.6,5.663,5.663,0,0,0,1.8-.3l5.2.7a9.237,9.237,0,0,0,5.4,1.3c.9,0,1.8-.1,2.7-.1a10.815,10.815,0,0,0,4.3,1,11.529,11.529,0,0,0,2.6-.3h.1l14.8,1.2-.1.1h1.7v-.1h4.1l4.8-.1h1.1c1.1.2,2.2.4,3.3.7a38.663,38.663,0,0,0,8.3,1.2,14.264,14.264,0,0,0,5.8-1.1h0l3.5.1h0c.6.1,1.3.2,1.9.3a33.991,33.991,0,0,0,4.6.6l12.7.3c16,.3,32.5.7,48.8.7h.2c8.7,0,17.5-.4,25.9-.8,3.9-.2,7.9-.4,11.8-.5h4.9a37.014,37.014,0,0,1,8.8.1c1.9.1,3.7.3,5.6.3a18.116,18.116,0,0,0,9.4-2.2l3.1.9a4.357,4.357,0,0,0,2.9,1.1,4.771,4.771,0,0,0,3.1-1.3l1.6-.9c2.5.1,5,0,7.5,0a92.25,92.25,0,0,1,13.9.4,25.582,25.582,0,0,1,2.7.5c3,.6,6.3,1.3,9.4-.2a33.888,33.888,0,0,0,4.5.2,39.09,39.09,0,0,0,7.6-.7h0l13.5-1a29.067,29.067,0,0,0,3.9,1.2,16.456,16.456,0,0,1,6,2.4l.2-.9h0v.9l6.8.1.2-.3c.8-1.5,2.7-1.8,4.6-2.1l.6-.1c1.1.1,2.1.3,3.2.4l3.2,1.3h.1a82.723,82.723,0,0,1,20.5.1l3.6.2h5.4l.1-.6a.6.6,0,0,1,.1-.4l2.7.4c1.4.2,2.9.4,4.3.6h.5v-.2l3.7-1a7.613,7.613,0,0,0,2.1.3,6.921,6.921,0,0,0,3.4-.9l3.3-.1,3.3.2h0l2.4.2h0l1.1.1h.3c6.7.3,13.4.7,20.1,1h.1a22.507,22.507,0,0,1,10-.1h.1l3.9-.9,2.6.3,3.7.5,5.2-.2a7.147,7.147,0,0,1,4.1.3,15.666,15.666,0,0,0,3,.5,5.1,5.1,0,0,0,3.1-1.1l1.6-.4,3.5.8c2.3-.2,4.7-.3,7-.5v-.1l5.9.9v.3l-.1,1.1h.7c6.8.4,13.5.8,20.4,1.2,3-.8,6.2-.5,9.2-.2,1.6.1,3.2.3,4.9.3a18.352,18.352,0,0,0,4.7-.6l3.2-.1h0a54.716,54.716,0,0,0,10.7,1.1c1.4,0,2.8-.1,4.3-.2h.5l.7-.1v-.1l2.5-.4h0a26.285,26.285,0,0,0,4.9.4,25.965,25.965,0,0,0,5.6-.6h0l6.7-.9a8.413,8.413,0,0,0,6.9,1.5h4.7l6.8.2.1.8,3.5-.1,3.4-1.8c.7.3,1.5.7,2.2,1v.1l.8.2.4.2v-.1a31.435,31.435,0,0,0,11.8.8h3.7c1.5.1,3.1.3,4.6.5h0l1.8.3h.3l.8.1v-.1l19.2.5h0a23.356,23.356,0,0,1,2.6.4,16.475,16.475,0,0,0,3.2.4,4.2,4.2,0,0,0,3.2-1.1c3.5-3.3,7.5-2.6,11.6-1.8.5.1,1.1.2,1.6.3a44.542,44.542,0,0,0,5,.5l2.2.2.1.1a15.524,15.524,0,0,1,2.1.4,10.323,10.323,0,0,0,3,.4,5.456,5.456,0,0,0,3.3-1.1c.6-.1,1.1-.1,1.7-.2a7.045,7.045,0,0,0,5-.6,7.176,7.176,0,0,1,3.8-.7,17.985,17.985,0,0,0,11.6,3.8,29.951,29.951,0,0,0,6.7-.8h0a16.552,16.552,0,0,1,3.2.3,28.854,28.854,0,0,0,2.9.4,5.867,5.867,0,0,0,2.3-.4c1,.2,1.9.3,2.9.5l.5.1h0c5.1-.3,10.2-.5,15.3-.8h.1a5.7,5.7,0,0,0,1.3.1,7.4,7.4,0,0,0,3.6-.9,4.868,4.868,0,0,0,1.2.1,3.053,3.053,0,0,0,2.9-1.6l.2-.1a12,12,0,0,1,3.8.4,12.573,12.573,0,0,0,3.3.5,5.876,5.876,0,0,0,3.6-1.3,1.086,1.086,0,0,0,.9-.4l1.6.2.1-.1c1.7-1,3.9-1.1,6-1.1,3.2-.1,6.4-.2,8.4-3.2a2.016,2.016,0,0,0,1.1-.3l2.3.9v.2l2.9.3v-.1l4.9.2.6-.2a3,3,0,0,0,1-.4,22.6,22.6,0,0,1,12.1.4l6.7-.1a69.746,69.746,0,0,1,22.3,1.4v0l8.4,1c.9-.1,1.8-.2,2.6-.3a19.911,19.911,0,0,1,7.3-.1h.2c2.7-.9,4.8-1.1,6.5.6l.1.1,6.9.5h.1l.1-.1c3.1-2.1,6.7-2.3,11.5-.9l.2.1.2-.2c.5-.5,1.1-1.1,1.6-1.5,1.7-1.4,3.1-2.7,2.9-4.5-.2-1.4-1.1-2.5-5.3-3.4a2.769,2.769,0,0,1-.1-.9c.3-1.2,2.2-2,3.7-2.7,1.7-.8,3.4-1.5,4.1-2.9l9.3-1.8h.1c2.4-1.2,4.8-2.5,6.2-4.6l.2-.4-.6-4.5-.2-.2a2,2,0,0,1-.8-1,4.012,4.012,0,0,1,.3-1.5c5.2-.5,7.6-1.6,8.2-4a6.592,6.592,0,0,0-1-4.9l-.2-.3h-.3a11.074,11.074,0,0,1-3.6-.4c-2.2-.5-4.5-1-6.6.9-3.2-.5-5.9,1.3-7.9,2.6-1.2.8-2.3,1.5-2.8,1.3-3.2-1.7-6.7-1.8-10.1-1.9-3-.1-5.9-.2-8.5-1.4.4-1.3,1.7-2.4,3-3.5a10.053,10.053,0,0,0,3.2-3.6l27.7-.9h.3a26.956,26.956,0,0,1,2.8-.4c2.1-.2,4-.3,5-1.8,1.7-2.7,3.7-3.4,6.5-2.4,1.2.4,1.6,1,1.7,1.3a4.085,4.085,0,0,1-.1,1.9,16.356,16.356,0,0,0-.2,2.2v.6l.4.2c1.2.5,2.2-.3,3.1-1.1,1.3-1.1,2.3-1.9,3.5.5a9.132,9.132,0,0,0,.8,1.3,4.707,4.707,0,0,0,3.7,2.2c1.7,0,3.4-1.3,4.6-3.7,1.1-2.4,3.2-3,5.7-3.7.7-.2,1.3-.4,2-.6,3.5-1.2,6.8-.7,10-.2a30.27,30.27,0,0,0,6.7.5h.3l.2-.4c.4-.8.7-1.3,1.1-1.4.5-.1,1.1.3,1.8,1.3.2.4.4.8.6,1.3l.5,1.2.4-.3c2-1.3,3.3-1.6,4.1-.9a3.584,3.584,0,0,1,.9,2.4l.1.7,7.6.1.1-.1c1.5-1,3-2,4.5-3.1l.2-.1.1-.4c0-.2.1-.3.1-.5a13.45,13.45,0,0,0,4.8-1.5,10.288,10.288,0,0,1,5.7-1.4,11.463,11.463,0,0,0,5.1,1.4,6.363,6.363,0,0,0,3.8-1.2l6-.1,5.4.3c3.2.2,6.6.4,9.9.4,1,0,2,0,3-.1h1c3.6-.1,8-.3,8.6-4.9l.4-.4v-.3l2.8-1.1h.1l6.7-1.3,1.4.5a3,3,0,0,0,1,.4l.4.1-.1-.2a.368.368,0,0,0,.3-.1,9.15,9.15,0,0,0,1.6.1c1.7,0,2.6-.4,3.2-1.4a7.1,7.1,0,0,0,.7-3.5c-.1-5.6-4.1-7.9-8.4-10.3a10.929,10.929,0,0,0-1.5-.8v-.4a21.252,21.252,0,0,1,14.7.5c3.9,1.4,7.5,2.6,11.4,2.6a19.317,19.317,0,0,0,6.3-1,12.129,12.129,0,0,0,1.4-.5c2.7-.9,6.1-2.1,9.5-1.4,17.9,3.7,34.9,2.2,50.5-4.5.9-.1,1.8-.3,2.6-.4,4.5-.7,8.8-1.4,13.3.5a4.333,4.333,0,0,0,1.9.4,11.178,11.178,0,0,0,5-1.8l2-1.1-1.1-1.1A7.659,7.659,0,0,0,1155.1,158.4ZM651.3,246.9Z" fill="#a80e0e"/>
      <path id="Tracé_4328" d="M985.7,244.4a45.2,45.2,0,0,1-5.3.6l-1.3-.1c-17.2-1.8-35.1-3.6-52.8-3.9a4.085,4.085,0,0,0-.1-1.9c-.7-2.1-3.1-1.9-5.5-1.9h-1.3c-5.2-.1-10.5.1-15.6.3-2,.1-4,.2-6.1.2l-10-1.8-.1.1a3.774,3.774,0,0,0-2,2.6,5.681,5.681,0,0,0,1.1,3.8l.5-.5h0l-.1.9c2,.7,4,.2,5.9-.2,2-.5,3.9-1,5.9-.1h.2l1.7.8-.2-.4c1.5.3,3,.7,4.5,1,5.5,1.3,11.2,2.6,17.1,2.6a17.7,17.7,0,0,0,2.3-.1c2.8.2,5.5.5,8.3.8,10.9,1,22,2,33.2,2q7.2,0,14.4-.6h0a41.669,41.669,0,0,1,6.1.4,47.255,47.255,0,0,0,5.3.4,15.718,15.718,0,0,0,6.1-1.1l1.5-.6-1.3-1.1C994,243,989.8,243.7,985.7,244.4Z" fill="#a80e0e"/>
      <path id="Tracé_4329" d="M1163.9,102c-2.1-.8-4-1.6-6.7-.6a2.378,2.378,0,0,0-1.6,2.2,1.936,1.936,0,0,0,1,1.7,13.3,13.3,0,0,0,5.2,1.3,11.584,11.584,0,0,0,6-1.7l-.2-1.8A17.319,17.319,0,0,1,1163.9,102Z" fill="#a80e0e"/>
    </g>
    <g id="Groupe_1313" data-name="Groupe 1313">
      <path id="Tracé_4330" data-name="Tracé 4330" d="M85.7,164.5v-1.7c2.2-.4,2.5-.8,2.5-4.9V147.7c0-5.2-1.3-7.7-3.7-7.7-1.4,0-2.8,1.1-3.9,3.1V158c0,4,.2,4.5,2.4,4.9v1.7H74.6v-1.7c2.3-.4,2.6-.8,2.6-4.9V127.9c0-4-.1-4.2-2.6-4.6v-1.5a29.805,29.805,0,0,0,5.9-2.2v21.2c1.5-2.3,3.5-4.6,5.5-4.6,3.2,0,5.4,3.2,5.4,10.9v10.8c0,4.2.3,4.5,2.5,4.9v1.7Z" fill="#ffeb00"/>
      <path id="Tracé_4331" data-name="Tracé 4331" d="M110.3,158.9c-2.5,5.2-5.3,6.4-6.5,6.4-4.7,0-7.5-6.4-7.5-13.4a22.107,22.107,0,0,1,2.5-10.8c1.7-3,3.8-4.8,5.8-4.8h0c3.3,0,5.9,4.7,5.9,9.7,0,1.2-.2,1.8-.9,2a98.288,98.288,0,0,1-10,1.1c.1,8.2,3,11.6,5.6,11.6,1.6,0,3.1-1,4.5-3.2Zm-6.7-20.4c-1.7,0-3.3,2.5-3.9,7.7,2,0,4.1,0,6.2-.1.7,0,.9-.4.9-1.2.1-3.3-1.2-6.4-3.2-6.4Z" fill="#ffeb00"/>
      <path id="Tracé_4332" data-name="Tracé 4332" d="M118.7,143c1.3-3.5,2.9-6.8,4.6-6.8,1.4,0,2.3,1.7,2.3,3.2a4.284,4.284,0,0,1-1.3,3.4c-.5.3-.8.2-1-.2-.6-.9-1-1.3-1.7-1.3-1,0-2.2,1.9-3,5.2v11.3c0,4.2.2,4.5,3.2,4.9v1.7h-9.2v-1.7c2.3-.4,2.7-.8,2.7-4.9V144.7c0-4-.2-4.3-2.4-4.8v-1.4a19.142,19.142,0,0,0,5.7-2.6l.1,7.1Z" fill="#ffeb00"/>
      <path id="Tracé_4333" data-name="Tracé 4333" d="M141.4,158.9c-2.5,5.2-5.3,6.4-6.5,6.4-4.7,0-7.5-6.4-7.5-13.4a22.107,22.107,0,0,1,2.5-10.8c1.7-3,3.8-4.8,5.8-4.8h0c3.3,0,5.9,4.7,5.9,9.7,0,1.2-.2,1.8-.9,2a98.288,98.288,0,0,1-10,1.1c.1,8.2,3,11.6,5.6,11.6,1.6,0,3.1-1,4.5-3.2Zm-6.7-20.4c-1.7,0-3.3,2.5-3.9,7.7,2,0,4.1,0,6.2-.1.7,0,.9-.4.9-1.2.1-3.3-1.2-6.4-3.2-6.4Z" fill="#ffeb00"/>
      <path id="Tracé_4334" data-name="Tracé 4334" d="M171.5,138.6c-2,.5-2.4,1-3.4,4.7-1,3.2-2.2,8.5-4.9,18.8-2.6,10.1-3.4,13.7-4.1,17.3-.2,1.2-.7,1.5-1.2,1.5-1.1,0-2.3-1.6-2.3-3.2a2.9,2.9,0,0,1,1-2.3c1.3-1.3,2.1-2.7,3-5.6a23.27,23.27,0,0,0,1.1-4.1,5.744,5.744,0,0,0-.1-2.9c-1.6-7.5-3.4-15.4-4.5-19.5-.8-3.3-1.2-4.1-3.3-4.6V137h8.1l.1,1.7c-1.8.5-2,1.1-1.5,3.4l3.5,15.5c1-4,2.7-11.5,3.4-15.3.5-2.3.2-3.1-2-3.6V137h7v1.6Z" fill="#ffeb00"/>
      <path id="Tracé_4335" data-name="Tracé 4335" d="M180.8,136.2c4.9,0,8.6,6.4,8.6,14,0,10.2-4.7,15-8.6,15-5.5,0-8.7-6.9-8.7-13.9-.1-10.3,5-15.1,8.7-15.1Zm-.5,2.1c-2.2,0-4.3,3.8-4.3,10.9,0,8,2.1,13.8,5.2,13.8,2.2,0,4.2-2.5,4.2-11.4,0-7.5-1.8-13.3-5.1-13.3Z" fill="#ffeb00"/>
      <path id="Tracé_4336" data-name="Tracé 4336" d="M211,163a21.083,21.083,0,0,0-3,1c-1.1.5-2.1.9-2.9,1.3l-.3-.3v-4.5a26.923,26.923,0,0,1-2.7,3.2,4.691,4.691,0,0,1-3.1,1.6c-2.7,0-4.9-2.7-4.9-9.5V143.7c0-3.5-.3-3.8-1.3-4.2l-1-.4v-1.5c.8,0,1.8-.3,2.9-.4,1.1-.2,2.2-.5,2.9-.7-.1,1.9-.1,5-.1,9.2v8.5c0,5.3,1.6,6.9,3.3,6.9,1.3,0,2.7-.9,4-2.8V143.7c0-3.5-.3-3.8-1.6-4.2l-1.4-.4v-1.5a22.265,22.265,0,0,0,3.6-.5,12.215,12.215,0,0,0,2.7-.6v20.8c0,3.3.3,3.7,1.8,3.9l1,.1V163Z" fill="#ffeb00"/>
      <path id="Tracé_4337" data-name="Tracé 4337" d="M248.9,138.6c-1.9.5-2.3,1.3-3.1,4.6-1.2,5-2.9,13.4-4.7,22H240c-1.6-6.8-3.2-13-4.7-19.3-1.5,6.3-3,12.5-4.5,19.3h-1.2c-1.4-7.5-2.9-14.9-4.5-22.5-.7-3.2-1-3.7-2.8-4.1v-1.7h8.2v1.7c-2.3.6-2.5,1-1.9,3.8.9,4.7,1.8,9.5,2.7,14.1h.1c1.5-5.9,2.9-12.3,4.5-19.3H237c1.5,6.4,3,13,4.6,19.6h.1c.8-3.9,1.9-9.6,2.6-14.1.5-3.1.2-3.5-2.2-4.1v-1.7h7v1.7Z" fill="#ffeb00"/>
      <path id="Tracé_4338" data-name="Tracé 4338" d="M249.6,164.5v-1.7c2.4-.4,2.7-.8,2.7-5.2V144.9c0-4-.1-4.3-2.4-4.9v-1.5a22.879,22.879,0,0,0,5.8-2.4v21.6c0,4.4.3,4.7,2.7,5.2v1.7h-8.8Zm2-37.1c0-2,1-3.5,2.1-3.5s2,1.5,2,3.5c0,1.8-.9,3.4-2.1,3.4C252.6,130.8,251.6,129.2,251.6,127.4Z" fill="#ffeb00"/>
      <path id="Tracé_4339" data-name="Tracé 4339" d="M259.5,164.5v-1.7c2.4-.5,2.7-.8,2.7-5.1V128c0-4.3-.3-4.4-2.6-4.8v-1.6a26.036,26.036,0,0,0,6-2.2v38.2c0,4.3.3,4.7,2.9,5.1v1.7h-9Z" fill="#ffeb00"/>
      <path id="Tracé_4340" data-name="Tracé 4340" d="M269.5,164.5v-1.7c2.4-.5,2.7-.8,2.7-5.1V128c0-4.3-.3-4.4-2.6-4.8v-1.6a26.036,26.036,0,0,0,6-2.2v38.2c0,4.3.3,4.7,2.9,5.1v1.7h-9Z" fill="#ffeb00"/>
      <path id="Tracé_4341" data-name="Tracé 4341" d="M301.3,164.5v-1.7c2.1-.4,2.3-.8,2.3-4.7v-15c0-3-.1-3.5-2-3.5h-5.1v18.6c0,3.9.3,4.3,2.7,4.7v1.7h-8.7v-1.7c2.4-.5,2.7-.8,2.7-4.7V139.6h-2.8l-.2-.7,1.1-1.9h1.9v-1.6a24.722,24.722,0,0,1,.5-5.2,19.369,19.369,0,0,1,3.2-7.2,8.524,8.524,0,0,1,4.9-3.5,4.989,4.989,0,0,1,4.2,3.1,3.943,3.943,0,0,1,.2,2.6,3.541,3.541,0,0,1-.9,1.6c-.5.6-.9.5-1.2,0-.8-1.7-2.2-4.1-4.1-4.1-1.1,0-1.9,1.2-2.4,2.5-.6,1.6-1.1,4.9-1.1,9.6V137h3.2a22.637,22.637,0,0,0,7.3-.8v22.1c0,3.9.2,4.3,2.7,4.7v1.7h-8.4Z" fill="#ffeb00"/>
      <path id="Tracé_4342" data-name="Tracé 4342" d="M322.6,164.5v-1.7c2.2-.4,2.5-.9,2.5-5.4V147.1c0-4.4-1.1-7-3.4-7-1.5,0-2.9,1.5-4,3.1v14.6c0,4.3.2,4.6,2.4,5v1.7h-8.6v-1.7c2.6-.5,2.8-.8,2.8-5.1V145c0-4.1-.3-4.4-2.3-5v-1.6a19.71,19.71,0,0,0,5.6-2.5V141c.8-1,1.6-1.9,2.6-3,1.1-1.2,2-1.9,3.2-1.9,3.1,0,5,3.6,5,9.9v11.8c0,4.3.2,4.5,2.5,5v1.7Z" fill="#ffeb00"/>
      <path id="Tracé_4343" data-name="Tracé 4343" d="M351.9,162.8a43.924,43.924,0,0,0-6.3,2.4v-4.1l-2.3,2.2c-1.5,1.5-2.5,1.8-3,1.8-3.2,0-7.3-4.6-7.3-13.4s4.7-15.6,10.1-15.6a5.951,5.951,0,0,1,2.5.7v-8.9c0-4.1-.3-4.3-3-4.6v-1.6a24.425,24.425,0,0,0,6.3-2.2V157c0,3.5.3,3.8,1.8,4l1.1.2v1.6Zm-6.2-20.9c-.9-2.2-2.4-3.3-3.9-3.3-1.6,0-4.8,2.3-4.8,11.5,0,7.6,2.9,11,5.3,11a5.274,5.274,0,0,0,3.5-2V141.9Z" fill="#ffeb00"/>
      <path id="Tracé_4344" data-name="Tracé 4344" d="M371.8,164.3a3.27,3.27,0,0,1-1.6.9c-2.6,0-4-2.4-4-7.5V139.5h-2.6l-.2-.7,1.1-1.9h1.7v-4.6l2.8-4.4.5.2v8.8h4.3a2.436,2.436,0,0,1-.3,2.6h-4v16c0,5.1,1.3,6,2.3,6a3.585,3.585,0,0,0,2.3-1.1l.3,1.7Z" fill="#ffeb00"/>
      <path id="Tracé_4345" data-name="Tracé 4345" d="M386.4,164.5v-1.7c2.2-.4,2.5-.8,2.5-4.9V147.7c0-5.2-1.3-7.7-3.7-7.7-1.4,0-2.8,1.1-3.9,3.1V158c0,4,.2,4.5,2.4,4.9v1.7h-8.4v-1.7c2.3-.4,2.6-.8,2.6-4.9V127.9c0-4-.1-4.2-2.6-4.6v-1.5a29.806,29.806,0,0,0,5.9-2.2v21.2c1.5-2.3,3.5-4.6,5.5-4.6,3.2,0,5.4,3.2,5.4,10.9v10.8c0,4.2.3,4.5,2.5,4.9v1.7Z" fill="#ffeb00"/>
      <path id="Tracé_4346" data-name="Tracé 4346" d="M411,158.9c-2.5,5.2-5.3,6.4-6.5,6.4-4.7,0-7.5-6.4-7.5-13.4a22.107,22.107,0,0,1,2.5-10.8c1.7-3,3.8-4.8,5.8-4.8h0c3.3,0,5.9,4.7,5.9,9.7,0,1.2-.2,1.8-.9,2a98.289,98.289,0,0,1-10,1.1c.1,8.2,3,11.6,5.6,11.6,1.6,0,3.1-1,4.5-3.2Zm-6.7-20.4c-1.7,0-3.3,2.5-3.9,7.7,2,0,4.1,0,6.2-.1.7,0,.9-.4.9-1.2.1-3.3-1.2-6.4-3.2-6.4Z" fill="#ffeb00"/>
      <path id="Tracé_4347" data-name="Tracé 4347" d="M445.1,164.5v-1.7c2.2-.4,2.6-.7,2.6-5.2V147.4c0-4.8-1.1-7.3-3.3-7.3-1.2,0-2.6,1.2-4.1,3.2a20.12,20.12,0,0,1,.1,2.6V158c0,4,.4,4.4,2.5,4.8v1.7h-8.5v-1.7c2.3-.4,2.6-.7,2.6-4.8V147.3q0-7.2-3.3-7.2c-1.5,0-2.9,1.6-4,3.1v14.7c0,4.1.3,4.5,2.1,4.8v1.7h-8.3v-1.7c2.5-.4,2.9-.8,2.9-4.9V145c0-4-.1-4.4-2.3-5v-1.6a18.258,18.258,0,0,0,5.6-2.5v5.2c.8-.9,1.7-2.1,2.8-3.2a4.648,4.648,0,0,1,3.2-1.7c1.8,0,3.5,1.9,4.3,5.2a40.4,40.4,0,0,1,3.2-3.6,4.089,4.089,0,0,1,2.9-1.6c3.1,0,5,3.5,5,9.9V158c0,4.2.3,4.4,2.5,4.8v1.7h-8.5Z" fill="#ffeb00"/>
      <path id="Tracé_4348" data-name="Tracé 4348" d="M469.8,158.9c-2.5,5.2-5.3,6.4-6.5,6.4-4.7,0-7.5-6.4-7.5-13.4a22.107,22.107,0,0,1,2.5-10.8c1.7-3,3.8-4.8,5.8-4.8h0c3.3,0,5.9,4.7,5.9,9.7,0,1.2-.2,1.8-.9,2a98.289,98.289,0,0,1-10,1.1c.1,8.2,3,11.6,5.6,11.6,1.6,0,3.1-1,4.5-3.2Zm-6.7-20.4c-1.7,0-3.3,2.5-3.9,7.7,2,0,4.1,0,6.2-.1.7,0,.9-.4.9-1.2.1-3.3-1.1-6.4-3.2-6.4Z" fill="#ffeb00"/>
      <path id="Tracé_4349" data-name="Tracé 4349" d="M484.5,165.2a2.664,2.664,0,0,1-2-1.3,6.18,6.18,0,0,1-.9-2.7c-1.6,1.6-3.4,3.9-4.5,3.9-2.9,0-4.8-3.8-4.8-7.8,0-3.2,1-5.1,3.1-6.2,2.5-1.3,5.1-2.9,6-4.1v-1c0-4.5-1.2-7-3.1-7a1.818,1.818,0,0,0-1.6,1.1,14.364,14.364,0,0,0-1.2,4.3c-.2,1.1-.6,1.6-1.2,1.6-.8,0-1.8-1.3-1.8-2.8a4.151,4.151,0,0,1,1.2-2.6c1.1-1.3,3.7-3.8,5.9-4.5a4.018,4.018,0,0,1,3.2,1.6c1.4,2,1.8,4.6,1.8,8v11.4c0,2.8.7,3.8,1.4,3.8a2.334,2.334,0,0,0,1.4-.7l.4,1.7Zm-3.1-15.9c-.8.6-2.3,1.9-3.1,2.5a5.1,5.1,0,0,0-2.3,4.7c0,3.3,1.5,4.8,2.6,4.8a4.023,4.023,0,0,0,2.8-2.1Z" fill="#ffeb00"/>
      <path id="Tracé_4350" data-name="Tracé 4350" d="M488.6,164.5v-1.7c2.4-.5,2.7-.8,2.7-5.1V128c0-4.3-.3-4.4-2.6-4.8v-1.6a26.036,26.036,0,0,0,6-2.2v38.2c0,4.3.3,4.7,2.9,5.1v1.7h-9Z" fill="#ffeb00"/>
      <path id="Tracé_4351" data-name="Tracé 4351" d="M527,138.6c-2,.5-2.4,1-3.4,4.7-1,3.2-2.2,8.5-4.9,18.8-2.6,10.1-3.4,13.7-4.1,17.3-.2,1.2-.7,1.5-1.2,1.5-1.1,0-2.3-1.6-2.3-3.2a2.9,2.9,0,0,1,1-2.3c1.3-1.3,2.1-2.7,3-5.6a23.264,23.264,0,0,0,1.1-4.1,5.744,5.744,0,0,0-.1-2.9c-1.6-7.5-3.4-15.4-4.5-19.5-.8-3.3-1.2-4.1-3.3-4.6V137h8.1l.1,1.7c-1.8.5-2,1.1-1.5,3.4l3.5,15.5c1-4,2.7-11.5,3.4-15.3.5-2.3.2-3.1-2-3.6V137h7v1.6Z" fill="#ffeb00"/>
      <path id="Tracé_4352" data-name="Tracé 4352" d="M536.3,136.2c4.9,0,8.6,6.4,8.6,14,0,10.2-4.7,15-8.6,15-5.5,0-8.7-6.9-8.7-13.9,0-10.3,5-15.1,8.7-15.1Zm-.5,2.1c-2.2,0-4.3,3.8-4.3,10.9,0,8,2.1,13.8,5.2,13.8,2.2,0,4.2-2.5,4.2-11.4,0-7.5-1.8-13.3-5.1-13.3Z" fill="#ffeb00"/>
      <path id="Tracé_4353" data-name="Tracé 4353" d="M566.5,163a21.081,21.081,0,0,0-3,1c-1.1.5-2.1.9-2.9,1.3l-.3-.3v-4.5a26.922,26.922,0,0,1-2.7,3.2,4.69,4.69,0,0,1-3.1,1.6c-2.7,0-4.9-2.7-4.9-9.5V143.7c0-3.5-.3-3.8-1.3-4.2l-1-.4v-1.5c.8,0,1.8-.3,2.9-.4,1.1-.2,2.2-.5,2.9-.7-.1,1.9-.1,5-.1,9.2v8.5c0,5.3,1.6,6.9,3.3,6.9,1.3,0,2.7-.9,4-2.8V143.7c0-3.5-.3-3.8-1.6-4.2l-1.4-.4v-1.5a22.264,22.264,0,0,0,3.6-.5,12.216,12.216,0,0,0,2.7-.6v20.8c0,3.3.3,3.7,1.8,3.9l1,.1V163Z" fill="#ffeb00"/>
      <path id="Tracé_4354" data-name="Tracé 4354" d="M578,164.5v-1.7c2.4-.5,2.7-.8,2.7-5.1V128c0-4.3-.3-4.4-2.6-4.8v-1.6a26.037,26.037,0,0,0,6-2.2v38.2c0,4.3.3,4.7,2.9,5.1v1.7h-9Z" fill="#ffeb00"/>
      <path id="Tracé_4355" data-name="Tracé 4355" d="M597.5,136.2c4.9,0,8.6,6.4,8.6,14,0,10.2-4.7,15-8.6,15-5.5,0-8.7-6.9-8.7-13.9-.1-10.3,5-15.1,8.7-15.1Zm-.5,2.1c-2.2,0-4.3,3.8-4.3,10.9,0,8,2.1,13.8,5.2,13.8,2.2,0,4.2-2.5,4.2-11.4,0-7.5-1.8-13.3-5.1-13.3Z" fill="#ffeb00"/>
      <path id="Tracé_4356" data-name="Tracé 4356" d="M617.5,136.2c4.9,0,8.6,6.4,8.6,14,0,10.2-4.7,15-8.6,15-5.5,0-8.7-6.9-8.7-13.9-.1-10.3,5-15.1,8.7-15.1Zm-.5,2.1c-2.2,0-4.3,3.8-4.3,10.9,0,8,2.1,13.8,5.2,13.8,2.2,0,4.2-2.5,4.2-11.4,0-7.5-1.8-13.3-5.1-13.3Z" fill="#ffeb00"/>
      <path id="Tracé_4357" data-name="Tracé 4357" d="M641.9,164.6c-1.8-3.2-4.2-8.4-6.2-12.5-.5-1-.8-1.3-1.1-1.3a1.486,1.486,0,0,0-.6.1v6.9c0,4.2.3,4.5,2.8,5v1.7h-8.9v-1.7c2.6-.5,2.8-.9,2.8-5V128c0-4.1-.2-4.5-2.6-4.8v-1.5a23.6,23.6,0,0,0,5.9-2.2v29.8a5.134,5.134,0,0,0,2.4-2.2,39.956,39.956,0,0,0,2.6-5.5c.8-1.9.6-2.4-1.1-2.8v-1.7l8.1-.6v1.6a7.181,7.181,0,0,0-5.1,3.7,59.678,59.678,0,0,0-3.2,5.8c.8,1.9,4.8,9.5,6,11.7,1.3,2.3,2.4,3.3,3.8,3.5v1.7Z" fill="#ffeb00"/>
      <path id="Tracé_4358" data-name="Tracé 4358" d="M648,164.5v-1.7c2.4-.4,2.7-.8,2.7-5.2V144.9c0-4-.1-4.3-2.4-4.9v-1.5a22.879,22.879,0,0,0,5.8-2.4v21.6c0,4.4.3,4.7,2.7,5.2v1.7H648Zm2-37.1c0-2,1-3.5,2.1-3.5s2,1.5,2,3.5c0,1.8-.9,3.4-2.1,3.4C651,130.8,650,129.2,650,127.4Z" fill="#ffeb00"/>
      <path id="Tracé_4359" data-name="Tracé 4359" d="M669.6,164.5v-1.7c2.2-.4,2.5-.9,2.5-5.4V147.1c0-4.4-1.1-7-3.4-7-1.5,0-2.9,1.5-4,3.1v14.6c0,4.3.2,4.6,2.4,5v1.7h-8.6v-1.7c2.6-.5,2.8-.8,2.8-5.1V145c0-4.1-.3-4.4-2.3-5v-1.6a19.709,19.709,0,0,0,5.6-2.5V141c.8-1,1.6-1.9,2.6-3,1.1-1.2,2-1.9,3.2-1.9,3.1,0,5,3.6,5,9.9v11.8c0,4.3.2,4.5,2.5,5v1.7Z" fill="#ffeb00"/>
      <path id="Tracé_4360" data-name="Tracé 4360" d="M697.1,137.4a8.822,8.822,0,0,1-1.7,3.2l-2.2-.2a13.714,13.714,0,0,1,1.1,5.5c0,6.7-3.5,10.1-6.9,10.1a12,12,0,0,1-2-.3,4.286,4.286,0,0,0-1,2.4,2.326,2.326,0,0,0,2.4,2.5c1.3,0,2.7-.1,4-.1,2.3,0,5.6,1.2,5.6,7.6,0,6.6-4.6,12.7-9.8,12.7-4.4,0-6.7-4.2-6.8-7.7a6.4,6.4,0,0,1,1-3.6c.9-1.3,2.2-3,3.1-4.2a6.256,6.256,0,0,1-2.9-3.5,5.773,5.773,0,0,1-.4-2.8,9.974,9.974,0,0,0,3.4-3.8c-1.8-1.3-3.4-4.3-3.4-8.5,0-7.3,4-10.5,7-10.5h.1a5.819,5.819,0,0,1,3.7,1.6,50.366,50.366,0,0,0,5.4-.9Zm-9.1,28c-1.8,0-2.6.4-3.3,1.3a8.559,8.559,0,0,0-1.6,4.7c0,3.3,2.1,6.1,5.1,6.1,3.5,0,5.4-3,5.4-6.9,0-2.2-.7-3.8-1.8-4.5a8.057,8.057,0,0,0-3.8-.7Zm-.7-27.3c-1.6,0-3.1,2.5-3.1,7.5,0,4.9,1.4,8.4,3.5,8.4,1.7,0,3.1-2.5,3.1-7.5,0-4.8-1.3-8.4-3.5-8.4Z" fill="#ffeb00"/>
      <path id="Tracé_4361" data-name="Tracé 4361" d="M711.3,136.9v-1.4a35.2,35.2,0,0,1,.4-5.1,17.815,17.815,0,0,1,3.1-7.4c1.3-2,2.7-3.1,4.3-3.4a3.611,3.611,0,0,1,3.1,2.2,3.3,3.3,0,0,1,.2,2.4,5.484,5.484,0,0,1-.8,1.5c-.4.5-.8.5-1.1-.1-.8-1.3-1.9-2.5-3.2-2.5-1,0-1.6.8-2,1.9s-.8,4.1-.8,9.4V137h4.6a3.327,3.327,0,0,1-.4,2.6h-4.1v17.9c0,4.7.3,4.9,3.3,5.4v1.6h-9.4v-1.7c2.4-.4,2.7-.8,2.7-4.9V139.6h-2.7l-.2-.7,1.1-1.9h1.9Z" fill="#ffeb00"/>
      <path id="Tracé_4362" data-name="Tracé 4362" d="M729.3,136.2c4.9,0,8.6,6.4,8.6,14,0,10.2-4.7,15-8.6,15-5.5,0-8.7-6.9-8.7-13.9-.1-10.3,5-15.1,8.7-15.1Zm-.5,2.1c-2.2,0-4.3,3.8-4.3,10.9,0,8,2.1,13.8,5.2,13.8,2.2,0,4.2-2.5,4.2-11.4,0-7.5-1.8-13.3-5.1-13.3Z" fill="#ffeb00"/>
      <path id="Tracé_4363" data-name="Tracé 4363" d="M746.5,143c1.3-3.5,2.9-6.8,4.6-6.8,1.4,0,2.3,1.7,2.3,3.2a4.284,4.284,0,0,1-1.3,3.4c-.5.3-.8.2-1-.2-.6-.9-1-1.3-1.7-1.3-1,0-2.2,1.9-3,5.2v11.3c0,4.2.2,4.5,3.2,4.9v1.7h-9.2v-1.7c2.3-.4,2.7-.8,2.7-4.9V144.7c0-4-.2-4.3-2.4-4.8v-1.4a19.142,19.142,0,0,0,5.7-2.6l.1,7.1Z" fill="#ffeb00"/>
    </g>
  </g>
</svg>
